<?xml version="1.0" encoding="UTF-8" standalone="no"?>
<!-- Created with Inkscape (http://www.inkscape.org/) -->

<svg
   xmlns:dc="http://purl.org/dc/elements/1.1/"
   xmlns:cc="http://creativecommons.org/ns#"
   xmlns:rdf="http://www.w3.org/1999/02/22-rdf-syntax-ns#"
   xmlns:svg="http://www.w3.org/2000/svg"
   xmlns="http://www.w3.org/2000/svg"
   xmlns:sodipodi="http://sodipodi.sourceforge.net/DTD/sodipodi-0.dtd"
   xmlns:inkscape="http://www.inkscape.org/namespaces/inkscape"
   width="490.66666"
   height="245.33333"
   id="svg2"
   version="1.1"
   inkscape:version="0.92.3 (2405546, 2018-03-11)"
   sodipodi:docname="image8.svg"
   viewBox="0 0 460 230">
  <defs
     id="defs4" />
  <sodipodi:namedview
     id="base"
     pagecolor="#ffffff"
     bordercolor="#666666"
     borderopacity="1.0"
     inkscape:pageopacity="0.0"
     inkscape:pageshadow="2"
     inkscape:zoom="0.98994949"
     inkscape:cx="53.266411"
     inkscape:cy="-22.413652"
     inkscape:document-units="px"
     inkscape:current-layer="layer1"
     showgrid="false"
     inkscape:window-width="1920"
     inkscape:window-height="1017"
     inkscape:window-x="-8"
     inkscape:window-y="-8"
     inkscape:window-maximized="1" />
  <metadata
     id="metadata7">
    <rdf:RDF>
      <cc:Work
         rdf:about="">
        <dc:format>image/svg+xml</dc:format>
        <dc:type
           rdf:resource="http://purl.org/dc/dcmitype/StillImage" />
        <dc:title></dc:title>
      </cc:Work>
    </rdf:RDF>
  </metadata>
  <g
     inkscape:label="Layer 1"
     inkscape:groupmode="layer"
     id="layer1"
     transform="translate(0,-822.36218)">
    <text
       xml:space="preserve"
       x="101.88681"
       y="853.57184"
       style="font-style:normal;font-weight:normal;font-size:13.79743195px;line-height:0%;font-family:Calibri;text-align:start;text-anchor:start;fill:#000000"
       id="text3842"> </text>
    <path
       inkscape:connector-curvature="0"
       style="fill:#000000;fill-opacity:1;fill-rule:nonzero;stroke:#000000;stroke-width:0.14997208px;stroke-linecap:butt;stroke-linejoin:bevel;stroke-dasharray:none;stroke-opacity:1"
       d="m 103.06784,1007.685 54.29927,0.066 v 2.503 l -54.29927,-0.066 z m 47.43804,-4.1434 9.34514,5.4558 -9.35451,5.4465 c -0.59989,0.3469 -1.36849,0.15 -1.71531,-0.45 -0.34681,-0.5999 -0.14059,-1.3592 0.45929,-1.7061 l 7.49861,-4.3684 v 2.1561 l -7.49861,-4.3778 c -0.59051,-0.3468 -0.79672,-1.1155 -0.44054,-1.7155 0.34681,-0.5906 1.10605,-0.7968 1.70593,-0.4406 z"
       id="path3844" />
    <path
       inkscape:connector-curvature="0"
       style="fill:#000000;fill-opacity:1;fill-rule:nonzero;stroke:#000000;stroke-width:0.14997208px;stroke-linecap:butt;stroke-linejoin:bevel;stroke-dasharray:none;stroke-opacity:1"
       d="m 103.06784,985.88047 53.73687,0.0563 v 2.50293 l -53.73687,-0.0656 z m 46.87565,-4.15281 9.34513,5.46521 -9.3545,5.44646 c -0.59989,0.34685 -1.3685,0.14061 -1.71531,-0.45934 -0.34681,-0.59058 -0.1406,-1.35927 0.45929,-1.70612 l 7.4986,-4.36842 v 2.16546 l -7.4986,-4.38716 c -0.59052,-0.34685 -0.79673,-1.11554 -0.44054,-1.70612 0.34681,-0.59996 1.10604,-0.79682 1.70593,-0.44997 z"
       id="path3846" />
    <path
       inkscape:connector-curvature="0"
       style="fill:none;stroke:#000000;stroke-width:1.25;stroke-linecap:round;stroke-linejoin:round;stroke-miterlimit:4;stroke-dasharray:none;stroke-opacity:1"
       d="m 103.06784,965.25705 74.98604,0.12186"
       id="path3848" />
    <path
       inkscape:connector-curvature="0"
       style="fill:none;stroke:#000000;stroke-width:1.25;stroke-linecap:round;stroke-linejoin:round;stroke-miterlimit:4;stroke-dasharray:none;stroke-opacity:1"
       d="M 178.05388,965.25705 380.89112,931.00342"
       id="path3850" />
    <path
       inkscape:connector-curvature="0"
       style="fill:none;stroke:#000000;stroke-width:1.25;stroke-linecap:round;stroke-linejoin:round;stroke-miterlimit:4;stroke-dasharray:none;stroke-opacity:1"
       d="m 103.06784,943.44309 69.92448,0.0656"
       id="path3852" />
    <path
       inkscape:connector-curvature="0"
       style="fill:none;stroke:#000000;stroke-width:1.25;stroke-linecap:round;stroke-linejoin:round;stroke-miterlimit:4;stroke-dasharray:none;stroke-opacity:1"
       d="m 172.99232,943.44309 207.8988,-10.99603"
       id="path3854" />
    <path
       inkscape:connector-curvature="0"
       style="fill:none;stroke:#000000;stroke-width:1.25;stroke-linecap:round;stroke-linejoin:round;stroke-miterlimit:4;stroke-dasharray:none;stroke-opacity:1"
       d="m 103.06784,922.25721 69.92448,0.12187"
       id="path3856" />
    <path
       inkscape:connector-curvature="0"
       style="fill:none;stroke:#000000;stroke-width:1.25;stroke-linecap:round;stroke-linejoin:round;stroke-miterlimit:4;stroke-dasharray:none;stroke-opacity:1"
       d="M 172.99232,922.25721 380.89112,933.197"
       id="path3858" />
    <path
       inkscape:connector-curvature="0"
       style="fill:none;stroke:#000000;stroke-width:1.25;stroke-linecap:round;stroke-linejoin:round;stroke-miterlimit:4;stroke-dasharray:none;stroke-opacity:1"
       d="m 103.06784,900.44326 74.98604,0.0656"
       id="path3860" />
    <path
       inkscape:connector-curvature="0"
       style="fill:none;stroke:#000000;stroke-width:1.25;stroke-linecap:round;stroke-linejoin:round;stroke-miterlimit:4;stroke-dasharray:none;stroke-opacity:1"
       d="m 178.05388,900.44326 202.83724,34.37549"
       id="path3862" />
    <path
       inkscape:connector-curvature="0"
       style="fill:#000000;fill-opacity:1;fill-rule:nonzero;stroke:#000000;stroke-width:0.14997208px;stroke-linecap:butt;stroke-linejoin:bevel;stroke-dasharray:none;stroke-opacity:1"
       d="m 103.06784,877.32627 50.68119,0.0562 -0.009,2.50294 -50.67182,-0.0656 z m 43.81059,-4.1528 9.34514,5.4652 -9.35451,5.43709 c -0.59989,0.34685 -1.35912,0.14999 -1.70593,-0.44997 -0.34681,-0.59058 -0.14997,-1.35927 0.44991,-1.70612 l 7.49861,-4.36841 v 2.16546 l -7.48923,-4.38717 c -0.59989,-0.34685 -0.79673,-1.11554 -0.44992,-1.70612 0.34681,-0.59995 1.11542,-0.79681 1.70593,-0.44996 z"
       id="path3864" />
    <path
       inkscape:connector-curvature="0"
       style="fill:#000000;fill-opacity:1;fill-rule:nonzero;stroke:#000000;stroke-width:0.14997208px;stroke-linecap:butt;stroke-linejoin:bevel;stroke-dasharray:none;stroke-opacity:1"
       d="m 103.06784,855.4467 52.49023,0.0656 v 2.49356 l -52.49023,-0.0563 z m 45.62901,-4.15281 9.33576,5.46521 -9.35451,5.44646 c -0.59052,0.34685 -1.35912,0.14998 -1.70593,-0.44997 -0.34681,-0.59995 -0.1406,-1.35927 0.44991,-1.70612 l 7.50798,-4.36841 -0.009,2.15608 -7.48923,-4.37779 c -0.59989,-0.34685 -0.79673,-1.11554 -0.44992,-1.71549 0.34681,-0.59058 1.11542,-0.79682 1.71531,-0.44997 z"
       id="path3866" />
    <path
       inkscape:connector-curvature="0"
       style="fill:none;stroke:#000000;stroke-width:3.74930215px;stroke-linecap:butt;stroke-linejoin:round;stroke-dasharray:none;stroke-opacity:1"
       d="m 236.55237,848.76283 c -40.50184,7.84628 -69.7464,43.30919 -69.7464,84.57478 0,41.56558 29.67573,77.21599 70.54312,84.72479"
       id="path3868" />
    <path
       inkscape:connector-curvature="0"
       style="fill:none;stroke:#000000;stroke-width:1.87465107px;stroke-linecap:butt;stroke-linejoin:round;stroke-dasharray:none;stroke-opacity:1"
       d="m 156.7391,841.45089 v 53.49904"
       id="path3870" />
    <path
       inkscape:connector-curvature="0"
       style="fill:none;stroke:#000000;stroke-width:1.87465107px;stroke-linecap:butt;stroke-linejoin:round;stroke-dasharray:none;stroke-opacity:1"
       d="m 158.61375,971.44407 v 53.43343"
       id="path3872" />
  </g>
</svg>
