<?xml version="1.0" encoding="UTF-8" standalone="no"?>
<!-- Created with Inkscape (http://www.inkscape.org/) -->

<svg
   xmlns:dc="http://purl.org/dc/elements/1.1/"
   xmlns:cc="http://creativecommons.org/ns#"
   xmlns:rdf="http://www.w3.org/1999/02/22-rdf-syntax-ns#"
   xmlns:svg="http://www.w3.org/2000/svg"
   xmlns="http://www.w3.org/2000/svg"
   xmlns:xlink="http://www.w3.org/1999/xlink"
   xmlns:sodipodi="http://sodipodi.sourceforge.net/DTD/sodipodi-0.dtd"
   xmlns:inkscape="http://www.inkscape.org/namespaces/inkscape"
   width="448"
   height="213.33333"
   id="svg2"
   version="1.1"
   inkscape:version="0.48.5 r10040"
   sodipodi:docname="varifocals.svg"
   viewBox="0 0 420 200">
  <defs
     id="defs4">
    <linearGradient
       id="linearGradient3791">
      <stop
         style="stop-color:#004498;stop-opacity:1;"
         offset="0"
         id="stop3793" />
      <stop
         id="stop3799"
         offset="0.61172748"
         style="stop-color:#1e5daa;stop-opacity:1;" />
      <stop
         style="stop-color:#69acff;stop-opacity:1;"
         offset="1"
         id="stop3795" />
    </linearGradient>
    <marker
       inkscape:stockid="Arrow2Mend"
       orient="auto"
       refY="0"
       refX="0"
       id="Arrow2Mend"
       style="overflow:visible">
      <path
         id="path3943"
         style="fill-rule:evenodd;stroke-width:0.625;stroke-linejoin:round"
         d="M 8.7185878,4.0337352 -2.2072895,0.01601326 8.7185884,-4.0017078 c -1.7454984,2.3720609 -1.7354408,5.6174519 -6e-7,8.035443 z"
         transform="scale(-0.6)"
         inkscape:connector-curvature="0" />
    </marker>
    <clipPath
       id="clipEmfPath1"
       clipPathUnits="userSpaceOnUse">
      <rect
         id="rect2990"
         height="256.25195"
         width="489.25986"
         y="0"
         x="0" />
    </clipPath>
    <clipPath
       id="clipEmfPath2"
       clipPathUnits="userSpaceOnUse">
      <rect
         id="rect2993"
         height="19.053864"
         width="106.79124"
         y="22.804623"
         x="338.8222" />
    </clipPath>
    <clipPath
       id="clipEmfPath3"
       clipPathUnits="userSpaceOnUse">
      <rect
         id="rect2996"
         height="19.053864"
         width="106.79124"
         y="197.13997"
         x="91.342506" />
    </clipPath>
    <clipPath
       id="clipEmfPath4"
       clipPathUnits="userSpaceOnUse">
      <rect
         id="rect2999"
         height="19.053864"
         width="123.73985"
         y="114.62324"
         x="274.17749" />
    </clipPath>
    <clipPath
       id="clipEmfPath5"
       clipPathUnits="userSpaceOnUse">
      <rect
         id="rect3002"
         height="19.203894"
         width="123.58986"
         y="115.52342"
         x="115.7905" />
    </clipPath>
    <clipPath
       id="clipEmfPath6"
       clipPathUnits="userSpaceOnUse">
      <rect
         id="rect3005"
         height="48.159763"
         width="122.68993"
         y="184.08733"
         x="319.1738" />
    </clipPath>
    <linearGradient
       inkscape:collect="always"
       xlink:href="#linearGradient3791"
       id="linearGradient3797"
       x1="199.37895"
       y1="859.31055"
       x2="200.43533"
       y2="1028.8268"
       gradientUnits="userSpaceOnUse" />
  </defs>
  <sodipodi:namedview
     id="base"
     pagecolor="#ffffff"
     bordercolor="#666666"
     borderopacity="1.0"
     inkscape:pageopacity="0.0"
     inkscape:pageshadow="2"
     inkscape:zoom="1.4"
     inkscape:cx="416.26188"
     inkscape:cy="238.58313"
     inkscape:document-units="px"
     inkscape:current-layer="layer1"
     showgrid="false"
     inkscape:window-width="1920"
     inkscape:window-height="1018"
     inkscape:window-x="-8"
     inkscape:window-y="-8"
     inkscape:window-maximized="1" />
  <metadata
     id="metadata7">
    <rdf:RDF>
      <cc:Work
         rdf:about="">
        <dc:format>image/svg+xml</dc:format>
        <dc:type
           rdf:resource="http://purl.org/dc/dcmitype/StillImage" />
        <dc:title />
      </cc:Work>
    </rdf:RDF>
  </metadata>
  <g
     inkscape:label="Layer 1"
     inkscape:groupmode="layer"
     id="layer1"
     transform="translate(0,-852.36218)">
    <text
       xml:space="preserve"
       x="502.29773"
       y="1031.4048"
       style="font-style:normal;font-weight:normal;font-size:13.79886818px;font-family:Cambria;text-align:start;text-anchor:start;fill:#000000"
       id="text3009" />
    <path
       inkscape:connector-curvature="0"
       style="fill:#ffffff;fill-opacity:1;fill-rule:evenodd;stroke:none"
       d="m 198.48663,856.85883 c -47.88357,0 -86.71164,38.82037 -86.71164,86.73633 0,47.89721 38.82807,86.73634 86.71164,86.73634 47.90232,0 86.71163,-38.83913 86.71163,-86.73634 0,-47.91596 -38.80931,-86.73633 -86.71163,-86.73633"
       id="path3013" />
    <path
       inkscape:connector-curvature="0"
       style="fill:url(#linearGradient3797);stroke:#000000;stroke-width:0.93742311000000000px;stroke-linecap:round;stroke-linejoin:round;stroke-dasharray:none;stroke-opacity:1;fill-opacity:1"
       d="m 198.48663,856.85883 c -47.88357,0 -86.71164,38.82037 -86.71164,86.73633 0,47.89721 38.82807,86.73634 86.71164,86.73634 47.90232,0 86.71163,-38.83913 86.71163,-86.73634 0,-47.91596 -38.80931,-86.73633 -86.71163,-86.73633"
       id="path3015" />
    <path
       inkscape:connector-curvature="0"
       style="fill:none;stroke:#000000;stroke-width:0.93742311px;stroke-linecap:round;stroke-linejoin:round;stroke-dasharray:none;stroke-opacity:1"
       d="m 284.21068,934.49957 c 0,0 -26.81013,-0.0323 -39.80298,2.81307 -6.92247,1.51597 -15.19976,2.1911 -19.89212,7.50152 -4.68438,5.30139 -5.48714,13.5724 -4.98709,20.62918 0.47555,6.7111 3.08965,13.64024 7.46189,18.7538 4.38494,5.12841 12.21668,6.01559 17.41732,10.3146 4.50171,3.72126 9.18674,10.37086 11.6053,13.12766"
       id="path3019"
       sodipodi:nodetypes="casaaac" />
    <text
       xml:space="preserve"
       x="293.23798"
       y="882.60547"
       style="font-style:normal;font-weight:normal;font-size:13.79886818px;line-height:0%;font-family:Cambria;text-align:start;text-anchor:start;fill:#000000"
       id="text3023">distance area</text>
    <text
       xml:space="preserve"
       x="379.80301"
       y="875.46259"
       style="font-style:normal;font-weight:normal;font-size:13.79886818px;font-family:Cambria;text-align:start;text-anchor:start;fill:#000000"
       id="text3025" />
    <path
       inkscape:connector-curvature="0"
       style="fill:#000000;fill-opacity:1;fill-rule:nonzero;stroke:#000000;stroke-width:0.1499877px;stroke-linecap:butt;stroke-linejoin:bevel;stroke-dasharray:none;stroke-opacity:1"
       clip-path="url(#clipEmfPath2)"
       d="m 336.14117,33.775598 -91.43625,37.48885 c -0.31872,0.131277 -0.67494,-0.01875 -0.80618,-0.337568 -0.13124,-0.318815 0.0187,-0.693891 0.33747,-0.825167 l 91.43625,-37.488851 c 0.31872,-0.131277 0.67494,0.01875 0.80618,0.337568 0.13124,0.318815 -0.0188,0.693891 -0.33747,0.825168 z m -78.94977,39.045416 -13.91136,-1.650335 8.75553,-10.933466 c 0.20623,-0.262554 0.59995,-0.300061 0.86243,-0.09377 0.28123,0.225045 0.31872,0.618875 0.11249,0.881428 l -8.04309,10.052038 -0.41247,-1.012705 12.76771,1.519058 c 0.35622,0.03751 0.59995,0.356322 0.56245,0.693891 -0.0562,0.337568 -0.35622,0.581368 -0.69369,0.543861 z"
       id="path3027"
       transform="translate(11.987943,787.60533)" />
    <text
       xml:space="preserve"
       x="71.472557"
       y="1044.0836"
       style="font-style:normal;font-weight:normal;font-size:13.79886818px;line-height:0%;font-family:Cambria;text-align:start;text-anchor:start;fill:#000000"
       id="text3031">near area</text>
    <text
       xml:space="preserve"
       x="109.97514"
       y="1049.7979"
       style="font-style:normal;font-weight:normal;font-size:13.79886818px;font-family:Cambria;text-align:start;text-anchor:start;fill:#000000"
       id="text3033" />
    <text
       xml:space="preserve"
       x="326.55737"
       y="967.28119"
       style="font-style:normal;font-weight:normal;font-size:13.79886818px;font-family:Cambria;text-align:start;text-anchor:start;fill:#000000"
       id="text3039" />
    <text
       xml:space="preserve"
       x="168.17038"
       y="968.1814"
       style="font-style:normal;font-weight:normal;font-size:13.79886818px;font-family:Cambria;text-align:start;text-anchor:start;fill:#000000"
       id="text3043" />
    <path
       inkscape:connector-curvature="0"
       style="fill:#ffffff;fill-opacity:1;fill-rule:evenodd;stroke:none"
       clip-path="url(#clipEmfPath5)"
       d="m 319.09882,179.47389 v 57.19909 h 122.80242 v -57.19909 z"
       id="path3045"
       transform="translate(11.987943,787.60533)" />
    <text
       xml:space="preserve"
       x="295.01816"
       y="1013.8882"
       style="font-style:normal;font-weight:normal;font-size:13.79886818px;line-height:0%;font-family:Cambria;text-align:start;text-anchor:start;fill:#000000"
       id="text3047">progression </text>
    <text
       xml:space="preserve"
       x="302.16101"
       y="1029.0771"
       style="font-style:normal;font-weight:normal;font-size:13.79886818px;line-height:0%;font-family:Cambria;text-align:start;text-anchor:start;fill:#000000"
       id="text3049">corridor</text>
    <text
       xml:space="preserve"
       x="331.35699"
       y="1052.6484"
       style="font-style:normal;font-weight:normal;font-size:13.79886818px;font-family:Cambria;text-align:start;text-anchor:start;fill:#000000"
       id="text3051" />
    <path
       inkscape:connector-curvature="0"
       style="fill:none;stroke:#000000;stroke-width:0.93742311px;stroke-linecap:round;stroke-linejoin:round;stroke-dasharray:none;stroke-opacity:1"
       d="m 113.59414,934.50656 c 0,0 26.81013,-0.0323 39.80298,2.81307 6.92247,1.51597 15.19976,2.1911 19.89212,7.50152 4.68438,5.30139 5.48714,13.5724 4.98709,20.62918 -0.47555,6.7111 -3.08965,13.64024 -7.46189,18.7538 -4.38494,5.12841 -12.21668,6.01559 -17.41732,10.3146 -4.50171,3.72126 -9.18674,10.37087 -11.6053,13.12767"
       id="path3019-1"
       sodipodi:nodetypes="casaaac" />
    <path
       style="fill:none;stroke:#000000;stroke-width:1px;stroke-linecap:butt;stroke-linejoin:miter;stroke-opacity:1;marker-end:url(#Arrow2Mend)"
       d="m 138.42857,1037.9336 c 60,-38.57142 60,-38.57142 60,-38.57142"
       id="path3140"
       inkscape:connector-curvature="0" />
    <path
       style="fill:none;stroke:#000000;stroke-width:1px;stroke-linecap:butt;stroke-linejoin:miter;stroke-opacity:1;marker-end:url(#Arrow2Mend)"
       d="M 285.57143,877.93361 C 197,918.6479 197,918.6479 197,918.6479"
       id="path4356"
       inkscape:connector-curvature="0" />
    <g
       id="g3825"
       style="fill:#b4f6cc;fill-opacity:1"
       transform="translate(-363.67044,192.97682)">
      <path
         sodipodi:nodetypes="csc"
         inkscape:connector-curvature="0"
         style="fill:#b4f6cc;fill-opacity:1;stroke:#000000;stroke-width:0.93742311px;stroke-linecap:round;stroke-linejoin:round;stroke-opacity:1;stroke-dasharray:none"
         d="m 477.00307,741.81885 c -0.4134,3.43502 -0.62614,6.93193 -0.62614,10.47867 0,25.45152 10.96359,48.34537 28.42365,64.21318"
         id="path3801" />
      <path
         inkscape:connector-curvature="0"
         style="fill:#b4f6cc;fill-opacity:1;stroke:#000000;stroke-width:0.93742311px;stroke-linecap:round;stroke-linejoin:round;stroke-opacity:1;stroke-dasharray:none"
         d="m 477.24907,742.2619 c 0,0 26.81013,-0.0323 39.80298,2.81307 6.92247,1.51597 15.19976,2.1911 19.89212,7.50152 4.68438,5.30139 5.48714,13.5724 4.98709,20.62918 -0.47555,6.7111 -3.08965,13.64024 -7.46189,18.7538 -4.38494,5.12841 -12.10021,6.16049 -17.41732,10.3146 -5.34021,4.17215 -11.86531,11.71016 -14.28387,14.46696"
         id="path3805"
         sodipodi:nodetypes="casaaac" />
    </g>
    <text
       xml:space="preserve"
       x="71.201546"
       y="971.02246"
       style="font-size:13.79886818px;font-style:normal;font-weight:normal;text-align:start;line-height:0%;text-anchor:start;fill:#000000;font-family:Cambria"
       id="text3041"
       sodipodi:linespacing="0%">astigmatic area</text>
    <g
       id="g3835"
       style="fill:#b4f6cc;fill-opacity:1"
       transform="translate(-465.93751,139.28572)">
      <path
         sodipodi:nodetypes="csc"
         inkscape:connector-curvature="0"
         style="fill:#b4f6cc;fill-opacity:1;stroke:#000000;stroke-width:0.93742311px;stroke-linecap:round;stroke-linejoin:round;stroke-opacity:1;stroke-dasharray:none"
         d="m 720.41901,870.08372 c 18.48106,-15.90757 30.18105,-39.47554 30.18105,-65.77428 0,-3.32744 -0.18715,-6.61102 -0.55151,-9.84079"
         id="path3829" />
      <path
         inkscape:connector-curvature="0"
         style="fill:#b4f6cc;fill-opacity:1;stroke:#000000;stroke-width:0.93742311px;stroke-linecap:round;stroke-linejoin:round;stroke-opacity:1;stroke-dasharray:none"
         d="m 749.61248,795.21385 c 0,0 -26.81013,-0.0323 -39.80298,2.81307 -6.92247,1.51597 -15.19976,2.1911 -19.89212,7.50152 -4.68438,5.30139 -5.48714,13.5724 -4.98709,20.62918 0.47555,6.7111 3.08965,13.64024 7.46189,18.7538 4.38494,5.12841 12.21668,6.01559 17.41732,10.3146 4.50171,3.72126 9.18674,10.37086 11.6053,13.12766"
         id="path3831"
         sodipodi:nodetypes="casaaac" />
    </g>
    <text
       xml:space="preserve"
       x="237.1647"
       y="967.28119"
       style="font-style:normal;font-weight:normal;font-size:13.79886818px;line-height:0%;font-family:Cambria;text-align:start;text-anchor:start;fill:#000000"
       id="text3037">astigmatic area</text>
    <path
       style="fill:none;stroke:#000000;stroke-width:1px;stroke-linecap:butt;stroke-linejoin:miter;stroke-opacity:1;marker-end:url(#Arrow2Mend)"
       d="M 291.28571,1017.2193 C 199.14286,958.6479 199.14286,958.6479 199.14286,958.6479"
       id="path3142"
       inkscape:connector-curvature="0" />
  </g>
</svg>
