<?xml version="1.0" encoding="UTF-8" standalone="no"?>
<!-- Created with Inkscape (http://www.inkscape.org/) -->

<svg
   xmlns:dc="http://purl.org/dc/elements/1.1/"
   xmlns:cc="http://creativecommons.org/ns#"
   xmlns:rdf="http://www.w3.org/1999/02/22-rdf-syntax-ns#"
   xmlns:svg="http://www.w3.org/2000/svg"
   xmlns="http://www.w3.org/2000/svg"
   xmlns:sodipodi="http://sodipodi.sourceforge.net/DTD/sodipodi-0.dtd"
   xmlns:inkscape="http://www.inkscape.org/namespaces/inkscape"
   width="490.66666"
   height="320"
   id="svg2"
   version="1.1"
   inkscape:version="0.92.2 (5c3e80d, 2017-08-06)"
   sodipodi:docname="figure1.svg"
   viewBox="0 0 460 300">
  <defs
     id="defs4">
    <marker
       inkscape:stockid="Arrow2Mend"
       orient="auto"
       refY="0"
       refX="0"
       id="Arrow2Mend"
       style="overflow:visible">
      <path
         id="path3830"
         style="fill-rule:evenodd;stroke-width:0.625;stroke-linejoin:round"
         d="M 8.7185878,4.0337352 -2.2072895,0.01601326 8.7185884,-4.0017078 c -1.7454984,2.3720609 -1.7354408,5.6174519 -6e-7,8.035443 z"
         transform="scale(-0.6)"
         inkscape:connector-curvature="0" />
    </marker>
  </defs>
  <sodipodi:namedview
     id="base"
     pagecolor="#ffffff"
     bordercolor="#666666"
     borderopacity="1.0"
     inkscape:pageopacity="0.0"
     inkscape:pageshadow="2"
     inkscape:zoom="1.7826087"
     inkscape:cx="322.56098"
     inkscape:cy="150"
     inkscape:document-units="px"
     inkscape:current-layer="layer1"
     showgrid="false"
     inkscape:window-width="1097"
     inkscape:window-height="668"
     inkscape:window-x="-8"
     inkscape:window-y="-8"
     inkscape:window-maximized="1" />
  <metadata
     id="metadata7">
    <rdf:RDF>
      <cc:Work
         rdf:about="">
        <dc:format>image/svg+xml</dc:format>
        <dc:type
           rdf:resource="http://purl.org/dc/dcmitype/StillImage" />
        <dc:title></dc:title>
      </cc:Work>
    </rdf:RDF>
  </metadata>
  <g
     inkscape:label="Layer 1"
     inkscape:groupmode="layer"
     id="layer1"
     transform="translate(0,-752.36218)">
    <g
       id="g3785"
       transform="matrix(0.58765632,0,0,0.58765632,-5.812525,304.86446)">
      <path
         style="fill:none;stroke:#b1b1b1;stroke-width:1px;stroke-linecap:butt;stroke-linejoin:miter;stroke-opacity:1"
         d="m 116.20387,863.64864 50.346,29.98133 -14.70782,-129.54196 z"
         id="path2989"
         inkscape:connector-curvature="0" />
      <path
         inkscape:connector-curvature="0"
         id="path2991"
         d="M 53.276364,816.6537 151.70563,764.04495"
         style="fill:none;stroke:#000000;stroke-width:1px;stroke-linecap:butt;stroke-linejoin:miter;stroke-opacity:1" />
      <path
         inkscape:connector-curvature="0"
         id="path2993"
         d="M 67.984185,945.62997 166.97913,893.58691"
         style="fill:none;stroke:#000000;stroke-width:1px;stroke-linecap:butt;stroke-linejoin:miter;stroke-opacity:1" />
      <path
         inkscape:connector-curvature="0"
         id="path2995"
         d="M 17.072496,915.08296 116.63313,863.60559"
         style="fill:none;stroke:#b1b1b1;stroke-width:1px;stroke-linecap:butt;stroke-linejoin:miter;stroke-opacity:1" />
      <path
         inkscape:connector-curvature="0"
         id="path3765"
         d="m 151.13994,764.04495 15.27351,128.97628"
         style="fill:none;stroke:#000000;stroke-width:1px;stroke-linecap:butt;stroke-linejoin:miter;stroke-opacity:1" />
      <path
         inkscape:connector-curvature="0"
         id="path2987"
         d="M 18.203867,915.64864 68.54987,945.62997 53.842049,816.08801 Z"
         style="fill:none;stroke:#000000;stroke-width:1px;stroke-linecap:butt;stroke-linejoin:miter;stroke-opacity:1" />
    </g>
    <text
       xml:space="preserve"
       style="font-style:normal;font-variant:normal;font-weight:normal;font-stretch:normal;line-height:0%;font-family:Cambria;-inkscape-font-specification:Cambria;letter-spacing:0px;word-spacing:0px;fill:#000000;fill-opacity:1;stroke:none"
       x="8.951889"
       y="773.86548"
       id="text3767"><tspan
         sodipodi:role="line"
         id="tspan3769"
         x="8.951889"
         y="773.86548"
         style="font-size:12px;line-height:1.25">apex</tspan></text>
    <text
       xml:space="preserve"
       style="font-style:normal;font-variant:normal;font-weight:normal;font-stretch:normal;line-height:0%;font-family:Cambria;-inkscape-font-specification:Cambria;letter-spacing:0px;word-spacing:0px;fill:#000000;fill-opacity:1;stroke:none"
       x="2.729351"
       y="867.76923"
       id="text3771"><tspan
         sodipodi:role="line"
         id="tspan3773"
         x="2.729351"
         y="867.76923"
         style="font-size:12px;line-height:1.25">base</tspan></text>
    <path
       sodipodi:type="star"
       style="fill:none;stroke:#000000;stroke-width:3.81207323;stroke-miterlimit:4;stroke-dasharray:none;stroke-dashoffset:0;stroke-opacity:1"
       id="path3775"
       sodipodi:sides="3"
       sodipodi:cx="237.02219"
       sodipodi:cy="237.7746"
       sodipodi:r1="171.97675"
       sodipodi:r2="85.988373"
       sodipodi:arg1="0.52359878"
       sodipodi:arg2="1.5707963"
       inkscape:flatsided="true"
       inkscape:rounded="0"
       inkscape:randomized="0"
       d="m 385.95842,323.76297 -297.872465,0 L 237.02219,65.797852 Z"
       transform="matrix(0.47934716,0,0,0.57423194,165.20669,822.70768)"
       inkscape:transform-center-y="-24.688633" />
    <path
       style="fill:none;stroke:#000000;stroke-width:1px;stroke-linecap:butt;stroke-linejoin:miter;stroke-opacity:1"
       d="m 317.00638,939.36723 h -76.36753 l -77.86424,44.95494"
       id="path3777"
       inkscape:connector-curvature="0" />
    <path
       inkscape:connector-curvature="0"
       id="path3779"
       d="m 240.77461,939.36723 h 76.36753 l 77.86424,44.95494"
       style="fill:none;stroke:#000000;stroke-width:1px;stroke-linecap:butt;stroke-linejoin:miter;stroke-opacity:1" />
    <path
       style="fill:none;stroke:#000000;stroke-width:1.11897779;stroke-linecap:butt;stroke-linejoin:miter;stroke-miterlimit:4;stroke-dasharray:4.47591092, 4.47591092;stroke-dashoffset:0;stroke-opacity:1"
       d="M 344.96842,955.71262 165.19943,847.47143"
       id="path3781"
       inkscape:connector-curvature="0" />
    <path
       sodipodi:type="star"
       style="fill:none;stroke:#000000;stroke-width:1;stroke-miterlimit:4;stroke-dasharray:none;stroke-dashoffset:0;stroke-opacity:1"
       id="path3793"
       sodipodi:sides="5"
       sodipodi:cx="145.94684"
       sodipodi:cy="130.86006"
       sodipodi:r1="12.40645"
       sodipodi:r2="6.2032251"
       sodipodi:arg1="1.0471976"
       sodipodi:arg2="1.6755161"
       inkscape:flatsided="false"
       inkscape:rounded="0"
       inkscape:randomized="0"
       d="m 152.15006,141.60436 -6.85164,-4.57506 -7.65312,3.05055 2.23387,-7.93007 -5.26619,-6.33588 8.23225,-0.32599 4.39844,-6.96633 2.85394,7.72859 7.98457,2.03045 -6.46841,5.10252 z"
       transform="translate(12.445079,716.724)"
       inkscape:transform-center-x="-0.40074163"
       inkscape:transform-center-y="-0.79709264" />
    <path
       inkscape:transform-center-y="-0.79709264"
       inkscape:transform-center-x="-0.40074163"
       transform="translate(13.57645,853.61987)"
       d="m 152.15006,141.60436 -6.85164,-4.57506 -7.65312,3.05055 2.23387,-7.93007 -5.26619,-6.33588 8.23225,-0.32599 4.39844,-6.96633 2.85394,7.72859 7.98457,2.03045 -6.46841,5.10252 z"
       inkscape:randomized="0"
       inkscape:rounded="0"
       inkscape:flatsided="false"
       sodipodi:arg2="1.6755161"
       sodipodi:arg1="1.0471976"
       sodipodi:r2="6.2032251"
       sodipodi:r1="12.40645"
       sodipodi:cy="130.86006"
       sodipodi:cx="145.94684"
       sodipodi:sides="5"
       id="path3795"
       style="fill:none;stroke:#000000;stroke-width:1;stroke-miterlimit:4;stroke-dasharray:none;stroke-dashoffset:0;stroke-opacity:1"
       sodipodi:type="star" />
    <path
       style="fill:none;stroke:#000000;stroke-width:1px;stroke-linecap:butt;stroke-linejoin:miter;stroke-opacity:1;marker-end:url(#Arrow2Mend)"
       d="m 189.50462,968.64073 24.89016,-14.14214"
       id="path3797"
       inkscape:connector-curvature="0"
       sodipodi:nodetypes="cc" />
    <path
       inkscape:connector-curvature="0"
       id="path4243"
       d="m 348.46222,957.30097 23.75879,13.57645"
       style="fill:none;stroke:#000000;stroke-width:1px;stroke-linecap:butt;stroke-linejoin:miter;stroke-opacity:1;marker-end:url(#Arrow2Mend)"
       sodipodi:nodetypes="cc" />
    <path
       sodipodi:type="arc"
       style="fill:none;stroke:#000000;stroke-width:0.62733507;stroke-miterlimit:4;stroke-dasharray:none;stroke-dashoffset:0;stroke-opacity:1"
       id="path4245"
       sodipodi:cx="278.60007"
       sodipodi:cy="107.66695"
       sodipodi:rx="23.758787"
       sodipodi:ry="23.758787"
       d="m 288.60637,129.21582 a 23.758787,23.758787 0 0 1 -20.39864,-0.1835"
       transform="matrix(1.5940445,0,0,1.5940445,-165.50083,688.40322)"
       sodipodi:start="1.1360701"
       sodipodi:end="2.0235132"
       sodipodi:open="true" />
    <path
       sodipodi:type="arc"
       style="fill:none;stroke:#000000;stroke-width:1;stroke-miterlimit:4;stroke-dasharray:none;stroke-dashoffset:0;stroke-opacity:1"
       id="path4249"
       sodipodi:cx="248.05305"
       sodipodi:cy="171.87225"
       sodipodi:rx="51.477375"
       sodipodi:ry="51.477375"
       d="m 208.70934,205.06852 a 51.477375,51.477375 0 0 1 -11.56098,-40.85343 51.477375,51.477375 0 0 1 23.06791,-35.6445"
       transform="matrix(0.71304488,0,0,0.71304488,80.589069,799.18888)"
       sodipodi:start="2.4407382"
       sodipodi:end="4.1410515"
       sodipodi:open="true" />
    <text
       xml:space="preserve"
       style="font-style:normal;font-variant:normal;font-weight:normal;font-stretch:normal;line-height:0%;font-family:Cambria;-inkscape-font-specification:Cambria;letter-spacing:0px;word-spacing:0px;fill:#000000;fill-opacity:1;stroke:none"
       x="295.00494"
       y="108.79833"
       id="text4251"
       transform="translate(0,752.36218)"><tspan
         sodipodi:role="line"
         id="tspan4253"
         x="295.00494"
         y="108.79833"
         style="font-size:12px;line-height:1.25">apical angle <tspan
   style="font-style:italic;-inkscape-font-specification:'Cambria Italic'"
   id="tspan4255">a</tspan></tspan></text>
    <path
       style="fill:none;stroke:#000000;stroke-width:1px;stroke-linecap:butt;stroke-linejoin:miter;stroke-opacity:1;marker-end:url(#Arrow2Mend)"
       d="m 302.35886,116.15224 -24.04163,18.10193"
       id="path4259"
       inkscape:connector-curvature="0"
       transform="translate(0,752.36218)" />
    <g
       transform="translate(7.8536585,756.84998)"
       style="font-style:normal;font-variant:normal;font-weight:normal;font-stretch:normal;font-size:12px;line-height:125%;font-family:Cambria;-inkscape-font-specification:Cambria;letter-spacing:0px;word-spacing:0px;fill:#000000;fill-opacity:1;stroke:none"
       id="text4447">
      <path
         d="m 172.23318,142.87569 c 0,-0.375 -0.003,-0.63672 -0.009,-0.78516 -0.006,-0.14843 -0.0215,-0.27441 -0.0469,-0.37793 -0.0254,-0.10351 -0.0605,-0.18456 -0.10547,-0.24316 -0.0449,-0.0586 -0.10547,-0.10546 -0.18164,-0.14063 -0.0762,-0.0352 -0.21387,-0.0703 -0.41308,-0.10547 v -0.30468 l 1.41796,-0.0586 h 0.34571 v 6.78516 c -1e-5,0.30469 0.006,0.52246 0.0176,0.65332 0.0117,0.13086 0.0371,0.23535 0.0762,0.31347 0.039,0.0781 0.10058,0.14161 0.18457,0.19043 0.084,0.0488 0.23144,0.0947 0.44238,0.1377 v 0.30469 l -1.38281,0.0586 h -0.35156 l 0.0703,-0.96094 -0.0879,-0.0234 c -0.2461,0.26172 -0.45997,0.458 -0.6416,0.58886 -0.18165,0.13086 -0.37501,0.23535 -0.58008,0.31348 -0.20508,0.0781 -0.42481,0.11719 -0.65918,0.11719 -0.64063,0 -1.13477,-0.24317 -1.48242,-0.72949 -0.34766,-0.48633 -0.52149,-1.18848 -0.52149,-2.10645 0,-0.64062 0.11328,-1.18457 0.33985,-1.63184 0.22656,-0.44726 0.53222,-0.78026 0.91699,-0.99902 0.38476,-0.21874 0.81738,-0.32812 1.29785,-0.32812 0.25781,0 0.49218,0.0205 0.70312,0.0615 0.21094,0.041 0.42773,0.1084 0.65039,0.20215 z m 0,2.89453 c 0,-0.30469 -0.0137,-0.54883 -0.041,-0.73242 -0.0274,-0.18359 -0.0733,-0.33789 -0.1377,-0.46289 -0.0645,-0.125 -0.15137,-0.23047 -0.26074,-0.31641 -0.10938,-0.0859 -0.22949,-0.14843 -0.36035,-0.1875 -0.13086,-0.0391 -0.28809,-0.0586 -0.47168,-0.0586 -0.5,0 -0.88086,0.2002 -1.14258,0.60058 -0.26172,0.4004 -0.39258,0.97559 -0.39258,1.72559 0,0.75 0.10742,1.32031 0.32227,1.71093 0.21484,0.39063 0.54101,0.58594 0.97852,0.58594 0.17187,0 0.31445,-0.0146 0.42773,-0.0439 0.11328,-0.0293 0.22461,-0.0762 0.33398,-0.14063 0.10938,-0.0645 0.2207,-0.15332 0.33399,-0.2666 0.11328,-0.11328 0.19628,-0.2168 0.24902,-0.31055 0.0527,-0.0937 0.0928,-0.20117 0.12012,-0.32226 0.0273,-0.12109 0.041,-0.27734 0.041,-0.46875 z"
         style="text-align:center;text-anchor:middle"
         id="path4862"
         inkscape:connector-curvature="0" />
      <path
         d="m 179.616,148.24873 c -0.25001,0.26172 -0.4795,0.4668 -0.68848,0.61524 -0.20899,0.14844 -0.43848,0.26465 -0.68848,0.34863 -0.25,0.084 -0.52539,0.12598 -0.82617,0.12598 -0.80469,0 -1.41211,-0.24121 -1.82226,-0.72364 -0.41016,-0.48242 -0.61524,-1.19433 -0.61524,-2.13574 0,-0.58203 0.10449,-1.0957 0.31348,-1.54101 0.20898,-0.44531 0.50683,-0.78906 0.89355,-1.03125 0.38672,-0.24219 0.83203,-0.36328 1.33594,-0.36328 0.39453,0 0.73047,0.0625 1.00781,0.1875 0.27734,0.125 0.49902,0.2959 0.66504,0.51269 0.16601,0.2168 0.29492,0.49024 0.38672,0.82031 0.0918,0.33009 0.14355,0.76075 0.15527,1.292 h -3.6914 v 0.10546 c 0,0.46094 0.0517,0.84864 0.15527,1.16309 0.10352,0.31445 0.27344,0.56055 0.50977,0.73828 0.23632,0.17774 0.54394,0.2666 0.92285,0.2666 0.32031,0 0.60839,-0.0596 0.86426,-0.17871 0.25585,-0.11914 0.51073,-0.31347 0.76465,-0.58301 z m -0.98438,-2.3789 c -0.0234,-0.42187 -0.0762,-0.7666 -0.1582,-1.03418 -0.082,-0.26758 -0.20508,-0.47265 -0.36914,-0.61524 -0.16407,-0.14257 -0.37891,-0.21386 -0.64453,-0.21386 -0.40235,0 -0.72364,0.16113 -0.96387,0.48339 -0.24024,0.32227 -0.38184,0.78223 -0.4248,1.37989 z"
         style="text-align:center;text-anchor:middle"
         id="path4864"
         inkscape:connector-curvature="0" />
      <path
         d="m 182.72733,143.64326 v 0.28711 c -0.17969,0.043 -0.30665,0.084 -0.38086,0.12305 -0.0742,0.0391 -0.12989,0.0899 -0.167,0.15234 -0.0371,0.0625 -0.0557,0.14649 -0.0557,0.25196 0,0.10547 0.0127,0.21582 0.0381,0.33105 0.0254,0.11524 0.0654,0.24903 0.12011,0.40137 l 1.01953,2.96484 1.19532,-2.84179 c 0.0781,-0.1875 0.1328,-0.3418 0.16406,-0.46289 0.0312,-0.12109 0.0469,-0.23437 0.0469,-0.33985 0,-0.16406 -0.0439,-0.28906 -0.13183,-0.375 -0.0879,-0.0859 -0.24903,-0.15429 -0.4834,-0.20508 v -0.28711 h 2.19141 v 0.28711 c -0.15235,0.0313 -0.26954,0.0791 -0.35157,0.14356 -0.082,0.0645 -0.16406,0.16602 -0.24609,0.30469 -0.082,0.13867 -0.17969,0.33301 -0.29297,0.583 l -1.97461,4.3418 h -0.6914 l -1.5879,-4.37695 c -0.10937,-0.30078 -0.19628,-0.50683 -0.26074,-0.61817 -0.0644,-0.11132 -0.13476,-0.19433 -0.21093,-0.24902 -0.0762,-0.0547 -0.18653,-0.0976 -0.33106,-0.12891 v -0.28711 z"
         style="text-align:center;text-anchor:middle"
         id="path4866"
         inkscape:connector-curvature="0" />
      <path
         d="m 188.51639,141.34639 v 1.13672 h -1.07813 v -1.13672 z m -1.67578,7.61133 c 0.15234,-0.0469 0.26074,-0.0879 0.32519,-0.12305 0.0645,-0.0351 0.11914,-0.084 0.16406,-0.14648 0.0449,-0.0625 0.0801,-0.15821 0.10547,-0.28711 0.0254,-0.12891 0.0381,-0.33008 0.0381,-0.60352 v -2.55469 c 0,-0.24999 -0.004,-0.45116 -0.0117,-0.60351 -0.008,-0.15234 -0.0352,-0.27441 -0.082,-0.36621 -0.0469,-0.0918 -0.11817,-0.16015 -0.21387,-0.20508 -0.0957,-0.0449 -0.23144,-0.083 -0.40722,-0.11426 v -0.31055 l 1.36523,-0.0527 h 0.35742 v 4.18945 c 0,0.33594 0.0156,0.56934 0.0469,0.7002 0.0312,0.13086 0.0908,0.23047 0.17871,0.29883 0.0879,0.0684 0.23144,0.12793 0.43066,0.17871 v 0.28711 h -2.29687 z"
         style="text-align:center;text-anchor:middle"
         id="path4868"
         inkscape:connector-curvature="0" />
      <path
         d="m 193.55545,148.40694 -0.0879,-0.0234 c -0.33985,0.34766 -0.65918,0.59375 -0.95801,0.73828 -0.29883,0.14453 -0.61621,0.2168 -0.95215,0.2168 -0.29687,0 -0.55859,-0.0576 -0.78515,-0.17285 -0.22657,-0.11524 -0.40039,-0.27735 -0.52149,-0.48633 -0.12109,-0.20899 -0.18164,-0.4502 -0.18164,-0.72364 0,-0.57031 0.28223,-1.01074 0.84668,-1.32128 0.56445,-0.31055 1.41113,-0.49121 2.54004,-0.542 v -0.38086 c 0,-0.40624 -0.0391,-0.72655 -0.11719,-0.96093 -0.0781,-0.23437 -0.20117,-0.40625 -0.36914,-0.51563 -0.16797,-0.10937 -0.39258,-0.16406 -0.67383,-0.16406 -0.30469,0 -0.5498,0.0801 -0.73535,0.24023 -0.18555,0.16016 -0.32519,0.4004 -0.41894,0.72071 h -0.76758 v -0.76172 c 0.375,-0.19531 0.6875,-0.33886 0.9375,-0.43067 0.25,-0.0918 0.5,-0.16405 0.75,-0.21679 0.25,-0.0527 0.5039,-0.0791 0.76172,-0.0791 0.38671,0 0.69726,0.0615 0.93164,0.18457 0.23437,0.12305 0.41015,0.31152 0.52734,0.56543 0.11719,0.25391 0.17578,0.63672 0.17578,1.14843 v 2.03907 c 0,0.28906 0.002,0.49316 0.006,0.6123 0.004,0.11914 0.0156,0.22949 0.0352,0.33105 0.0195,0.10157 0.0488,0.18262 0.0879,0.24317 0.0391,0.0606 0.0967,0.1123 0.17285,0.15527 0.0762,0.043 0.20019,0.0879 0.37207,0.13477 v 0.28711 h -1.60547 z m -0.0996,-1.83399 c -0.79297,0.008 -1.38672,0.11329 -1.78125,0.31641 -0.39453,0.20313 -0.5918,0.50977 -0.5918,0.91992 0,0.22266 0.0449,0.39844 0.13477,0.52734 0.0898,0.12891 0.20312,0.21778 0.33984,0.26661 0.13672,0.0488 0.29883,0.0732 0.48633,0.0732 0.26562,0 0.50683,-0.0644 0.72363,-0.19336 0.2168,-0.12891 0.38574,-0.29297 0.50684,-0.49219 0.12109,-0.19922 0.18164,-0.39648 0.18164,-0.5918 z"
         style="text-align:center;text-anchor:middle"
         id="path4870"
         inkscape:connector-curvature="0" />
      <path
         d="m 195.67654,143.93623 c 0.19532,-0.0312 0.35352,-0.0859 0.47461,-0.16406 0.1211,-0.0781 0.21582,-0.1787 0.28418,-0.30176 0.0684,-0.12304 0.12207,-0.27733 0.16114,-0.46289 0.0391,-0.18554 0.0801,-0.45605 0.12304,-0.81152 h 0.83203 v 1.44726 h 1.89258 v 0.5918 h -1.89258 v 2.60742 c 0,0.37891 0.0156,0.68067 0.0469,0.90528 0.0312,0.22461 0.0898,0.40039 0.17578,0.52734 0.0859,0.12695 0.18359,0.21777 0.29297,0.27246 0.10937,0.0547 0.25,0.082 0.42187,0.082 0.15625,0 0.30274,-0.0322 0.43946,-0.0967 0.13671,-0.0644 0.27148,-0.15722 0.40429,-0.27832 l 0.26368,0.31641 c -0.27735,0.26953 -0.54005,0.46484 -0.78809,0.58594 -0.24805,0.12109 -0.50489,0.18164 -0.77051,0.18164 -0.50391,0 -0.87891,-0.14942 -1.125,-0.44824 -0.24609,-0.29883 -0.36914,-0.76661 -0.36914,-1.40333 v -3.25195 h -0.86719 z"
         style="text-align:center;text-anchor:middle"
         id="path4872"
         inkscape:connector-curvature="0" />
      <path
         d="m 201.75858,141.34639 v 1.13672 h -1.07813 v -1.13672 z m -1.67579,7.61133 c 0.15235,-0.0469 0.26075,-0.0879 0.3252,-0.12305 0.0644,-0.0351 0.11914,-0.084 0.16406,-0.14648 0.0449,-0.0625 0.0801,-0.15821 0.10547,-0.28711 0.0254,-0.12891 0.0381,-0.33008 0.0381,-0.60352 v -2.55469 c 0,-0.24999 -0.004,-0.45116 -0.0117,-0.60351 -0.008,-0.15234 -0.0352,-0.27441 -0.082,-0.36621 -0.0469,-0.0918 -0.11817,-0.16015 -0.21387,-0.20508 -0.0957,-0.0449 -0.23145,-0.083 -0.40723,-0.11426 v -0.31055 l 1.36524,-0.0527 h 0.35742 v 4.18945 c 0,0.33594 0.0156,0.56934 0.0469,0.7002 0.0312,0.13086 0.0908,0.23047 0.17872,0.29883 0.0879,0.0684 0.23144,0.12793 0.43066,0.17871 v 0.28711 h -2.29688 z"
         style="text-align:center;text-anchor:middle"
         id="path4874"
         inkscape:connector-curvature="0" />
      <path
         d="m 205.95975,149.33858 c -0.8125,0 -1.43262,-0.23926 -1.86035,-0.71778 -0.42774,-0.47851 -0.64161,-1.18652 -0.64161,-2.12402 0,-0.64453 0.11231,-1.18945 0.33692,-1.63477 0.22461,-0.4453 0.53222,-0.77636 0.92285,-0.99316 0.39062,-0.21679 0.83593,-0.32519 1.33594,-0.32519 0.83593,0 1.46874,0.24316 1.89843,0.72949 0.42969,0.48633 0.64453,1.18457 0.64454,2.09472 -1e-5,0.64844 -0.10743,1.19532 -0.32227,1.64063 -0.21485,0.44531 -0.51954,0.77832 -0.91406,0.99902 -0.39454,0.22071 -0.86133,0.33106 -1.40039,0.33106 z m -1.39453,-2.96485 c -1e-5,0.80469 0.12792,1.42286 0.38379,1.8545 0.25585,0.43164 0.62206,0.64746 1.09863,0.64746 0.26171,0 0.48437,-0.0635 0.66797,-0.19043 0.18359,-0.12696 0.333,-0.29785 0.44824,-0.5127 0.11523,-0.21484 0.19824,-0.46386 0.24902,-0.74707 0.0508,-0.2832 0.0762,-0.5791 0.0762,-0.88769 0,-0.57422 -0.0635,-1.05078 -0.19043,-1.42969 -0.12695,-0.3789 -0.2998,-0.65722 -0.51855,-0.83496 -0.21875,-0.17773 -0.46875,-0.2666 -0.75,-0.2666 -0.47266,0 -0.83496,0.20508 -1.08691,0.61523 -0.25196,0.41016 -0.37794,0.99414 -0.37793,1.75195 z"
         style="text-align:center;text-anchor:middle"
         id="path4876"
         inkscape:connector-curvature="0" />
      <path
         d="m 215.49295,149.24483 h -2.30859 v -0.28711 c 0.15234,-0.0469 0.26171,-0.0879 0.32812,-0.12305 0.0664,-0.0351 0.12207,-0.084 0.16699,-0.14648 0.0449,-0.0625 0.0801,-0.15918 0.10547,-0.29004 0.0254,-0.13086 0.0381,-0.3291 0.0381,-0.59473 v -1.53516 c -1e-5,-0.27343 -0.008,-0.52148 -0.0234,-0.74414 -0.0156,-0.22265 -0.042,-0.40527 -0.0791,-0.54785 -0.0371,-0.14257 -0.082,-0.2539 -0.13477,-0.33398 -0.0527,-0.0801 -0.11523,-0.14843 -0.1875,-0.20508 -0.0723,-0.0566 -0.15527,-0.10156 -0.24902,-0.13477 -0.0937,-0.0332 -0.2168,-0.0498 -0.36914,-0.0498 -0.15235,0 -0.29688,0.0303 -0.43359,0.0908 -0.13673,0.0606 -0.28712,0.16504 -0.45118,0.31348 -0.16406,0.14844 -0.2832,0.29492 -0.35742,0.43945 -0.0742,0.14454 -0.11133,0.31055 -0.11133,0.49805 v 2.18554 c 0,0.33594 0.0156,0.56934 0.0469,0.7002 0.0312,0.13086 0.0908,0.23047 0.17871,0.29883 0.0879,0.0684 0.23144,0.12793 0.43066,0.17871 v 0.28711 h -2.29687 v -0.28711 c 0.15234,-0.0469 0.26074,-0.0879 0.32519,-0.12305 0.0645,-0.0351 0.11914,-0.084 0.16407,-0.14648 0.0449,-0.0625 0.0801,-0.15821 0.10547,-0.28711 0.0254,-0.12891 0.0381,-0.33008 0.0381,-0.60352 v -2.55469 c 0,-0.24999 -0.004,-0.45116 -0.0117,-0.60351 -0.008,-0.15234 -0.0352,-0.27441 -0.082,-0.36621 -0.0469,-0.0918 -0.11816,-0.16015 -0.21387,-0.20508 -0.0957,-0.0449 -0.23144,-0.083 -0.40722,-0.11426 v -0.31055 l 1.37109,-0.0527 h 0.35742 l -0.0644,0.95508 0.082,0.0234 c 0.28906,-0.29297 0.52246,-0.50195 0.7002,-0.62696 0.17773,-0.12499 0.35742,-0.22167 0.53906,-0.29004 0.18164,-0.0684 0.37402,-0.10253 0.57715,-0.10254 0.21093,1e-5 0.39941,0.0244 0.56543,0.0733 0.16601,0.0488 0.31249,0.12403 0.43945,0.22558 0.12695,0.10157 0.23144,0.22755 0.31348,0.37793 0.082,0.1504 0.14355,0.33106 0.18457,0.54199 0.041,0.21095 0.0615,0.47852 0.0615,0.80274 V 147.78 c 0,0.26954 0.008,0.46485 0.0234,0.58594 0.0156,0.1211 0.043,0.21485 0.082,0.28125 0.0391,0.0664 0.0957,0.12207 0.16992,0.16699 0.0742,0.0449 0.20312,0.0928 0.38672,0.14356 z"
         style="text-align:center;text-anchor:middle"
         id="path4878"
         inkscape:connector-curvature="0" />
      <path
         d="m 191.45779,158.97725 c -0.48828,-0.42187 -0.81445,-0.76074 -0.97851,-1.0166 -0.16407,-0.25586 -0.2461,-0.50878 -0.2461,-0.75879 0,-0.40234 0.16992,-0.72949 0.50977,-0.98145 0.33984,-0.25194 0.79492,-0.37792 1.36523,-0.37793 0.81641,1e-5 1.50781,0.209 2.07422,0.62696 v 0.84961 h -0.5625 c -0.31641,-0.67187 -0.81641,-1.00781 -1.5,-1.00782 -0.33203,1e-5 -0.58496,0.0733 -0.75879,0.21973 -0.17383,0.14649 -0.26074,0.3213 -0.26074,0.52441 0,0.1836 0.0762,0.36329 0.22852,0.53907 0.15234,0.17578 0.5957,0.56836 1.33008,1.17773 0.58984,0.49219 1.02148,0.96094 1.29492,1.40625 0.27343,0.44532 0.41015,0.97266 0.41015,1.58203 0,0.77344 -0.24414,1.39649 -0.73242,1.86914 -0.48828,0.47266 -1.10547,0.70899 -1.85156,0.70899 -0.75,0 -1.35742,-0.23731 -1.82227,-0.71192 -0.46484,-0.47461 -0.69726,-1.08886 -0.69726,-1.84277 0,-1.36718 0.73242,-2.30273 2.19726,-2.80664 z m 0.42188,0.3457 c -1.01563,0.44532 -1.52344,1.29883 -1.52344,2.56055 0,0.59375 0.13184,1.07422 0.39551,1.44141 0.26367,0.36718 0.60254,0.55078 1.0166,0.55078 0.47265,0 0.84082,-0.19043 1.10449,-0.57129 0.26367,-0.38086 0.39551,-0.89551 0.39551,-1.54395 0,-0.48437 -0.11035,-0.91406 -0.33105,-1.28906 -0.22071,-0.375 -0.57325,-0.75781 -1.05762,-1.14844 z"
         style="text-align:center;text-anchor:middle"
         id="path4880"
         inkscape:connector-curvature="0" />
    </g>
    <text
       xml:space="preserve"
       style="font-style:normal;font-variant:normal;font-weight:normal;font-stretch:normal;line-height:0%;font-family:Cambria;-inkscape-font-specification:Cambria;letter-spacing:0px;word-spacing:0px;fill:#000000;fill-opacity:1;stroke:none"
       x="140"
       y="1012.3622"
       id="text4457"><tspan
         sodipodi:role="line"
         id="tspan4459"
         x="140"
         y="1012.3622"
         style="font-size:12px;line-height:1.25">object</tspan></text>
    <text
       xml:space="preserve"
       style="font-style:normal;font-variant:normal;font-weight:normal;font-stretch:normal;line-height:0%;font-family:Cambria;-inkscape-font-specification:Cambria;letter-spacing:0px;word-spacing:0px;fill:#000000;fill-opacity:1;stroke:none"
       x="140"
       y="827.36218"
       id="text4461"><tspan
         sodipodi:role="line"
         id="tspan4463"
         x="140"
         y="827.36218"
         style="font-size:12px;line-height:1.25">apparent position of object</tspan></text>
    <path
       style="fill:none;stroke:#000000;stroke-width:1px;stroke-linecap:butt;stroke-linejoin:miter;stroke-opacity:1;marker-mid:none;marker-end:url(#Arrow2Mend)"
       d="m 154,213 1,-101"
       id="path4465"
       inkscape:connector-curvature="0"
       transform="translate(0,752.36218)" />
    <text
       xml:space="preserve"
       style="font-style:normal;font-variant:normal;font-weight:normal;font-stretch:normal;line-height:0%;font-family:Cambria;-inkscape-font-specification:Cambria;letter-spacing:0px;word-spacing:0px;fill:#000000;fill-opacity:1;stroke:none"
       x="82"
       y="926.36218"
       id="text4831"><tspan
         sodipodi:role="line"
         id="tspan4833"
         x="82"
         y="926.36218"
         style="font-size:12px;line-height:1.25">displacement</tspan></text>
    <g
       id="g4841">
      <g
         id="g4846">
        <g
           id="g4851"
           transform="rotate(4.8279338,224.49998,5079.0271)">
          <g
             id="g4856"
             transform="rotate(-4.7445843,-227.30397,981.52866)">
            <path
               style="fill:none;stroke:#000000;stroke-width:1px;stroke-linecap:butt;stroke-linejoin:miter;stroke-opacity:1"
               d="m 50.157603,991.6004 28.522515,36.3932 -44.687536,-8.7763"
               id="path4835"
               inkscape:connector-curvature="0" />
            <path
               sodipodi:type="arc"
               style="fill:none;stroke:#000000;stroke-width:1;stroke-miterlimit:4;stroke-dasharray:none;stroke-dashoffset:0;stroke-opacity:1"
               id="path4837"
               sodipodi:cx="82"
               sodipodi:cy="265"
               sodipodi:rx="38"
               sodipodi:ry="38"
               d="m 45.553901,275.75555 a 38,38 0 0 1 0.680161,-23.59291"
               transform="rotate(29.911877,-1349.7694,645.07627)"
               sodipodi:start="2.8546296"
               sodipodi:end="3.4861979"
               sodipodi:open="true" />
            <ellipse
               style="fill:#000000;fill-opacity:1;stroke:#000000;stroke-width:1;stroke-miterlimit:4;stroke-dasharray:none;stroke-dashoffset:0;stroke-opacity:1"
               id="path4839"
               transform="rotate(32.213531,-1244.5957,644.99001)"
               cx="45.608387"
               cy="264.4679"
               rx="1.4142135"
               ry="5.833631" />
          </g>
        </g>
      </g>
    </g>
  </g>
</svg>
