<?xml version="1.0" encoding="UTF-8" standalone="no"?>
<!-- Created with Inkscape (http://www.inkscape.org/) -->

<svg
   xmlns:dc="http://purl.org/dc/elements/1.1/"
   xmlns:cc="http://creativecommons.org/ns#"
   xmlns:rdf="http://www.w3.org/1999/02/22-rdf-syntax-ns#"
   xmlns:svg="http://www.w3.org/2000/svg"
   xmlns="http://www.w3.org/2000/svg"
   xmlns:sodipodi="http://sodipodi.sourceforge.net/DTD/sodipodi-0.dtd"
   xmlns:inkscape="http://www.inkscape.org/namespaces/inkscape"
   width="490.66666"
   height="320"
   id="svg4882"
   version="1.1"
   inkscape:version="0.92.2 (5c3e80d, 2017-08-06)"
   sodipodi:docname="figure2.svg"
   viewBox="0 0 460 300">
  <defs
     id="defs4884">
    <marker
       inkscape:stockid="Arrow2Mstart"
       orient="auto"
       refY="0"
       refX="0"
       id="Arrow2Mstart"
       style="overflow:visible">
      <path
         id="path3827"
         style="fill-rule:evenodd;stroke-width:0.625;stroke-linejoin:round"
         d="M 8.7185878,4.0337352 -2.2072895,0.01601326 8.7185884,-4.0017078 c -1.7454984,2.3720609 -1.7354408,5.6174519 -6e-7,8.035443 z"
         transform="scale(0.6)"
         inkscape:connector-curvature="0" />
    </marker>
  </defs>
  <sodipodi:namedview
     id="base"
     pagecolor="#ffffff"
     bordercolor="#666666"
     borderopacity="1.0"
     inkscape:pageopacity="0.0"
     inkscape:pageshadow="2"
     inkscape:zoom="1.4142136"
     inkscape:cx="230"
     inkscape:cy="150"
     inkscape:document-units="px"
     inkscape:current-layer="layer1"
     showgrid="false"
     inkscape:window-width="1097"
     inkscape:window-height="668"
     inkscape:window-x="-8"
     inkscape:window-y="-8"
     inkscape:window-maximized="1" />
  <metadata
     id="metadata4887">
    <rdf:RDF>
      <cc:Work
         rdf:about="">
        <dc:format>image/svg+xml</dc:format>
        <dc:type
           rdf:resource="http://purl.org/dc/dcmitype/StillImage" />
        <dc:title />
      </cc:Work>
    </rdf:RDF>
  </metadata>
  <g
     inkscape:label="Layer 1"
     inkscape:groupmode="layer"
     id="layer1"
     transform="translate(0,-752.36218)">
    <path
       sodipodi:type="star"
       style="fill:#cccccc;fill-opacity:1;stroke:#000000;stroke-width:1;stroke-miterlimit:4;stroke-dasharray:none;stroke-dashoffset:0;stroke-opacity:1"
       id="path4890"
       sodipodi:sides="3"
       sodipodi:cx="85.599998"
       sodipodi:cy="246.39999"
       sodipodi:r1="172.80185"
       sodipodi:r2="86.400925"
       sodipodi:arg1="-1.5707963"
       sodipodi:arg2="-0.52359878"
       inkscape:flatsided="true"
       inkscape:rounded="0"
       inkscape:randomized="0"
       d="m 85.600003,73.598145 149.650787,259.202775 -299.301585,-1e-5 z"
       transform="matrix(0.99204628,0,0,0.96921112,171.24938,706.87633)"
       inkscape:transform-center-y="-41.870365" />
    <path
       style="fill:none;stroke:#000000;stroke-width:2;stroke-linecap:butt;stroke-linejoin:miter;stroke-miterlimit:4;stroke-dasharray:none;stroke-opacity:1;marker-start:url(#Arrow2Mstart)"
       d="m 334.16854,910.22004 h -156.8 l -99.848708,57.64768"
       id="path4892"
       inkscape:connector-curvature="0" />
    <g
       id="g5960"
       transform="translate(56.568543,-14.142136)">
      <path
         inkscape:connector-curvature="0"
         id="path5958"
         d="M 57.964039,886.15211 183.58248,961.46872"
         style="fill:none;stroke:#000000;stroke-width:1.45781732;stroke-linecap:butt;stroke-linejoin:miter;stroke-miterlimit:4;stroke-dasharray:5.83126906, 5.83126906;stroke-dashoffset:0;stroke-opacity:1"
         sodipodi:nodetypes="cc" />
    </g>
    <path
       style="fill:none;stroke:#000000;stroke-width:1;stroke-linecap:butt;stroke-linejoin:miter;stroke-miterlimit:4;stroke-dasharray:1, 2;stroke-dashoffset:0;stroke-opacity:1"
       d="m 121.36854,942.22004 228.8,-132.8"
       id="path5978"
       inkscape:connector-curvature="0" />
    <path
       sodipodi:type="arc"
       style="fill:none;stroke:#000000;stroke-width:1;stroke-miterlimit:4;stroke-dasharray:none;stroke-dashoffset:0;stroke-opacity:1"
       id="path5980"
       sodipodi:cx="120"
       sodipodi:cy="170.39999"
       sodipodi:rx="52.799999"
       sodipodi:ry="52.799999"
       d="M 75.106,198.19152 A 52.799999,52.799999 0 0 1 74.829595,143.06001"
       transform="translate(56.568543,738.22004)"
       sodipodi:start="2.5872852"
       sodipodi:end="3.6858731"
       sodipodi:open="true" />
    <path
       sodipodi:type="arc"
       style="fill:none;stroke:#000000;stroke-width:1;stroke-miterlimit:4;stroke-dasharray:none;stroke-dashoffset:0;stroke-opacity:1"
       id="path5982"
       sodipodi:cx="121.6"
       sodipodi:cy="171.2"
       sodipodi:rx="54.400002"
       sodipodi:ry="54.400002"
       d="m 168.32426,143.33956 a 54.400002,54.400002 0 0 1 7.65901,29.20937"
       transform="matrix(1.5561189,0,0,1.5561189,-8.7616945,641.98426)"
       sodipodi:start="5.7455104"
       sodipodi:end="0.024799093"
       sodipodi:open="true" />
    <path
       sodipodi:open="true"
       sodipodi:end="0.53638029"
       sodipodi:start="0.018233353"
       transform="translate(56.568543,738.22004)"
       d="m 175.99096,172.19184 a 54.400002,54.400002 0 0 1 -7.63067,26.80808"
       sodipodi:ry="54.400002"
       sodipodi:rx="54.400002"
       sodipodi:cy="171.2"
       sodipodi:cx="121.6"
       id="path5984"
       style="fill:none;stroke:#000000;stroke-width:1;stroke-miterlimit:4;stroke-dasharray:none;stroke-dashoffset:0;stroke-opacity:1"
       sodipodi:type="arc" />
    <g
       style="font-style:normal;font-variant:normal;font-weight:normal;font-stretch:normal;font-size:12px;line-height:125%;font-family:Cambria;-inkscape-font-specification:Cambria;letter-spacing:0px;word-spacing:0px;fill:#000000;fill-opacity:1;stroke:none"
       id="text5992">
      <path
         d="m 106.56315,862.19257 -0.0644,0.28711 c -0.14845,0.0312 -0.2549,0.0664 -0.31934,0.10546 -0.0645,0.0391 -0.12306,0.0977 -0.17578,0.17579 -0.0527,0.0781 -0.10548,0.2002 -0.1582,0.36621 -0.0528,0.16602 -0.12013,0.43653 -0.20215,0.81152 l -1.37696,6.25195 h -0.79687 l -1.71094,-5.02734 c -0.20703,-0.60156 -0.38867,-1.20117 -0.54492,-1.79883 h -0.0762 c -0.0234,0.19923 -0.0879,0.57911 -0.19336,1.13965 -0.10547,0.56055 -0.2168,1.1084 -0.33399,1.64355 l -0.51562,2.33789 c -0.0352,0.16407 -0.0645,0.32227 -0.0879,0.47461 -0.02344,0.15235 -0.03516,0.29883 -0.03516,0.43946 -2e-6,0.17578 0.04395,0.2998 0.13184,0.37207 0.0879,0.0723 0.23535,0.11621 0.44238,0.13183 l -0.0644,0.28711 h -2.050786 l 0.06445,-0.28711 c 0.148437,-0.0234 0.259765,-0.0615 0.333984,-0.11425 0.07422,-0.0527 0.136718,-0.12598 0.1875,-0.21973 0.05078,-0.0937 0.09766,-0.20801 0.140625,-0.34277 0.04297,-0.13477 0.107421,-0.39551 0.19336,-0.78223 l 0.996087,-4.51172 c 0.0391,-0.16796 0.0703,-0.32812 0.0937,-0.48047 0.0234,-0.15234 0.0352,-0.30663 0.0352,-0.46289 0,-0.18359 -0.0469,-0.31152 -0.14063,-0.38379 -0.0937,-0.0723 -0.23828,-0.11425 -0.433586,-0.12597 l 0.06445,-0.28711 h 1.869136 l 1.54688,4.56445 c 0.22265,0.65625 0.39452,1.21094 0.51562,1.66406 h 0.0645 c 0.0312,-0.23828 0.10253,-0.63476 0.21386,-1.18945 0.11133,-0.55469 0.21386,-1.03906 0.30762,-1.45313 l 0.41016,-1.8457 c 0.0273,-0.1289 0.0556,-0.28124 0.085,-0.45703 0.0293,-0.17578 0.0439,-0.33788 0.0439,-0.48633 0,-0.18359 -0.0469,-0.31152 -0.14062,-0.38379 -0.0938,-0.0723 -0.23829,-0.11425 -0.4336,-0.12597 l 0.0645,-0.28711 z"
         style="font-style:italic;-inkscape-font-specification:'Cambria Italic'"
         id="path6074"
         inkscape:connector-curvature="0" />
      <path
         d="m 108.57793,871.48991 c -0.0457,0.20821 -0.0686,0.35675 -0.0686,0.44562 0,0.10156 0.0267,0.1771 0.08,0.22661 0.0533,0.0495 0.14156,0.0851 0.2647,0.10664 0.12315,0.0216 0.31421,0.0362 0.57321,0.0438 l -0.0571,0.27803 h -2.68891 l 0.0571,-0.27803 c 0.21328,-0.0102 0.37706,-0.0241 0.49132,-0.0419 0.11425,-0.0178 0.2063,-0.0419 0.27612,-0.0724 0.0698,-0.0305 0.12632,-0.0673 0.16949,-0.11045 0.0432,-0.0432 0.0812,-0.10029 0.11426,-0.17139 0.033,-0.0711 0.0647,-0.17773 0.0952,-0.31992 l 0.60939,-2.76127 c 0.0229,-0.10664 0.04,-0.1917 0.0514,-0.25518 0.0114,-0.0635 0.0171,-0.11553 0.0171,-0.15616 0,-0.0762 -0.019,-0.13012 -0.0571,-0.16186 -0.0381,-0.0317 -0.0838,-0.0476 -0.13711,-0.0476 -0.066,0 -0.16631,0.0324 -0.30088,0.0971 -0.13458,0.0648 -0.33516,0.17583 -0.60177,0.33325 l -0.14854,-0.30469 1.93099,-1.00929 h 0.2628 l -0.11045,0.44561 c -0.0406,0.16251 -0.0838,0.35167 -0.1295,0.56749 z"
         style="font-size:65.00091553%;-inkscape-font-specification:'Cambria Italic';baseline-shift:sub"
         id="path6076"
         inkscape:connector-curvature="0" />
    </g>
    <g
       style="font-style:normal;font-variant:normal;font-weight:normal;font-stretch:normal;font-size:12px;line-height:125%;font-family:Cambria;-inkscape-font-specification:Cambria;letter-spacing:0px;word-spacing:0px;fill:#000000;fill-opacity:1;stroke:none"
       id="text5996">
      <path
         d="m 254.08649,946.51489 -0.0645,0.28711 c -0.14844,0.0313 -0.25489,0.0664 -0.31933,0.10547 -0.0645,0.0391 -0.12306,0.0977 -0.17578,0.17578 -0.0528,0.0781 -0.10548,0.2002 -0.15821,0.36621 -0.0527,0.16603 -0.12012,0.43653 -0.20215,0.81153 l -1.37695,6.25195 h -0.79687 l -1.71094,-5.02734 c -0.20704,-0.60156 -0.38868,-1.20117 -0.54492,-1.79883 h -0.0762 c -0.0234,0.19922 -0.0879,0.57911 -0.19336,1.13965 -0.10548,0.56055 -0.2168,1.1084 -0.33399,1.64355 l -0.51562,2.33789 c -0.0352,0.16407 -0.0645,0.32227 -0.0879,0.47461 -0.0234,0.15235 -0.0352,0.29883 -0.0352,0.43945 0,0.17579 0.0439,0.29981 0.13184,0.37207 0.0879,0.0723 0.23535,0.11622 0.44238,0.13184 l -0.0644,0.28711 h -2.05079 l 0.0645,-0.28711 c 0.14843,-0.0234 0.25976,-0.0615 0.33398,-0.11426 0.0742,-0.0527 0.13672,-0.12597 0.1875,-0.21972 0.0508,-0.0937 0.0977,-0.20801 0.14063,-0.34278 0.043,-0.13476 0.10742,-0.3955 0.19336,-0.78222 l 0.99609,-4.51172 c 0.0391,-0.16797 0.0703,-0.32812 0.0937,-0.48047 0.0234,-0.15234 0.0352,-0.30664 0.0352,-0.46289 -1e-5,-0.18359 -0.0469,-0.31152 -0.14063,-0.38379 -0.0937,-0.0723 -0.23828,-0.11425 -0.43359,-0.12598 l 0.0644,-0.28711 h 1.86914 l 1.54688,4.56446 c 0.22265,0.65625 0.39452,1.21094 0.51562,1.66406 h 0.0644 c 0.0312,-0.23828 0.10254,-0.63477 0.21387,-1.18945 0.11132,-0.55469 0.21386,-1.03906 0.30762,-1.45313 l 0.41015,-1.8457 c 0.0273,-0.1289 0.0557,-0.28125 0.085,-0.45703 0.0293,-0.17578 0.0439,-0.33789 0.0439,-0.48633 -1e-5,-0.18359 -0.0469,-0.31152 -0.14062,-0.38379 -0.0938,-0.0723 -0.23829,-0.11425 -0.4336,-0.12598 l 0.0645,-0.28711 z"
         style="font-style:italic;-inkscape-font-specification:'Cambria Italic'"
         id="path6057"
         inkscape:connector-curvature="0" />
      <path
         d="m 255.99462,956.30356 c 0.094,0 0.16695,-0.005 0.219,-0.0152 0.0521,-0.0101 0.0946,-0.0248 0.12759,-0.0438 0.033,-0.019 0.0673,-0.0476 0.10283,-0.0857 0.0356,-0.0381 0.0679,-0.0825 0.0971,-0.13331 0.0292,-0.0508 0.0666,-0.12568 0.11236,-0.22471 h 0.3542 l -0.28184,1.11213 h -2.98598 l 0.0381,-0.18282 c 0.14727,-0.26406 0.3396,-0.54082 0.57701,-0.83028 0.23741,-0.28946 0.55924,-0.62716 0.96549,-1.0131 0.34024,-0.32246 0.57511,-0.55098 0.7046,-0.68556 0.23106,-0.23359 0.40753,-0.43545 0.5294,-0.60557 0.12188,-0.17012 0.20821,-0.32881 0.25899,-0.47608 0.0508,-0.14727 0.0762,-0.29707 0.0762,-0.44942 -1e-5,-0.21328 -0.0603,-0.37769 -0.18092,-0.49322 -0.12061,-0.11553 -0.29263,-0.17329 -0.51607,-0.1733 -0.20821,1e-5 -0.39546,0.0622 -0.56177,0.18663 -0.16631,0.12442 -0.30025,0.30088 -0.40181,0.5294 h -0.49132 l 0.16377,-0.73126 c 0.28692,-0.11426 0.55289,-0.19868 0.79791,-0.25328 0.24502,-0.0546 0.48941,-0.0819 0.73317,-0.0819 0.24883,0 0.46401,0.0413 0.64556,0.12378 0.18155,0.0825 0.31866,0.19678 0.41134,0.34278 0.0927,0.146 0.13901,0.3066 0.13901,0.48179 0,0.16505 -0.0203,0.31549 -0.0609,0.45133 -0.0406,0.13584 -0.1041,0.27105 -0.19043,0.40562 -0.10664,0.1625 -0.27041,0.35674 -0.49131,0.58272 -0.19806,0.20059 -0.52433,0.50401 -0.97883,0.91027 -0.63477,0.56876 -1.0753,1.01945 -1.3216,1.35207 z"
         style="font-size:65.00091553%;-inkscape-font-specification:'Cambria Italic';baseline-shift:sub"
         id="path6059"
         inkscape:connector-curvature="0" />
    </g>
    <g
       style="font-style:normal;font-variant:normal;font-weight:normal;font-stretch:normal;font-size:12px;line-height:125%;font-family:Cambria;-inkscape-font-specification:Cambria;letter-spacing:0px;word-spacing:0px;fill:#000000;fill-opacity:1;stroke:none"
       id="text6000">
      <path
         d="m 64.11639,974.00732 c 0.187495,0.14063 0.338862,0.3086 0.454102,0.50391 0.115229,0.19532 0.208002,0.4668 0.27832,0.81445 l 0.134766,0.67969 c 0.02734,0.14063 0.05761,0.27149 0.09082,0.39258 0.0332,0.12109 0.07226,0.2373 0.117188,0.34863 0.04492,0.11133 0.09374,0.2002 0.146484,0.2666 0.05273,0.0664 0.109369,0.1211 0.169922,0.16407 0.06054,0.043 0.1289,0.0771 0.205078,0.10254 0.07617,0.0254 0.172845,0.0478 0.290039,0.0674 l -0.05859,0.28711 h -1.623047 c -0.125004,-0.34766 -0.236332,-0.76172 -0.333984,-1.24219 l -0.257813,-1.24219 c -0.04297,-0.21484 -0.09473,-0.3955 -0.155273,-0.54199 -0.06055,-0.14648 -0.132817,-0.25976 -0.216797,-0.33984 -0.08399,-0.0801 -0.181644,-0.13281 -0.292969,-0.15821 -0.111331,-0.0254 -0.247073,-0.0381 -0.407226,-0.0381 h -0.667969 l -0.410156,1.85742 c -0.03516,0.15234 -0.05957,0.27344 -0.07324,0.36328 -0.01367,0.0899 -0.02539,0.18457 -0.03516,0.28418 -0.0098,0.0996 -0.01465,0.18848 -0.01465,0.2666 -2e-6,0.1211 0.01953,0.21582 0.05859,0.28418 0.03906,0.0684 0.09765,0.11817 0.175781,0.14942 0.07812,0.0312 0.212888,0.0547 0.404297,0.0703 l -0.06445,0.28711 H 59.62225 l 0.06445,-0.28711 c 0.148437,-0.0234 0.259765,-0.0615 0.333984,-0.11426 0.07422,-0.0527 0.136718,-0.12598 0.1875,-0.21973 0.05078,-0.0937 0.09765,-0.208 0.140625,-0.34277 0.04297,-0.13476 0.107421,-0.39551 0.193359,-0.78223 l 0.996094,-4.51172 c 0.08593,-0.39061 0.128904,-0.69921 0.128906,-0.92578 -2e-6,-0.1914 -0.04492,-0.32421 -0.134765,-0.39843 -0.08985,-0.0742 -0.23633,-0.11718 -0.439453,-0.12891 l 0.06445,-0.28711 h 2.607422 c 0.414057,10e-6 0.751948,0.0244 1.013672,0.0732 0.261713,0.0488 0.485345,0.12208 0.670898,0.21973 0.185541,0.0977 0.340814,0.22364 0.46582,0.37793 0.124994,0.1543 0.218744,0.32813 0.28125,0.52148 0.06249,0.19337 0.09374,0.39942 0.09375,0.61817 -7e-6,0.34766 -0.05762,0.65625 -0.172851,0.92578 -0.115241,0.26953 -0.272468,0.50586 -0.47168,0.70898 -0.199225,0.20313 -0.43067,0.37501 -0.694336,0.51563 -0.263677,0.14063 -0.541997,0.25586 -0.834961,0.3457 z m -1.324219,-0.43945 c 0.425778,10e-6 0.779293,-0.042 1.060547,-0.12598 0.281246,-0.084 0.51562,-0.21191 0.703125,-0.38378 0.187495,-0.17187 0.341792,-0.39844 0.462891,-0.67969 0.121088,-0.28125 0.181635,-0.58593 0.181641,-0.91406 -6e-6,-0.16797 -0.01563,-0.31738 -0.04687,-0.44825 -0.03126,-0.13085 -0.07227,-0.23925 -0.123047,-0.32519 -0.05079,-0.0859 -0.11524,-0.1621 -0.19336,-0.22852 -0.07813,-0.0664 -0.175786,-0.12401 -0.292968,-0.17285 -0.117193,-0.0488 -0.252935,-0.084 -0.407227,-0.10547 -0.154301,-0.0215 -0.364262,-0.0322 -0.629883,-0.0322 -0.207035,0 -0.425785,0.008 -0.65625,0.0234 l -0.75,3.39258 z"
         style="font-style:italic;-inkscape-font-specification:'Cambria Italic'"
         id="path6062"
         inkscape:connector-curvature="0" />
      <path
         d="m 68.773747,978.93358 c -0.04571,0.20821 -0.06856,0.35674 -0.06856,0.44561 -2e-6,0.10156 0.02666,0.1771 0.07998,0.22661 0.05332,0.0495 0.141552,0.0851 0.264701,0.10665 0.123144,0.0216 0.314211,0.0362 0.573201,0.0438 l -0.05713,0.27803 h -2.688905 l 0.05713,-0.27803 c 0.213284,-0.0102 0.377056,-0.0241 0.491316,-0.0419 0.114258,-0.0178 0.2063,-0.0419 0.276127,-0.0724 0.06982,-0.0305 0.126319,-0.0673 0.169485,-0.11045 0.04316,-0.0432 0.08125,-0.1003 0.114259,-0.17139 0.03301,-0.0711 0.06475,-0.17774 0.09522,-0.31993 l 0.609384,-2.76127 c 0.02285,-0.10664 0.03999,-0.1917 0.05142,-0.25518 0.01142,-0.0635 0.01714,-0.11552 0.01714,-0.15615 -3e-6,-0.0762 -0.01905,-0.13013 -0.05713,-0.16187 -0.03809,-0.0317 -0.08379,-0.0476 -0.137111,-0.0476 -0.06602,1e-5 -0.166313,0.0324 -0.300884,0.0971 -0.134574,0.0648 -0.335162,0.17584 -0.601766,0.33326 l -0.148537,-0.30469 1.930984,-1.00929 h 0.262797 l -0.110451,0.44561 c -0.04063,0.1625 -0.08379,0.35167 -0.129494,0.56749 z"
         style="font-size:65.00091553%;-inkscape-font-specification:'Cambria Italic';baseline-shift:sub"
         id="path6064"
         inkscape:connector-curvature="0" />
    </g>
    <g
       style="font-style:normal;font-variant:normal;font-weight:normal;font-stretch:normal;font-size:12px;line-height:125%;font-family:Cambria;-inkscape-font-specification:Cambria;letter-spacing:0px;word-spacing:0px;fill:#000000;fill-opacity:1;stroke:none"
       id="text6004">
      <path
         d="m 362.18747,804.1286 c 0.18749,0.14063 0.33886,0.3086 0.4541,0.50391 0.11523,0.19531 0.208,0.4668 0.27832,0.81445 l 0.13477,0.67969 c 0.0273,0.14062 0.0576,0.27148 0.0908,0.39258 0.0332,0.12109 0.0723,0.2373 0.11718,0.34863 0.0449,0.11133 0.0937,0.20019 0.14649,0.2666 0.0527,0.0664 0.10937,0.12109 0.16992,0.16406 0.0605,0.043 0.1289,0.0771 0.20508,0.10254 0.0762,0.0254 0.17284,0.0478 0.29004,0.0674 l -0.0586,0.28711 h -1.62304 c -0.12501,-0.34765 -0.23634,-0.76171 -0.33399,-1.24218 l -0.25781,-1.24219 c -0.043,-0.21484 -0.0947,-0.39551 -0.15527,-0.54199 -0.0606,-0.14648 -0.13282,-0.25977 -0.2168,-0.33985 -0.084,-0.0801 -0.18164,-0.13281 -0.29297,-0.1582 -0.11133,-0.0254 -0.24707,-0.0381 -0.40722,-0.0381 h -0.66797 l -0.41016,1.85743 c -0.0352,0.15234 -0.0596,0.27344 -0.0732,0.36328 -0.0137,0.0898 -0.0254,0.18457 -0.0352,0.28418 -0.01,0.0996 -0.0147,0.18847 -0.0147,0.2666 0,0.12109 0.0195,0.21582 0.0586,0.28418 0.0391,0.0684 0.0976,0.11816 0.17578,0.14941 0.0781,0.0312 0.21289,0.0547 0.4043,0.0703 l -0.0645,0.28711 h -2.4082 l 0.0645,-0.28711 c 0.14844,-0.0234 0.25977,-0.0615 0.33399,-0.11425 0.0742,-0.0527 0.13671,-0.12598 0.1875,-0.21973 0.0508,-0.0937 0.0976,-0.20801 0.14062,-0.34277 0.043,-0.13477 0.10742,-0.39551 0.19336,-0.78223 l 0.99609,-4.51172 c 0.0859,-0.39062 0.12891,-0.69921 0.12891,-0.92578 0,-0.1914 -0.0449,-0.32421 -0.13476,-0.39844 -0.0899,-0.0742 -0.23633,-0.11718 -0.43946,-0.1289 l 0.0645,-0.28711 h 2.60742 c 0.41405,10e-6 0.75194,0.0244 1.01367,0.0732 0.26171,0.0488 0.48534,0.12208 0.6709,0.21973 0.18554,0.0977 0.34081,0.22364 0.46582,0.37793 0.12499,0.1543 0.21874,0.32813 0.28125,0.52148 0.0625,0.19337 0.0937,0.39942 0.0937,0.61816 -10e-6,0.34767 -0.0576,0.65626 -0.17285,0.92579 -0.11524,0.26953 -0.27247,0.50586 -0.47168,0.70898 -0.19923,0.20313 -0.43067,0.375 -0.69434,0.51562 -0.26368,0.14063 -0.542,0.25587 -0.83496,0.34571 z m -1.32422,-0.43945 c 0.42578,0 0.77929,-0.042 1.06055,-0.12598 0.28124,-0.084 0.51562,-0.21191 0.70312,-0.38379 0.1875,-0.17187 0.34179,-0.39843 0.46289,-0.67969 0.12109,-0.28124 0.18164,-0.58593 0.18164,-0.91406 0,-0.16796 -0.0156,-0.31737 -0.0469,-0.44824 -0.0313,-0.13085 -0.0723,-0.23925 -0.12305,-0.3252 -0.0508,-0.0859 -0.11524,-0.1621 -0.19336,-0.22851 -0.0781,-0.0664 -0.17578,-0.12402 -0.29297,-0.17285 -0.11719,-0.0488 -0.25293,-0.084 -0.40722,-0.10547 -0.1543,-0.0215 -0.36426,-0.0322 -0.62989,-0.0322 -0.20703,1e-5 -0.42578,0.008 -0.65625,0.0234 l -0.75,3.39258 z"
         style="font-style:italic;-inkscape-font-specification:'Cambria Italic'"
         id="path6040"
         inkscape:connector-curvature="0" />
      <path
         d="m 366.73818,809.54617 c 0.094,0 0.16695,-0.005 0.219,-0.0152 0.0521,-0.0102 0.0946,-0.0248 0.12759,-0.0438 0.033,-0.019 0.0673,-0.0476 0.10283,-0.0857 0.0356,-0.0381 0.0679,-0.0825 0.0971,-0.1333 0.0292,-0.0508 0.0666,-0.12568 0.11235,-0.22471 h 0.3542 l -0.28184,1.11212 h -2.98598 l 0.0381,-0.18281 c 0.14727,-0.26407 0.33961,-0.54083 0.57701,-0.83029 0.23741,-0.28945 0.55924,-0.62715 0.96549,-1.0131 0.34024,-0.32246 0.57511,-0.55098 0.7046,-0.68555 0.23106,-0.2336 0.40753,-0.43545 0.52941,-0.60558 0.12187,-0.17011 0.2082,-0.32881 0.25898,-0.47608 0.0508,-0.14726 0.0762,-0.29707 0.0762,-0.44942 -10e-6,-0.21328 -0.0603,-0.37769 -0.18091,-0.49322 -0.12061,-0.11552 -0.29264,-0.17329 -0.51608,-0.17329 -0.2082,0 -0.39546,0.0622 -0.56177,0.18662 -0.16631,0.12442 -0.30025,0.30089 -0.40181,0.5294 h -0.49132 l 0.16377,-0.73126 c 0.28692,-0.11425 0.55289,-0.19868 0.79791,-0.25327 0.24502,-0.0546 0.48941,-0.0819 0.73317,-0.0819 0.24883,10e-6 0.46402,0.0413 0.64556,0.12378 0.18155,0.0825 0.31866,0.19679 0.41134,0.34278 0.0927,0.146 0.13901,0.3066 0.13901,0.4818 0,0.16504 -0.0203,0.31548 -0.0609,0.45132 -0.0406,0.13585 -0.10411,0.27105 -0.19044,0.40562 -0.10664,0.16251 -0.27041,0.35675 -0.49131,0.58272 -0.19805,0.2006 -0.52433,0.50402 -0.97882,0.91027 -0.63478,0.56876 -1.07531,1.01945 -1.32161,1.35207 z"
         style="font-size:65.00091553%;-inkscape-font-specification:'Cambria Italic';baseline-shift:sub"
         id="path6042"
         inkscape:connector-curvature="0" />
    </g>
    <g
       style="font-style:normal;font-variant:normal;font-weight:normal;font-stretch:normal;font-size:12px;line-height:125%;font-family:Cambria;-inkscape-font-specification:Cambria;letter-spacing:0px;word-spacing:0px;fill:#000000;fill-opacity:1;stroke:none"
       id="text6016">
      <path
         d="m 102.04379,913.17151 c -1.4629,0 -2.194342,-0.91829 -2.194341,-2.75488 -1e-6,-1.58594 0.427241,-3.14681 1.281741,-4.68262 0.85449,-1.5358 1.93798,-2.3037 3.25049,-2.30371 1.37629,10e-6 2.06444,0.90007 2.06445,2.70019 -1e-5,1.59506 -0.417,3.16732 -1.25098,4.7168 -0.83399,1.54948 -1.88444,2.32422 -3.15136,2.32422 z m -0.52637,-5.38672 h 3.51367 c 0.17773,-0.96614 0.2666,-1.70898 0.2666,-2.22852 0,-1.03449 -0.35092,-1.55174 -1.05273,-1.55175 -0.53321,1e-5 -1.03679,0.32813 -1.51075,0.98437 -0.47396,0.65626 -0.87956,1.58822 -1.21679,2.7959 z m -0.1709,0.64258 c -0.24154,1.02539 -0.36231,1.889 -0.36231,2.59082 0,1.05273 0.39649,1.5791 1.18946,1.5791 0.5651,0 1.08121,-0.36686 1.54834,-1.10059 0.46711,-0.73372 0.85562,-1.75683 1.16553,-3.06933 z"
         style="font-size:14px;-inkscape-font-specification:'Cambria Italic'"
         id="path6067"
         inkscape:connector-curvature="0" />
      <path
         d="m 108.72936,910.32808 -0.1752,0.73887 h -0.67413 l 0.1752,-0.73887 z m -0.94073,4.18189 c -0.0279,0.1295 -0.0457,0.22408 -0.0533,0.28375 -0.008,0.0597 -0.0114,0.10981 -0.0114,0.15044 0,0.0762 0.0127,0.13584 0.0381,0.179 0.0254,0.0432 0.0647,0.0762 0.11806,0.099 0.0533,0.0229 0.14092,0.0406 0.2628,0.0533 l -0.0343,0.18662 h -1.18068 l 0.57511,-2.56702 c 0.033,-0.14727 0.0559,-0.2647 0.0686,-0.3523 0.0127,-0.0876 0.0191,-0.1606 0.0191,-0.219 0,-0.0736 -0.0108,-0.13076 -0.0324,-0.17139 -0.0216,-0.0406 -0.0578,-0.0711 -0.10854,-0.0914 -0.0508,-0.0203 -0.13839,-0.033 -0.2628,-0.0381 l 0.0419,-0.20186 0.92931,-0.0343 h 0.22472 z"
         style="font-size:65.00091553%;-inkscape-font-specification:'Cambria Italic';baseline-shift:sub"
         id="path6069"
         inkscape:connector-curvature="0" />
      <path
         d="m 112.30568,915.46213 h -1.19972 l 0.4837,-1.93479 c 0.0305,-0.12441 0.0603,-0.26152 0.0895,-0.41133 0.0292,-0.14981 0.0438,-0.28438 0.0438,-0.40372 0,-0.18027 -0.0311,-0.30977 -0.0933,-0.38848 -0.0622,-0.0787 -0.15933,-0.11807 -0.29136,-0.11807 -0.10665,0 -0.22154,0.0413 -0.34469,0.12378 -0.12315,0.0825 -0.252,0.20567 -0.38657,0.36944 -0.13458,0.16377 -0.2482,0.33009 -0.34088,0.49893 -0.0927,0.16886 -0.16441,0.37389 -0.21519,0.6151 l -0.34658,1.64914 h -0.6589 l 0.57891,-2.6013 c 0.0127,-0.0584 0.0298,-0.14473 0.0514,-0.25899 0.0216,-0.11426 0.0324,-0.20947 0.0324,-0.28565 0,-0.0711 -0.0108,-0.12632 -0.0324,-0.16568 -0.0216,-0.0394 -0.0584,-0.0686 -0.11045,-0.0876 -0.052,-0.019 -0.14029,-0.0324 -0.2647,-0.04 l 0.0457,-0.20186 0.86457,-0.0343 h 0.21709 l -0.25518,0.99025 0.0457,0.0152 c 0.24883,-0.35039 0.48878,-0.61001 0.71984,-0.77887 0.23105,-0.16884 0.46211,-0.25327 0.69317,-0.25327 0.24629,0 0.43291,0.0679 0.55987,0.20376 0.12695,0.13585 0.19043,0.33707 0.19043,0.60367 0,0.0914 -0.008,0.19107 -0.0247,0.29898 -0.0165,0.10791 -0.0349,0.20377 -0.0552,0.28755 l -0.31992,1.35588 c -0.0432,0.18282 -0.0648,0.32755 -0.0648,0.43419 0,0.0762 0.0127,0.13584 0.0381,0.179 0.0254,0.0432 0.0647,0.0762 0.11806,0.099 0.0533,0.0229 0.14092,0.0406 0.2628,0.0533 z"
         style="font-size:65.00091553%;-inkscape-font-specification:'Cambria Italic';baseline-shift:sub"
         id="path6071"
         inkscape:connector-curvature="0" />
    </g>
    <g
       style="font-style:normal;font-variant:normal;font-weight:normal;font-stretch:normal;font-size:12px;line-height:125%;font-family:Cambria;-inkscape-font-specification:Cambria;letter-spacing:0px;word-spacing:0px;fill:#000000;fill-opacity:1;stroke:none"
       id="text6024">
      <path
         d="m 239.22249,930.14209 c -1.46289,0 -2.19434,-0.91829 -2.19434,-2.75488 0,-1.58594 0.42725,-3.14681 1.28174,-4.68262 0.85449,-1.5358 1.93798,-2.3037 3.25049,-2.30371 1.37629,10e-6 2.06444,0.90007 2.06445,2.70019 -1e-5,1.59506 -0.417,3.16733 -1.25097,4.7168 -0.83399,1.54948 -1.88445,2.32422 -3.15137,2.32422 z m -0.52637,-5.38672 h 3.51367 c 0.17773,-0.96614 0.2666,-1.70898 0.2666,-2.22851 0,-1.0345 -0.35091,-1.55175 -1.05273,-1.55176 -0.53321,10e-6 -1.03679,0.32813 -1.51074,0.98437 -0.47396,0.65626 -0.87956,1.58823 -1.2168,2.7959 z m -0.1709,0.64258 c -0.24154,1.02539 -0.3623,1.889 -0.3623,2.59082 0,1.05273 0.39648,1.5791 1.18945,1.5791 0.5651,0 1.08121,-0.36686 1.54834,-1.10058 0.46712,-0.73373 0.85563,-1.75684 1.16553,-3.06934 z"
         style="font-style:italic;font-size:14px;-inkscape-font-specification:'Cambria Italic'"
         id="path6048"
         inkscape:connector-curvature="0" />
      <path
         d="m 245.59258,932.90825 c -0.45915,0 -0.81537,-0.12886 -1.06864,-0.38657 -0.25328,-0.25772 -0.37991,-0.62801 -0.37991,-1.11086 0,-0.17774 0.0222,-0.38658 0.0667,-0.62652 0.0563,-0.31104 0.13626,-0.58653 0.23994,-0.82648 0.1333,-0.29919 0.30438,-0.55765 0.51322,-0.77538 0.20884,-0.21772 0.44878,-0.38361 0.71983,-0.49766 0.27105,-0.11404 0.56209,-0.17107 0.87313,-0.17107 0.34066,0 0.61986,0.0652 0.83759,0.19551 0.21772,0.13034 0.37547,0.30734 0.47322,0.53099 0.0978,0.22365 0.14663,0.48211 0.14664,0.77538 -1e-5,0.26364 -0.037,0.54506 -0.11109,0.84425 -0.10664,0.43841 -0.26216,0.81018 -0.46656,1.11529 -0.2044,0.30512 -0.46064,0.53692 -0.76871,0.6954 -0.30808,0.15848 -0.66652,0.23772 -1.07531,0.23772 z m -0.67095,-1.30636 c -1e-5,0.32585 0.0674,0.56653 0.20217,0.72205 0.13478,0.15552 0.33844,0.23328 0.61097,0.23328 0.2903,0 0.54802,-0.13034 0.77316,-0.39102 0.22513,-0.26068 0.40286,-0.62578 0.53321,-1.0953 0.13033,-0.46952 0.19551,-0.88202 0.19551,-1.2375 0,-0.31992 -0.0622,-0.5606 -0.18663,-0.72205 -0.12441,-0.16144 -0.31844,-0.24216 -0.58208,-0.24217 -0.30808,10e-6 -0.57691,0.12887 -0.80648,0.38658 -0.22958,0.25772 -0.41028,0.62653 -0.5421,1.10641 -0.13182,0.47989 -0.19774,0.89313 -0.19773,1.23972 z"
         style="font-size:65.00091553%;baseline-shift:sub"
         id="path6050"
         inkscape:connector-curvature="0" />
      <path
         d="m 249.07622,928.5848 h 1.39968 l -0.56431,2.26171 c -0.0415,0.16588 -0.0778,0.33103 -0.10887,0.49544 -0.0311,0.1644 -0.0466,0.31474 -0.0466,0.451 0,0.21033 0.0363,0.3614 0.10886,0.45323 0.0726,0.0918 0.18588,0.13775 0.33992,0.13775 0.12738,0 0.26513,-0.0496 0.41324,-0.14886 0.14811,-0.0992 0.30511,-0.25327 0.47101,-0.46211 0.16588,-0.20884 0.29696,-0.40657 0.39324,-0.5932 0.0963,-0.18662 0.17107,-0.40879 0.22439,-0.66651 l 0.40435,-1.92845 h 0.76871 l -0.6754,3.03486 c -0.0178,0.08 -0.0385,0.18514 -0.0622,0.31548 -0.0237,0.13034 -0.0356,0.23699 -0.0356,0.31993 0,0.12442 0.0348,0.21254 0.10442,0.26438 0.0696,0.0518 0.19921,0.0837 0.3888,0.0955 l -0.0489,0.21772 h -1.27082 l 0.28438,-1.11529 -0.0578,-0.0178 c -0.28735,0.4088 -0.56506,0.71169 -0.83314,0.90868 -0.26809,0.19699 -0.5384,0.29549 -0.81093,0.29549 -0.28734,0 -0.50507,-0.0792 -0.65318,-0.23772 -0.14812,-0.15849 -0.22217,-0.39325 -0.22217,-0.70429 0,-0.0889 0.008,-0.19328 0.0244,-0.31326 0.0163,-0.11997 0.0392,-0.24512 0.0689,-0.37547 l 0.37325,-1.57741 c 0.0296,-0.13034 0.0496,-0.23402 0.06,-0.31104 0.0104,-0.077 0.0155,-0.14219 0.0155,-0.19551 0,-0.1333 -0.0355,-0.22661 -0.10664,-0.27994 -0.0711,-0.0533 -0.19847,-0.0874 -0.38213,-0.1022 z"
         style="font-size:65.00091553%;baseline-shift:sub"
         id="path6052"
         inkscape:connector-curvature="0" />
      <path
         d="m 256.26568,932.01513 c -0.24291,0.29326 -0.48285,0.51469 -0.71983,0.66429 -0.23699,0.14959 -0.48878,0.22439 -0.75538,0.22439 -0.31401,0 -0.54803,-0.08 -0.70206,-0.23995 -0.15404,-0.15996 -0.23106,-0.3925 -0.23106,-0.69761 0,-0.18663 0.0267,-0.39547 0.08,-0.62652 l 0.55098,-2.30614 h -0.66207 l 0.0489,-0.22662 c 0.17478,-0.0207 0.31326,-0.0585 0.41546,-0.1133 0.1022,-0.0548 0.18811,-0.12738 0.25772,-0.21773 0.0696,-0.0904 0.13404,-0.2081 0.19329,-0.35325 0.0592,-0.14515 0.1333,-0.35695 0.22217,-0.63541 h 0.61319 l -0.24439,1.09752 h 1.40857 l -0.0978,0.44879 h -1.413 l -0.42657,1.72405 c -0.1185,0.47989 -0.17774,0.83832 -0.17774,1.0753 0,0.1807 0.0393,0.31771 0.11775,0.41102 0.0785,0.0933 0.19329,0.13997 0.34437,0.13997 0.13626,0 0.27919,-0.0526 0.42879,-0.15774 0.14959,-0.10516 0.31325,-0.26439 0.49099,-0.47767 z"
         style="font-size:65.00091553%;baseline-shift:sub"
         id="path6054"
         inkscape:connector-curvature="0" />
    </g>
    <g
       style="font-style:normal;font-variant:normal;font-weight:normal;font-stretch:normal;font-size:12px;line-height:125%;font-family:Cambria;-inkscape-font-specification:Cambria;letter-spacing:0px;word-spacing:0px;fill:#000000;fill-opacity:1;stroke:none"
       id="text6035">
      <path
         d="m 272.66846,881.46075 c -0.56967,-0.49218 -0.9502,-0.88752 -1.1416,-1.18603 -0.19141,-0.2985 -0.28712,-0.59358 -0.28711,-0.88525 -1e-5,-0.4694 0.19824,-0.85107 0.59472,-1.14502 0.39648,-0.29394 0.92741,-0.44091 1.59278,-0.44092 0.95247,10e-6 1.7591,0.24382 2.41992,0.73144 v 0.99121 h -0.65625 c -0.36915,-0.78384 -0.95248,-1.17577 -1.75,-1.17578 -0.38738,10e-6 -0.68246,0.0855 -0.88526,0.25635 -0.2028,0.17091 -0.3042,0.37485 -0.3042,0.61182 0,0.2142 0.0889,0.42383 0.26661,0.6289 0.17773,0.20509 0.69498,0.6631 1.55175,1.37403 0.68815,0.57422 1.19173,1.1211 1.51075,1.64062 0.319,0.51954 0.47851,1.13477 0.47851,1.8457 0,0.90235 -0.28484,1.62924 -0.85449,2.18067 -0.56967,0.55143 -1.28972,0.82715 -2.16016,0.82715 -0.875,0 -1.58366,-0.27686 -2.12597,-0.83057 -0.54232,-0.55371 -0.81348,-1.27034 -0.81348,-2.1499 0,-1.59505 0.85449,-2.68652 2.56348,-3.27442 z m 0.49218,0.40332 c -1.18489,0.51954 -1.77734,1.51531 -1.77734,2.98731 0,0.69271 0.15381,1.25326 0.46143,1.68164 0.30761,0.42839 0.70296,0.64258 1.18603,0.64258 0.55143,0 0.98095,-0.22217 1.28858,-0.66651 0.30761,-0.44433 0.46142,-1.04475 0.46142,-1.80127 0,-0.5651 -0.12875,-1.0664 -0.38623,-1.5039 -0.25749,-0.4375 -0.66879,-0.88411 -1.23389,-1.33985 z"
         style="font-size:14px"
         id="path6045"
         inkscape:connector-curvature="0" />
    </g>
    <text
       xml:space="preserve"
       style="font-style:normal;font-variant:normal;font-weight:normal;font-stretch:normal;line-height:0%;font-family:Cambria;-inkscape-font-specification:Cambria;letter-spacing:0px;word-spacing:0px;fill:#000000;fill-opacity:1;stroke:none"
       x="277.18585"
       y="886.89917"
       id="text6078"><tspan
         sodipodi:role="line"
         id="tspan6080"
         x="277.18585"
         y="886.89917"
         style="font-size:12px;line-height:1.25">/2</tspan></text>
    <path
       style="stroke-width:0.93750001;stroke-miterlimit:4;stroke-dasharray:none;stroke-dashoffset:0;fill:none;stroke:#000000;stroke-opacity:1"
       id="path50"
       sodipodi:type="arc"
       sodipodi:cx="177.36853"
       sodipodi:cy="910.22003"
       sodipodi:rx="47.450859"
       sodipodi:ry="47.450859"
       sodipodi:start="5.2352167"
       sodipodi:end="6.2269834"
       sodipodi:open="true"
       d="m 201.06227,869.1081 a 47.450859,47.450859 0 0 1 23.6822,38.44651" />
    <path
       style="fill:none;stroke:#000000;stroke-width:0.9375;stroke-miterlimit:4;stroke-dasharray:none;stroke-dashoffset:0;stroke-opacity:1"
       id="path870"
       sodipodi:type="arc"
       sodipodi:cx="256.16855"
       sodipodi:cy="778.2085"
       sodipodi:rx="37.493916"
       sodipodi:ry="37.493916"
       sodipodi:start="0.9950706"
       sodipodi:end="2.1122455"
       sodipodi:open="true"
       d="m 276.58187,809.6583 a 37.493916,37.493916 0 0 1 -39.73688,0.68108" />
    <text
       xml:space="preserve"
       style="font-style:normal;font-weight:normal;font-size:12.5px;line-height:1.25;font-family:sans-serif;letter-spacing:0px;word-spacing:0px;fill:#000000;fill-opacity:1;stroke:none;stroke-width:0.9375"
       x="255.88428"
       y="808.41034"
       id="text874"><tspan
         sodipodi:role="line"
         id="tspan872"
         x="255.88428"
         y="808.41034"
         style="stroke-width:0.9375">a</tspan></text>
    <text
       xml:space="preserve"
       style="font-style:normal;font-weight:normal;font-size:12.5px;line-height:1.25;font-family:sans-serif;letter-spacing:0px;word-spacing:0px;fill:#000000;fill-opacity:1;stroke:none;stroke-width:0.9375"
       x="216.10951"
       y="880.00494"
       id="text878"><tspan
         sodipodi:role="line"
         id="tspan876"
         x="216.10951"
         y="880.00494"
         style="stroke-width:0.9375">x</tspan></text>
  </g>
</svg>
