<?xml version="1.0" encoding="UTF-8" standalone="no"?>
<!-- Created with Inkscape (http://www.inkscape.org/) -->

<svg
   xmlns:dc="http://purl.org/dc/elements/1.1/"
   xmlns:cc="http://creativecommons.org/ns#"
   xmlns:rdf="http://www.w3.org/1999/02/22-rdf-syntax-ns#"
   xmlns:svg="http://www.w3.org/2000/svg"
   xmlns="http://www.w3.org/2000/svg"
   xmlns:sodipodi="http://sodipodi.sourceforge.net/DTD/sodipodi-0.dtd"
   xmlns:inkscape="http://www.inkscape.org/namespaces/inkscape"
   width="613.50043"
   height="350.22058"
   id="svg4882"
   version="1.1"
   inkscape:version="0.48.5 r10040"
   sodipodi:docname="figure3b.svg"
   viewBox="0 0 575.15666 328.3318">
  <sodipodi:namedview
     id="base"
     pagecolor="#ffffff"
     bordercolor="#666666"
     borderopacity="1.0"
     inkscape:pageopacity="0.0"
     inkscape:pageshadow="2"
     inkscape:zoom="1.7447717"
     inkscape:cx="241.47705"
     inkscape:cy="171.71645"
     inkscape:document-units="px"
     inkscape:current-layer="layer1"
     showgrid="false"
     inkscape:window-width="1920"
     inkscape:window-height="1018"
     inkscape:window-x="-8"
     inkscape:window-y="-8"
     inkscape:window-maximized="1"
     fit-margin-top="0"
     fit-margin-left="0"
     fit-margin-right="0"
     fit-margin-bottom="0" />
  <defs
     id="defs4884">
    <marker
       style="overflow:visible"
       id="Arrow2Mstart"
       refX="0"
       refY="0"
       orient="auto"
       inkscape:stockid="Arrow2Mstart">
      <path
         inkscape:connector-curvature="0"
         transform="scale(0.6,0.6)"
         d="M 8.7185878,4.0337352 -2.2072895,0.01601326 8.7185884,-4.0017078 c -1.7454984,2.3720609 -1.7354408,5.6174519 -6e-7,8.035443 z"
         style="fill-rule:evenodd;stroke-width:0.625;stroke-linejoin:round"
         id="path3827" />
    </marker>
    <marker
       style="overflow:visible"
       id="Arrow2MstartF"
       refX="0"
       refY="0"
       orient="auto"
       inkscape:stockid="Arrow2MstartF">
      <path
         inkscape:connector-curvature="0"
         transform="scale(0.6,0.6)"
         d="M 8.7185878,4.0337352 -2.2072895,0.01601326 8.7185884,-4.0017078 c -1.7454984,2.3720609 -1.7354408,5.6174519 -6e-7,8.035443 z"
         style="fill:#ffffff;fill-rule:evenodd;stroke:#ffffff;stroke-width:0.625;stroke-linejoin:round"
         id="path3804" />
    </marker>
  </defs>
  <metadata
     id="metadata4887">
    <rdf:RDF>
      <cc:Work
         rdf:about="">
        <dc:format>image/svg+xml</dc:format>
        <dc:type
           rdf:resource="http://purl.org/dc/dcmitype/StillImage" />
        <dc:title></dc:title>
      </cc:Work>
    </rdf:RDF>
  </metadata>
  <g
     transform="translate(40.131464,-744.38955)"
     id="layer1"
     inkscape:groupmode="layer"
     inkscape:label="Layer 1">
    <rect
       y="745.10699"
       x="-39.414013"
       height="326.89691"
       width="573.72174"
       id="rect3023"
       style="fill:#003d5c;fill-opacity:1;stroke:#ffffff;stroke-width:1.43490124;stroke-linecap:butt;stroke-linejoin:miter;stroke-miterlimit:4;stroke-opacity:0.24468085;stroke-dasharray:none;stroke-dashoffset:0" />
    <path
       inkscape:transform-center-y="-41.870365"
       transform="matrix(0.99204628,0,0,0.96921112,171.24938,706.87633)"
       d="m 85.600003,73.598145 149.650787,259.202775 -299.301585,-1e-5 z"
       inkscape:randomized="0"
       inkscape:rounded="0"
       inkscape:flatsided="true"
       sodipodi:arg2="-0.52359878"
       sodipodi:arg1="-1.5707963"
       sodipodi:r2="86.400925"
       sodipodi:r1="172.80185"
       sodipodi:cy="246.39999"
       sodipodi:cx="85.599998"
       sodipodi:sides="3"
       id="path4890"
       style="fill:#507882;fill-opacity:1;stroke:none"
       sodipodi:type="star" />
    <path
       inkscape:connector-curvature="0"
       id="path4892"
       d="m 334.16854,910.22004 h -156.8 l -99.848708,57.64768"
       style="fill:none;stroke:#ffffff;stroke-width:2;stroke-linecap:butt;stroke-linejoin:miter;stroke-miterlimit:4;stroke-opacity:1;stroke-dasharray:none;marker-start:url(#Arrow2MstartF)" />
    <g
       transform="translate(56.568543,-14.142136)"
       id="g5960"
       style="fill:none;stroke:#ffffff;stroke-opacity:1">
      <path
         sodipodi:nodetypes="cc"
         style="fill:none;stroke:#ffffff;stroke-width:1.45781732;stroke-linecap:butt;stroke-linejoin:miter;stroke-miterlimit:4;stroke-opacity:1;stroke-dasharray:5.83126906, 5.83126906;stroke-dashoffset:0"
         d="M 57.964039,886.15211 183.58248,961.46872"
         id="path5958"
         inkscape:connector-curvature="0" />
    </g>
    <path
       sodipodi:type="arc"
       style="fill:none;stroke:#fefefe;stroke-width:1.875;stroke-miterlimit:4;stroke-opacity:1;stroke-dasharray:none;stroke-dashoffset:0"
       id="path5984"
       sodipodi:cx="121.6"
       sodipodi:cy="171.2"
       sodipodi:rx="54.400002"
       sodipodi:ry="54.400002"
       d="m 175.99096,172.19184 c -0.17227,9.44707 -2.80216,18.68637 -7.63067,26.80808"
       transform="translate(56.568543,738.22004)"
       sodipodi:start="0.018233353"
       sodipodi:end="0.53638029"
       sodipodi:open="true" />
    <g
       id="text6024"
       style="font-size:12px;font-style:normal;font-variant:normal;font-weight:normal;font-stretch:normal;line-height:125%;letter-spacing:0px;word-spacing:0px;fill:#ffffff;fill-opacity:1;stroke:none;font-family:Cambria;-inkscape-font-specification:Cambria"
       transform="matrix(1.5,0,0,1.5,-123.44233,-463.32728)">
      <path
         inkscape:connector-curvature="0"
         id="path6048"
         style="font-size:14px;font-style:italic;fill:#ffffff;-inkscape-font-specification:Cambria Italic"
         d="m 239.22249,930.14209 c -1.46289,0 -2.19434,-0.91829 -2.19434,-2.75488 0,-1.58594 0.42725,-3.14681 1.28174,-4.68262 0.85449,-1.5358 1.93798,-2.3037 3.25049,-2.30371 1.37629,10e-6 2.06444,0.90007 2.06445,2.70019 -1e-5,1.59506 -0.417,3.16733 -1.25097,4.7168 -0.83399,1.54948 -1.88445,2.32422 -3.15137,2.32422 z m -0.52637,-5.38672 h 3.51367 c 0.17773,-0.96614 0.2666,-1.70898 0.2666,-2.22851 0,-1.0345 -0.35091,-1.55175 -1.05273,-1.55176 -0.53321,10e-6 -1.03679,0.32813 -1.51074,0.98437 -0.47396,0.65626 -0.87956,1.58823 -1.2168,2.7959 z m -0.1709,0.64258 c -0.24154,1.02539 -0.3623,1.889 -0.3623,2.59082 0,1.05273 0.39648,1.5791 1.18945,1.5791 0.5651,0 1.08121,-0.36686 1.54834,-1.10058 0.46712,-0.73373 0.85563,-1.75684 1.16553,-3.06934 z" />
      <path
         inkscape:connector-curvature="0"
         id="path6050"
         style="font-size:65.00091553%;baseline-shift:sub;fill:#ffffff"
         d="m 245.59258,932.90825 c -0.45915,0 -0.81537,-0.12886 -1.06864,-0.38657 -0.25328,-0.25772 -0.37991,-0.62801 -0.37991,-1.11086 0,-0.17774 0.0222,-0.38658 0.0667,-0.62652 0.0563,-0.31104 0.13626,-0.58653 0.23994,-0.82648 0.1333,-0.29919 0.30438,-0.55765 0.51322,-0.77538 0.20884,-0.21772 0.44878,-0.38361 0.71983,-0.49766 0.27105,-0.11404 0.56209,-0.17107 0.87313,-0.17107 0.34066,0 0.61986,0.0652 0.83759,0.19551 0.21772,0.13034 0.37547,0.30734 0.47322,0.53099 0.0978,0.22365 0.14663,0.48211 0.14664,0.77538 -1e-5,0.26364 -0.037,0.54506 -0.11109,0.84425 -0.10664,0.43841 -0.26216,0.81018 -0.46656,1.11529 -0.2044,0.30512 -0.46064,0.53692 -0.76871,0.6954 -0.30808,0.15848 -0.66652,0.23772 -1.07531,0.23772 z m -0.67095,-1.30636 c -1e-5,0.32585 0.0674,0.56653 0.20217,0.72205 0.13478,0.15552 0.33844,0.23328 0.61097,0.23328 0.2903,0 0.54802,-0.13034 0.77316,-0.39102 0.22513,-0.26068 0.40286,-0.62578 0.53321,-1.0953 0.13033,-0.46952 0.19551,-0.88202 0.19551,-1.2375 0,-0.31992 -0.0622,-0.5606 -0.18663,-0.72205 -0.12441,-0.16144 -0.31844,-0.24216 -0.58208,-0.24217 -0.30808,10e-6 -0.57691,0.12887 -0.80648,0.38658 -0.22958,0.25772 -0.41028,0.62653 -0.5421,1.10641 -0.13182,0.47989 -0.19774,0.89313 -0.19773,1.23972 z" />
      <path
         inkscape:connector-curvature="0"
         id="path6052"
         style="font-size:65.00091553%;baseline-shift:sub;fill:#ffffff"
         d="m 249.07622,928.5848 h 1.39968 l -0.56431,2.26171 c -0.0415,0.16588 -0.0778,0.33103 -0.10887,0.49544 -0.0311,0.1644 -0.0466,0.31474 -0.0466,0.451 0,0.21033 0.0363,0.3614 0.10886,0.45323 0.0726,0.0918 0.18588,0.13775 0.33992,0.13775 0.12738,0 0.26513,-0.0496 0.41324,-0.14886 0.14811,-0.0992 0.30511,-0.25327 0.47101,-0.46211 0.16588,-0.20884 0.29696,-0.40657 0.39324,-0.5932 0.0963,-0.18662 0.17107,-0.40879 0.22439,-0.66651 l 0.40435,-1.92845 h 0.76871 l -0.6754,3.03486 c -0.0178,0.08 -0.0385,0.18514 -0.0622,0.31548 -0.0237,0.13034 -0.0356,0.23699 -0.0356,0.31993 0,0.12442 0.0348,0.21254 0.10442,0.26438 0.0696,0.0518 0.19921,0.0837 0.3888,0.0955 l -0.0489,0.21772 h -1.27082 l 0.28438,-1.11529 -0.0578,-0.0178 c -0.28735,0.4088 -0.56506,0.71169 -0.83314,0.90868 -0.26809,0.19699 -0.5384,0.29549 -0.81093,0.29549 -0.28734,0 -0.50507,-0.0792 -0.65318,-0.23772 -0.14812,-0.15849 -0.22217,-0.39325 -0.22217,-0.70429 0,-0.0889 0.008,-0.19328 0.0244,-0.31326 0.0163,-0.11997 0.0392,-0.24512 0.0689,-0.37547 l 0.37325,-1.57741 c 0.0296,-0.13034 0.0496,-0.23402 0.06,-0.31104 0.0104,-0.077 0.0155,-0.14219 0.0155,-0.19551 0,-0.1333 -0.0355,-0.22661 -0.10664,-0.27994 -0.0711,-0.0533 -0.19847,-0.0874 -0.38213,-0.1022 z" />
      <path
         inkscape:connector-curvature="0"
         id="path6054"
         style="font-size:65.00091553%;baseline-shift:sub;fill:#ffffff"
         d="m 256.26568,932.01513 c -0.24291,0.29326 -0.48285,0.51469 -0.71983,0.66429 -0.23699,0.14959 -0.48878,0.22439 -0.75538,0.22439 -0.31401,0 -0.54803,-0.08 -0.70206,-0.23995 -0.15404,-0.15996 -0.23106,-0.3925 -0.23106,-0.69761 0,-0.18663 0.0267,-0.39547 0.08,-0.62652 l 0.55098,-2.30614 h -0.66207 l 0.0489,-0.22662 c 0.17478,-0.0207 0.31326,-0.0585 0.41546,-0.1133 0.1022,-0.0548 0.18811,-0.12738 0.25772,-0.21773 0.0696,-0.0904 0.13404,-0.2081 0.19329,-0.35325 0.0592,-0.14515 0.1333,-0.35695 0.22217,-0.63541 h 0.61319 l -0.24439,1.09752 h 1.40857 l -0.0978,0.44879 h -1.413 l -0.42657,1.72405 c -0.1185,0.47989 -0.17774,0.83832 -0.17774,1.0753 0,0.1807 0.0393,0.31771 0.11775,0.41102 0.0785,0.0933 0.19329,0.13997 0.34437,0.13997 0.13626,0 0.27919,-0.0526 0.42879,-0.15774 0.14959,-0.10516 0.31325,-0.26439 0.49099,-0.47767 z" />
    </g>
    <path
       d="m 201.06227,869.1081 a 47.450859,47.450859 0 0 1 23.6822,38.44651"
       sodipodi:open="true"
       sodipodi:end="6.2269834"
       sodipodi:start="5.2352167"
       sodipodi:ry="47.450859"
       sodipodi:rx="47.450859"
       sodipodi:cy="910.22003"
       sodipodi:cx="177.36853"
       sodipodi:type="arc"
       id="path50"
       style="fill:none;stroke:#fefefe;stroke-width:1.875;stroke-miterlimit:4;stroke-opacity:1;stroke-dasharray:none;stroke-dashoffset:0"
       transform="translate(1.0746392,1.6119588)" />
    <path
       d="m 276.58187,809.6583 c -12.02597,7.80577 -27.45046,8.07015 -39.73688,0.68108"
       sodipodi:open="true"
       sodipodi:end="2.1122455"
       sodipodi:start="0.9950706"
       sodipodi:ry="37.493916"
       sodipodi:rx="37.493916"
       sodipodi:cy="778.2085"
       sodipodi:cx="256.16855"
       sodipodi:type="arc"
       id="path870"
       style="fill:none;stroke:#fcfcfc;stroke-width:1.99388158;stroke-miterlimit:4;stroke-opacity:1;stroke-dasharray:none;stroke-dashoffset:0"
       transform="matrix(0.96084086,0,0,0.92034863,9.2466979,64.999767)" />
    <text
       id="text874"
       y="803.58301"
       x="251.47954"
       style="font-size:18.75px;font-style:normal;font-weight:normal;line-height:1.25;letter-spacing:0px;word-spacing:0px;fill:#ffffff;fill-opacity:1;stroke:none;font-family:sans-serif"
       xml:space="preserve"><tspan
         style="fill:#ffffff"
         y="803.58301"
         x="251.47954"
         id="tspan872"
         sodipodi:role="line">a</tspan></text>
    <text
       id="text878"
       y="884.31201"
       x="225.29341"
       style="font-size:18.75px;font-style:normal;font-weight:normal;line-height:1.25;letter-spacing:0px;word-spacing:0px;fill:#ffffff;fill-opacity:1;stroke:none;font-family:sans-serif"
       xml:space="preserve"><tspan
         style="fill:#ffffff"
         y="884.31201"
         x="225.29341"
         id="tspan876"
         sodipodi:role="line">x</tspan></text>
  </g>
</svg>
