<?xml version="1.0" encoding="UTF-8" standalone="no"?>
<svg
   xmlns:dc="http://purl.org/dc/elements/1.1/"
   xmlns:cc="http://creativecommons.org/ns#"
   xmlns:rdf="http://www.w3.org/1999/02/22-rdf-syntax-ns#"
   xmlns:svg="http://www.w3.org/2000/svg"
   xmlns="http://www.w3.org/2000/svg"
   xmlns:sodipodi="http://sodipodi.sourceforge.net/DTD/sodipodi-0.dtd"
   xmlns:inkscape="http://www.inkscape.org/namespaces/inkscape"
   id="SvgjsSvg1000"
   version="1.1"
   width="460"
   height="230"
   style="position: relative; overflow: hidden; left: 0px; top: 0px; cursor: auto;"
   inkscape:version="0.48.4 r9939"
   sodipodi:docname="11-5.svg">
  <metadata
     id="metadata71">
    <rdf:RDF>
      <cc:Work
         rdf:about="">
        <dc:format>image/svg+xml</dc:format>
        <dc:type
           rdf:resource="http://purl.org/dc/dcmitype/StillImage" />
      </cc:Work>
    </rdf:RDF>
  </metadata>
  <sodipodi:namedview
     pagecolor="#ffffff"
     bordercolor="#666666"
     borderopacity="1"
     objecttolerance="10"
     gridtolerance="10"
     guidetolerance="10"
     inkscape:pageopacity="0"
     inkscape:pageshadow="2"
     inkscape:window-width="1280"
     inkscape:window-height="968"
     id="namedview69"
     showgrid="false"
     inkscape:zoom="2"
     inkscape:cx="213.26629"
     inkscape:cy="115"
     inkscape:window-x="-4"
     inkscape:window-y="-4"
     inkscape:window-maximized="1"
     inkscape:current-layer="SvgjsSvg1000" />
  <g
     id="SvgjsG2402"
     optics_type="ray">
    <polyline
       id="SvgjsPolyline2403"
       points="19.99999999999997,171.25 177.49999999999997,171.25"
       fill="none"
       stroke="#000000"
       stroke-width="1" />
    <polyline
       id="SvgjsPolyline2404"
       points="61.464466094067234,174.78553390593274 64.99999999999997,171.25 61.464466094067234,167.71446609406726"
       fill="none"
       stroke="#000000"
       stroke-width="1" />
  </g>
  <g
     id="SvgjsG2405"
     optics_type="ray">
    <polyline
       id="SvgjsPolyline2406"
       points="177.5,171.25 312.5,137.5"
       fill="none"
       stroke="#000000"
       stroke-width="1" />
    <polyline
       id="SvgjsPolyline2407"
       points="242.42752122286237,158.66246462856273 245,154.375 240.71253537143727,151.80252122286237"
       fill="none"
       stroke="#000000"
       stroke-width="1" />
  </g>
  <g
     id="SvgjsG2408"
     optics_type="ray">
    <polyline
       id="SvgjsPolyline2409"
       points="312.5,137.5 447.5,137.50000000000003"
       fill="none"
       stroke="#000000"
       stroke-width="1" />
    <polyline
       id="SvgjsPolyline2410"
       points="421.46446609406723,141.03553390593277 425,137.50000000000003 421.46446609406723,133.9644660940673"
       fill="none"
       stroke="#000000"
       stroke-width="1" />
  </g>
  <g
     id="SvgjsG2411"
     optics_type="ray">
    <polyline
       id="SvgjsPolyline2412"
       points="19.99999999999997,143.125 177.49999999999997,143.125"
       fill="none"
       stroke="#000000"
       stroke-width="1" />
    <polyline
       id="SvgjsPolyline2413"
       points="61.464466094067234,146.66053390593274 64.99999999999997,143.125 61.464466094067234,139.58946609406726"
       fill="none"
       stroke="#000000"
       stroke-width="1" />
  </g>
  <g
     id="SvgjsG2414"
     optics_type="ray">
    <polyline
       id="SvgjsPolyline2415"
       points="177.5,143.125 312.5,126.25"
       fill="none"
       stroke="#000000"
       stroke-width="1" />
    <polyline
       id="SvgjsPolyline2416"
       points="241.9302969324254,138.63426108688162 245,134.6875 241.05323891311838,131.6177969324254"
       fill="none"
       stroke="#000000"
       stroke-width="1" />
  </g>
  <g
     id="SvgjsG2417"
     optics_type="ray">
    <polyline
       id="SvgjsPolyline2418"
       points="312.5,126.25 447.5,126.25"
       fill="none"
       stroke="#000000"
       stroke-width="1" />
    <polyline
       id="SvgjsPolyline2419"
       points="421.4644660940673,129.78553390593274 425,126.25 421.4644660940673,122.71446609406726"
       fill="none"
       stroke="#000000"
       stroke-width="1" />
  </g>
  <g
     id="SvgjsG2420"
     optics_type="ray">
    <polyline
       id="SvgjsPolyline2421"
       points="19.99999999999997,115 177.49999999999997,115"
       fill="none"
       stroke="#000000"
       stroke-width="1" />
    <polyline
       id="SvgjsPolyline2422"
       points="61.464466094067234,118.53553390593274 64.99999999999997,115 61.464466094067234,111.46446609406726"
       fill="none"
       stroke="#000000"
       stroke-width="1" />
  </g>
  <g
     id="SvgjsG2423"
     optics_type="ray">
    <polyline
       id="SvgjsPolyline2424"
       points="177.5,115 312.5,114.99999999999999"
       fill="none"
       stroke="#000000"
       stroke-width="1" />
    <polyline
       id="SvgjsPolyline2425"
       points="241.46446609406726,118.53553390593274 245,115 241.46446609406726,111.46446609406726"
       fill="none"
       stroke="#000000"
       stroke-width="1" />
  </g>
  <g
     id="SvgjsG2426"
     optics_type="ray">
    <polyline
       id="SvgjsPolyline2427"
       points="312.5,114.99999999999999 447.5,114.99999999999997"
       fill="none"
       stroke="#000000"
       stroke-width="1" />
    <polyline
       id="SvgjsPolyline2428"
       points="421.4644660940673,118.53553390593271 425,114.99999999999997 421.4644660940673,111.46446609406723"
       fill="none"
       stroke="#000000"
       stroke-width="1" />
  </g>
  <g
     id="SvgjsG2429"
     optics_type="ray">
    <polyline
       id="SvgjsPolyline2430"
       points="19.99999999999997,86.875 177.49999999999997,86.875"
       fill="none"
       stroke="#000000"
       stroke-width="1" />
    <polyline
       id="SvgjsPolyline2431"
       points="61.464466094067234,90.41053390593274 64.99999999999997,86.875 61.464466094067234,83.33946609406726"
       fill="none"
       stroke="#000000"
       stroke-width="1" />
  </g>
  <g
     id="SvgjsG2432"
     optics_type="ray">
    <polyline
       id="SvgjsPolyline2433"
       points="177.5,86.875 312.5,103.75"
       fill="none"
       stroke="#000000"
       stroke-width="1" />
    <polyline
       id="SvgjsPolyline2434"
       points="241.05323891311838,98.38220306757461 245,95.3125 241.9302969324254,91.36573891311836"
       fill="none"
       stroke="#000000"
       stroke-width="1" />
  </g>
  <g
     id="SvgjsG2435"
     optics_type="ray">
    <polyline
       id="SvgjsPolyline2436"
       points="312.5,103.75 447.5,103.75"
       fill="none"
       stroke="#000000"
       stroke-width="1" />
    <polyline
       id="SvgjsPolyline2437"
       points="421.4644660940673,107.28553390593274 425,103.75 421.4644660940673,100.21446609406726"
       fill="none"
       stroke="#000000"
       stroke-width="1" />
  </g>
  <g
     id="SvgjsG2438"
     optics_type="ray">
    <polyline
       id="SvgjsPolyline2439"
       points="19.99999999999997,58.74999999999999 177.49999999999997,58.74999999999999"
       fill="none"
       stroke="#000000"
       stroke-width="1" />
    <polyline
       id="SvgjsPolyline2440"
       points="61.464466094067234,62.28553390593273 64.99999999999997,58.74999999999999 61.464466094067234,55.214466094067255"
       fill="none"
       stroke="#000000"
       stroke-width="1" />
  </g>
  <g
     id="SvgjsG2441"
     optics_type="ray">
    <polyline
       id="SvgjsPolyline2442"
       points="177.5,58.74999999999999 312.5,92.5"
       fill="none"
       stroke="#000000"
       stroke-width="1" />
    <polyline
       id="SvgjsPolyline2443"
       points="240.71253537143727,78.19747877713763 245,75.625 242.42752122286237,71.33753537143728"
       fill="none"
       stroke="#000000"
       stroke-width="1" />
  </g>
  <g
     id="SvgjsG2444"
     optics_type="ray">
    <polyline
       id="SvgjsPolyline2445"
       points="312.5,92.5 447.5,92.5"
       fill="none"
       stroke="#000000"
       stroke-width="1" />
    <polyline
       id="SvgjsPolyline2446"
       points="421.4644660940673,96.03553390593274 425,92.5 421.4644660940673,88.96446609406726"
       fill="none"
       stroke="#000000"
       stroke-width="1" />
  </g>
  <g
     id="SvgjsG2447"
     optics_type="thinlens"
     stroke="#000000"
     stroke-width="2">
    <polyline
       id="SvgjsPolyline2448"
       points="177.5,171.25 177.5,58.74999999999999"
       fill="none" />
    <polyline
       id="SvgjsPolyline2449"
       points="173.96446609406726,167.71446609406726 177.5,171.25 181.03553390593274,167.71446609406726"
       fill="none"
       stroke="#000000"
       stroke-width="2" />
    <polyline
       id="SvgjsPolyline2450"
       points="181.03553390593274,62.28553390593273 177.5,58.74999999999999 173.96446609406726,62.28553390593273"
       fill="none"
       stroke="#000000"
       stroke-width="2" />
    <polyline
       id="SvgjsPolyline2451"
       points="177.5,171.25 177.5,58.74999999999999"
       fill="none"
       stroke="#000000"
       stroke-width="10"
       visibility="hidden"
       pointer-events="all"
       opacity="0" />
  </g>
  <g
     id="SvgjsG2452"
     optics_type="thinlens"
     stroke="#000000"
     stroke-width="2">
    <polyline
       id="SvgjsPolyline2453"
       points="312.5,143.125 312.5,86.875"
       fill="none" />
    <polyline
       id="SvgjsPolyline2454"
       points="316.03553390593277,146.66053390593274 312.5,143.125 308.9644660940673,146.66053390593274"
       fill="none"
       stroke="#000000"
       stroke-width="2" />
    <polyline
       id="SvgjsPolyline2455"
       points="308.96446609406723,83.33946609406726 312.5,86.875 316.03553390593277,83.33946609406726"
       fill="none"
       stroke="#000000"
       stroke-width="2" />
    <polyline
       id="SvgjsPolyline2456"
       points="312.5,143.125 312.5,86.875"
       fill="none"
       stroke="#000000"
       stroke-width="10"
       visibility="hidden"
       pointer-events="all"
       opacity="0" />
  </g>
  <defs
     id="SvgjsDefs1001">
    <marker
       inkscape:stockid="Arrow2Mend"
       orient="auto"
       refY="0.0"
       refX="0.0"
       id="Arrow2Mend"
       style="overflow:visible;">
      <path
         id="path3866"
         style="fill-rule:evenodd;stroke-width:0.62500000;stroke-linejoin:round;"
         d="M 8.7185878,4.0337352 L -2.2072895,0.016013256 L 8.7185884,-4.0017078 C 6.9730900,-1.6296469 6.9831476,1.6157441 8.7185878,4.0337352 z "
         transform="scale(0.6) rotate(180) translate(0,0)" />
    </marker>
    <radialGradient
       id="SvgjsRadialGradient2457">
      <stop
         id="SvgjsStop2458"
         stop-opacity="0.7"
         stop-color="#000000"
         offset="0" />
      <stop
         id="SvgjsStop2459"
         stop-opacity="0.5"
         stop-color="#000000"
         offset="0.16666666666666666" />
      <stop
         id="SvgjsStop2460"
         stop-opacity="0"
         stop-color="#000000"
         offset="1" />
    </radialGradient>
  </defs>
  <path
     style="fill:none;stroke:#000000;stroke-width:1;stroke-linecap:butt;stroke-linejoin:miter;stroke-opacity:1;stroke-miterlimit:4;stroke-dasharray:2,2;stroke-dashoffset:0"
     d="m 312,92.5 88,22 -88.5,23"
     id="path3052"
     inkscape:connector-curvature="0" />
  <path
     style="fill:none;stroke:#000000;stroke-width:1px;stroke-linecap:butt;stroke-linejoin:miter;stroke-opacity:1;marker-end:url(#Arrow2Mend)"
     d="m 177.5,52.5 222,0"
     id="path3833"
     inkscape:connector-curvature="0" />
  <path
     style="fill:none;stroke:#000000;stroke-width:1.32330132;stroke-linecap:butt;stroke-linejoin:miter;stroke-miterlimit:4;stroke-opacity:1;stroke-dasharray:1.32330132, 7.93980786;stroke-dashoffset:0"
     d="M 399,186.25207 399,48.747925"
     id="path4279"
     inkscape:connector-curvature="0" />
  <path
     style="fill:none;stroke:#000000;stroke-width:1px;stroke-linecap:butt;stroke-linejoin:miter;stroke-opacity:1;marker-end:url(#Arrow2Mend)"
     d="M 399.5,153 313,153"
     id="path4281"
     inkscape:connector-curvature="0" />
  <g
     id="g4471"
     transform="matrix(1.1626302,0,0,2.0907306,265.05891,16.36028)">
    <path
       id="path4473"
       d="m 19.26669,13.424907 -19.26669,0 0,-13.27406535 38.53338,0 0,13.27406535 -19.26669,0 z"
       style="fill:#ffffff;fill-opacity:1;fill-rule:evenodd;stroke:none"
       inkscape:connector-curvature="0" />
    <path
       id="path4475"
       d="m 19.660834,0.16455452 c 0,-0.10970301 0,-0.13712877 -0.185479,-0.13712877 -0.625994,0.35653481 -1.530207,0.35653481 -1.808426,0.35653481 l 0,0.1782674 c 0.208664,0 0.788288,0 1.275172,-0.15084165 l 0,3.00312009 c 0,0.219406 0,0.2879704 -0.904213,0.2879704 l -0.324589,0 0,0.1645545 c 0.370959,0 1.228802,0 1.599761,0 0.394144,0 1.251987,0 1.576576,0 l 0,-0.1645545 -0.324589,0 c -0.857843,0 -0.904213,-0.068564 -0.904213,-0.2879704 l 0,-3.24995188 z"
       style="fill:#000000;fill-opacity:1;fill-rule:evenodd;stroke:none"
       inkscape:connector-curvature="0" />
    <path
       id="path4477"
       d="m 19.26669,6.4587651 -19.26669,0 0,-0.2194061 38.53338,0 0,0.2194061 -19.26669,0 z"
       style="fill:#000000;fill-opacity:1;fill-rule:evenodd;stroke:none"
       inkscape:connector-curvature="0" />
    <path
       id="path4479"
       d="m 2.9444881,9.8869843 0.9505828,0 c 0.7651032,0 0.8114731,0.082277 0.8114731,0.2742577 0,0.02743 0,0.09599 -0.04637,0.260545 -0.04637,0.05485 -0.04637,0.05485 -0.04637,0.08228 0,0.01371 0.04637,0.06856 0.1391096,0.06856 0.069555,0 0.069555,-0.02743 0.1159248,-0.123416 L 5.4484623,9.1876276 c 0,-0.068564 0,-0.068564 0,-0.09599 0,-0.027426 0,-0.068564 -0.09274,-0.068564 -0.1159247,0 -0.1159247,0.041139 -0.1622946,0.1234159 -0.2086645,0.4525249 -0.440514,0.548515 -1.275172,0.548515 l -0.881028,0 0.6028086,-1.4535649 c 0.115925,-0.2056937 0.115925,-0.2331194 0.533254,-0.2331194 l 1.298357,0 c 1.2056172,0 1.4374666,0.1919802 1.4374666,0.6445052 0,0.1234159 0,0.1508416 -0.04637,0.3153962 -0.023185,0.054851 -0.023185,0.082277 -0.023185,0.09599 0,0.027426 0.023185,0.054851 0.1622946,0.054851 0.069555,0 0.069555,-0.027426 0.1159247,-0.1508416 L 7.3264429,7.9808944 C 7.3728128,7.8437656 7.280073,7.8437656 7.0250386,7.8437656 l -4.7760988,0 c -0.2086646,0 -0.2782194,0 -0.2782194,0.09599 0,0.068564 0.069555,0.068564 0.2318495,0.068564 0.3709591,0 0.6491785,0 0.6491785,0.09599 0,0.041139 0,0.041139 -0.023185,0.1371288 L 1.5070215,11.326836 c -0.069555,0.205694 -0.069555,0.260545 -0.85784301,0.260545 -0.16229462,0 -0.27821935,0 -0.27821935,0.123416 0,0.04114 0.11592473,0.04114 0.11592473,0.04114 0.30140429,0 1.02013763,0 1.32154193,0 0.3245892,0 1.0896925,0 1.4606516,0 0.09274,0 0.1622946,0 0.1622946,-0.09599 0,-0.04114 -0.04637,-0.04114 -0.04637,-0.06856 -0.023185,0 -0.023185,0 -0.2782193,0 -0.2086645,0 -0.2550344,0 -0.4868839,-0.02743 -0.2782194,0 -0.3245892,-0.02743 -0.3245892,-0.123416 0,0 0,-0.01371 0.04637,-0.109703 L 2.9444881,9.8869843 z"
       style="fill:#000000;fill-opacity:1;fill-rule:evenodd;stroke:none"
       inkscape:connector-curvature="0" />
    <path
       id="path4481"
       d="m 9.8999719,11.559955 c 0,-0.438812 -0.5332537,-0.699356 -1.2288021,-0.699356 -1.0201376,0 -1.9707204,0.562228 -1.9707204,1.110743 0,0.411386 0.4868839,0.726782 1.275172,0.726782 0.9505828,0 1.9243505,-0.562228 1.9243505,-1.138169 z m -1.9243505,1.014753 c -0.3709591,0 -0.6955484,-0.137129 -0.6955484,-0.452525 0,-0.150841 0.1159248,-0.562228 0.4173291,-0.781634 0.2782193,-0.260544 0.6955484,-0.356535 0.9737677,-0.356535 0.3709591,0 0.6955484,0.137129 0.6955484,0.438813 0,0.09599 -0.09274,0.507376 -0.417329,0.795346 -0.2318495,0.219406 -0.6491785,0.356535 -0.9737678,0.356535 z"
       style="fill:#000000;fill-opacity:1;fill-rule:evenodd;stroke:none"
       inkscape:connector-curvature="0" />
    <path
       id="path4483"
       d="m 11.986617,9.9418358 c 0,0 0,-0.054851 0,-0.068564 0,-0.027426 0,-0.054851 -0.115925,-0.054851 -0.139109,0 -0.695548,0.027426 -0.881028,0.027426 -0.06955,0.027426 -0.162294,0.027426 -0.162294,0.1234159 0,0.041138 0.09274,0.041138 0.162294,0.041138 0.37096,0 0.37096,0.02743 0.37096,0.05485 0,0.04114 -0.06955,0.19198 -0.115925,0.28797 l -0.162295,0.383961 c -0.09274,0.123416 -0.417329,1.014753 -0.440514,1.069604 -0.04637,0.09599 -0.04637,0.164555 -0.04637,0.219406 0,0.383961 0.440514,0.644505 1.020138,0.644505 0.857843,0 1.762056,-0.548515 1.762056,-1.151881 0,-0.466238 -0.533254,-0.685644 -1.020138,-0.685644 -0.370959,0 -0.672363,0.123416 -0.857843,0.246832 l 0.486884,-1.1381719 z m -0.370959,2.6054462 c -0.324589,0 -0.533254,-0.164554 -0.533254,-0.411386 0,-0.137129 0.09274,-0.28797 0.27822,-0.740495 0,-0.06856 0,-0.06856 0.162294,-0.178268 0.255035,-0.164554 0.533254,-0.260544 0.788288,-0.260544 0.27822,0 0.533254,0.123416 0.533254,0.38396 0,0.178268 -0.162295,0.589654 -0.370959,0.822773 -0.162295,0.219406 -0.486884,0.38396 -0.857843,0.38396 z"
       style="fill:#000000;fill-opacity:1;fill-rule:evenodd;stroke:none"
       inkscape:connector-curvature="0" />
    <path
       id="path4485"
       d="m 16.554051,10.10639 c 0,-0.06856 -0.06955,-0.1371284 -0.231849,-0.1371284 -0.208665,0 -0.417329,0.09599 -0.417329,0.2194064 0,0.04114 0.09274,0.137128 0.301404,0.137128 0.18548,0 0.347774,-0.123416 0.347774,-0.219406 z m -1.414281,2.742576 c -0.13911,0.260544 -0.463699,0.507376 -0.904213,0.507376 -0.09274,0 -0.162295,0 -0.255035,-0.02743 0.208665,-0.05485 0.255035,-0.150841 0.255035,-0.219406 0,-0.09599 -0.115925,-0.150841 -0.255035,-0.150841 -0.231849,0 -0.394144,0.123416 -0.394144,0.246832 0,0.150841 0.27822,0.260544 0.649179,0.260544 0.440514,0 1.228802,-0.164554 1.460651,-0.644505 l 0.625994,-1.453565 c 0,-0.02743 0,-0.06856 0,-0.123416 0,-0.233119 -0.324589,-0.38396 -0.695548,-0.38396 -0.788289,0 -1.228803,0.562228 -1.228803,0.603366 0,0.05485 0.06956,0.05485 0.115925,0.05485 0.09274,0 0.09274,0 0.162295,-0.08228 0.162294,-0.219406 0.486884,-0.452525 0.904213,-0.452525 0.162294,0 0.208664,0.04114 0.208664,0.191981 0,0.02742 0,0.09599 0,0.123416 l -0.649178,1.549555 z"
       style="fill:#000000;fill-opacity:1;fill-rule:evenodd;stroke:none"
       inkscape:connector-curvature="0" />
    <path
       id="path4487"
       d="m 18.779806,11.710797 c 0.162295,0 0.695549,0 1.043323,-0.08228 0.510069,-0.09599 0.625993,-0.287971 0.625993,-0.411387 0,-0.233119 -0.370959,-0.356534 -0.857843,-0.356534 -0.811473,0 -1.92435,0.38396 -1.92435,1.069604 0,0.411386 0.417329,0.767921 1.228802,0.767921 1.182432,0 1.669316,-0.411386 1.669316,-0.479951 0,0 -0.04637,-0.05485 -0.06956,-0.05485 -0.04637,0 -0.09274,0 -0.139109,0.02743 -0.533254,0.38396 -1.344727,0.38396 -1.414282,0.38396 -0.463699,0 -0.695548,-0.164554 -0.695548,-0.507376 0,-0.04114 0,-0.123416 0.06955,-0.356535 l 0.463699,0 z m -0.417329,-0.09599 c 0.27822,-0.589654 1.020138,-0.630793 1.228802,-0.630793 0.27822,0 0.579624,0.06856 0.579624,0.233119 0,0.397674 -1.159247,0.397674 -1.483837,0.397674 l -0.324589,0 z"
       style="fill:#000000;fill-opacity:1;fill-rule:evenodd;stroke:none"
       inkscape:connector-curvature="0" />
    <path
       id="path4489"
       d="m 23.926864,11.10743 c -0.255034,0.01371 -0.370959,0.137129 -0.370959,0.219406 0,0.109703 0.162295,0.137129 0.27822,0.137129 0.139109,0 0.417329,-0.06856 0.417329,-0.260545 0,-0.274257 -0.579624,-0.342821 -0.950583,-0.342821 -1.020138,0 -1.947536,0.562228 -1.947536,1.110743 0,0.370247 0.394144,0.726782 1.251987,0.726782 1.159248,0 1.738871,-0.411386 1.738871,-0.479951 0,0 -0.09274,-0.05485 -0.185479,-0.05485 0,0 -0.02319,0 -0.115925,0.02743 -0.486884,0.38396 -1.298357,0.38396 -1.437467,0.38396 -0.486884,0 -0.718733,-0.19198 -0.718733,-0.452525 0,-0.09599 0.115925,-0.562228 0.486884,-0.822772 0.231849,-0.191981 0.602809,-0.315397 0.927398,-0.315397 0.139109,0 0.417329,0 0.625993,0.123416 z"
       style="fill:#000000;fill-opacity:1;fill-rule:evenodd;stroke:none"
       inkscape:connector-curvature="0" />
    <path
       id="path4491"
       d="m 26.083064,11.025153 0.695549,0 c 0.162294,0 0.255034,0 0.255034,-0.09599 0,-0.04114 -0.09274,-0.04114 -0.208664,-0.04114 l -0.695549,0 0.27822,-0.603366 c 0,-0.02743 0,-0.02743 0,-0.05485 0,-0.06856 -0.06956,-0.123416 -0.18548,-0.123416 -0.162295,0 -0.301404,0.05485 -0.324589,0.178268 -0.04637,0.09599 0.02319,-0.09599 -0.255035,0.603366 l -0.695548,0 c -0.162295,0 -0.255034,0 -0.255034,0.09599 0,0.04114 0.09274,0.04114 0.208664,0.04114 l 0.649179,0 -0.394145,0.973614 c -0.04637,0.09599 -0.09274,0.246832 -0.09274,0.287971 0,0.246832 0.324589,0.38396 0.741918,0.38396 0.741918,0 1.182432,-0.548515 1.182432,-0.603366 0,-0.06856 -0.115925,-0.06856 -0.115925,-0.06856 -0.09274,0 -0.09274,0.02743 -0.115924,0.06856 -0.208665,0.274257 -0.579624,0.47995 -0.950583,0.47995 -0.162295,0 -0.255034,-0.04114 -0.255034,-0.19198 0,-0.01371 0.04637,-0.109703 0.04637,-0.164554 l 0.486884,-1.165595 z"
       style="fill:#000000;fill-opacity:1;fill-rule:evenodd;stroke:none"
       inkscape:connector-curvature="0" />
    <path
       id="path4493"
       d="m 29.607176,10.10639 c 0,-0.06856 -0.06955,-0.1371284 -0.278219,-0.1371284 -0.162295,0 -0.370959,0.09599 -0.370959,0.2194064 0,0.06856 0.06955,0.137128 0.231849,0.137128 0.255034,0 0.417329,-0.123416 0.417329,-0.219406 z m -1.391097,2.056932 c -0.04637,0.05485 -0.06956,0.09599 -0.06956,0.178267 0,0.191981 0.27822,0.356535 0.649179,0.356535 0.695548,0 1.020138,-0.575941 1.020138,-0.630792 0,-0.04114 -0.115925,-0.04114 -0.115925,-0.04114 -0.13911,0 -0.13911,0 -0.162295,0.04114 -0.185479,0.342822 -0.463699,0.507376 -0.695548,0.507376 -0.18548,0 -0.18548,-0.06856 -0.18548,-0.137129 0,-0.09599 0,-0.178267 0.09274,-0.274257 0.09274,-0.09599 0.162295,-0.219406 0.255034,-0.315396 0.02319,-0.09599 0.27822,-0.479951 0.32459,-0.52109 0,-0.02743 0.02319,-0.08228 0.02319,-0.123416 0,-0.19198 -0.27822,-0.342821 -0.649179,-0.342821 -0.695548,0 -0.973768,0.534802 -0.973768,0.603366 0,0.05485 0.06955,0.05485 0.06955,0.05485 0.13911,0 0.13911,0 0.18548,-0.05485 0.162294,-0.356535 0.440514,-0.479951 0.672363,-0.479951 0.13911,0 0.18548,0 0.18548,0.123416 0,0.09599 0,0.137129 -0.208665,0.411387 l -0.417329,0.644505 z"
       style="fill:#000000;fill-opacity:1;fill-rule:evenodd;stroke:none"
       inkscape:connector-curvature="0" />
    <path
       id="path4495"
       d="m 33.826836,11.148569 c 0,-0.315396 -0.370959,-0.315396 -0.370959,-0.315396 -0.162295,0 -0.370959,0.123416 -0.370959,0.219406 0,0.06856 0.09274,0.09599 0.115925,0.150841 0.139109,0.04114 0.255034,0.137129 0.255034,0.315397 0,0.164554 -0.463699,1.028465 -1.275172,1.028465 -0.533254,0 -0.533254,-0.260544 -0.533254,-0.356534 0,-0.164555 0.09274,-0.411387 0.370959,-0.795347 0.04637,-0.06856 0.09274,-0.123416 0.09274,-0.191981 0,-0.219406 -0.301404,-0.370247 -0.672363,-0.370247 -0.695549,0 -0.973768,0.562228 -0.973768,0.630792 0,0.05485 0.09274,0.05485 0.115925,0.05485 0.09274,0 0.09274,0 0.139109,-0.08228 0.162295,-0.315396 0.440514,-0.47995 0.718734,-0.47995 0.09274,0 0.162294,0.05485 0.162294,0.150841 0,0.09599 -0.06955,0.191981 -0.115924,0.260545 -0.27822,0.466238 -0.370959,0.630792 -0.370959,0.767921 0,0.397674 0.533253,0.534802 1.020137,0.534802 1.205617,0 1.692501,-1.151881 1.692501,-1.522129 z"
       style="fill:#000000;fill-opacity:1;fill-rule:evenodd;stroke:none"
       inkscape:connector-curvature="0" />
    <path
       id="path4497"
       d="m 35.820742,11.710797 c 0.208664,0 0.741918,0 1.112877,-0.08228 0.486884,-0.09599 0.602809,-0.287971 0.602809,-0.411387 0,-0.233119 -0.394144,-0.356534 -0.857843,-0.356534 -0.811474,0 -1.924351,0.38396 -1.924351,1.069604 0,0.411386 0.417329,0.767921 1.228802,0.767921 1.159248,0 1.692501,-0.411386 1.692501,-0.479951 0,0 -0.04637,-0.05485 -0.139109,-0.05485 0,0 -0.04637,0 -0.06956,0.02743 -0.533254,0.38396 -1.344727,0.38396 -1.483837,0.38396 -0.394144,0 -0.695548,-0.164554 -0.695548,-0.507376 0,-0.04114 0,-0.123416 0.09274,-0.356535 l 0.440514,0 z m -0.37096,-0.09599 c 0.301405,-0.589654 1.020138,-0.630793 1.228803,-0.630793 0.301404,0 0.533253,0.06856 0.533253,0.233119 0,0.397674 -1.136062,0.397674 -1.437466,0.397674 l -0.32459,0 z"
       style="fill:#000000;fill-opacity:1;fill-rule:evenodd;stroke:none"
       inkscape:connector-curvature="0" />
  </g>
  <g
     id="g4580"
     transform="matrix(0.80766226,0,0,1,69.24307,0)">
    <path
       id="path4523"
       d="m 352.17891,181.52215 -23.36631,0 0,-23.83683 46.79269,0 0,23.83683 -23.42638,0 z"
       style="fill:#ffffff;fill-opacity:1;fill-rule:evenodd;stroke:none"
       inkscape:connector-curvature="0" />
    <path
       id="path4527"
       d="m 350.6751,157.70995 c 0,-0.197 0,-0.24625 -0.30034,-0.24625 -0.81091,0.64025 -1.92216,0.64025 -2.28257,0.64025 l 0,0.32012 c 0.27031,0 0.99112,0 1.65186,-0.27088 l 0,5.39284 c 0,0.394 -0.0601,0.51712 -1.17132,0.51712 l -0.42047,0 0,0.2955 c 0.42047,0 1.53173,0 2.0423,0 0.48054,0 1.65186,0 2.07233,0 l 0,-0.2955 -0.42047,0 c -1.17132,0 -1.17132,-0.12312 -1.17132,-0.51712 l 0,-5.83608 z"
       style="fill:#000000;fill-opacity:1;fill-rule:evenodd;stroke:none"
       inkscape:connector-curvature="0" />
    <path
       id="path4529"
       d="m 352.17891,169.01274 -23.36631,0 0,-0.394 46.79269,0 0,0.394 -23.42638,0 z"
       style="fill:#000000;fill-opacity:1;fill-rule:evenodd;stroke:none"
       inkscape:connector-curvature="0" />
    <path
       id="path4531"
       d="m 332.6269,175.16895 1.23138,0 c 0.99112,0 1.05119,0.14775 1.05119,0.4925 0,0.0492 0,0.17238 -0.0601,0.46787 -0.0601,0.0985 -0.0601,0.0985 -0.0601,0.14774 0,0.0246 0.0601,0.12311 0.1802,0.12311 0.0901,0 0.0901,-0.0492 0.15017,-0.22162 l 0.75085,-2.26547 c 0,-0.12312 0,-0.12312 0,-0.17237 0,-0.0493 0,-0.12313 -0.12014,-0.12313 -0.15017,0 -0.15017,0.0739 -0.21023,0.22163 -0.27031,0.81262 -0.57065,0.98499 -1.65186,0.98499 l -1.14129,0 0.78088,-2.61023 c 0.15017,-0.36937 0.15017,-0.41862 0.69078,-0.41862 l 1.68189,0 c 1.56176,0 1.8621,0.34474 1.8621,1.15736 0,0.22163 0,0.27088 -0.0601,0.56637 -0.03,0.0985 -0.03,0.14775 -0.03,0.17238 0,0.0493 0.03,0.0985 0.21023,0.0985 0.0901,0 0.0901,-0.0493 0.15017,-0.27087 l 0.27031,-1.77299 c 0.0601,-0.24625 -0.0601,-0.24625 -0.39044,-0.24625 l -6.18697,0 c -0.2703,0 -0.36041,0 -0.36041,0.17237 0,0.12313 0.0901,0.12313 0.30034,0.12313 0.48054,0 0.84095,0 0.84095,0.17237 0,0.0739 0,0.0739 -0.03,0.24625 l -1.71193,5.54058 c -0.0901,0.36938 -0.0901,0.46788 -1.11125,0.46788 -0.21024,0 -0.36041,0 -0.36041,0.22162 0,0.0739 0.15017,0.0739 0.15017,0.0739 0.39044,0 1.32149,0 1.71193,0 0.42047,0 1.41159,0 1.89213,0 0.12013,0 0.21024,0 0.21024,-0.17238 0,-0.0739 -0.0601,-0.0739 -0.0601,-0.12312 -0.03,0 -0.03,0 -0.36041,0 -0.2703,0 -0.33037,0 -0.63071,-0.0493 -0.3604,0 -0.42047,-0.0492 -0.42047,-0.22162 0,0 0,-0.0246 0.0601,-0.197 l 0.78088,-2.5856 z"
       style="fill:#000000;fill-opacity:1;fill-rule:evenodd;stroke:none"
       inkscape:connector-curvature="0" />
    <path
       id="path4533"
       d="m 338.934,178.44405 c 0.2703,0 0.96108,0 1.44162,-0.14774 0.63071,-0.17238 0.78088,-0.51712 0.78088,-0.73874 0,-0.41863 -0.54061,-0.64025 -1.11125,-0.64025 -1.05118,0 -2.49281,0.68949 -2.49281,1.92074 0,0.73874 0.54061,1.37899 1.59179,1.37899 1.47166,0 2.16244,-0.73875 2.16244,-0.86187 0,0 -0.03,-0.0985 -0.15017,-0.0985 0,0 -0.0601,0 -0.12014,0.0493 -0.66074,0.6895 -1.74196,0.6895 -1.89213,0.6895 -0.5406,0 -0.90101,-0.2955 -0.90101,-0.91112 0,-0.0739 0,-0.22163 0.12014,-0.64025 l 0.57064,0 z m -0.48054,-0.17238 c 0.33037,-1.05887 1.32148,-1.13274 1.59179,-1.13274 0.3604,0 0.69078,0.12311 0.69078,0.41862 0,0.71412 -1.50169,0.71412 -1.8621,0.71412 l -0.42047,0 z"
       style="fill:#000000;fill-opacity:1;fill-rule:evenodd;stroke:none"
       inkscape:connector-curvature="0" />
    <path
       id="path4535"
       d="m 346.65269,177.38518 c 0.0601,-0.12312 0.0601,-0.12312 0.0601,-0.17236 0,-0.17238 -0.15017,-0.24625 -0.2703,-0.24625 -0.0901,0 -0.24027,0.0739 -0.36041,0.17238 -0.0601,0.0739 -0.0901,0.2955 -0.15017,0.46787 l -0.1802,0.56637 c -0.0901,0.17239 -0.30034,1.0835 -0.36041,1.182 0,0 -0.42047,0.64024 -1.11125,0.64024 -0.57064,0 -0.57064,-0.46787 -0.57064,-0.59099 0,-0.394 0.21023,-0.8865 0.48054,-1.45287 0.0901,-0.197 0.0901,-0.2955 0.0901,-0.41862 0,-0.34475 -0.33038,-0.61562 -0.78088,-0.61562 -0.90102,0 -1.32149,0.96037 -1.32149,1.13274 0,0.0739 0.0901,0.0739 0.15017,0.0739 0.15017,0 0.15017,-0.0246 0.15017,-0.12312 0.2703,-0.61562 0.57064,-0.86187 0.96108,-0.86187 0.15017,0 0.21024,0.0739 0.21024,0.22163 0,0.17238 -0.0601,0.34474 -0.12014,0.41862 -0.42048,0.91112 -0.48054,1.18199 -0.48054,1.47749 0,0.14774 0,0.4925 0.33037,0.68949 0.2703,0.22163 0.63071,0.27088 0.90101,0.27088 0.36041,0 0.69078,-0.12312 0.96108,-0.34475 -0.15016,0.394 -0.21023,0.6895 -0.60067,1.08349 -0.21024,0.22162 -0.57064,0.44325 -1.05119,0.44325 -0.0601,0 -0.48054,0 -0.69077,-0.22163 0.48054,-0.0492 0.48054,-0.44324 0.48054,-0.44324 0,-0.22163 -0.21024,-0.24625 -0.33037,-0.24625 -0.21024,0 -0.51058,0.17238 -0.51058,0.46787 0,0.394 0.42047,0.64025 1.05118,0.64025 0.90102,0 1.9522,-0.54175 2.28257,-1.45287 l 0.78088,-2.75798 z"
       style="fill:#000000;fill-opacity:1;fill-rule:evenodd;stroke:none"
       inkscape:connector-curvature="0" />
    <path
       id="path4537"
       d="m 349.20556,178.44405 c 0.27031,0 0.96109,0 1.38156,-0.14774 0.69078,-0.17238 0.78088,-0.51712 0.78088,-0.73874 0,-0.41863 -0.45051,-0.64025 -1.11125,-0.64025 -0.99112,0 -2.49281,0.68949 -2.49281,1.92074 0,0.73874 0.60068,1.37899 1.59179,1.37899 1.56176,0 2.22251,-0.73875 2.22251,-0.86187 0,0 -0.03,-0.0985 -0.15017,-0.0985 -0.0601,0 -0.0601,0 -0.15017,0.0493 -0.69078,0.6895 -1.71193,0.6895 -1.8621,0.6895 -0.51057,0 -0.90101,-0.2955 -0.90101,-0.91112 0,-0.0739 0,-0.22163 0.12014,-0.64025 l 0.57064,0 z m -0.5406,-0.17238 c 0.39043,-1.05887 1.38155,-1.13274 1.59179,-1.13274 0.42047,0 0.75084,0.12311 0.75084,0.41862 0,0.71412 -1.47165,0.71412 -1.86209,0.71412 l -0.48054,0 z"
       style="fill:#000000;fill-opacity:1;fill-rule:evenodd;stroke:none"
       inkscape:connector-curvature="0" />
    <path
       id="path4539"
       d="m 352.71952,181.05428 c -0.0601,0.17238 -0.12014,0.197 -0.45051,0.197 -0.15016,0 -0.24027,0 -0.24027,0.17238 0,0.0493 0.03,0.0985 0.0901,0.0985 0.27031,0 0.54061,-0.0492 0.81092,-0.0492 0.24027,0 0.63071,0.0492 0.90101,0.0492 0.0901,0 0.15017,-0.0492 0.15017,-0.12311 0,-0.14774 -0.12014,-0.14774 -0.21024,-0.14774 -0.15017,0 -0.42047,0 -0.42047,-0.0739 0,-0.0493 0.0901,-0.22163 0.0901,-0.2955 0.12014,-0.394 0.21023,-0.788 0.33037,-1.13274 0.0901,0.17238 0.36041,0.46787 0.90101,0.46787 1.11126,0 2.28257,-1.00962 2.28257,-2.09311 0,-0.86187 -0.69077,-1.20662 -1.32148,-1.20662 -0.54061,0 -1.02115,0.2955 -1.29146,0.51712 -0.0901,-0.41862 -0.63071,-0.51712 -0.90101,-0.51712 -0.30034,0 -0.51058,0.17238 -0.69078,0.394 -0.15017,0.22162 -0.30034,0.64024 -0.30034,0.73874 0,0.0739 0.0901,0.0739 0.15017,0.0739 0.12014,0 0.15017,-0.0246 0.15017,-0.24624 0.1802,-0.394 0.33037,-0.73875 0.69078,-0.73875 0.21023,0 0.2703,0.12312 0.2703,0.34475 0,0.0739 0,0.17238 0,0.22162 l -0.99111,3.34898 z m 1.62183,-3.2751 c 0.54061,-0.56637 1.02115,-0.64025 1.29145,-0.64025 0.30034,0 0.63071,0.22163 0.63071,0.6895 0,0.2955 -0.21023,1.03424 -0.48054,1.42824 -0.21024,0.394 -0.63071,0.73874 -1.11125,0.73874 -0.60068,0 -0.81091,-0.56637 -0.81091,-0.64024 0,0 0.0601,-0.0985 0.0601,-0.0985 l 0.42047,-1.47749 z"
       style="fill:#000000;fill-opacity:1;fill-rule:evenodd;stroke:none"
       inkscape:connector-curvature="0" />
    <path
       id="path4541"
       d="m 360.10784,175.56295 c 0,-0.12312 -0.0901,-0.24625 -0.3604,-0.24625 -0.21024,0 -0.48055,0.17237 -0.48055,0.39399 0,0.12312 0.12014,0.24625 0.39044,0.24625 0.24027,0 0.45051,-0.22162 0.45051,-0.39399 z m -1.80203,3.69372 c -0.03,0.0985 -0.03,0.17238 -0.03,0.32012 0,0.34475 0.30034,0.64025 0.78088,0.64025 0.90102,0 1.32149,-1.03425 1.32149,-1.13274 0,-0.0739 -0.15017,-0.0739 -0.15017,-0.0739 -0.15017,0 -0.15017,0 -0.15017,0.0739 -0.21023,0.61562 -0.63071,0.91111 -0.96108,0.91111 -0.15017,0 -0.21024,-0.12311 -0.21024,-0.24624 0,-0.17237 0.0601,-0.32013 0.15017,-0.4925 0.0601,-0.17238 0.15017,-0.394 0.27031,-0.56637 0.0601,-0.17238 0.42047,-0.86187 0.42047,-0.93575 0,-0.0492 0.0601,-0.14774 0.0601,-0.22162 0,-0.34475 -0.36041,-0.61562 -0.84095,-0.61562 -0.90101,0 -1.29145,0.96037 -1.29145,1.08349 0,0.0985 0.12014,0.0985 0.1802,0.0985 0.0901,0 0.0901,0 0.15017,-0.0985 0.21024,-0.64024 0.57064,-0.86187 0.96108,-0.86187 0.0901,0 0.21024,0 0.21024,0.22163 0,0.17238 -0.0601,0.24625 -0.33037,0.73874 l -0.54061,1.15737 z"
       style="fill:#000000;fill-opacity:1;fill-rule:evenodd;stroke:none"
       inkscape:connector-curvature="0" />
    <path
       id="path4543"
       d="m 362.81089,178.44405 c 0.2703,0 0.96108,0 1.44162,-0.14774 0.63071,-0.17238 0.81091,-0.51712 0.81091,-0.73874 0,-0.41863 -0.54061,-0.64025 -1.17132,-0.64025 -1.02115,0 -2.43274,0.68949 -2.43274,1.92074 0,0.73874 0.51058,1.37899 1.53173,1.37899 1.53172,0 2.2225,-0.73875 2.2225,-0.86187 0,0 -0.0601,-0.0985 -0.15017,-0.0985 0,0 -0.0601,0 -0.12014,0.0493 -0.69077,0.6895 -1.74196,0.6895 -1.92216,0.6895 -0.51058,0 -0.90102,-0.2955 -0.90102,-0.91112 0,-0.0739 0,-0.22163 0.12014,-0.64025 l 0.57065,0 z m -0.45051,-0.17238 c 0.30034,-1.05887 1.32149,-1.13274 1.53172,-1.13274 0.42048,0 0.72082,0.12311 0.72082,0.41862 0,0.71412 -1.47166,0.71412 -1.83207,0.71412 l -0.42047,0 z"
       style="fill:#000000;fill-opacity:1;fill-rule:evenodd;stroke:none"
       inkscape:connector-curvature="0" />
    <path
       id="path4545"
       d="m 369.53846,177.36056 c -0.3604,0.0246 -0.45051,0.24625 -0.45051,0.39399 0,0.197 0.15017,0.24625 0.36041,0.24625 0.15017,0 0.48054,-0.12311 0.48054,-0.46787 0,-0.4925 -0.75084,-0.61562 -1.17132,-0.61562 -1.38155,0 -2.58291,1.00962 -2.58291,1.99461 0,0.66487 0.57065,1.30512 1.6819,1.30512 1.47165,0 2.16243,-0.73875 2.16243,-0.86187 0,0 -0.0901,-0.0985 -0.15017,-0.0985 -0.0601,0 -0.12014,0 -0.15017,0.0492 -0.69077,0.6895 -1.74196,0.6895 -1.86209,0.6895 -0.69078,0 -0.96109,-0.34475 -0.96109,-0.81262 0,-0.17238 0.18021,-1.00962 0.60068,-1.47749 0.36041,-0.34475 0.78088,-0.56637 1.26142,-0.56637 0.12014,0 0.54061,0 0.78088,0.22162 z"
       style="fill:#000000;fill-opacity:1;fill-rule:evenodd;stroke:none"
       inkscape:connector-curvature="0" />
    <path
       id="path4547"
       d="m 372.1514,178.44405 c 0.27031,0 0.96109,0 1.41159,-0.14774 0.66075,-0.17238 0.81092,-0.51712 0.81092,-0.73874 0,-0.41863 -0.54061,-0.64025 -1.11125,-0.64025 -1.05119,0 -2.49281,0.68949 -2.49281,1.92074 0,0.73874 0.54061,1.37899 1.59179,1.37899 1.47166,0 2.16244,-0.73875 2.16244,-0.86187 0,0 -0.0601,-0.0985 -0.15017,-0.0985 0,0 -0.0601,0 -0.12014,0.0493 -0.69078,0.6895 -1.74196,0.6895 -1.89213,0.6895 -0.54061,0 -0.90102,-0.2955 -0.90102,-0.91112 0,-0.0739 0,-0.22163 0.0901,-0.64025 l 0.60067,0 z m -0.48054,-0.17238 c 0.36041,-1.05887 1.32149,-1.13274 1.5918,-1.13274 0.3604,0 0.69077,0.12311 0.69077,0.41862 0,0.71412 -1.50169,0.71412 -1.86209,0.71412 l -0.42048,0 z"
       style="fill:#000000;fill-opacity:1;fill-rule:evenodd;stroke:none"
       inkscape:connector-curvature="0" />
  </g>
</svg>
