<?xml version="1.0" encoding="UTF-8" standalone="no"?>
<svg
   xmlns:dc="http://purl.org/dc/elements/1.1/"
   xmlns:cc="http://creativecommons.org/ns#"
   xmlns:rdf="http://www.w3.org/1999/02/22-rdf-syntax-ns#"
   xmlns:svg="http://www.w3.org/2000/svg"
   xmlns="http://www.w3.org/2000/svg"
   xmlns:sodipodi="http://sodipodi.sourceforge.net/DTD/sodipodi-0.dtd"
   xmlns:inkscape="http://www.inkscape.org/namespaces/inkscape"
   id="SvgjsSvg1000"
   version="1.1"
   width="460"
   height="230"
   style="position:relative;overflow:hidden;left:0px;top:0px;"
   inkscape:version="0.48.4 r9939"
   sodipodi:docname="11-3.svg">
  <metadata
     id="metadata71">
    <rdf:RDF>
      <cc:Work
         rdf:about="">
        <dc:format>image/svg+xml</dc:format>
        <dc:type
           rdf:resource="http://purl.org/dc/dcmitype/StillImage" />
      </cc:Work>
    </rdf:RDF>
  </metadata>
  <sodipodi:namedview
     pagecolor="#ffffff"
     bordercolor="#666666"
     borderopacity="1"
     objecttolerance="10"
     gridtolerance="10"
     guidetolerance="10"
     inkscape:pageopacity="0"
     inkscape:pageshadow="2"
     inkscape:window-width="1280"
     inkscape:window-height="968"
     id="namedview69"
     showgrid="false"
     inkscape:zoom="1.3826087"
     inkscape:cx="235.13496"
     inkscape:cy="116.21933"
     inkscape:window-x="-4"
     inkscape:window-y="-4"
     inkscape:window-maximized="1"
     inkscape:current-layer="SvgjsSvg1000" />
  <g
     id="SvgjsG1817"
     optics_type="ray"
     transform="translate(0,-16)">
    <polyline
       id="SvgjsPolyline1818"
       points="20,171.25 87.50000000000001,171.25"
       style="fill:none;stroke:#000000;stroke-width:1" />
    <polyline
       id="SvgjsPolyline1819"
       points="61.46446609406726,174.78553390593274 65,171.25 61.46446609406726,167.71446609406726"
       style="fill:none;stroke:#000000;stroke-width:1" />
  </g>
  <g
     id="SvgjsG1820"
     optics_type="ray"
     transform="translate(0,-16)">
    <polyline
       id="SvgjsPolyline1821"
       points="87.5,171.25 402.49999999999994,92.50000000000001"
       style="fill:none;stroke:#000000;stroke-width:1" />
    <polyline
       id="SvgjsPolyline1822"
       points="197.42752122286237,147.41246462856273 200,143.125 195.71253537143727,140.55252122286237"
       style="fill:none;stroke:#000000;stroke-width:1" />
  </g>
  <g
     id="SvgjsG1823"
     optics_type="ray"
     transform="translate(0,-16)">
    <polyline
       id="SvgjsPolyline1824"
       points="402.5,92.50000000000001 447.5,92.50000000000001"
       style="fill:none;stroke:#000000;stroke-width:1" />
    <polyline
       id="SvgjsPolyline1825"
       points="430.4644660940673,96.03553390593275 434,92.50000000000001 430.4644660940673,88.96446609406728"
       style="fill:none;stroke:#000000;stroke-width:1" />
  </g>
  <g
     id="SvgjsG1826"
     optics_type="ray"
     transform="translate(0,-16)">
    <polyline
       id="SvgjsPolyline1827"
       points="20,143.125 87.50000000000001,143.125"
       style="fill:none;stroke:#000000;stroke-width:1" />
    <polyline
       id="SvgjsPolyline1828"
       points="61.46446609406726,146.66053390593274 65,143.125 61.46446609406726,139.58946609406726"
       style="fill:none;stroke:#000000;stroke-width:1" />
  </g>
  <g
     id="SvgjsG1829"
     optics_type="ray"
     transform="translate(0,-16)">
    <polyline
       id="SvgjsPolyline1830"
       points="87.5,143.125 402.5,103.75"
       style="fill:none;stroke:#000000;stroke-width:1" />
    <polyline
       id="SvgjsPolyline1831"
       points="196.93029693242536,133.00926108688162 199.99999999999997,129.0625 196.05323891311835,125.99279693242539"
       style="fill:none;stroke:#000000;stroke-width:1" />
  </g>
  <g
     id="SvgjsG1832"
     optics_type="ray"
     transform="translate(0,-16)">
    <polyline
       id="SvgjsPolyline1833"
       points="402.5,103.75 447.5,103.75"
       style="fill:none;stroke:#000000;stroke-width:1" />
    <polyline
       id="SvgjsPolyline1834"
       points="430.4644660940673,107.28553390593274 434,103.75 430.4644660940673,100.21446609406726"
       style="fill:none;stroke:#000000;stroke-width:1" />
  </g>
  <g
     id="SvgjsG1835"
     optics_type="ray"
     transform="translate(0,-16)">
    <polyline
       id="SvgjsPolyline1836"
       points="20,115 87.50000000000001,115"
       style="fill:none;stroke:#000000;stroke-width:1" />
    <polyline
       id="SvgjsPolyline1837"
       points="61.46446609406726,118.53553390593274 65,115 61.46446609406726,111.46446609406726"
       style="fill:none;stroke:#000000;stroke-width:1" />
  </g>
  <g
     id="SvgjsG1838"
     optics_type="ray"
     transform="translate(0,-16)">
    <polyline
       id="SvgjsPolyline1839"
       points="87.5,115 402.5,114.99999999999999"
       style="fill:none;stroke:#000000;stroke-width:1" />
    <polyline
       id="SvgjsPolyline1840"
       points="196.46446609406726,118.53553390593274 200,115 196.46446609406726,111.46446609406726"
       style="fill:none;stroke:#000000;stroke-width:1" />
  </g>
  <g
     id="SvgjsG1841"
     optics_type="ray"
     transform="translate(0,-16)">
    <polyline
       id="SvgjsPolyline1842"
       points="402.5,114.99999999999999 447.5,114.99999999999999"
       style="fill:none;stroke:#000000;stroke-width:1" />
    <polyline
       id="SvgjsPolyline1843"
       points="430.4644660940673,118.53553390593271 434,114.99999999999997 430.4644660940673,111.46446609406723"
       style="fill:none;stroke:#000000;stroke-width:1" />
  </g>
  <g
     id="SvgjsG1844"
     optics_type="ray"
     transform="translate(0,-16)">
    <polyline
       id="SvgjsPolyline1845"
       points="20,86.875 87.50000000000001,86.875"
       style="fill:none;stroke:#000000;stroke-width:1" />
    <polyline
       id="SvgjsPolyline1846"
       points="61.46446609406726,90.41053390593274 65,86.875 61.46446609406726,83.33946609406726"
       style="fill:none;stroke:#000000;stroke-width:1" />
  </g>
  <g
     id="SvgjsG1847"
     optics_type="ray"
     transform="translate(0,-16)">
    <polyline
       id="SvgjsPolyline1848"
       points="87.5,86.875 402.5,126.25"
       style="fill:none;stroke:#000000;stroke-width:1" />
    <polyline
       id="SvgjsPolyline1849"
       points="196.05323891311835,104.00720306757461 199.99999999999997,100.9375 196.93029693242536,96.99073891311836"
       style="fill:none;stroke:#000000;stroke-width:1" />
  </g>
  <g
     id="SvgjsG1850"
     optics_type="ray"
     transform="translate(0,-16)">
    <polyline
       id="SvgjsPolyline1851"
       points="402.5,126.25 447.5,126.25000000000001"
       style="fill:none;stroke:#000000;stroke-width:1" />
    <polyline
       id="SvgjsPolyline1852"
       points="430.46446609406723,129.78553390593274 434,126.25 430.46446609406723,122.71446609406726"
       style="fill:none;stroke:#000000;stroke-width:1" />
  </g>
  <g
     id="SvgjsG1853"
     optics_type="ray"
     transform="translate(0,-16)">
    <polyline
       id="SvgjsPolyline1854"
       points="20,58.75 87.50000000000001,58.75"
       style="fill:none;stroke:#000000;stroke-width:1" />
    <polyline
       id="SvgjsPolyline1855"
       points="61.46446609406726,62.28553390593274 65,58.75 61.46446609406726,55.21446609406726"
       style="fill:none;stroke:#000000;stroke-width:1" />
  </g>
  <g
     id="SvgjsG1856"
     optics_type="ray"
     transform="translate(0,-16)">
    <polyline
       id="SvgjsPolyline1857"
       points="87.5,58.75 402.49999999999994,137.5"
       style="fill:none;stroke:#000000;stroke-width:1" />
    <polyline
       id="SvgjsPolyline1858"
       points="195.71253537143727,89.44747877713762 200,86.87499999999999 197.42752122286237,82.58753537143727"
       style="fill:none;stroke:#000000;stroke-width:1" />
  </g>
  <g
     id="SvgjsG1859"
     optics_type="ray"
     transform="translate(0,-16)">
    <polyline
       id="SvgjsPolyline1860"
       points="402.5,137.49999999999997 447.5,137.49999999999997"
       style="fill:none;stroke:#000000;stroke-width:1" />
    <polyline
       id="SvgjsPolyline1861"
       points="430.46446609406723,141.03553390593274 434,137.5 430.46446609406723,133.96446609406726"
       style="fill:none;stroke:#000000;stroke-width:1" />
  </g>
  <g
     id="SvgjsG1862"
     optics_type="thinlens"
     transform="translate(0,-16)"
     style="stroke:#000000;stroke-width:2">
    <polyline
       id="SvgjsPolyline1863"
       points="87.5,171.25 87.5,58.75"
       style="fill:none" />
    <polyline
       id="SvgjsPolyline1864"
       points="83.96446609406726,167.71446609406726 87.5,171.25 91.03553390593274,167.71446609406726"
       style="fill:none;stroke:#000000;stroke-width:2" />
    <polyline
       id="SvgjsPolyline1865"
       points="91.03553390593274,62.28553390593274 87.5,58.75 83.96446609406726,62.28553390593274"
       style="fill:none;stroke:#000000;stroke-width:2" />
    <polyline
       id="SvgjsPolyline1866"
       points="87.5,171.25 87.5,58.75"
       visibility="hidden"
       pointer-events="all"
       style="opacity:0;fill:none;stroke:#000000;stroke-width:10;visibility:hidden" />
  </g>
  <g
     id="SvgjsG1867"
     optics_type="thinlens"
     transform="translate(0,-16)"
     style="stroke:#000000;stroke-width:2">
    <polyline
       id="SvgjsPolyline1868"
       points="402.5,143.125 402.5,86.875"
       style="fill:none" />
    <polyline
       id="SvgjsPolyline1869"
       points="398.96446609406723,139.58946609406726 402.5,143.125 406.03553390593277,139.58946609406726"
       style="fill:none;stroke:#000000;stroke-width:2" />
    <polyline
       id="SvgjsPolyline1870"
       points="406.03553390593277,90.41053390593274 402.5,86.875 398.96446609406723,90.41053390593274"
       style="fill:none;stroke:#000000;stroke-width:2" />
    <polyline
       id="SvgjsPolyline1871"
       points="402.5,143.125 402.5,86.875"
       visibility="hidden"
       pointer-events="all"
       style="opacity:0;fill:none;stroke:#000000;stroke-width:10;visibility:hidden" />
  </g>
  <defs
     id="SvgjsDefs1001">
    <marker
       inkscape:stockid="Arrow2Mstart"
       orient="auto"
       refY="0.0"
       refX="0.0"
       id="Arrow2Mstart"
       style="overflow:visible">
      <path
         id="path3848"
         style="fill-rule:evenodd;stroke-width:0.62500000;stroke-linejoin:round"
         d="M 8.7185878,4.0337352 L -2.2072895,0.016013256 L 8.7185884,-4.0017078 C 6.9730900,-1.6296469 6.9831476,1.6157441 8.7185878,4.0337352 z "
         transform="scale(0.6) translate(0,0)" />
    </marker>
    <marker
       inkscape:stockid="Arrow2Mend"
       orient="auto"
       refY="0.0"
       refX="0.0"
       id="Arrow2Mend"
       style="overflow:visible;">
      <path
         id="path3851"
         style="fill-rule:evenodd;stroke-width:0.62500000;stroke-linejoin:round;"
         d="M 8.7185878,4.0337352 L -2.2072895,0.016013256 L 8.7185884,-4.0017078 C 6.9730900,-1.6296469 6.9831476,1.6157441 8.7185878,4.0337352 z "
         transform="scale(0.6) rotate(180) translate(0,0)" />
    </marker>
    <radialGradient
       id="SvgjsRadialGradient1872">
      <stop
         id="SvgjsStop1873"
         stop-opacity="0.7"
         stop-color="#000000"
         offset="0" />
      <stop
         id="SvgjsStop1874"
         stop-opacity="0.5"
         stop-color="#000000"
         offset="0.16666666666666666" />
      <stop
         id="SvgjsStop1875"
         stop-opacity="0"
         stop-color="#000000"
         offset="1" />
    </radialGradient>
  </defs>
  <path
     style="fill:none;stroke:#000000;stroke-width:1;stroke-linecap:butt;stroke-linejoin:miter;stroke-miterlimit:4;stroke-opacity:1;stroke-dasharray:2, 2;stroke-dashoffset:0"
     d="m 312.45283,53.949685 0,90.408805"
     id="path3048"
     inkscape:connector-curvature="0" />
  <path
     style="fill:none;stroke:#000000;stroke-width:1px;stroke-linecap:butt;stroke-linejoin:miter;stroke-opacity:1;marker-end:url(#Arrow2Mend)"
     d="m 86.792453,162.08822 224.213837,0"
     id="path3818"
     inkscape:connector-curvature="0" />
  <path
     style="fill:none;stroke:#000000;stroke-width:1px;stroke-linecap:butt;stroke-linejoin:miter;stroke-opacity:1;marker-start:url(#Arrow2Mstart)"
     d="m 313.1761,162.06901 88.96226,0"
     id="path4264"
     inkscape:connector-curvature="0" />
  <g
     id="g4456"
     transform="matrix(1.3498402,0,0,2.1465005,169.99934,169.73002)">
    <path
       id="path4458"
       d="m 19.26669,13.370224 -19.26669,0 0,-13.24705919 38.53338,0 0,13.24705919 -19.26669,0 z"
       style="fill:#ffffff;fill-opacity:1;fill-rule:evenodd;stroke:none"
       inkscape:connector-curvature="0" />
    <path
       id="path4460"
       d="M 19.660834,0.15053476 C 19.660834,0.02736996 19.660834,0 19.475355,0 18.849361,0.35580944 17.945148,0.35580944 17.666929,0.35580944 l 0,0.17790473 c 0.208664,0 0.788288,0 1.275172,-0.15053477 l 0,2.9970103 c 0,0.2189597 0,0.2873846 -0.904213,0.2873846 l -0.324589,0 0,0.1642197 c 0.370959,0 1.228802,0 1.599761,0 0.394144,0 1.251987,0 1.576576,0 l 0,-0.1642197 -0.324589,0 c -0.857843,0 -0.904213,-0.068425 -0.904213,-0.2873846 l 0,-3.22965494 z"
       style="fill:#000000;fill-opacity:1;fill-rule:evenodd;stroke:none"
       inkscape:connector-curvature="0" />
    <path
       id="path4462"
       d="m 19.26669,6.418255 -19.26669,0 0,-0.2189597 38.53338,0 0,0.2189597 -19.26669,0 z"
       style="fill:#000000;fill-opacity:1;fill-rule:evenodd;stroke:none"
       inkscape:connector-curvature="0" />
    <path
       id="path4464"
       d="m 2.9444881,9.8531846 0.9505828,0 c 0.7651032,0 0.8114731,0.068425 0.8114731,0.2600144 0,0.02737 0,0.0958 -0.04637,0.260015 -0.04637,0.05474 -0.04637,0.05474 -0.04637,0.08211 0,0.02737 0.04637,0.06843 0.1391096,0.06843 0.069555,0 0.069555,-0.02737 0.1159248,-0.123165 L 5.4484623,9.1552507 c 0,-0.08211 0,-0.08211 0,-0.1094798 0,-0.013685 0,-0.068425 -0.09274,-0.068425 -0.1159247,0 -0.1159247,0.05474 -0.1622946,0.1231648 C 4.9847632,9.5658 4.7529137,9.6615948 3.9182557,9.6615948 l -0.881028,0 0.6028086,-1.4506077 c 0.115925,-0.2189596 0.115925,-0.2463295 0.533254,-0.2463295 l 1.298357,0 c 1.2056172,0 1.4374666,0.1915897 1.4374666,0.6568789 0,0.1231648 0,0.1368498 -0.04637,0.3147545 -0.023185,0.041055 -0.023185,0.068425 -0.023185,0.095795 0,0.013685 0.023185,0.041055 0.1622946,0.041055 0.069555,0 0.069555,-0.02737 0.1159247,-0.1368498 L 7.3264429,7.9372876 C 7.3728128,7.8004378 7.280073,7.8004378 7.0250386,7.8004378 l -4.7760988,0 c -0.2086646,0 -0.2782194,0 -0.2782194,0.095795 0,0.068425 0.069555,0.068425 0.2318495,0.068425 0.3709591,0 0.6491785,0 0.6491785,0.095795 0,0.05474 0,0.05474 -0.023185,0.1505348 L 1.5070215,11.276422 c -0.069555,0.21896 -0.069555,0.260015 -0.85784301,0.260015 -0.16229462,0 -0.27821935,0 -0.27821935,0.123165 0,0.04106 0.11592473,0.04106 0.11592473,0.04106 0.30140429,0 1.02013763,0 1.32154193,0 0.3245892,0 1.0896925,0 1.4606516,0 0.09274,0 0.1622946,0 0.1622946,-0.09579 0,-0.04106 -0.04637,-0.04106 -0.04637,-0.06843 -0.023185,0 -0.023185,0 -0.2782193,0 -0.2086645,0 -0.2550344,0 -0.4868839,-0.02737 -0.2782194,0 -0.3245892,-0.01369 -0.3245892,-0.10948 0,0 0,-0.02737 0.04637,-0.123165 L 2.9444881,9.8531846 z"
       style="fill:#000000;fill-opacity:1;fill-rule:evenodd;stroke:none"
       inkscape:connector-curvature="0" />
    <path
       id="path4466"
       d="m 9.8999719,11.509067 c 0,-0.424234 -0.5332537,-0.697934 -1.2288021,-0.697934 -1.0201376,0 -1.9707204,0.561084 -1.9707204,1.108483 0,0.41055 0.4868839,0.725304 1.275172,0.725304 0.9505828,0 1.9243505,-0.547399 1.9243505,-1.135853 z m -1.9243505,1.012688 c -0.3709591,0 -0.6955484,-0.136849 -0.6955484,-0.451604 0,-0.150535 0.1159248,-0.561084 0.4173291,-0.766359 0.2782193,-0.273699 0.6955484,-0.369494 0.9737677,-0.369494 0.3709591,0 0.6955484,0.150535 0.6955484,0.437919 0,0.0958 -0.09274,0.506344 -0.417329,0.793729 -0.2318495,0.21896 -0.6491785,0.355809 -0.9737678,0.355809 z"
       style="fill:#000000;fill-opacity:1;fill-rule:evenodd;stroke:none"
       inkscape:connector-curvature="0" />
    <path
       id="path4468"
       d="m 11.986617,9.8942396 c 0,0 0,-0.041055 0,-0.068425 0,-0.02737 0,-0.05474 -0.115925,-0.05474 -0.139109,0 -0.695548,0.02737 -0.881028,0.02737 -0.06955,0.02737 -0.162294,0.02737 -0.162294,0.1231648 0,0.041055 0.09274,0.041055 0.162294,0.041055 0.37096,0 0.37096,0.02737 0.37096,0.05474 0,0.05474 -0.06955,0.19159 -0.115925,0.287385 l -0.162295,0.383179 c -0.09274,0.123165 -0.417329,1.012689 -0.440514,1.067429 -0.04637,0.09579 -0.04637,0.164219 -0.04637,0.218959 0,0.38318 0.440514,0.656879 1.020138,0.656879 0.857843,0 1.762056,-0.561084 1.762056,-1.163223 0,-0.465289 -0.533254,-0.684249 -1.020138,-0.684249 -0.370959,0 -0.672363,0.123165 -0.857843,0.24633 L 11.986617,9.8942396 z M 11.615658,12.50807 c -0.324589,0 -0.533254,-0.177904 -0.533254,-0.410549 0,-0.150535 0.09274,-0.287384 0.27822,-0.752674 0,-0.06842 0,-0.06842 0.162294,-0.164219 0.255035,-0.177905 0.533254,-0.2737 0.788288,-0.2737 0.27822,0 0.533254,0.123165 0.533254,0.396864 0,0.16422 -0.162295,0.574769 -0.370959,0.807414 -0.162295,0.21896 -0.486884,0.396864 -0.857843,0.396864 z"
       style="fill:#000000;fill-opacity:1;fill-rule:evenodd;stroke:none"
       inkscape:connector-curvature="0" />
    <path
       id="path4470"
       d="m 16.554051,10.072144 c 0,-0.08211 -0.06955,-0.1505345 -0.231849,-0.1505345 -0.208665,0 -0.417329,0.095795 -0.417329,0.2189595 0,0.04106 0.09274,0.13685 0.301404,0.13685 0.18548,0 0.347774,-0.10948 0.347774,-0.205275 z m -1.414281,2.723311 c -0.13911,0.260015 -0.463699,0.506344 -0.904213,0.506344 -0.09274,0 -0.162295,0 -0.255035,-0.02737 0.208665,-0.04106 0.255035,-0.13685 0.255035,-0.218959 0,-0.09579 -0.115925,-0.13685 -0.255035,-0.13685 -0.231849,0 -0.394144,0.123165 -0.394144,0.232644 0,0.150535 0.27822,0.2737 0.649179,0.2737 0.440514,0 1.228802,-0.177905 1.460651,-0.656879 l 0.625994,-1.450608 c 0,-0.01369 0,-0.06842 0,-0.123164 0,-0.232645 -0.324589,-0.38318 -0.695548,-0.38318 -0.788289,0 -1.228803,0.561084 -1.228803,0.602139 0,0.05474 0.06956,0.05474 0.115925,0.05474 0.09274,0 0.09274,0 0.162295,-0.06842 0.162294,-0.218959 0.486884,-0.465289 0.904213,-0.465289 0.162294,0 0.208664,0.05474 0.208664,0.19159 0,0.02737 0,0.09579 0,0.123164 L 15.13977,12.79546 z"
       style="fill:#000000;fill-opacity:1;fill-rule:evenodd;stroke:none"
       inkscape:connector-curvature="0" />
    <path
       id="path4472"
       d="m 18.779806,11.659602 c 0.162295,0 0.695549,0 1.043323,-0.06842 0.510069,-0.0958 0.625993,-0.287385 0.625993,-0.410549 0,-0.24633 -0.370959,-0.369495 -0.857843,-0.369495 -0.811473,0 -1.92435,0.38318 -1.92435,1.067428 0,0.41055 0.417329,0.766359 1.228802,0.766359 1.182432,0 1.669316,-0.410549 1.669316,-0.478974 0,0 -0.04637,-0.05474 -0.06956,-0.05474 -0.04637,0 -0.09274,0 -0.139109,0.02737 -0.533254,0.383179 -1.344727,0.383179 -1.414282,0.383179 -0.463699,0 -0.695548,-0.164219 -0.695548,-0.506344 0,-0.04106 0,-0.10948 0.06955,-0.355809 l 0.463699,0 z m -0.417329,-0.09579 c 0.27822,-0.574769 1.020138,-0.629509 1.228802,-0.629509 0.27822,0 0.579624,0.06842 0.579624,0.24633 0,0.383179 -1.159247,0.383179 -1.483837,0.383179 l -0.324589,0 z"
       style="fill:#000000;fill-opacity:1;fill-rule:evenodd;stroke:none"
       inkscape:connector-curvature="0" />
    <path
       id="path4474"
       d="m 23.926864,11.057463 c -0.255034,0.02737 -0.370959,0.13685 -0.370959,0.218959 0,0.123165 0.162295,0.13685 0.27822,0.13685 0.139109,0 0.417329,-0.06842 0.417329,-0.260014 0,-0.260015 -0.579624,-0.342125 -0.950583,-0.342125 -1.020138,0 -1.947536,0.561084 -1.947536,1.108483 0,0.369495 0.394144,0.725304 1.251987,0.725304 1.159248,0 1.738871,-0.410549 1.738871,-0.478974 0,0 -0.09274,-0.05474 -0.185479,-0.05474 0,0 -0.02319,0 -0.115925,0.02737 -0.486884,0.383179 -1.298357,0.383179 -1.437467,0.383179 -0.486884,0 -0.718733,-0.191589 -0.718733,-0.451604 0,-0.09579 0.115925,-0.561084 0.486884,-0.821099 0.231849,-0.191589 0.602809,-0.314754 0.927398,-0.314754 0.139109,0 0.417329,0 0.625993,0.123165 z"
       style="fill:#000000;fill-opacity:1;fill-rule:evenodd;stroke:none"
       inkscape:connector-curvature="0" />
    <path
       id="path4476"
       d="m 26.083064,10.989038 0.695549,0 c 0.162294,0 0.255034,0 0.255034,-0.0958 0,-0.05474 -0.09274,-0.05474 -0.208664,-0.05474 l -0.695549,0 0.27822,-0.602139 c 0,-0.02737 0,-0.02737 0,-0.05474 0,-0.06842 -0.06956,-0.10948 -0.18548,-0.10948 -0.162295,0 -0.301404,0.04106 -0.324589,0.16422 -0.04637,0.0958 0.02319,-0.0958 -0.255035,0.602139 l -0.695548,0 c -0.162295,0 -0.255034,0 -0.255034,0.0958 0,0.05474 0.09274,0.05474 0.208664,0.05474 l 0.649179,0 -0.394145,0.957948 c -0.04637,0.09579 -0.09274,0.24633 -0.09274,0.287385 0,0.24633 0.324589,0.396864 0.741918,0.396864 0.741918,0 1.182432,-0.561084 1.182432,-0.615824 0,-0.06842 -0.115925,-0.06842 -0.115925,-0.06842 -0.09274,0 -0.09274,0.02737 -0.115924,0.06842 -0.208665,0.2737 -0.579624,0.492659 -0.950583,0.492659 -0.162295,0 -0.255034,-0.05474 -0.255034,-0.191589 0,-0.02737 0.04637,-0.123165 0.04637,-0.177905 l 0.486884,-1.149538 z"
       style="fill:#000000;fill-opacity:1;fill-rule:evenodd;stroke:none"
       inkscape:connector-curvature="0" />
    <path
       id="path4478"
       d="m 29.607176,10.072144 c 0,-0.08211 -0.06955,-0.1505345 -0.278219,-0.1505345 -0.162295,0 -0.370959,0.095795 -0.370959,0.2189595 0,0.06843 0.06955,0.13685 0.231849,0.13685 0.255034,0 0.417329,-0.10948 0.417329,-0.205275 z m -1.391097,2.039062 c -0.04637,0.05474 -0.06956,0.10948 -0.06956,0.177905 0,0.19159 0.27822,0.355809 0.649179,0.355809 0.695548,0 1.020138,-0.574769 1.020138,-0.629509 0,-0.04106 -0.115925,-0.04106 -0.115925,-0.04106 -0.13911,0 -0.13911,0 -0.162295,0.04106 -0.185479,0.342125 -0.463699,0.506344 -0.695548,0.506344 -0.18548,0 -0.18548,-0.06842 -0.18548,-0.136849 0,-0.0958 0,-0.16422 0.09274,-0.2737 0.09274,-0.09579 0.162295,-0.205275 0.255034,-0.301069 0.02319,-0.10948 0.27822,-0.49266 0.32459,-0.533715 0,-0.02737 0.02319,-0.08211 0.02319,-0.123164 0,-0.19159 -0.27822,-0.342125 -0.649179,-0.342125 -0.695548,0 -0.973768,0.533714 -0.973768,0.602139 0,0.05474 0.06955,0.05474 0.06955,0.05474 0.13911,0 0.13911,0 0.18548,-0.05474 0.162294,-0.355809 0.440514,-0.478974 0.672363,-0.478974 0.13911,0 0.18548,0 0.18548,0.123165 0,0.09579 0,0.13685 -0.208665,0.410549 l -0.417329,0.643194 z"
       style="fill:#000000;fill-opacity:1;fill-rule:evenodd;stroke:none"
       inkscape:connector-curvature="0" />
    <path
       id="path4480"
       d="m 33.826836,11.098518 c 0,-0.314755 -0.370959,-0.314755 -0.370959,-0.314755 -0.162295,0 -0.370959,0.123165 -0.370959,0.21896 0,0.08211 0.09274,0.0958 0.115925,0.150535 0.139109,0.04106 0.255034,0.150534 0.255034,0.314754 0,0.16422 -0.463699,1.040058 -1.275172,1.040058 -0.533254,0 -0.533254,-0.273699 -0.533254,-0.369494 0,-0.16422 0.09274,-0.410549 0.370959,-0.793729 0.04637,-0.06842 0.09274,-0.123165 0.09274,-0.191589 0,-0.21896 -0.301404,-0.369495 -0.672363,-0.369495 -0.695549,0 -0.973768,0.561084 -0.973768,0.629509 0,0.05474 0.09274,0.05474 0.115925,0.05474 0.09274,0 0.09274,0 0.139109,-0.06842 0.162295,-0.314754 0.440514,-0.492659 0.718734,-0.492659 0.09274,0 0.162294,0.05474 0.162294,0.150535 0,0.09579 -0.06955,0.191589 -0.115924,0.260014 -0.27822,0.46529 -0.370959,0.629509 -0.370959,0.780044 0,0.38318 0.533253,0.533714 1.020137,0.533714 1.205617,0 1.692501,-1.163223 1.692501,-1.532717 z"
       style="fill:#000000;fill-opacity:1;fill-rule:evenodd;stroke:none"
       inkscape:connector-curvature="0" />
    <path
       id="path4482"
       d="m 35.820742,11.659602 c 0.208664,0 0.741918,0 1.112877,-0.06842 0.486884,-0.0958 0.602809,-0.287385 0.602809,-0.410549 0,-0.24633 -0.394144,-0.369495 -0.857843,-0.369495 -0.811474,0 -1.924351,0.38318 -1.924351,1.067428 0,0.41055 0.417329,0.766359 1.228802,0.766359 1.159248,0 1.692501,-0.410549 1.692501,-0.478974 0,0 -0.04637,-0.05474 -0.139109,-0.05474 0,0 -0.04637,0 -0.06956,0.02737 -0.533254,0.383179 -1.344727,0.383179 -1.483837,0.383179 -0.394144,0 -0.695548,-0.164219 -0.695548,-0.506344 0,-0.04106 0,-0.10948 0.09274,-0.355809 l 0.440514,0 z m -0.37096,-0.09579 c 0.301405,-0.574769 1.020138,-0.629509 1.228803,-0.629509 0.301404,0 0.533253,0.06842 0.533253,0.24633 0,0.383179 -1.136062,0.383179 -1.437466,0.383179 l -0.32459,0 z"
       style="fill:#000000;fill-opacity:1;fill-rule:evenodd;stroke:none"
       inkscape:connector-curvature="0" />
  </g>
  <g
     id="g4553"
     transform="matrix(1.1796078,0,0,1.9301236,336.96215,168.26296)">
    <path
       id="path4555"
       d="M 16.909163,13.397481 0,13.397481 0,0.12341589 l 33.861795,0 0,13.27406511 -16.952632,0 z"
       style="fill:#ffffff;fill-opacity:1;fill-rule:evenodd;stroke:none"
       inkscape:connector-curvature="0" />
    <path
       id="path4557"
       d="m 17.104771,2.5368822 c 0.152139,0 0.347746,0 0.347746,-0.1234159 0,-0.109703 -0.195607,-0.109703 -0.347746,-0.109703 l -4.955385,0 c -0.152139,0 -0.304278,0 -0.304278,0.109703 0,0.1234159 0.152139,0.1234159 0.304278,0.1234159 l 4.955385,0 z"
       style="fill:#000000;fill-opacity:1;fill-rule:evenodd;stroke:none"
       inkscape:connector-curvature="0" />
    <path
       id="path4559"
       d="M 20.886511,0.15084165 C 20.886511,0.02742575 20.886511,0 20.66917,0 20.082348,0.3565348 19.278185,0.3565348 19.017375,0.3565348 l 0,0.1782674 c 0.195607,0 0.717227,0 1.195378,-0.15084164 l 0,3.00312004 c 0,0.219406 -0.04347,0.2879704 -0.847632,0.2879704 l -0.304278,0 0,0.1645546 c 0.304278,0 1.108442,0 1.477922,0 0.347746,0 1.195378,0 1.499656,0 l 0,-0.1645546 -0.304278,0 c -0.847632,0 -0.847632,-0.068564 -0.847632,-0.2879704 l 0,-3.23623895 z"
       style="fill:#000000;fill-opacity:1;fill-rule:evenodd;stroke:none"
       inkscape:connector-curvature="0" />
    <path
       id="path4561"
       d="m 16.909163,6.4313393 -16.909163,0 0,-0.219406 33.861795,0 0,0.219406 -16.952632,0 z"
       style="fill:#000000;fill-opacity:1;fill-rule:evenodd;stroke:none"
       inkscape:connector-curvature="0" />
    <path
       id="path4563"
       d="m 2.7602362,9.8732714 0.8910998,0 c 0.7172268,0 0.760695,0.068564 0.760695,0.2605446 0,0.02743 0,0.09599 -0.043468,0.260545 -0.043468,0.05485 -0.043468,0.05485 -0.043468,0.08228 0,0.02743 0.043468,0.06856 0.1304048,0.06856 0.065203,0 0.065203,-0.02742 0.1086707,-0.123415 L 5.1075236,9.1739147 c 0,-0.082277 0,-0.082277 0,-0.109703 0,-0.013713 0,-0.068564 -0.086937,-0.068564 -0.1086707,0 -0.1086707,0.054851 -0.152139,0.1234159 -0.1956072,0.4662378 -0.4129487,0.562228 -1.1953778,0.562228 l -0.8258975,0 0.5650878,-1.453565 C 3.5209312,8.0083202 3.5209312,7.9808944 3.9121457,7.9808944 l 1.2171121,0 c 1.1301754,0 1.3475168,0.1919803 1.3475168,0.6582181 0,0.1234159 0,0.1371288 -0.043468,0.3153962 -0.021734,0.041139 -0.021734,0.068564 -0.021734,0.09599 0,0.013713 0.021734,0.041139 0.152139,0.041139 0.065202,0 0.065202,-0.027426 0.1086707,-0.1371287 L 6.8679896,7.953469 C 6.9114575,7.8163399 6.8245209,7.8163399 6.5854453,7.8163399 l -4.4772334,0 c -0.1956073,0 -0.2608097,0 -0.2608097,0.09599 0,0.068564 0.065202,0.068564 0.2173414,0.068564 0.3477463,0 0.608556,0 0.608556,0.09599 0,0.054852 0,0.054852 -0.021734,0.1508417 L 1.4127193,11.299411 c -0.065202,0.219406 -0.065202,0.260544 -0.80416329,0.260544 -0.15213901,0 -0.26080972,0 -0.26080972,0.123416 0,0.04114 0.10867071,0.04114 0.10867071,0.04114 0.28254386,0 0.9563023,0 1.2388462,0 0.304278,0 1.0215047,0 1.369251,0 0.086936,0 0.152139,0 0.152139,-0.09599 0,-0.04114 -0.043468,-0.04114 -0.043468,-0.06856 -0.021734,0 -0.021734,0 -0.2608097,0 -0.1956073,0 -0.2390756,0 -0.456417,-0.02743 -0.2608098,0 -0.304278,-0.01371 -0.304278,-0.109703 0,0 0,-0.02743 0.043468,-0.123416 L 2.7602362,9.8732714 z"
       style="fill:#000000;fill-opacity:1;fill-rule:evenodd;stroke:none"
       inkscape:connector-curvature="0" />
    <path
       id="path4565"
       d="m 7.3244062,11.683371 c 0.1956073,0 0.6954926,0 1.0432389,-0.06856 0.456417,-0.09599 0.5650877,-0.287971 0.5650877,-0.411387 0,-0.246831 -0.3912146,-0.370247 -0.8041633,-0.370247 -0.760695,0 -1.8039339,0.38396 -1.8039339,1.069604 0,0.411387 0.3912146,0.767921 1.1519096,0.767921 1.064973,0 1.5648583,-0.411386 1.5648583,-0.47995 0,0 -0.021734,-0.05485 -0.1086707,-0.05485 0,0 -0.043468,0 -0.086937,0.02743 -0.4781511,0.38396 -1.2605803,0.38396 -1.369251,0.38396 -0.3912146,0 -0.6520243,-0.164554 -0.6520243,-0.507376 0,-0.04114 0,-0.109703 0.086937,-0.356535 l 0.4129487,0 z m -0.3477463,-0.09599 c 0.2390756,-0.575941 0.9563023,-0.630792 1.1519096,-0.630792 0.2608097,0 0.4998853,0.06856 0.4998853,0.246831 0,0.383961 -1.0867072,0.383961 -1.3475169,0.383961 l -0.304278,0 z"
       style="fill:#000000;fill-opacity:1;fill-rule:evenodd;stroke:none"
       inkscape:connector-curvature="0" />
    <path
       id="path4567"
       d="m 12.910081,11.10743 c 0.04347,-0.08228 0.04347,-0.08228 0.04347,-0.09599 0,-0.09599 -0.10867,-0.150841 -0.195607,-0.150841 -0.0652,0 -0.173873,0.05485 -0.26081,0.09599 -0.04347,0.05485 -0.0652,0.164554 -0.10867,0.260544 l -0.130405,0.315397 c -0.0652,0.09599 -0.217342,0.603366 -0.26081,0.658218 0,0 -0.304278,0.356534 -0.804163,0.356534 -0.412949,0 -0.412949,-0.260544 -0.412949,-0.329109 0,-0.219406 0.152139,-0.493663 0.347746,-0.795346 0.0652,-0.123416 0.0652,-0.178268 0.0652,-0.246832 0,-0.191981 -0.239076,-0.342822 -0.565088,-0.342822 -0.6520243,0 -0.9563023,0.534802 -0.9563023,0.630792 0,0.05485 0.065202,0.05485 0.1086707,0.05485 0.1086707,0 0.1086707,-0.02743 0.1086707,-0.08228 0.1956069,-0.329109 0.4129489,-0.47995 0.6954929,-0.47995 0.10867,0 0.152139,0.05485 0.152139,0.123416 0,0.09599 -0.04347,0.19198 -0.08694,0.246831 -0.304278,0.507377 -0.347746,0.644506 -0.347746,0.80906 0,0.08228 0,0.274258 0.239075,0.397674 0.195608,0.123415 0.456417,0.137128 0.652025,0.137128 0.260809,0 0.499885,-0.06856 0.695492,-0.19198 -0.10867,0.219406 -0.152139,0.383961 -0.434683,0.603367 -0.152139,0.123416 -0.412948,0.246831 -0.760695,0.246831 -0.04347,0 -0.347746,0 -0.499885,-0.123415 0.347746,-0.02743 0.347746,-0.246832 0.347746,-0.246832 0,-0.109703 -0.152139,-0.137129 -0.239075,-0.137129 -0.152139,0 -0.3694806,0.09599 -0.3694806,0.260545 0,0.219406 0.3042776,0.370247 0.7606946,0.370247 0.652025,0 1.41272,-0.315396 1.651795,-0.822772 l 0.565088,-1.52213 z"
       style="fill:#000000;fill-opacity:1;fill-rule:evenodd;stroke:none"
       inkscape:connector-curvature="0" />
    <path
       id="path4569"
       d="m 14.757483,11.683371 c 0.195607,0 0.695493,0 0.999771,-0.06856 0.499885,-0.09599 0.565087,-0.287971 0.565087,-0.411387 0,-0.246831 -0.326012,-0.370247 -0.804163,-0.370247 -0.717227,0 -1.803934,0.38396 -1.803934,1.069604 0,0.411387 0.434683,0.767921 1.15191,0.767921 1.130175,0 1.608326,-0.411386 1.608326,-0.47995 0,0 -0.02173,-0.05485 -0.10867,-0.05485 -0.04347,0 -0.04347,0 -0.108671,0.02743 -0.499885,0.38396 -1.238846,0.38396 -1.347517,0.38396 -0.36948,0 -0.652024,-0.164554 -0.652024,-0.507376 0,-0.04114 0,-0.109703 0.08694,-0.356535 l 0.412949,0 z m -0.391214,-0.09599 c 0.282543,-0.575941 0.99977,-0.630792 1.151909,-0.630792 0.304278,0 0.543354,0.06856 0.543354,0.246831 0,0.383961 -1.064973,0.383961 -1.347517,0.383961 l -0.347746,0 z"
       style="fill:#000000;fill-opacity:1;fill-rule:evenodd;stroke:none"
       inkscape:connector-curvature="0" />
    <path
       id="path4571"
       d="m 17.300378,13.136936 c -0.04347,0.09599 -0.08694,0.123416 -0.326012,0.123416 -0.108671,0 -0.173873,0 -0.173873,0.09599 0,0.01371 0.02173,0.04114 0.0652,0.04114 0.195607,0 0.391215,-0.02743 0.586822,-0.02743 0.173873,0 0.456417,0.02743 0.652024,0.02743 0.0652,0 0.108671,-0.02743 0.108671,-0.06857 0,-0.06856 -0.08694,-0.06856 -0.152139,-0.06856 -0.108671,0 -0.304278,0 -0.304278,-0.05485 0,-0.02743 0.0652,-0.123416 0.0652,-0.164555 0.08694,-0.219406 0.152139,-0.438812 0.239076,-0.630792 0.0652,0.09599 0.26081,0.260544 0.652024,0.260544 0.804163,0 1.651795,-0.548515 1.651795,-1.151881 0,-0.493664 -0.499885,-0.685644 -0.956302,-0.685644 -0.391215,0 -0.738961,0.178267 -0.934568,0.28797 -0.0652,-0.233119 -0.456417,-0.28797 -0.652025,-0.28797 -0.217341,0 -0.36948,0.09599 -0.499885,0.219406 -0.108671,0.123416 -0.217341,0.370248 -0.217341,0.411386 0,0.05485 0.0652,0.05485 0.10867,0.05485 0.08694,0 0.108671,-0.02743 0.108671,-0.150842 0.130405,-0.219406 0.239076,-0.411386 0.499885,-0.411386 0.152139,0 0.195608,0.06856 0.195608,0.19198 0,0.05485 0,0.09599 0,0.123416 l -0.717227,1.864951 z m 1.173644,-1.8101 c 0.391214,-0.315396 0.73896,-0.370247 0.934568,-0.370247 0.217341,0 0.456417,0.123416 0.456417,0.38396 0,0.178268 -0.152139,0.589654 -0.347747,0.795347 -0.152139,0.219406 -0.456417,0.411386 -0.804163,0.411386 -0.434683,0 -0.586822,-0.301683 -0.586822,-0.356534 0,0 0.04347,-0.05485 0.04347,-0.05485 l 0.304278,-0.80906 z"
       style="fill:#000000;fill-opacity:1;fill-rule:evenodd;stroke:none"
       inkscape:connector-curvature="0" />
    <path
       id="path4573"
       d="m 22.646977,10.092677 c 0,-0.08228 -0.0652,-0.1508412 -0.26081,-0.1508412 -0.152139,0 -0.347746,0.09599 -0.347746,0.2194062 0,0.06856 0.08694,0.137129 0.282544,0.137129 0.173873,0 0.326012,-0.109703 0.326012,-0.205694 z m -1.304049,2.043219 c -0.02173,0.05485 -0.02173,0.109703 -0.02173,0.178268 0,0.19198 0.217342,0.356534 0.565088,0.356534 0.652024,0 0.956302,-0.57594 0.956302,-0.630792 0,-0.04114 -0.10867,-0.04114 -0.10867,-0.04114 -0.108671,0 -0.108671,0 -0.108671,0.04114 -0.152139,0.342822 -0.456417,0.507376 -0.695493,0.507376 -0.10867,0 -0.152139,-0.06856 -0.152139,-0.137128 0,-0.09599 0.04347,-0.164555 0.108671,-0.274258 0.04347,-0.09599 0.108671,-0.205693 0.195607,-0.301683 0.04347,-0.109703 0.304278,-0.493664 0.304278,-0.534802 0,-0.02743 0.04347,-0.08228 0.04347,-0.123416 0,-0.191981 -0.26081,-0.342822 -0.608556,-0.342822 -0.652025,0 -0.934569,0.534802 -0.934569,0.603366 0,0.05485 0.08694,0.05485 0.130405,0.05485 0.0652,0 0.0652,0 0.108671,-0.05485 0.152139,-0.356534 0.412949,-0.47995 0.695493,-0.47995 0.0652,0 0.152139,0 0.152139,0.123416 0,0.09599 -0.04347,0.137128 -0.239076,0.411386 l -0.391215,0.644505 z"
       style="fill:#000000;fill-opacity:1;fill-rule:evenodd;stroke:none"
       inkscape:connector-curvature="0" />
    <path
       id="path4575"
       d="m 24.60305,11.683371 c 0.195607,0 0.695493,0 1.043239,-0.06856 0.456417,-0.09599 0.586822,-0.287971 0.586822,-0.411387 0,-0.246831 -0.391215,-0.370247 -0.847632,-0.370247 -0.738961,0 -1.760465,0.38396 -1.760465,1.069604 0,0.411387 0.36948,0.767921 1.108441,0.767921 1.108441,0 1.608326,-0.411386 1.608326,-0.47995 0,0 -0.04347,-0.05485 -0.10867,-0.05485 0,0 -0.04347,0 -0.08694,0.02743 -0.499885,0.38396 -1.26058,0.38396 -1.390985,0.38396 -0.36948,0 -0.652024,-0.164554 -0.652024,-0.507376 0,-0.04114 0,-0.109703 0.08694,-0.356535 l 0.412949,0 z m -0.326012,-0.09599 c 0.217341,-0.575941 0.956302,-0.630792 1.108441,-0.630792 0.304278,0 0.52162,0.06856 0.52162,0.246831 0,0.383961 -1.064973,0.383961 -1.325783,0.383961 l -0.304278,0 z"
       style="fill:#000000;fill-opacity:1;fill-rule:evenodd;stroke:none"
       inkscape:connector-curvature="0" />
    <path
       id="path4577"
       d="m 29.471498,11.080005 c -0.26081,0.02743 -0.326012,0.137128 -0.326012,0.219406 0,0.123416 0.108671,0.137128 0.26081,0.137128 0.10867,0 0.347746,-0.06856 0.347746,-0.260544 0,-0.260545 -0.543354,-0.342822 -0.847632,-0.342822 -0.99977,0 -1.869136,0.562228 -1.869136,1.110743 0,0.370248 0.412949,0.726782 1.217112,0.726782 1.064973,0 1.564858,-0.411386 1.564858,-0.47995 0,0 -0.0652,-0.05485 -0.10867,-0.05485 -0.04347,0 -0.08694,0 -0.108671,0.02743 -0.499885,0.38396 -1.26058,0.38396 -1.347517,0.38396 -0.499885,0 -0.695493,-0.19198 -0.695493,-0.452524 0,-0.09599 0.130405,-0.562228 0.434683,-0.822773 0.26081,-0.19198 0.565088,-0.315396 0.912834,-0.315396 0.08694,0 0.391215,0 0.565088,0.123416 z"
       style="fill:#000000;fill-opacity:1;fill-rule:evenodd;stroke:none"
       inkscape:connector-curvature="0" />
    <path
       id="path4579"
       d="m 31.362368,11.683371 c 0.195608,0 0.695493,0 1.021505,-0.06856 0.478151,-0.09599 0.586822,-0.287971 0.586822,-0.411387 0,-0.246831 -0.391215,-0.370247 -0.804163,-0.370247 -0.760695,0 -1.803934,0.38396 -1.803934,1.069604 0,0.411387 0.391214,0.767921 1.151909,0.767921 1.064973,0 1.564859,-0.411386 1.564859,-0.47995 0,0 -0.04347,-0.05485 -0.108671,-0.05485 0,0 -0.04347,0 -0.08694,0.02743 -0.499885,0.38396 -1.26058,0.38396 -1.369251,0.38396 -0.391214,0 -0.652024,-0.164554 -0.652024,-0.507376 0,-0.04114 0,-0.109703 0.0652,-0.356535 l 0.434682,0 z m -0.347746,-0.09599 c 0.26081,-0.575941 0.956302,-0.630792 1.15191,-0.630792 0.260809,0 0.499885,0.06856 0.499885,0.246831 0,0.383961 -1.086707,0.383961 -1.347517,0.383961 l -0.304278,0 z"
       style="fill:#000000;fill-opacity:1;fill-rule:evenodd;stroke:none"
       inkscape:connector-curvature="0" />
  </g>
  <text
     xml:space="preserve"
     style="font-size:12px;font-style:normal;font-variant:normal;font-weight:normal;font-stretch:normal;line-height:125%;letter-spacing:0px;word-spacing:0px;fill:#000000;fill-opacity:1;stroke:none;font-family:Cambria;-inkscape-font-specification:Cambria"
     x="57.138363"
     y="32.251572"
     id="text4599"
     sodipodi:linespacing="125%"><tspan
       sodipodi:role="line"
       id="tspan4601"
       x="57.138363"
       y="32.251572">objective lens</tspan></text>
  <text
     xml:space="preserve"
     style="font-size:12px;font-style:normal;font-variant:normal;font-weight:normal;font-stretch:normal;line-height:125%;letter-spacing:0px;word-spacing:0px;fill:#000000;fill-opacity:1;stroke:none;font-family:Cambria;-inkscape-font-specification:Cambria"
     x="378.27042"
     y="57.566036"
     id="text4603"
     sodipodi:linespacing="125%"><tspan
       sodipodi:role="line"
       id="tspan4605"
       x="378.27042"
       y="57.566036">eyepiece</tspan></text>
  <text
     xml:space="preserve"
     style="font-size:12px;font-style:normal;font-variant:normal;font-weight:normal;font-stretch:normal;line-height:125%;letter-spacing:0px;word-spacing:0px;fill:#000000;fill-opacity:1;stroke:none;font-family:Cambria;-inkscape-font-specification:Cambria"
     x="311.28262"
     y="26.974842"
     id="text4607"
     sodipodi:linespacing="125%"><tspan
       sodipodi:role="line"
       id="tspan4609"
       x="311.28262"
       y="26.974842"
       style="text-align:center;text-anchor:middle">image forms</tspan><tspan
       sodipodi:role="line"
       x="311.28262"
       y="41.974842"
       id="tspan4611"
       style="text-align:center;text-anchor:middle">here</tspan></text>
</svg>
