<?xml version="1.0" encoding="UTF-8" standalone="no"?>
<svg
   xmlns:dc="http://purl.org/dc/elements/1.1/"
   xmlns:cc="http://creativecommons.org/ns#"
   xmlns:rdf="http://www.w3.org/1999/02/22-rdf-syntax-ns#"
   xmlns:svg="http://www.w3.org/2000/svg"
   xmlns="http://www.w3.org/2000/svg"
   xmlns:sodipodi="http://sodipodi.sourceforge.net/DTD/sodipodi-0.dtd"
   xmlns:inkscape="http://www.inkscape.org/namespaces/inkscape"
   id="SvgjsSvg1000"
   version="1.1"
   width="490.66666"
   height="256"
   style="overflow:hidden"
   inkscape:version="0.48.5 r10040"
   sodipodi:docname="image4.svg"
   viewBox="0 0 460 240">
  <metadata
     id="metadata8">
    <rdf:RDF>
      <cc:Work
         rdf:about="">
        <dc:format>image/svg+xml</dc:format>
        <dc:type
           rdf:resource="http://purl.org/dc/dcmitype/StillImage" />
        <dc:title />
      </cc:Work>
    </rdf:RDF>
  </metadata>
  <sodipodi:namedview
     pagecolor="#ffffff"
     bordercolor="#666666"
     borderopacity="1"
     objecttolerance="10"
     gridtolerance="10"
     guidetolerance="10"
     inkscape:pageopacity="0"
     inkscape:pageshadow="2"
     inkscape:window-width="1920"
     inkscape:window-height="1018"
     id="namedview6"
     showgrid="false"
     inkscape:zoom="2.6901514"
     inkscape:cx="161.42224"
     inkscape:cy="128.95432"
     inkscape:window-x="-8"
     inkscape:window-y="-8"
     inkscape:window-maximized="1"
     inkscape:current-layer="SvgjsSvg1000" />
  <path
     style="fill:none;stroke:#819bd4;stroke-width:2.81250006000000010;stroke-opacity:1;stroke-miterlimit:4;stroke-dasharray:none"
     d="m 178.88672,87.65625 c -9.54711,7.555152 -15.67969,19.22348 -15.67969,32.34375 0,13.12027 6.13258,24.78859 15.67969,32.34375"
     id="path3030" />
  <path
     style="fill:none;stroke:#9d000f;stroke-width:1.87500004000000000;stroke-opacity:0.69803923;stroke-miterlimit:4;stroke-dasharray:none"
     d="m 178.88672,152.34375 c 12.3404,27.36279 39.84664,46.40625 71.8125,46.40625 43.49242,0 78.75,-35.25758 78.75,-78.75 0,-43.492424 -35.25758,-78.75 -78.75,-78.75 -31.96586,0 -59.4721,19.043463 -71.8125,46.40625"
     id="SvgjsEllipse1002" />
  <defs
     id="SvgjsDefs1001">
    <marker
       inkscape:stockid="Arrow2Mend"
       orient="auto"
       refY="0"
       refX="0"
       id="Arrow2Mend"
       style="overflow:visible">
      <path
         id="path3787"
         style="fill-rule:evenodd;stroke-width:0.625;stroke-linejoin:round"
         d="M 8.7185878,4.0337352 -2.2072895,0.01601326 8.7185884,-4.0017078 c -1.7454984,2.3720609 -1.7354408,5.6174519 -6e-7,8.035443 z"
         transform="scale(-0.6)"
         inkscape:connector-curvature="0" />
    </marker>
    <marker
       inkscape:stockid="Arrow2Mstart"
       orient="auto"
       refY="0"
       refX="0"
       id="Arrow2Mstart"
       style="overflow:visible">
      <path
         id="path3784"
         style="fill-rule:evenodd;stroke-width:0.625;stroke-linejoin:round"
         d="M 8.7185878,4.0337352 -2.2072895,0.01601326 8.7185884,-4.0017078 c -1.7454984,2.3720609 -1.7354408,5.6174519 -6e-7,8.035443 z"
         transform="scale(0.6)"
         inkscape:connector-curvature="0" />
    </marker>
    <marker
       inkscape:stockid="Arrow2Mstart"
       orient="auto"
       refY="0"
       refX="0"
       id="Arrow2Mstart-1"
       style="overflow:visible">
      <path
         inkscape:connector-curvature="0"
         id="path3784-7"
         style="fill-rule:evenodd;stroke-width:0.625;stroke-linejoin:round"
         d="M 8.7185878,4.0337352 -2.2072895,0.01601326 8.7185884,-4.0017078 c -1.7454984,2.3720609 -1.7354408,5.6174519 -6e-7,8.035443 z"
         transform="scale(0.6)" />
    </marker>
    <marker
       inkscape:stockid="Arrow2Mend"
       orient="auto"
       refY="0"
       refX="0"
       id="Arrow2Mend-4"
       style="overflow:visible">
      <path
         inkscape:connector-curvature="0"
         id="path3787-0"
         style="fill-rule:evenodd;stroke-width:0.625;stroke-linejoin:round"
         d="M 8.7185878,4.0337352 -2.2072895,0.01601326 8.7185884,-4.0017078 c -1.7454984,2.3720609 -1.7354408,5.6174519 -6e-7,8.035443 z"
         transform="scale(-0.6)" />
    </marker>
  </defs>
  <path
     style="fill:none;stroke:#000000;stroke-width:1px;stroke-linecap:butt;stroke-linejoin:miter;stroke-opacity:1;marker-start:url(#Arrow2Mstart);marker-end:url(#Arrow2Mend)"
     d="M 164.53379,120 H 327.94872"
     id="path3754"
     inkscape:connector-curvature="0" />
  <g
     style="font-style:normal;font-variant:normal;font-weight:normal;font-stretch:normal;font-size:14px;line-height:125%;font-family:Cambria;-inkscape-font-specification:Cambria;letter-spacing:0px;word-spacing:0px;fill:#000000;fill-opacity:1;stroke:none"
     id="text4386"
     transform="translate(142.5)">
    <path
       d="m 82.001625,131.14401 c 0.223302,0 0.403315,-0.0137 0.540039,-0.041 0.136713,-0.0274 0.246088,-0.0729 0.328125,-0.13672 0.08203,-0.0638 0.146967,-0.14697 0.194824,-0.24951 0.04785,-0.10254 0.10823,-0.26091 0.181153,-0.4751 h 0.581054 l -0.116211,1.99609 h -5.625976 v -0.32812 c 0.195962,-0.47852 0.460285,-0.96843 0.792969,-1.46973 0.33268,-0.5013 0.804359,-1.09147 1.415039,-1.77051 0.528642,-0.58333 0.909175,-1.02538 1.141601,-1.32617 0.255204,-0.32812 0.445471,-0.61181 0.570801,-0.85107 0.125321,-0.23925 0.215327,-0.46484 0.27002,-0.67676 0.05468,-0.21191 0.08203,-0.42496 0.08203,-0.63916 -5e-6,-0.34179 -0.05469,-0.64371 -0.164063,-0.90576 -0.10938,-0.26204 -0.27686,-0.46826 -0.502441,-0.61866 -0.22559,-0.15038 -0.509281,-0.22557 -0.851074,-0.22558 -0.852217,1e-5 -1.426435,0.47397 -1.722657,1.42187 H 78.28971 v -1.3125 c 0.551431,-0.25975 1.067543,-0.44774 1.54834,-0.56396 0.480791,-0.1162 0.912594,-0.17431 1.29541,-0.17432 0.847651,10e-6 1.48795,0.18572 1.920898,0.55713 0.432937,0.37143 0.649408,0.91033 0.649414,1.6167 -6e-6,0.24154 -0.02393,0.46371 -0.07178,0.6665 -0.04786,0.20281 -0.123053,0.40333 -0.225586,0.60157 -0.102545,0.19825 -0.240403,0.4113 -0.413574,0.63916 -0.173183,0.22787 -0.364589,0.45915 -0.574219,0.69385 -0.20964,0.2347 -0.571944,0.62549 -1.086914,1.17236 -0.865888,0.91602 -1.50163,1.71582 -1.907226,2.39941 z"
       id="path4885"
       inkscape:connector-curvature="0" />
    <path
       d="m 89.76725,131.14401 c 0.223302,0 0.403315,-0.0137 0.540039,-0.041 0.136713,-0.0274 0.246088,-0.0729 0.328125,-0.13672 0.08203,-0.0638 0.146967,-0.14697 0.194824,-0.24951 0.04785,-0.10254 0.10823,-0.26091 0.181153,-0.4751 h 0.581054 l -0.116211,1.99609 h -5.625976 v -0.32812 c 0.195962,-0.47852 0.460285,-0.96843 0.792969,-1.46973 0.33268,-0.5013 0.804359,-1.09147 1.415039,-1.77051 0.528642,-0.58333 0.909175,-1.02538 1.141601,-1.32617 0.255204,-0.32812 0.445471,-0.61181 0.570801,-0.85107 0.125321,-0.23925 0.215327,-0.46484 0.27002,-0.67676 0.05468,-0.21191 0.08203,-0.42496 0.08203,-0.63916 -5e-6,-0.34179 -0.05469,-0.64371 -0.164063,-0.90576 -0.10938,-0.26204 -0.27686,-0.46826 -0.502441,-0.61866 -0.22559,-0.15038 -0.509281,-0.22557 -0.851074,-0.22558 -0.852217,1e-5 -1.426435,0.47397 -1.722657,1.42187 h -0.827148 v -1.3125 c 0.551431,-0.25975 1.067543,-0.44774 1.54834,-0.56396 0.480791,-0.1162 0.912594,-0.17431 1.29541,-0.17432 0.847651,10e-6 1.48795,0.18572 1.920898,0.55713 0.432937,0.37143 0.649408,0.91033 0.649414,1.6167 -6e-6,0.24154 -0.02393,0.46371 -0.07178,0.6665 -0.04786,0.20281 -0.123053,0.40333 -0.225586,0.60157 -0.102545,0.19825 -0.240403,0.4113 -0.413574,0.63916 -0.173183,0.22787 -0.364589,0.45915 -0.574219,0.69385 -0.20964,0.2347 -0.571944,0.62549 -1.086914,1.17236 -0.865888,0.91602 -1.50163,1.71582 -1.907226,2.39941 z"
       id="path4887"
       inkscape:connector-curvature="0" />
    <path
       d="m 94.860023,130.65182 v 1.58594 h -1.380859 v -1.58594 z"
       id="path4889"
       inkscape:connector-curvature="0" />
    <path
       d="m 100.35612,130.45358 c -1e-5,0.26433 0.0148,0.46371 0.0444,0.59815 0.0296,0.13444 0.082,0.24381 0.15723,0.32812 0.0752,0.0843 0.18342,0.15039 0.3247,0.19824 0.14128,0.0479 0.31901,0.0843 0.53321,0.10938 0.21418,0.0251 0.49674,0.0422 0.84765,0.0513 v 0.49902 h -5.051754 v -0.49902 c 0.505857,-0.0228 0.867022,-0.0536 1.083496,-0.0923 0.216469,-0.0387 0.38167,-0.0968 0.495606,-0.17431 0.113929,-0.0775 0.197099,-0.18685 0.249511,-0.32813 0.05241,-0.14127 0.07861,-0.37142 0.07861,-0.69043 v -5.54394 c -4e-6,-0.18229 -0.03191,-0.31559 -0.0957,-0.3999 -0.06381,-0.0843 -0.157229,-0.12646 -0.280273,-0.12647 -0.145836,1e-5 -0.353193,0.0752 -0.62207,0.22559 -0.268883,0.15039 -0.601565,0.35775 -0.998047,0.62207 l -0.300781,-0.52637 3.199222,-1.90723 h 0.37597 c -0.0273,0.43751 -0.041,1.04363 -0.041,1.81836 z"
       id="path4891"
       inkscape:connector-curvature="0" />
    <path
       d="m 109.5983,123.17331 v 0.33496 c -0.70182,1e-5 -1.32389,0.1504 -1.86621,0.45117 -0.54232,0.30079 -0.99235,0.74285 -1.35009,1.32617 -0.35775,0.58334 -0.60954,1.27605 -0.75537,2.07813 l 0.0683,0.0273 c 0.38281,-0.27343 0.75993,-0.47395 1.13135,-0.60156 0.37142,-0.1276 0.7736,-0.1914 1.20655,-0.19141 0.51496,10e-6 0.9536,0.1128 1.31591,0.33838 0.3623,0.22559 0.6346,0.54233 0.8169,0.9502 0.18228,0.40788 0.27343,0.88526 0.27344,1.43213 -1e-5,0.59245 -0.11394,1.1154 -0.3418,1.56884 -0.22787,0.45346 -0.57992,0.81006 -1.05615,1.06983 -0.47625,0.25976 -1.063,0.38965 -1.76026,0.38965 -0.99805,0 -1.75114,-0.3099 -2.25928,-0.92969 -0.50813,-0.61979 -0.7622,-1.53353 -0.7622,-2.74121 0,-0.81119 0.1276,-1.56998 0.38281,-2.27637 0.25521,-0.70637 0.61751,-1.32274 1.08691,-1.84912 0.4694,-0.52636 1.014,-0.94107 1.63379,-1.24414 0.61979,-0.30305 1.27148,-0.47281 1.95508,-0.50928 z m -2.0371,4.14258 c -0.22332,0 -0.43865,0.0251 -0.646,0.0752 -0.20736,0.0501 -0.40218,0.12305 -0.58447,0.21875 -0.1823,0.0957 -0.36003,0.21648 -0.53321,0.36231 -0.0547,0.0501 -0.0957,0.10254 -0.12304,0.15722 -0.0456,0.0866 -0.0752,0.19369 -0.0889,0.32129 -0.0137,0.12761 -0.0205,0.3418 -0.0205,0.64258 0,0.87045 0.14583,1.53353 0.4375,1.98926 0.29167,0.45573 0.73372,0.68359 1.32617,0.68359 0.3418,0 0.62891,-0.0592 0.86133,-0.17773 0.23242,-0.11849 0.42041,-0.28141 0.56397,-0.48877 0.14355,-0.20736 0.24608,-0.45117 0.30761,-0.73145 0.0615,-0.28027 0.0923,-0.58447 0.0923,-0.91259 -1e-5,-0.67448 -0.139,-1.19971 -0.41699,-1.57569 -0.278,-0.37597 -0.66993,-0.56396 -1.17578,-0.56396 z"
       id="path4893"
       inkscape:connector-curvature="0" />
    <path
       d="m 118.15006,123.23483 -3.97851,9.05078 h -0.99121 v -0.33496 l 3.68457,-7.7998 v -0.10254 h -3.00782 c -0.18685,1e-5 -0.3361,0.0171 -0.44775,0.0513 -0.11166,0.0342 -0.20508,0.0832 -0.28027,0.14697 -0.0752,0.0638 -0.13786,0.14812 -0.18799,0.25293 -0.0501,0.10483 -0.11849,0.31218 -0.20508,0.62207 h -0.58789 l 0.13672,-2.21484 h 5.86523 z"
       id="path4895"
       inkscape:connector-curvature="0" />
    <path
       d="m 121.4108,126.75534 0.0957,0.0273 c 0.27343,-0.27343 0.49788,-0.47964 0.67334,-0.61865 0.17545,-0.13899 0.34521,-0.25064 0.50928,-0.33496 0.16405,-0.0843 0.31786,-0.14469 0.46142,-0.18115 0.14355,-0.0365 0.29052,-0.0547 0.44092,-0.0547 0.45572,1e-5 0.82714,0.10483 1.11426,0.31445 0.2871,0.20965 0.48534,0.53093 0.59472,0.96387 0.34179,-0.34635 0.61865,-0.60156 0.83057,-0.76562 0.21191,-0.16406 0.42838,-0.29052 0.64941,-0.3794 0.22102,-0.0889 0.45914,-0.13329 0.71436,-0.1333 0.30533,1e-5 0.56851,0.0444 0.78955,0.1333 0.22102,0.0889 0.40787,0.22559 0.56055,0.41016 0.15266,0.18457 0.26431,0.41586 0.33496,0.69385 0.0706,0.278 0.10594,0.65169 0.10595,1.12109 v 2.57715 c -1e-5,0.34635 0.0114,0.58561 0.0342,0.71777 0.0228,0.13216 0.0558,0.2347 0.0991,0.30762 0.0433,0.0729 0.10822,0.13558 0.19482,0.18799 0.0866,0.0524 0.23241,0.10595 0.4375,0.16064 v 0.33496 h -2.68652 v -0.33496 c 0.17772,-0.0547 0.30533,-0.10254 0.38281,-0.14355 0.0775,-0.041 0.14241,-0.098 0.19482,-0.1709 0.0524,-0.0729 0.0934,-0.18571 0.12305,-0.33838 0.0296,-0.15267 0.0444,-0.38395 0.0444,-0.69385 v -1.79101 c -1e-5,-0.38737 -0.0103,-0.70752 -0.0308,-0.96045 -0.0205,-0.25293 -0.0524,-0.45459 -0.0957,-0.60498 -0.0433,-0.15039 -0.0957,-0.26888 -0.15723,-0.35547 -0.0615,-0.0866 -0.13103,-0.16178 -0.20849,-0.22559 -0.0775,-0.0638 -0.16863,-0.11392 -0.27344,-0.15039 -0.10483,-0.0365 -0.24382,-0.0547 -0.41699,-0.0547 -0.1823,10e-6 -0.35206,0.0365 -0.50928,0.10938 -0.15723,0.0729 -0.32813,0.19597 -0.5127,0.36914 -0.18457,0.17318 -0.31787,0.3475 -0.3999,0.52295 -0.082,0.17546 -0.12305,0.38168 -0.12305,0.61865 v 2.49512 c 0,0.34635 0.0114,0.58561 0.0342,0.71777 0.0228,0.13216 0.0558,0.2347 0.0991,0.30762 0.0433,0.0729 0.10822,0.13558 0.19482,0.18799 0.0866,0.0524 0.23241,0.10595 0.4375,0.16064 v 0.33496 h -2.68652 v -0.33496 c 0.17773,-0.0547 0.30533,-0.10254 0.38281,-0.14355 0.0775,-0.041 0.14241,-0.098 0.19482,-0.1709 0.0524,-0.0729 0.0934,-0.18571 0.12305,-0.33838 0.0296,-0.15267 0.0444,-0.38395 0.0444,-0.69385 v -1.79101 c 0,-0.4056 -0.0114,-0.736 -0.0342,-0.99121 -0.0228,-0.25521 -0.0581,-0.46029 -0.10595,-0.61524 -0.0479,-0.15494 -0.10938,-0.28027 -0.18457,-0.37598 -0.0752,-0.0957 -0.15154,-0.16861 -0.22901,-0.21875 -0.0775,-0.0501 -0.16862,-0.0877 -0.27344,-0.11279 -0.10482,-0.0251 -0.22331,-0.0376 -0.35546,-0.0376 -0.18686,10e-6 -0.36231,0.0422 -0.52637,0.12647 -0.16407,0.0843 -0.33155,0.20622 -0.50244,0.36572 -0.1709,0.15951 -0.29965,0.32585 -0.38623,0.49902 -0.0866,0.17319 -0.12989,0.36004 -0.12989,0.56055 v 2.56348 c 0,0.25977 0.007,0.45801 0.0205,0.59472 0.0137,0.13672 0.0353,0.24382 0.0649,0.32129 0.0296,0.0775 0.0672,0.14014 0.1128,0.18799 0.0456,0.0479 0.11051,0.0934 0.19482,0.13672 0.0843,0.0433 0.21077,0.0877 0.3794,0.1333 v 0.33496 h -2.67969 v -0.33496 c 0.17317,-0.0547 0.29736,-0.10254 0.37256,-0.14355 0.0752,-0.041 0.14013,-0.098 0.19482,-0.1709 0.0547,-0.0729 0.0957,-0.18457 0.12305,-0.33496 0.0273,-0.15039 0.041,-0.38509 0.041,-0.7041 v -2.98047 c 0,-0.29166 -0.005,-0.52636 -0.0137,-0.7041 -0.009,-0.17773 -0.041,-0.32015 -0.0957,-0.42725 -0.0547,-0.10709 -0.13786,-0.18684 -0.24951,-0.23926 -0.11166,-0.0524 -0.27002,-0.0968 -0.4751,-0.1333 v -0.3623 l 1.59961,-0.0615 h 0.41699 z"
       id="path4897"
       inkscape:connector-curvature="0" />
    <path
       d="m 133.05924,126.75534 0.0957,0.0273 c 0.27343,-0.27343 0.49788,-0.47964 0.67334,-0.61865 0.17545,-0.13899 0.34521,-0.25064 0.50927,-0.33496 0.16406,-0.0843 0.31787,-0.14469 0.46143,-0.18115 0.14355,-0.0365 0.29052,-0.0547 0.44092,-0.0547 0.45572,1e-5 0.82714,0.10483 1.11425,0.31445 0.28711,0.20965 0.48535,0.53093 0.59473,0.96387 0.34179,-0.34635 0.61865,-0.60156 0.83057,-0.76562 0.2119,-0.16406 0.42837,-0.29052 0.64941,-0.3794 0.22102,-0.0889 0.45914,-0.13329 0.71436,-0.1333 0.30533,1e-5 0.56851,0.0444 0.78955,0.1333 0.22102,0.0889 0.40787,0.22559 0.56054,0.41016 0.15266,0.18457 0.26432,0.41586 0.33497,0.69385 0.0706,0.278 0.10594,0.65169 0.10595,1.12109 v 2.57715 c -1e-5,0.34635 0.0114,0.58561 0.0342,0.71777 0.0228,0.13216 0.0558,0.2347 0.0991,0.30762 0.0433,0.0729 0.10823,0.13558 0.19483,0.18799 0.0866,0.0524 0.23241,0.10595 0.4375,0.16064 v 0.33496 h -2.68653 v -0.33496 c 0.17773,-0.0547 0.30533,-0.10254 0.38282,-0.14355 0.0775,-0.041 0.1424,-0.098 0.19482,-0.1709 0.0524,-0.0729 0.0934,-0.18571 0.12305,-0.33838 0.0296,-0.15267 0.0444,-0.38395 0.0444,-0.69385 v -1.79101 c -1e-5,-0.38737 -0.0103,-0.70752 -0.0308,-0.96045 -0.0205,-0.25293 -0.0524,-0.45459 -0.0957,-0.60498 -0.0433,-0.15039 -0.0957,-0.26888 -0.15723,-0.35547 -0.0615,-0.0866 -0.13103,-0.16178 -0.2085,-0.22559 -0.0775,-0.0638 -0.16862,-0.11392 -0.27343,-0.15039 -0.10483,-0.0365 -0.24383,-0.0547 -0.417,-0.0547 -0.1823,10e-6 -0.35205,0.0365 -0.50927,0.10938 -0.15724,0.0729 -0.32814,0.19597 -0.5127,0.36914 -0.18458,0.17318 -0.31788,0.3475 -0.3999,0.52295 -0.082,0.17546 -0.12305,0.38168 -0.12305,0.61865 v 2.49512 c 0,0.34635 0.0114,0.58561 0.0342,0.71777 0.0228,0.13216 0.0558,0.2347 0.0991,0.30762 0.0433,0.0729 0.10823,0.13558 0.19483,0.18799 0.0866,0.0524 0.23241,0.10595 0.4375,0.16064 v 0.33496 h -2.68653 v -0.33496 c 0.17773,-0.0547 0.30534,-0.10254 0.38282,-0.14355 0.0775,-0.041 0.14241,-0.098 0.19482,-0.1709 0.0524,-0.0729 0.0934,-0.18571 0.12305,-0.33838 0.0296,-0.15267 0.0444,-0.38395 0.0444,-0.69385 v -1.79101 c 0,-0.4056 -0.0114,-0.736 -0.0342,-0.99121 -0.0228,-0.25521 -0.0581,-0.46029 -0.10596,-0.61524 -0.0479,-0.15494 -0.10938,-0.28027 -0.18457,-0.37598 -0.0752,-0.0957 -0.15153,-0.16861 -0.229,-0.21875 -0.0775,-0.0501 -0.16862,-0.0877 -0.27344,-0.11279 -0.10482,-0.0251 -0.22331,-0.0376 -0.35547,-0.0376 -0.18685,10e-6 -0.3623,0.0422 -0.52636,0.12647 -0.16407,0.0843 -0.33155,0.20622 -0.50245,0.36572 -0.1709,0.15951 -0.29964,0.32585 -0.38623,0.49902 -0.0866,0.17319 -0.12988,0.36004 -0.12988,0.56055 v 2.56348 c 0,0.25977 0.007,0.45801 0.0205,0.59472 0.0137,0.13672 0.0353,0.24382 0.0649,0.32129 0.0296,0.0775 0.0672,0.14014 0.11279,0.18799 0.0456,0.0479 0.11052,0.0934 0.19483,0.13672 0.0843,0.0433 0.21077,0.0877 0.37939,0.1333 v 0.33496 h -2.67968 v -0.33496 c 0.17317,-0.0547 0.29736,-0.10254 0.37255,-0.14355 0.0752,-0.041 0.14014,-0.098 0.19483,-0.1709 0.0547,-0.0729 0.0957,-0.18457 0.12304,-0.33496 0.0274,-0.15039 0.041,-0.38509 0.041,-0.7041 v -2.98047 c 0,-0.29166 -0.005,-0.52636 -0.0137,-0.7041 -0.009,-0.17773 -0.041,-0.32015 -0.0957,-0.42725 -0.0547,-0.10709 -0.13786,-0.18684 -0.24952,-0.23926 -0.11165,-0.0524 -0.27002,-0.0968 -0.47509,-0.1333 v -0.3623 l 1.59961,-0.0615 h 0.41699 z"
       id="path4899"
       inkscape:connector-curvature="0" />
  </g>
  <g
     style="font-style:normal;font-variant:normal;font-weight:normal;font-stretch:normal;font-size:14px;line-height:125%;font-family:Cambria;-inkscape-font-specification:Cambria;letter-spacing:0px;word-spacing:0px;fill:#000000;fill-opacity:1;stroke:none"
     id="text4390"
     transform="translate(142.5)">
    <path
       d="m 122.32129,69.51049 h -2.69336 v -0.334961 c 0.17773,-0.05469 0.30533,-0.102538 0.38281,-0.143554 0.0775,-0.04102 0.14241,-0.09798 0.19483,-0.170899 0.0524,-0.07292 0.0934,-0.185708 0.12304,-0.338379 0.0296,-0.152668 0.0444,-0.38395 0.0444,-0.693847 v -1.791016 c -10e-6,-0.319006 -0.009,-0.608394 -0.0274,-0.868164 -0.0182,-0.259761 -0.049,-0.472814 -0.0923,-0.63916 -0.0433,-0.166336 -0.0957,-0.296219 -0.15723,-0.389648 -0.0615,-0.09342 -0.13444,-0.173172 -0.21875,-0.239258 -0.0843,-0.06607 -0.18116,-0.118484 -0.29053,-0.157227 -0.10938,-0.03873 -0.25293,-0.0581 -0.43066,-0.0581 -0.17774,5e-6 -0.34636,0.03532 -0.50586,0.105957 -0.15951,0.07064 -0.33496,0.192551 -0.52637,0.365722 -0.19141,0.173183 -0.3304,0.344081 -0.41699,0.512696 -0.0866,0.168624 -0.12988,0.362309 -0.12988,0.581054 v 2.549805 c 0,0.391928 0.0182,0.664226 0.0547,0.816895 0.0365,0.15267 0.10595,0.26888 0.20849,0.348632 0.10254,0.07975 0.27002,0.149252 0.50244,0.208496 v 0.334961 h -2.67968 v -0.334961 c 0.17773,-0.05469 0.30419,-0.102538 0.37939,-0.143554 0.0752,-0.04102 0.139,-0.09798 0.19141,-0.170899 0.0524,-0.07292 0.0934,-0.184569 0.12304,-0.334961 0.0296,-0.150389 0.0444,-0.385089 0.0444,-0.704101 V 64.84155 c 0,-0.291662 -0.005,-0.526362 -0.0137,-0.704101 -0.009,-0.177729 -0.041,-0.320145 -0.0957,-0.427247 -0.0547,-0.10709 -0.13786,-0.186843 -0.24951,-0.239257 -0.11165,-0.0524 -0.27002,-0.09684 -0.4751,-0.133301 v -0.362305 l 1.59961,-0.06152 h 0.41699 l -0.0752,1.114258 0.0957,0.02734 c 0.33724,-0.341791 0.60954,-0.585606 0.8169,-0.731445 0.20735,-0.145827 0.41699,-0.25862 0.6289,-0.338379 0.21191,-0.07975 0.43636,-0.119622 0.67334,-0.119629 0.24609,7e-6 0.46598,0.02849 0.65967,0.08545 0.19368,0.05697 0.36458,0.144701 0.5127,0.263184 0.1481,0.118496 0.27001,0.265468 0.36572,0.440918 0.0957,0.175461 0.16747,0.386236 0.21533,0.632324 0.0478,0.246099 0.0718,0.558273 0.0718,0.936524 v 2.577148 c -1e-5,0.314455 0.009,0.542319 0.0273,0.683594 0.0182,0.141277 0.0501,0.250652 0.0957,0.328125 0.0456,0.07747 0.11164,0.142416 0.19824,0.194824 0.0866,0.05241 0.23697,0.108236 0.45117,0.16748 z"
       id="path4902"
       inkscape:connector-curvature="0" />
    <path
       d="m 123.66797,64.568108 v -0.950196 h 6.05664 v 0.950196 z m 0,2.836914 v -0.950196 h 6.05664 v 0.950196 z"
       id="path4904"
       inkscape:connector-curvature="0" />
    <path
       d="m 135.33691,67.726311 c 0,0.264324 0.0148,0.463705 0.0444,0.598144 0.0296,0.134441 0.082,0.243816 0.15722,0.328125 0.0752,0.08431 0.18343,0.150392 0.32471,0.198242 0.14127,0.04785 0.31901,0.08431 0.5332,0.109375 0.21419,0.02507 0.49674,0.04216 0.84766,0.05127 v 0.499023 h -5.05176 v -0.499023 c 0.50586,-0.02279 0.86703,-0.05355 1.0835,-0.09228 0.21647,-0.03874 0.38167,-0.09684 0.4956,-0.174317 0.11393,-0.07747 0.1971,-0.186848 0.24952,-0.328125 0.0524,-0.141274 0.0786,-0.371417 0.0786,-0.690429 V 62.18237 c 0,-0.182284 -0.0319,-0.315584 -0.0957,-0.399902 -0.0638,-0.0843 -0.15723,-0.126457 -0.28028,-0.126465 -0.14583,8e-6 -0.35319,0.0752 -0.62207,0.225586 -0.26888,0.150398 -0.60156,0.357755 -0.99804,0.62207 l -0.30079,-0.526367 3.19922,-1.907226 h 0.37598 c -0.0273,0.437509 -0.041,1.043628 -0.041,1.818359 z"
       id="path4906"
       inkscape:connector-curvature="0" />
    <path
       d="m 140.47754,67.924553 v 1.585937 h -1.38086 v -1.585937 z"
       id="path4908"
       inkscape:connector-curvature="0" />
    <path
       d="m 142.30957,62.114006 v -1.298828 c 0.52864,-0.250642 1.02311,-0.437491 1.4834,-0.560547 0.46028,-0.123037 0.90462,-0.184561 1.33301,-0.18457 0.51497,9e-6 0.96614,0.07976 1.35351,0.239258 0.38737,0.159514 0.68359,0.388517 0.88867,0.687011 0.20508,0.298511 0.30761,0.655119 0.30762,1.069824 -1e-5,0.387377 -0.0775,0.728035 -0.23242,1.021973 -0.15495,0.293952 -0.37257,0.550299 -0.65283,0.769043 -0.28028,0.218756 -0.64373,0.432948 -1.09033,0.642578 v 0.06152 c 0.27799,0.05013 0.54573,0.135584 0.80322,0.256347 0.25748,0.120773 0.48648,0.27686 0.68701,0.468262 0.20051,0.19141 0.36116,0.420414 0.48193,0.687012 0.12076,0.266605 0.18115,0.570804 0.18116,0.912597 -1e-5,0.528648 -0.11508,0.998049 -0.34522,1.408204 -0.23015,0.410157 -0.5822,0.733724 -1.05615,0.970703 -0.47396,0.236979 -1.05046,0.355468 -1.72949,0.355468 -0.39193,0 -0.81462,-0.04443 -1.26807,-0.1333 -0.45345,-0.08887 -0.8693,-0.206218 -1.24756,-0.352051 v -1.449219 h 0.82031 c 0.15951,0.47396 0.37028,0.818035 0.63233,1.032227 0.26204,0.214193 0.61865,0.321289 1.06982,0.321289 0.59245,0 1.0402,-0.161783 1.34326,-0.485352 0.30306,-0.323566 0.45459,-0.802081 0.45459,-1.435547 0,-0.665361 -0.20052,-1.173499 -0.60156,-1.524414 -0.40104,-0.350907 -0.98893,-0.526363 -1.76367,-0.526367 h -0.61524 v -0.601562 c 0.61524,-0.03645 1.13363,-0.154943 1.55518,-0.355469 0.42155,-0.200515 0.73486,-0.458002 0.93994,-0.772461 0.20508,-0.314447 0.30761,-0.667637 0.30762,-1.05957 -1e-5,-0.505852 -0.13445,-0.8955 -0.40332,-1.168946 -0.26889,-0.273429 -0.66081,-0.410147 -1.17578,-0.410156 -0.42839,9e-6 -0.77702,0.11622 -1.0459,0.348633 -0.26888,0.23243 -0.46713,0.587898 -0.59473,1.066406 z"
       id="path4910"
       inkscape:connector-curvature="0" />
    <path
       d="m 150.0752,62.114006 v -1.298828 c 0.52864,-0.250642 1.02311,-0.437491 1.48339,-0.560547 0.46029,-0.123037 0.90462,-0.184561 1.33301,-0.18457 0.51497,9e-6 0.96614,0.07976 1.35352,0.239258 0.38736,0.159514 0.68358,0.388517 0.88867,0.687011 0.20507,0.298511 0.30761,0.655119 0.30762,1.069824 -1e-5,0.387377 -0.0775,0.728035 -0.23243,1.021973 -0.15495,0.293952 -0.37256,0.550299 -0.65283,0.769043 -0.28028,0.218756 -0.64372,0.432948 -1.09033,0.642578 v 0.06152 c 0.27799,0.05013 0.54573,0.135584 0.80322,0.256347 0.25748,0.120773 0.48649,0.27686 0.68701,0.468262 0.20052,0.19141 0.36116,0.420414 0.48194,0.687012 0.12076,0.266605 0.18114,0.570804 0.18115,0.912597 -10e-6,0.528648 -0.11508,0.998049 -0.34521,1.408204 -0.23015,0.410157 -0.5822,0.733724 -1.05616,0.970703 -0.47396,0.236979 -1.05046,0.355468 -1.72949,0.355468 -0.39193,0 -0.81462,-0.04443 -1.26807,-0.1333 -0.45345,-0.08887 -0.8693,-0.206218 -1.24755,-0.352051 v -1.449219 h 0.82031 c 0.1595,0.47396 0.37028,0.818035 0.63232,1.032227 0.26204,0.214193 0.61865,0.321289 1.06983,0.321289 0.59244,0 1.04019,-0.161783 1.34326,-0.485352 0.30305,-0.323566 0.45458,-0.802081 0.45459,-1.435547 -1e-5,-0.665361 -0.20053,-1.173499 -0.60156,-1.524414 -0.40105,-0.350907 -0.98894,-0.526363 -1.76368,-0.526367 h -0.61523 v -0.601562 c 0.61523,-0.03645 1.13362,-0.154943 1.55518,-0.355469 0.42154,-0.200515 0.73485,-0.458002 0.93994,-0.772461 0.20507,-0.314447 0.30761,-0.667637 0.30761,-1.05957 0,-0.505852 -0.13444,-0.8955 -0.40332,-1.168946 -0.26888,-0.273429 -0.66081,-0.410147 -1.17578,-0.410156 -0.42839,9e-6 -0.77702,0.11622 -1.0459,0.348633 -0.26888,0.23243 -0.46712,0.587898 -0.59472,1.066406 z"
       id="path4912"
       inkscape:connector-curvature="0" />
  </g>
  <g
     style="font-size:14px;font-style:normal;font-variant:normal;font-weight:normal;font-stretch:normal;text-align:center;line-height:125%;letter-spacing:0px;word-spacing:0px;text-anchor:middle;fill:#000000;fill-opacity:1;stroke:none;font-family:Cambria;-inkscape-font-specification:Cambria"
     id="text4394"
     transform="translate(64.785971,26.485499)">
    <path
       d="m 35.401825,12.468224 v 1.428711 h -0.868164 c -0.07748,-0.296219 -0.173182,-0.52978 -0.287109,-0.700684 -0.113937,-0.170893 -0.246099,-0.290521 -0.396485,-0.358887 -0.150395,-0.06835 -0.337243,-0.102533 -0.560547,-0.102539 -0.319013,6e-6 -0.601565,0.102545 -0.847656,0.307617 -0.246096,0.205084 -0.44092,0.517258 -0.584473,0.936524 -0.143556,0.419275 -0.215334,0.93197 -0.215332,1.538086 -2e-6,0.387372 0.02734,0.741702 0.08203,1.062988 0.05468,0.321291 0.148109,0.595868 0.280273,0.82373 0.132159,0.227866 0.307615,0.4056 0.526367,0.533204 0.218747,0.127605 0.489906,0.191407 0.813477,0.191406 0.314449,1e-6 0.607255,-0.06152 0.878418,-0.18457 0.271154,-0.123046 0.552566,-0.339517 0.844238,-0.649415 l 0.389648,0.451172 c -0.232427,0.25521 -0.437505,0.452312 -0.615234,0.591309 -0.177739,0.138998 -0.368006,0.255209 -0.570801,0.348633 -0.202804,0.09342 -0.403324,0.161784 -0.601562,0.205078 -0.198246,0.04329 -0.413578,0.06494 -0.645996,0.06494 -0.861331,0 -1.519859,-0.28597 -1.975586,-0.85791 -0.45573,-0.571939 -0.683595,-1.397947 -0.683594,-2.478027 -1e-6,-0.674476 0.127603,-1.272619 0.382813,-1.794434 0.255206,-0.521804 0.612954,-0.923985 1.073242,-1.206543 0.460284,-0.282545 0.991207,-0.423821 1.592773,-0.423828 0.373694,7e-6 0.718908,0.02165 1.035645,0.06494 0.316726,0.0433 0.634597,0.1128 0.953613,0.208497 z"
       id="path4915"
       inkscape:connector-curvature="0" />
    <path
       d="m 39.462372,18.955528 c -0.94792,0 -1.671389,-0.279134 -2.17041,-0.837402 -0.499025,-0.558267 -0.748536,-1.384275 -0.748535,-2.478027 -1e-6,-0.75195 0.131021,-1.387691 0.393066,-1.907227 0.262043,-0.519526 0.620929,-0.905756 1.07666,-1.158691 0.455727,-0.252924 0.975257,-0.379388 1.558594,-0.379395 0.975256,7e-6 1.713536,0.283698 2.214844,0.851074 0.501295,0.567388 0.751946,1.382003 0.751953,2.443848 -7e-6,0.756513 -0.125332,1.394533 -0.375977,1.914062 -0.250657,0.519533 -0.606125,0.908041 -1.066406,1.165528 -0.460291,0.257487 -1.004887,0.38623 -1.633789,0.38623 z m -1.626953,-3.458984 c -2e-6,0.938804 0.149249,1.659995 0.447754,2.163574 0.298499,0.503582 0.725745,0.755372 1.281738,0.755371 0.305334,10e-7 0.5651,-0.07406 0.779297,-0.222168 0.214188,-0.148111 0.388504,-0.347492 0.522949,-0.598144 0.134435,-0.25065 0.231277,-0.541177 0.290527,-0.871582 0.05924,-0.330402 0.08886,-0.675616 0.08887,-1.035645 -6e-6,-0.669918 -0.07406,-1.225907 -0.222168,-1.667969 -0.148117,-0.442052 -0.349777,-0.766758 -0.604981,-0.974121 -0.255213,-0.20735 -0.546879,-0.311029 -0.875,-0.311035 -0.551435,6e-6 -0.974124,0.239264 -1.268066,0.717774 -0.293948,0.47852 -0.44092,1.159835 -0.440918,2.043945 z"
       id="path4917"
       inkscape:connector-curvature="0" />
    <path
       d="m 45.771942,13.445763 0.0957,0.02051 c 0.250648,-0.305332 0.48307,-0.545729 0.697266,-0.721191 0.214189,-0.175449 0.445471,-0.311029 0.693848,-0.406738 0.248368,-0.0957 0.52978,-0.143548 0.844238,-0.143555 0.264318,7e-6 0.503575,0.01368 0.717773,0.04102 v 1.572265 h -0.772461 c -0.109379,-0.246088 -0.22559,-0.424962 -0.348632,-0.536621 -0.123052,-0.111648 -0.291671,-0.167474 -0.50586,-0.16748 -0.164066,6e-6 -0.326989,0.04786 -0.488769,0.143554 -0.161788,0.09571 -0.317875,0.234706 -0.468262,0.416993 -0.150394,0.182296 -0.254072,0.353195 -0.311035,0.512695 -0.05697,0.15951 -0.08545,0.348637 -0.08545,0.567383 v 2.392578 c -3e-6,0.414715 0.02506,0.700684 0.0752,0.85791 0.05013,0.157227 0.133298,0.272299 0.249512,0.345215 0.116207,0.07292 0.290524,0.129883 0.522949,0.170898 v 0.334961 h -2.754883 v -0.334961 c 0.173176,-0.05469 0.297362,-0.102538 0.372559,-0.143554 0.07519,-0.04101 0.140135,-0.09798 0.194824,-0.170899 0.05469,-0.07292 0.0957,-0.184569 0.123047,-0.334961 0.02734,-0.150389 0.04101,-0.38509 0.04102,-0.704101 v -2.980469 c -1e-6,-0.291662 -0.0046,-0.526362 -0.01367,-0.704102 -0.0091,-0.177728 -0.04102,-0.320144 -0.0957,-0.427246 -0.05469,-0.10709 -0.137859,-0.186843 -0.249511,-0.239258 -0.111655,-0.0524 -0.270021,-0.09684 -0.475098,-0.1333 V 12.31784 l 1.599609,-0.06836 h 0.416992 z"
       id="path4919"
       inkscape:connector-curvature="0" />
    <path
       d="m 56.381317,18.846153 h -2.693359 v -0.334961 c 0.177729,-0.05469 0.305333,-0.102538 0.382812,-0.143554 0.07747,-0.04101 0.14241,-0.09798 0.194824,-0.170899 0.0524,-0.07292 0.09342,-0.185709 0.123047,-0.338379 0.02962,-0.152668 0.04443,-0.38395 0.04443,-0.693847 v -1.791016 c -5e-6,-0.319007 -0.0091,-0.608394 -0.02734,-0.868164 -0.01823,-0.259761 -0.049,-0.472814 -0.09229,-0.63916 -0.0433,-0.166336 -0.09571,-0.296219 -0.157227,-0.389649 -0.06153,-0.09342 -0.134445,-0.173171 -0.21875,-0.239257 -0.08431,-0.06608 -0.181157,-0.118484 -0.290527,-0.157227 -0.109379,-0.03873 -0.252934,-0.0581 -0.430664,-0.05811 -0.177738,5e-6 -0.346358,0.03532 -0.505859,0.105957 -0.159509,0.07064 -0.334965,0.192551 -0.526367,0.365722 -0.19141,0.173182 -0.330407,0.344081 -0.416993,0.512696 -0.08659,0.168624 -0.129885,0.362309 -0.129882,0.581054 v 2.549805 c -3e-6,0.391928 0.01823,0.664226 0.05469,0.816894 0.03646,0.15267 0.105954,0.268881 0.208496,0.348633 0.102536,0.07975 0.270017,0.149252 0.502442,0.208496 v 0.334961 h -2.679688 v -0.334961 c 0.177734,-0.05469 0.304198,-0.102538 0.379395,-0.143554 0.07519,-0.04101 0.138996,-0.09798 0.191406,-0.170899 0.05241,-0.07292 0.09342,-0.184569 0.123047,-0.334961 0.02962,-0.150389 0.04443,-0.38509 0.04443,-0.704101 v -2.980469 c -1e-6,-0.291662 -0.0046,-0.526362 -0.01367,-0.704102 -0.0091,-0.177728 -0.04102,-0.320144 -0.0957,-0.427246 -0.05469,-0.10709 -0.137859,-0.186843 -0.249511,-0.239258 -0.111655,-0.0524 -0.270021,-0.09684 -0.475098,-0.1333 v -0.362305 l 1.599609,-0.06152 h 0.416992 l -0.07519,1.114257 0.0957,0.02734 c 0.337237,-0.341791 0.609535,-0.585606 0.816895,-0.731445 0.207353,-0.145827 0.416988,-0.25862 0.628906,-0.338379 0.21191,-0.07975 0.436356,-0.119622 0.67334,-0.119629 0.246089,7e-6 0.465978,0.02849 0.659668,0.08545 0.193679,0.05697 0.364577,0.144701 0.512695,0.263184 0.148106,0.118496 0.270014,0.265468 0.365723,0.440918 0.0957,0.175461 0.167474,0.386236 0.215332,0.632324 0.04785,0.246099 0.07177,0.558273 0.07178,0.936523 v 2.577149 c -6e-6,0.314454 0.0091,0.542319 0.02734,0.683594 0.01822,0.141277 0.05012,0.250651 0.0957,0.328125 0.04557,0.07747 0.111647,0.142416 0.198242,0.194824 0.08658,0.05241 0.236972,0.108236 0.451172,0.16748 z"
       id="path4921"
       inkscape:connector-curvature="0" />
    <path
       d="m 63.005341,17.684044 c -0.291673,0.305339 -0.559414,0.544597 -0.803223,0.717773 -0.24382,0.173178 -0.511561,0.308757 -0.803223,0.406739 -0.291671,0.09798 -0.612959,0.146972 -0.963867,0.146972 -0.938805,0 -1.647463,-0.281412 -2.125976,-0.844238 -0.478517,-0.562824 -0.717775,-1.39339 -0.717774,-2.491699 -1e-6,-0.679033 0.121907,-1.278316 0.365723,-1.797852 0.243814,-0.519526 0.591307,-0.920567 1.04248,-1.203125 0.45117,-0.282545 0.9707,-0.423821 1.558594,-0.423828 0.460282,7e-6 0.852209,0.07292 1.175781,0.21875 0.323563,0.14584 0.582189,0.345221 0.775879,0.598145 0.193679,0.252935 0.34407,0.571945 0.451172,0.957031 0.10709,0.385095 0.167474,0.887536 0.181152,1.507324 h -4.30664 v 0.123047 c -2e-6,0.537763 0.06038,0.990074 0.181152,1.356934 0.120766,0.366863 0.319008,0.653972 0.594727,0.861328 0.275713,0.207357 0.634599,0.311036 1.07666,0.311035 0.373693,1e-6 0.709793,-0.0695 1.008301,-0.208496 0.298497,-0.138997 0.59586,-0.365722 0.892089,-0.680176 z m -1.148438,-2.775391 c -0.02735,-0.492183 -0.08887,-0.894363 -0.18457,-1.206543 -0.09571,-0.312169 -0.239263,-0.551426 -0.430664,-0.717773 -0.191411,-0.166335 -0.442062,-0.249506 -0.751953,-0.249512 -0.469405,6e-6 -0.844241,0.187994 -1.124512,0.563965 -0.280276,0.375982 -0.445477,0.912602 -0.495606,1.609863 z"
       id="path4923"
       inkscape:connector-curvature="0" />
    <path
       d="m 68.330536,17.868614 -0.102539,-0.02734 c -0.396489,0.4056 -0.769047,0.692709 -1.117676,0.861329 -0.348636,0.168619 -0.718915,0.252929 -1.11084,0.252929 -0.346356,0 -0.651694,-0.06722 -0.916015,-0.20166 -0.264324,-0.13444 -0.467124,-0.323567 -0.608399,-0.567383 -0.141277,-0.243814 -0.211914,-0.525226 -0.211914,-0.844238 0,-0.665362 0.329264,-1.179197 0.987793,-1.541504 0.658526,-0.362301 1.646318,-0.573076 2.963379,-0.632324 v -0.444336 c -5e-6,-0.473954 -0.04558,-0.847651 -0.136719,-1.121094 -0.09115,-0.273432 -0.234704,-0.473952 -0.430664,-0.601562 -0.195967,-0.127598 -0.458011,-0.191401 -0.786133,-0.191407 -0.355471,6e-6 -0.641441,0.09343 -0.85791,0.280274 -0.216473,0.186854 -0.379396,0.467128 -0.488769,0.84082 h -0.895508 v -0.888672 c 0.437498,-0.227858 0.802081,-0.395339 1.09375,-0.502441 0.291664,-0.10709 0.583331,-0.1914 0.875,-0.25293 0.291663,-0.06152 0.587887,-0.09228 0.888672,-0.09228 0.451167,7e-6 0.813472,0.07178 1.086914,0.215332 0.273432,0.143561 0.47851,0.36345 0.615234,0.659668 0.136713,0.29623 0.205073,0.742844 0.205078,1.339844 v 2.378906 c -5e-6,0.337241 0.0023,0.57536 0.0068,0.714356 0.0046,0.138998 0.01822,0.267742 0.04102,0.38623 0.02278,0.11849 0.05696,0.213054 0.102539,0.283691 0.04557,0.07064 0.112787,0.131023 0.20166,0.181153 0.08886,0.05013 0.233555,0.102539 0.434082,0.157226 v 0.334961 h -1.873047 z m -0.116211,-2.139648 c -0.925134,0.0091 -1.617841,0.132164 -2.078125,0.36914 -0.460288,0.236982 -0.690431,0.594729 -0.69043,1.073243 -10e-7,0.259767 0.05241,0.464845 0.157227,0.615234 0.104816,0.150391 0.236977,0.25407 0.396484,0.311035 0.159503,0.05697 0.34863,0.08545 0.567383,0.08545 0.309893,1e-6 0.591305,-0.07519 0.844238,-0.225586 0.252926,-0.150389 0.450029,-0.341795 0.591309,-0.574218 0.141272,-0.232421 0.211909,-0.462564 0.211914,-0.69043 z"
       id="path4925"
       inkscape:connector-curvature="0" />
    <path
       d="m 73.040497,17.137169 c -3e-6,0.391928 0.01823,0.664226 0.05469,0.816894 0.03646,0.15267 0.105955,0.268881 0.208496,0.348633 0.102537,0.07975 0.270017,0.149252 0.502442,0.208496 v 0.334961 h -2.713867 v -0.334961 c 0.227863,-0.05924 0.386229,-0.120767 0.475097,-0.18457 0.08887,-0.0638 0.152668,-0.140136 0.191407,-0.229004 0.03874,-0.08887 0.06608,-0.209634 0.08203,-0.362305 0.01595,-0.152668 0.02392,-0.352049 0.02393,-0.598144 v -5.72168 c -2e-6,-0.437492 -0.0034,-0.74283 -0.01025,-0.916015 -0.0068,-0.173169 -0.02507,-0.320142 -0.05469,-0.440918 C 71.770151,9.9377963 71.729135,9.8432326 71.676727,9.7748642 71.624317,9.706514 71.553679,9.6518265 71.464813,9.6108017 71.375945,9.5697953 71.215301,9.5287798 70.98288,9.4877548 V 9.1322861 l 1.647461,-0.068359 h 0.410156 z"
       id="path4927"
       inkscape:connector-curvature="0" />
    <path
       d="m 9.2133484,30.945763 0.095703,0.02051 c 0.2506482,-0.305332 0.4830698,-0.545729 0.6972656,-0.721191 0.214189,-0.175449 0.445472,-0.311029 0.693848,-0.406738 0.248368,-0.0957 0.52978,-0.143548 0.844238,-0.143555 0.264318,7e-6 0.503575,0.01368 0.717774,0.04102 v 1.572265 h -0.772461 c -0.10938,-0.246088 -0.225591,-0.424962 -0.348633,-0.536621 -0.123051,-0.111648 -0.291671,-0.167474 -0.50586,-0.16748 -0.164066,6e-6 -0.326989,0.04786 -0.488769,0.143554 -0.1617874,0.09571 -0.3178745,0.234706 -0.468262,0.416993 -0.1503934,0.182296 -0.2540717,0.353195 -0.3110351,0.512695 -0.056969,0.15951 -0.085452,0.348637 -0.085449,0.567383 v 2.392578 c -2.6e-6,0.414715 0.025063,0.700684 0.075195,0.85791 0.050128,0.157227 0.133298,0.272299 0.2495117,0.345215 0.1162079,0.07292 0.2905241,0.129883 0.5229494,0.170898 V 36.34616 H 7.374481 v -0.334961 c 0.1731762,-0.05469 0.2973623,-0.102538 0.3725586,-0.143554 0.075194,-0.04102 0.1401355,-0.09798 0.1948242,-0.170899 0.054686,-0.07292 0.095702,-0.184569 0.1230469,-0.334961 0.027342,-0.150389 0.041014,-0.38509 0.041016,-0.704101 v -2.980469 c -1.4e-6,-0.291662 -0.00456,-0.526362 -0.013672,-0.704102 -0.00912,-0.177728 -0.041017,-0.320144 -0.095703,-0.427246 -0.054689,-0.10709 -0.1378592,-0.186843 -0.2495117,-0.239258 -0.1116546,-0.0524 -0.2700203,-0.09684 -0.4750977,-0.1333 V 29.81784 l 1.5996094,-0.06836 h 0.4169922 z"
       id="path4929"
       inkscape:connector-curvature="0" />
    <path
       d="m 17.115692,35.368614 -0.102539,-0.02734 c -0.396488,0.4056 -0.769047,0.692709 -1.117676,0.861329 -0.348636,0.168619 -0.718915,0.252929 -1.11084,0.252929 -0.346356,0 -0.651694,-0.06722 -0.916015,-0.20166 -0.264324,-0.13444 -0.467123,-0.323567 -0.608399,-0.567383 -0.141276,-0.243814 -0.211914,-0.525226 -0.211914,-0.844238 0,-0.665362 0.329264,-1.179197 0.987793,-1.541504 0.658527,-0.362301 1.646319,-0.573076 2.963379,-0.632324 v -0.444336 c -4e-6,-0.473954 -0.04558,-0.847651 -0.136719,-1.121094 -0.09115,-0.273432 -0.234704,-0.473952 -0.430664,-0.601562 -0.195967,-0.127598 -0.458011,-0.191401 -0.786132,-0.191407 -0.355472,6e-6 -0.641442,0.09343 -0.857911,0.280274 -0.216473,0.186854 -0.379396,0.467128 -0.488769,0.84082 h -0.895508 v -0.888672 c 0.437499,-0.227858 0.802082,-0.395339 1.09375,-0.502441 0.291664,-0.10709 0.583331,-0.1914 0.875,-0.25293 0.291664,-0.06152 0.587887,-0.09228 0.888672,-0.09229 0.451168,7e-6 0.813472,0.07178 1.086914,0.215332 0.273432,0.143561 0.47851,0.36345 0.615234,0.659668 0.136714,0.29623 0.205073,0.742844 0.205079,1.339844 v 2.378906 c -6e-6,0.337241 0.0023,0.57536 0.0068,0.714356 0.0046,0.138998 0.01822,0.267742 0.04102,0.38623 0.02278,0.11849 0.05696,0.213054 0.102539,0.283691 0.04557,0.07064 0.112787,0.131023 0.20166,0.181153 0.08886,0.05013 0.233555,0.102539 0.434082,0.157226 v 0.334961 h -1.873047 z m -0.116211,-2.139648 c -0.925134,0.0091 -1.617841,0.132164 -2.078125,0.36914 -0.460288,0.236982 -0.690431,0.594729 -0.690429,1.073243 -2e-6,0.259767 0.05241,0.464845 0.157226,0.615234 0.104816,0.150391 0.236977,0.25407 0.396484,0.311035 0.159503,0.05697 0.348631,0.08545 0.567383,0.08545 0.309893,1e-6 0.591305,-0.07519 0.844239,-0.225586 0.252925,-0.150389 0.450028,-0.341795 0.591308,-0.574218 0.141272,-0.232421 0.21191,-0.462564 0.211914,-0.69043 z"
       id="path4931"
       inkscape:connector-curvature="0" />
    <path
       d="m 24.614716,28.915489 c -6e-6,-0.437492 -0.0034,-0.74283 -0.01025,-0.916015 -0.0068,-0.173169 -0.02507,-0.320142 -0.05469,-0.440918 -0.02963,-0.12076 -0.07064,-0.215323 -0.123047,-0.283692 -0.05241,-0.06835 -0.123052,-0.123037 -0.211914,-0.164062 -0.08887,-0.04101 -0.249516,-0.08202 -0.481933,-0.123047 v -0.355469 l 1.654297,-0.06836 h 0.40332 v 7.916015 c -7e-6,0.355471 0.0068,0.609539 0.02051,0.762207 0.01366,0.152671 0.04329,0.274578 0.08887,0.365723 0.04557,0.09115 0.117343,0.165202 0.215332,0.222168 0.09798,0.05697 0.270012,0.110515 0.516113,0.160645 v 0.355468 l -1.613281,0.06836 h -0.410156 l 0.08203,-1.121094 -0.102539,-0.02734 c -0.287115,0.305339 -0.536626,0.534343 -0.748535,0.687012 -0.211919,0.152669 -0.437504,0.274577 -0.676758,0.365723 -0.239262,0.09114 -0.495609,0.136718 -0.769043,0.136718 -0.747398,0 -1.323895,-0.283691 -1.729492,-0.851074 -0.4056,-0.567381 -0.608399,-1.386554 -0.608399,-2.457519 0,-0.747392 0.132161,-1.381995 0.396485,-1.903809 0.264321,-0.521804 0.620929,-0.910313 1.069824,-1.165527 0.44889,-0.255202 0.95361,-0.382806 1.51416,-0.382813 0.300777,7e-6 0.574214,0.02393 0.820313,0.07178 0.246088,0.04786 0.499018,0.126472 0.758789,0.23584 z m 0,3.376953 c -6e-6,-0.355464 -0.01596,-0.640294 -0.04785,-0.854492 -0.03191,-0.214187 -0.08545,-0.3942 -0.160645,-0.540039 -0.0752,-0.145828 -0.176599,-0.268874 -0.304199,-0.369141 -0.127609,-0.100254 -0.267745,-0.173171 -0.42041,-0.21875 -0.152673,-0.04557 -0.336104,-0.06835 -0.550293,-0.06836 -0.583336,6e-6 -1.027672,0.233567 -1.333008,0.700684 -0.30534,0.467127 -0.458009,1.138188 -0.458007,2.013183 -2e-6,0.875003 0.125323,1.540367 0.375976,1.996094 0.250648,0.45573 0.631182,0.683594 1.141602,0.683594 0.200517,0 0.366858,-0.01709 0.499023,-0.05127 0.132157,-0.03418 0.26204,-0.08887 0.389649,-0.164062 0.127599,-0.0752 0.257482,-0.178873 0.389648,-0.311035 0.132156,-0.132161 0.228999,-0.252929 0.290527,-0.362305 0.06152,-0.109373 0.108231,-0.234699 0.140137,-0.375977 0.0319,-0.141274 0.04785,-0.323565 0.04785,-0.546875 z"
       id="path4933"
       inkscape:connector-curvature="0" />
    <path
       d="m 29.721161,27.13131 v 1.326171 H 28.463348 V 27.13131 z m -1.955078,8.879882 c 0.177733,-0.05469 0.304198,-0.102538 0.379394,-0.143554 0.07519,-0.04102 0.138997,-0.09798 0.191407,-0.170899 0.05241,-0.07292 0.09342,-0.184569 0.123046,-0.334961 0.02962,-0.150389 0.04443,-0.38509 0.04443,-0.704101 v -2.980469 c -10e-7,-0.291662 -0.0046,-0.526362 -0.01367,-0.704102 -0.0091,-0.177728 -0.04102,-0.320144 -0.0957,-0.427246 -0.05469,-0.10709 -0.137859,-0.186843 -0.249512,-0.239258 -0.111654,-0.0524 -0.27002,-0.09684 -0.475097,-0.1333 v -0.362305 l 1.592773,-0.06152 h 0.416992 v 4.887695 c -2e-6,0.391928 0.01823,0.664226 0.05469,0.816894 0.03646,0.15267 0.105954,0.268881 0.208496,0.348633 0.102536,0.07975 0.270016,0.149252 0.502441,0.208496 v 0.334961 h -2.679687 z"
       id="path4935"
       inkscape:connector-curvature="0" />
    <path
       d="m 31.484833,29.810997 h 1.948242 v 3.479492 c -2e-6,0.533206 0.0205,0.938804 0.06152,1.216797 0.04101,0.277996 0.102537,0.487632 0.184571,0.628906 0.08203,0.141277 0.198239,0.259767 0.348633,0.355469 0.150387,0.0957 0.357744,0.143555 0.62207,0.143555 0.173173,0 0.339514,-0.03418 0.499023,-0.102539 0.159501,-0.06836 0.337235,-0.187988 0.533203,-0.358887 0.195959,-0.170897 0.336096,-0.340656 0.420411,-0.509277 0.0843,-0.168618 0.126459,-0.364582 0.126464,-0.587891 v -2.563477 c -5e-6,-0.25976 -0.0068,-0.455723 -0.02051,-0.58789 -0.01368,-0.132156 -0.03646,-0.238113 -0.06836,-0.317871 -0.03191,-0.07975 -0.0695,-0.144688 -0.112793,-0.194824 -0.0433,-0.05012 -0.104822,-0.0957 -0.18457,-0.136719 -0.07976,-0.04101 -0.208501,-0.0843 -0.386231,-0.129883 v -0.334961 h 1.948243 v 4.668945 c -7e-6,0.350913 0.0068,0.603843 0.02051,0.758789 0.01367,0.154949 0.04329,0.277996 0.08887,0.369141 0.04557,0.09115 0.116204,0.165202 0.211914,0.222168 0.0957,0.05697 0.266594,0.110515 0.512695,0.160645 v 0.355468 l -1.56543,0.06836 h -0.416992 l 0.04102,-1.121094 -0.102539,-0.02734 c -0.37826,0.410157 -0.739425,0.710938 -1.083496,0.902344 -0.34408,0.191406 -0.689294,0.287109 -1.035645,0.287109 -0.414716,0 -0.756513,-0.08203 -1.025391,-0.246093 C 32.78138,36.045372 32.58086,35.800418 32.4487,35.474571 32.316537,35.148726 32.250456,34.689579 32.250458,34.09713 v -2.583985 c -2e-6,-0.382807 -0.01481,-0.64599 -0.04443,-0.78955 -0.02962,-0.143549 -0.08659,-0.257481 -0.170898,-0.341797 -0.08431,-0.0843 -0.267742,-0.162917 -0.550293,-0.23584 z"
       id="path4937"
       inkscape:connector-curvature="0" />
    <path
       d="m 43.967255,31.308067 h -0.65625 c -0.100265,-0.273432 -0.218755,-0.488764 -0.355469,-0.645996 -0.136723,-0.15722 -0.291671,-0.267735 -0.464844,-0.331543 -0.173181,-0.0638 -0.385094,-0.0957 -0.635742,-0.0957 -0.364586,6e-6 -0.655113,0.08545 -0.871582,0.256348 -0.216473,0.170904 -0.324709,0.404465 -0.324707,0.700683 -2e-6,0.209641 0.04329,0.382818 0.129883,0.519532 0.08659,0.136723 0.221026,0.264327 0.40332,0.382812 0.182289,0.118494 0.503578,0.27572 0.963867,0.47168 0.46484,0.200524 0.823726,0.385094 1.07666,0.553711 0.252925,0.168623 0.451167,0.364586 0.594727,0.58789 0.143549,0.22331 0.215327,0.489911 0.215332,0.799805 -5e-6,0.360028 -0.06153,0.663087 -0.18457,0.90918 -0.123052,0.246094 -0.296229,0.446615 -0.519532,0.601562 -0.223311,0.154948 -0.488773,0.266602 -0.796386,0.334961 -0.307621,0.06836 -0.643721,0.102539 -1.008301,0.102539 -0.382815,0 -0.754234,-0.02848 -1.114258,-0.08545 -0.360027,-0.05697 -0.710938,-0.131022 -1.052734,-0.222168 v -1.428711 h 0.669922 c 0.123045,0.419272 0.305336,0.723471 0.546875,0.912598 0.241534,0.189128 0.574216,0.283692 0.998046,0.283691 0.16406,10e-7 0.324704,-0.01709 0.481934,-0.05127 0.157223,-0.03418 0.29736,-0.09115 0.42041,-0.170899 0.123043,-0.07975 0.221025,-0.187987 0.293946,-0.324707 0.07291,-0.136717 0.10937,-0.307616 0.109375,-0.512695 -5e-6,-0.23242 -0.04558,-0.421548 -0.136719,-0.567383 -0.09115,-0.145831 -0.232426,-0.279132 -0.423828,-0.399902 -0.19141,-0.120766 -0.528649,-0.283689 -1.011719,-0.48877 -0.414716,-0.173175 -0.747398,-0.341794 -0.998047,-0.50586 -0.250652,-0.164059 -0.447755,-0.357744 -0.591309,-0.581055 -0.143555,-0.223303 -0.215332,-0.487626 -0.215332,-0.792969 0,-0.373692 0.101399,-0.698399 0.3042,-0.974121 0.202798,-0.27571 0.495603,-0.486484 0.878418,-0.632324 0.38281,-0.145827 0.831703,-0.218743 1.346679,-0.21875 0.300778,7e-6 0.591305,0.01482 0.871582,0.04443 0.280269,0.02963 0.63232,0.08773 1.056153,0.174316 z"
       id="path4939"
       inkscape:connector-curvature="0" />
    <path
       d="m 48.677216,31.40377 v -0.950195 h 6.05664 v 0.950195 z m 0,2.836915 v -0.950196 h 6.05664 v 0.950196 z"
       id="path4941"
       inkscape:connector-curvature="0" />
    <path
       d="m 56.620575,35.970177 v -1.449219 h 0.827148 c 0.136717,0.464845 0.342934,0.806642 0.618653,1.025391 0.275713,0.21875 0.632321,0.328125 1.069824,0.328125 0.606116,0 1.064123,-0.182291 1.374023,-0.546875 0.309891,-0.364582 0.464839,-0.909178 0.464844,-1.633789 -5e-6,-0.48307 -0.08204,-0.882972 -0.246094,-1.199708 -0.164067,-0.316727 -0.385096,-0.545731 -0.663086,-0.687011 -0.277999,-0.141272 -0.601566,-0.21191 -0.970703,-0.211914 -0.309899,4e-6 -0.5765,0.01937 -0.799804,0.05811 -0.22331,0.03874 -0.462568,0.09913 -0.717774,0.181153 l -0.546875,-0.32129 v -4.498046 h 3.766602 c 0.154942,9e-6 0.266596,-0.01252 0.334961,-0.0376 0.06835,-0.02506 0.123041,-0.06379 0.164062,-0.116211 0.04101,-0.0524 0.08886,-0.15152 0.143555,-0.297363 h 0.533203 l -0.102539,1.585937 h -3.930664 v 3.000977 c 0.236976,-0.100255 0.494463,-0.175451 0.772461,-0.225586 0.277991,-0.05013 0.555986,-0.07519 0.833984,-0.0752 0.542313,5e-6 1.023107,0.110519 1.442383,0.331542 0.419265,0.221034 0.742832,0.535487 0.970703,0.94336 0.227858,0.407881 0.34179,0.8807 0.341797,1.418457 -7e-6,0.610679 -0.127611,1.134767 -0.382812,1.572266 -0.255215,0.4375 -0.624355,0.770182 -1.107422,0.998046 -0.483078,0.227865 -1.055018,0.341797 -1.715821,0.341797 -0.788414,0 -1.613283,-0.161784 -2.474609,-0.485351 z"
       id="path4943"
       inkscape:connector-curvature="0" />
    <path
       d="m 65.486786,34.760216 v 1.585937 h -1.380859 v -1.585937 z"
       id="path4945"
       inkscape:connector-curvature="0" />
    <path
       d="m 67.257294,35.970177 v -1.449219 h 0.827148 c 0.136717,0.464845 0.342934,0.806642 0.618652,1.025391 0.275714,0.21875 0.632322,0.328125 1.069825,0.328125 0.606115,0 1.064123,-0.182291 1.374023,-0.546875 0.309891,-0.364582 0.464839,-0.909178 0.464844,-1.633789 -5e-6,-0.48307 -0.08204,-0.882972 -0.246094,-1.199708 -0.164067,-0.316727 -0.385096,-0.545731 -0.663086,-0.687011 -0.277999,-0.141272 -0.601566,-0.21191 -0.970703,-0.211914 -0.309899,4e-6 -0.5765,0.01937 -0.799805,0.05811 -0.223309,0.03874 -0.462567,0.09913 -0.717773,0.181153 L 67.66745,31.51315 v -4.498046 h 3.766602 c 0.154942,9e-6 0.266596,-0.01252 0.33496,-0.0376 0.06835,-0.02506 0.123042,-0.06379 0.164063,-0.116211 0.04101,-0.0524 0.08886,-0.15152 0.143555,-0.297363 h 0.533203 l -0.102539,1.585937 H 68.57663 v 3.000977 c 0.236976,-0.100255 0.494463,-0.175451 0.772461,-0.225586 0.277991,-0.05013 0.555985,-0.07519 0.833984,-0.0752 0.542313,5e-6 1.023107,0.110519 1.442383,0.331542 0.419265,0.221034 0.742832,0.535487 0.970703,0.94336 0.227858,0.407881 0.34179,0.8807 0.341797,1.418457 -7e-6,0.610679 -0.127611,1.134767 -0.382813,1.572266 -0.255214,0.4375 -0.624354,0.770182 -1.107422,0.998046 -0.483077,0.227865 -1.055017,0.341797 -1.71582,0.341797 -0.788414,0 -1.613283,-0.161784 -2.474609,-0.485351 z"
       id="path4947"
       inkscape:connector-curvature="0" />
    <path
       d="m 76.506317,30.863731 0.0957,0.02734 c 0.273435,-0.273432 0.497881,-0.479649 0.67334,-0.618652 0.175452,-0.138991 0.345211,-0.250645 0.509277,-0.334961 0.164059,-0.0843 0.317867,-0.144688 0.461426,-0.181152 0.143551,-0.03645 0.290523,-0.05468 0.440918,-0.05469 0.455724,7e-6 0.827143,0.104824 1.114258,0.314453 0.287103,0.209642 0.485345,0.53093 0.594727,0.963867 0.34179,-0.346348 0.618645,-0.601556 0.830566,-0.765625 0.211907,-0.164056 0.428378,-0.290521 0.649414,-0.379394 0.221021,-0.08886 0.459139,-0.133294 0.714356,-0.133301 0.305329,7e-6 0.568512,0.04444 0.78955,0.133301 0.221019,0.08887 0.407868,0.225592 0.560547,0.410156 0.152659,0.184576 0.264313,0.415859 0.334961,0.693848 0.07063,0.278 0.105947,0.651697 0.105957,1.121093 v 2.577149 c -1e-5,0.346355 0.01138,0.585613 0.03418,0.717773 0.02278,0.132163 0.05582,0.234702 0.09912,0.307618 0.04328,0.07292 0.108225,0.135579 0.194824,0.187988 0.08658,0.05241 0.232411,0.105957 0.4375,0.160644 v 0.334961 h -2.686523 v -0.334961 c 0.177725,-0.05469 0.305329,-0.102538 0.382812,-0.143554 0.07747,-0.04102 0.142407,-0.09798 0.194824,-0.170899 0.0524,-0.07292 0.09342,-0.185709 0.123047,-0.338379 0.02961,-0.152668 0.04443,-0.38395 0.04443,-0.693847 v -1.791016 c -9e-6,-0.387366 -0.01026,-0.707515 -0.03076,-0.960449 -0.02052,-0.252925 -0.05242,-0.454585 -0.0957,-0.604981 -0.0433,-0.150385 -0.09571,-0.268875 -0.157227,-0.355468 -0.06153,-0.08658 -0.13103,-0.161779 -0.208496,-0.225586 -0.07748,-0.0638 -0.168628,-0.113927 -0.273437,-0.150391 -0.104826,-0.03645 -0.243823,-0.05468 -0.416992,-0.05469 -0.1823,5e-6 -0.352059,0.03646 -0.509278,0.109375 -0.157234,0.07292 -0.328132,0.195969 -0.512695,0.36914 -0.184577,0.173182 -0.317878,0.347499 -0.399902,0.522949 -0.08204,0.175461 -0.123054,0.381678 -0.123047,0.618653 v 2.495117 c -7e-6,0.346355 0.01139,0.585613 0.03418,0.717773 0.02278,0.132163 0.05582,0.234702 0.09912,0.307618 0.04329,0.07292 0.108229,0.135579 0.194824,0.187988 0.08658,0.05241 0.232415,0.105957 0.4375,0.160644 v 0.334961 h -2.686524 v -0.334961 c 0.17773,-0.05469 0.305334,-0.102538 0.382813,-0.143554 0.07747,-0.04102 0.14241,-0.09798 0.194824,-0.170899 0.0524,-0.07292 0.09342,-0.185709 0.123047,-0.338379 0.02962,-0.152668 0.04443,-0.38395 0.04443,-0.693847 v -1.791016 c -6e-6,-0.405595 -0.0114,-0.735998 -0.03418,-0.991211 -0.02279,-0.255204 -0.05811,-0.460281 -0.105957,-0.615234 -0.04786,-0.154943 -0.10938,-0.280268 -0.18457,-0.375977 -0.0752,-0.0957 -0.151535,-0.168614 -0.229004,-0.21875 -0.07748,-0.05012 -0.168625,-0.08772 -0.273438,-0.112793 -0.104822,-0.02506 -0.223311,-0.03759 -0.355469,-0.0376 -0.186853,5e-6 -0.362308,0.04216 -0.526367,0.126464 -0.164066,0.08432 -0.331546,0.206223 -0.502441,0.365723 -0.170902,0.15951 -0.299645,0.325851 -0.386231,0.499023 -0.08659,0.173182 -0.129885,0.360031 -0.129882,0.560547 v 2.563477 c -3e-6,0.259767 0.0068,0.458009 0.02051,0.594726 0.01367,0.13672 0.03532,0.243816 0.06494,0.32129 0.02962,0.07747 0.06722,0.140137 0.112793,0.187988 0.04557,0.04785 0.110511,0.09342 0.194824,0.136719 0.08431,0.04329 0.210771,0.08773 0.379394,0.1333 v 0.334961 H 74.667443 V 36.01118 c 0.173176,-0.05469 0.297362,-0.102538 0.372559,-0.143554 0.07519,-0.04102 0.140135,-0.09798 0.194824,-0.170899 0.05469,-0.07292 0.0957,-0.184569 0.123047,-0.334961 0.02734,-0.150389 0.04101,-0.38509 0.04102,-0.704101 v -2.980469 c -10e-7,-0.291662 -0.0046,-0.526362 -0.01367,-0.704102 -0.0091,-0.177728 -0.04102,-0.320144 -0.0957,-0.427246 -0.05469,-0.10709 -0.137859,-0.186843 -0.249511,-0.239258 -0.111655,-0.0524 -0.270021,-0.09684 -0.475098,-0.1333 v -0.362305 l 1.599609,-0.06152 h 0.416992 z"
       id="path4949"
       inkscape:connector-curvature="0" />
    <path
       d="m 88.154755,30.863731 0.0957,0.02734 c 0.273434,-0.273432 0.497881,-0.479649 0.67334,-0.618652 0.175452,-0.138991 0.345211,-0.250645 0.509277,-0.334961 0.164058,-0.0843 0.317867,-0.144688 0.461426,-0.181152 0.14355,-0.03645 0.290523,-0.05468 0.440918,-0.05469 0.455724,7e-6 0.827143,0.104824 1.114258,0.314453 0.287103,0.209642 0.485345,0.53093 0.594726,0.963867 0.34179,-0.346348 0.618645,-0.601556 0.830566,-0.765625 0.211907,-0.164056 0.428378,-0.290521 0.649415,-0.379394 0.22102,-0.08886 0.459138,-0.133294 0.714355,-0.133301 0.30533,7e-6 0.568513,0.04444 0.789551,0.133301 0.221019,0.08887 0.407868,0.225592 0.560547,0.410156 0.152659,0.184576 0.264312,0.415859 0.334961,0.693848 0.07063,0.278 0.105946,0.651697 0.105957,1.121093 v 2.577149 c -1.1e-5,0.346355 0.01138,0.585613 0.03418,0.717773 0.02278,0.132163 0.05582,0.234702 0.09912,0.307618 0.04328,0.07292 0.108225,0.135579 0.194825,0.187988 0.08658,0.05241 0.232411,0.105957 0.4375,0.160644 v 0.334961 h -2.686524 v -0.334961 c 0.177726,-0.05469 0.30533,-0.102538 0.382813,-0.143554 0.07747,-0.04102 0.142406,-0.09798 0.194824,-0.170899 0.0524,-0.07292 0.09342,-0.185709 0.123047,-0.338379 0.02961,-0.152668 0.04442,-0.38395 0.04443,-0.693847 v -1.791016 c -9e-6,-0.387366 -0.01026,-0.707515 -0.03076,-0.960449 -0.02052,-0.252925 -0.05242,-0.454585 -0.0957,-0.604981 -0.0433,-0.150385 -0.09571,-0.268875 -0.157227,-0.355468 -0.06153,-0.08658 -0.131031,-0.161779 -0.208496,-0.225586 -0.07748,-0.0638 -0.168628,-0.113927 -0.273438,-0.150391 -0.104826,-0.03645 -0.243823,-0.05468 -0.416992,-0.05469 -0.182299,5e-6 -0.352058,0.03646 -0.509277,0.109375 -0.157234,0.07292 -0.328132,0.195969 -0.512695,0.36914 -0.184578,0.173182 -0.317878,0.347499 -0.399903,0.522949 -0.08204,0.175461 -0.123053,0.381678 -0.123047,0.618653 v 2.495117 c -6e-6,0.346355 0.01139,0.585613 0.03418,0.717773 0.02278,0.132163 0.05582,0.234702 0.09912,0.307618 0.04329,0.07292 0.108229,0.135579 0.194824,0.187988 0.08658,0.05241 0.232415,0.105957 0.4375,0.160644 v 0.334961 h -2.686523 v -0.334961 c 0.17773,-0.05469 0.305334,-0.102538 0.382812,-0.143554 0.07747,-0.04102 0.142411,-0.09798 0.194825,-0.170899 0.0524,-0.07292 0.09342,-0.185709 0.123046,-0.338379 0.02962,-0.152668 0.04443,-0.38395 0.04443,-0.693847 v -1.791016 c -5e-6,-0.405595 -0.0114,-0.735998 -0.03418,-0.991211 -0.02279,-0.255204 -0.05811,-0.460281 -0.105957,-0.615234 -0.04786,-0.154943 -0.10938,-0.280268 -0.18457,-0.375977 -0.0752,-0.0957 -0.151535,-0.168614 -0.229004,-0.21875 -0.07748,-0.05012 -0.168624,-0.08772 -0.273437,-0.112793 -0.104822,-0.02506 -0.223312,-0.03759 -0.355469,-0.0376 -0.186853,5e-6 -0.362309,0.04216 -0.526367,0.126464 -0.164066,0.08432 -0.331547,0.206223 -0.502442,0.365723 -0.170901,0.15951 -0.299644,0.325851 -0.38623,0.499023 -0.08659,0.173182 -0.129886,0.360031 -0.129883,0.560547 v 2.563477 c -3e-6,0.259767 0.0068,0.458009 0.02051,0.594726 0.01367,0.13672 0.03532,0.243816 0.06494,0.32129 0.02962,0.07747 0.06722,0.140137 0.112793,0.187988 0.04557,0.04785 0.110512,0.09342 0.194824,0.136719 0.08431,0.04329 0.210772,0.08773 0.379395,0.1333 v 0.334961 H 86.315881 V 36.01118 c 0.173177,-0.05469 0.297363,-0.102538 0.372559,-0.143554 0.07519,-0.04102 0.140136,-0.09798 0.194824,-0.170899 0.05469,-0.07292 0.0957,-0.184569 0.123047,-0.334961 0.02734,-0.150389 0.04101,-0.38509 0.04102,-0.704101 v -2.980469 c -2e-6,-0.291662 -0.0046,-0.526362 -0.01367,-0.704102 -0.0091,-0.177728 -0.04102,-0.320144 -0.0957,-0.427246 -0.05469,-0.10709 -0.137859,-0.186843 -0.249512,-0.239258 -0.111655,-0.0524 -0.27002,-0.09684 -0.475098,-0.1333 v -0.362305 l 1.59961,-0.06152 h 0.416992 z"
       id="path4951"
       inkscape:connector-curvature="0" />
  </g>
  <path
     style="fill:none;stroke:#000000;stroke-width:1px;stroke-linecap:butt;stroke-linejoin:miter;stroke-opacity:1;marker-end:url(#Arrow2Mend)"
     d="m 125.53026,69.457527 43.1061,26.591424"
     id="path4400"
     inkscape:connector-curvature="0"
     sodipodi:nodetypes="cc" />
</svg>
