<?xml version="1.0" encoding="UTF-8" standalone="no"?>
<!-- svg goes here -->

<svg
   xmlns:dc="http://purl.org/dc/elements/1.1/"
   xmlns:cc="http://creativecommons.org/ns#"
   xmlns:rdf="http://www.w3.org/1999/02/22-rdf-syntax-ns#"
   xmlns:svg="http://www.w3.org/2000/svg"
   xmlns="http://www.w3.org/2000/svg"
   xmlns:sodipodi="http://sodipodi.sourceforge.net/DTD/sodipodi-0.dtd"
   xmlns:inkscape="http://www.inkscape.org/namespaces/inkscape"
   id="optics&gt;svg"
   version="1.1"
   width="308.375"
   height="160.0625"
   inkscape:version="0.48.5 r10040"
   sodipodi:docname="convergence.svg">
  <metadata
     id="metadata109">
    <rdf:RDF>
      <cc:Work
         rdf:about="">
        <dc:format>image/svg+xml</dc:format>
        <dc:type
           rdf:resource="http://purl.org/dc/dcmitype/StillImage" />
      </cc:Work>
    </rdf:RDF>
  </metadata>
  <sodipodi:namedview
     pagecolor="#ffffff"
     bordercolor="#666666"
     borderopacity="1"
     objecttolerance="10"
     gridtolerance="10"
     guidetolerance="10"
     inkscape:pageopacity="0"
     inkscape:pageshadow="2"
     inkscape:window-width="1280"
     inkscape:window-height="962"
     id="namedview107"
     showgrid="false"
     fit-margin-top="0"
     fit-margin-left="30"
     fit-margin-right="0"
     fit-margin-bottom="0"
     inkscape:zoom="4.1311181"
     inkscape:cx="169.1875"
     inkscape:cy="80.03125"
     inkscape:window-x="-8"
     inkscape:window-y="-8"
     inkscape:window-maximized="1"
     inkscape:current-layer="optics&gt;svg" />
  <defs
     id="SvgjsDefs1001">
    <clipPath
       id="SvgjsClipPath1009">
      <rect
         id="SvgjsRect1008"
         width="1264"
         height="823"
         x="-248"
         y="-385.41016" />
    </clipPath>
  </defs>
  <g
     id="layer_1/bg"
     transform="matrix(1,0,0,-1,227.5,266.125)" />
  <polyline
     id="SvgjsPolyline1069"
     points="-170.76043897223542,91.30099422017223 -165,89.62250000000002 -169.9885399678786,86.28866302305025"
     pointer-events="none"
     muller_lyer="4"
     arrowx="-0.6"
     style="fill:none;stroke:#000000;stroke-width:0.5"
     transform="matrix(1,0,0,-1,227.5,230.125)" />
  <polyline
     id="SvgjsPolyline1070"
     points="-192.50000000000006,85.38750000000002 -57.74999999999999,106.13900000000002"
     pointer-events="none"
     muller_lyer="4"
     angleWidth="50"
     length="6"
     arrowx="-0.6"
     position="-165 89.62250000000002"
     direction="0.9883488344928889 0.1522057205119049"
     style="fill:none;stroke:#000000;stroke-width:0.5"
     transform="matrix(1,0,0,-1,227.5,230.125)" />
  <polyline
     id="light_2_rays"
     points="-192.50000000000006,85.38750000000002 -57.74999999999999,106.13900000000002"
     style="opacity:0;stroke:#000000;stroke-width:5"
     transform="matrix(1,0,0,-1,227.5,230.125)" />
  <polyline
     id="SvgjsPolyline1072"
     points="-170.6504912504387,98.28440699208753 -165,96.26650000000002 -170.17787220244375,93.23505818872272"
     pointer-events="none"
     muller_lyer="4"
     arrowx="-0.6"
     style="fill:none;stroke:#000000;stroke-width:0.5"
     transform="matrix(1,0,0,-1,227.5,230.125)" />
  <polyline
     id="SvgjsPolyline1073"
     points="-192.50000000000006,93.69250000000001 -57.74999999999999,106.30510000000002"
     pointer-events="none"
     muller_lyer="4"
     angleWidth="50"
     length="6"
     arrowx="-0.6"
     position="-165 96.26650000000002"
     direction="0.99564809436758 0.09319266163280548"
     style="fill:none;stroke:#000000;stroke-width:0.5"
     transform="matrix(1,0,0,-1,227.5,230.125)" />
  <polyline
     id="polyline16"
     points="-192.50000000000006,93.69250000000001 -57.74999999999999,106.30510000000002"
     style="opacity:0;stroke:#000000;stroke-width:5"
     transform="matrix(1,0,0,-1,227.5,230.125)" />
  <polyline
     id="SvgjsPolyline1075"
     points="-170.5189914910571,105.264376148322 -165,102.91050000000001 -170.3507130916293,100.19574965953284"
     pointer-events="none"
     muller_lyer="4"
     arrowx="-0.6"
     style="fill:none;stroke:#000000;stroke-width:0.5"
     transform="matrix(1,0,0,-1,227.5,230.125)" />
  <polyline
     id="SvgjsPolyline1076"
     points="-192.50000000000006,101.99750000000002 -57.74999999999999,106.47120000000002"
     pointer-events="none"
     muller_lyer="4"
     angleWidth="50"
     length="6"
     arrowx="-0.6"
     position="-165 102.91050000000001"
     direction="0.9994493351818011 0.033181717928035794"
     style="fill:none;stroke:#000000;stroke-width:0.5"
     transform="matrix(1,0,0,-1,227.5,230.125)" />
  <polyline
     id="polyline20"
     points="-192.50000000000006,101.99750000000002 -57.74999999999999,106.47120000000002"
     style="opacity:0;stroke:#000000;stroke-width:5"
     transform="matrix(1,0,0,-1,227.5,230.125)" />
  <polyline
     id="SvgjsPolyline1078"
     points="-170.3668904688506,112.23712682745112 -165,109.5545 -170.50478207005278,107.16758266560707"
     pointer-events="none"
     muller_lyer="4"
     arrowx="-0.6"
     style="fill:none;stroke:#000000;stroke-width:0.5"
     transform="matrix(1,0,0,-1,227.5,230.125)" />
  <polyline
     id="SvgjsPolyline1079"
     points="-192.50000000000006,110.30250000000001 -57.74999999999999,106.63730000000001"
     pointer-events="none"
     muller_lyer="4"
     angleWidth="50"
     length="6"
     arrowx="-0.6"
     position="-165 109.5545"
     direction="0.9996302851347411 -0.027189943755664848"
     style="fill:none;stroke:#000000;stroke-width:0.5"
     transform="matrix(1,0,0,-1,227.5,230.125)" />
  <polyline
     id="polyline24"
     points="-192.50000000000006,110.30250000000001 -57.74999999999999,106.63730000000001"
     style="opacity:0;stroke:#000000;stroke-width:5"
     transform="matrix(1,0,0,-1,227.5,230.125)" />
  <polyline
     id="SvgjsPolyline1081"
     points="-170.19582092195023,119.19907410290504 -165,116.19850000000001 -170.6383824284768,114.14700211059238"
     pointer-events="none"
     muller_lyer="4"
     arrowx="-0.6"
     style="fill:none;stroke:#000000;stroke-width:0.5"
     transform="matrix(1,0,0,-1,227.5,230.125)" />
  <polyline
     id="SvgjsPolyline1082"
     points="-192.50000000000006,118.6075 -57.74999999999999,106.8034"
     pointer-events="none"
     muller_lyer="4"
     angleWidth="50"
     length="6"
     arrowx="-0.6"
     position="-165 116.19850000000001"
     direction="0.9961850622008859 -0.08726581144879761"
     style="fill:none;stroke:#000000;stroke-width:0.5"
     transform="matrix(1,0,0,-1,227.5,230.125)" />
  <polyline
     id="polyline28"
     points="-192.50000000000006,118.6075 -57.74999999999999,106.8034"
     style="opacity:0;stroke:#000000;stroke-width:5"
     transform="matrix(1,0,0,-1,227.5,230.125)" />
  <polyline
     id="SvgjsPolyline1084"
     points="-170.00801106972838,126.14701586854687 -165,122.8425 -170.75049348309324,121.13024280527073"
     pointer-events="none"
     muller_lyer="4"
     arrowx="-0.6"
     style="fill:none;stroke:#000000;stroke-width:0.5"
     transform="matrix(1,0,0,-1,227.5,230.125)" />
  <polyline
     id="SvgjsPolyline1085"
     points="-192.50000000000006,126.91250000000001 -57.74999999999999,106.9695"
     pointer-events="none"
     muller_lyer="4"
     angleWidth="50"
     length="6"
     arrowx="-0.6"
     position="-165 122.8425"
     direction="0.9892246970534008 -0.1464052551639033"
     style="fill:none;stroke:#000000;stroke-width:0.5"
     transform="matrix(1,0,0,-1,227.5,230.125)" />
  <polyline
     id="polyline32"
     points="-192.50000000000006,126.91250000000001 -57.74999999999999,106.9695"
     style="opacity:0;stroke:#000000;stroke-width:5"
     transform="matrix(1,0,0,-1,227.5,230.125)" />
  <polyline
     id="SvgjsPolyline1105"
     points="-170.60484154464555,214.0701867278571 -165,211.92875 -170.24315840482032,209.0116812757561"
     pointer-events="none"
     muller_lyer="4"
     arrowx="-0.6"
     style="fill:none;stroke:#000000;stroke-width:0.5"
     transform="matrix(1,0,0,-1,227.5,266.125)" />
  <polyline
     id="SvgjsPolyline1106"
     points="-192.50000000000006,209.9625 78.37499999999997,229.33006250000008"
     pointer-events="none"
     muller_lyer="4"
     angleWidth="50"
     length="6"
     arrowx="-0.6"
     position="-165 211.92875"
     direction="0.9974536340955736 0.0713179348378337"
     style="fill:none;stroke:#000000;stroke-width:0.5"
     transform="matrix(1,0,0,-1,227.5,266.125)" />
  <polyline
     id="polyline63"
     points="-192.50000000000006,209.9625 78.37499999999997,229.33006250000008"
     style="opacity:0;stroke:#000000;stroke-width:5"
     transform="matrix(1,0,0,-1,227.5,266.125)" />
  <polyline
     id="SvgjsPolyline1108"
     points="-170.53785061152155,221.7124079860353 -165,219.40325 -170.3285794008672,216.6453084544531"
     pointer-events="none"
     muller_lyer="4"
     arrowx="-0.6"
     style="fill:none;stroke:#000000;stroke-width:0.5"
     transform="matrix(1,0,0,-1,227.5,266.125)" />
  <polyline
     id="SvgjsPolyline1109"
     points="-192.50000000000006,218.2675 78.37499999999997,229.45463750000005"
     pointer-events="none"
     muller_lyer="4"
     angleWidth="50"
     length="6"
     arrowx="-0.6"
     position="-165 219.40325"
     direction="0.9991482444684214 0.04126482249654592"
     style="fill:none;stroke:#000000;stroke-width:0.5"
     transform="matrix(1,0,0,-1,227.5,266.125)" />
  <polyline
     id="polyline67"
     points="-192.50000000000006,218.2675 78.37499999999997,229.45463750000005"
     style="opacity:0;stroke:#000000;stroke-width:5"
     transform="matrix(1,0,0,-1,227.5,266.125)" />
  <polyline
     id="SvgjsPolyline1111"
     points="-170.46565639706043,229.35294699201353 -165,226.87775000000005 -170.40936711219115,224.28184024703387"
     pointer-events="none"
     muller_lyer="4"
     arrowx="-0.6"
     style="fill:none;stroke:#000000;stroke-width:0.5"
     transform="matrix(1,0,0,-1,227.5,266.125)" />
  <polyline
     id="SvgjsPolyline1112"
     points="-192.50000000000006,226.57250000000002 78.37499999999997,229.57921250000007"
     pointer-events="none"
     muller_lyer="4"
     angleWidth="50"
     length="6"
     arrowx="-0.6"
     position="-165 226.87775000000005"
     direction="0.9999384006921797 0.011099316247683346"
     style="fill:none;stroke:#000000;stroke-width:0.5"
     transform="matrix(1,0,0,-1,227.5,266.125)" />
  <polyline
     id="polyline71"
     points="-192.50000000000006,226.57250000000002 78.37499999999997,229.57921250000007"
     style="opacity:0;stroke:#000000;stroke-width:5"
     transform="matrix(1,0,0,-1,227.5,266.125)" />
  <polyline
     id="SvgjsPolyline1114"
     points="-170.38843188213144,236.9913411033213 -165,234.35225000000003 -170.485278324058,231.92084676161699"
     pointer-events="none"
     muller_lyer="4"
     arrowx="-0.6"
     style="fill:none;stroke:#000000;stroke-width:0.5"
     transform="matrix(1,0,0,-1,227.5,266.125)" />
  <polyline
     id="SvgjsPolyline1115"
     points="-192.50000000000006,234.87750000000003 78.37499999999997,229.70378750000006"
     pointer-events="none"
     muller_lyer="4"
     angleWidth="50"
     length="6"
     arrowx="-0.6"
     position="-165 234.35225000000003"
     direction="0.9998176448922086 -0.019096517017440997"
     style="fill:none;stroke:#000000;stroke-width:0.5"
     transform="matrix(1,0,0,-1,227.5,266.125)" />
  <polyline
     id="polyline75"
     points="-192.50000000000006,234.87750000000003 78.37499999999997,229.70378750000006"
     style="opacity:0;stroke:#000000;stroke-width:5"
     transform="matrix(1,0,0,-1,227.5,266.125)" />
  <polyline
     id="SvgjsPolyline1117"
     points="-170.30639158809078,244.62714431399218 -165,241.82675000000003 -170.55610926774528,239.56187697820062"
     pointer-events="none"
     muller_lyer="4"
     arrowx="-0.6"
     style="fill:none;stroke:#000000;stroke-width:0.5"
     transform="matrix(1,0,0,-1,227.5,266.125)" />
  <polyline
     id="SvgjsPolyline1118"
     points="-192.50000000000006,243.18250000000003 78.37499999999997,229.82836250000005"
     pointer-events="none"
     muller_lyer="4"
     angleWidth="50"
     length="6"
     arrowx="-0.6"
     position="-165 241.82675000000003"
     direction="0.9987869657533895 -0.04924019741164199"
     style="fill:none;stroke:#000000;stroke-width:0.5"
     transform="matrix(1,0,0,-1,227.5,266.125)" />
  <polyline
     id="polyline79"
     points="-192.50000000000006,243.18250000000003 78.37499999999997,229.82836250000005"
     style="opacity:0;stroke:#000000;stroke-width:5"
     transform="matrix(1,0,0,-1,227.5,266.125)" />
  <polyline
     id="SvgjsPolyline1120"
     points="-170.21978860827653,252.25993330257003 -165,249.30125 -170.62169834546577,247.2044649102525"
     pointer-events="none"
     muller_lyer="4"
     arrowx="-0.6"
     style="fill:none;stroke:#000000;stroke-width:0.5"
     transform="matrix(1,0,0,-1,227.5,266.125)" />
  <polyline
     id="SvgjsPolyline1121"
     points="-192.50000000000006,251.4875 78.37499999999997,229.95293750000008"
     pointer-events="none"
     muller_lyer="4"
     angleWidth="50"
     length="6"
     arrowx="-0.6"
     position="-165 249.30125"
     direction="0.996854776123264 -0.07924995470179934"
     style="fill:none;stroke:#000000;stroke-width:0.5"
     transform="matrix(1,0,0,-1,227.5,266.125)" />
  <polyline
     id="polyline83"
     points="-192.50000000000006,251.4875 78.37499999999997,229.95293750000008"
     style="opacity:0;stroke:#000000;stroke-width:5"
     transform="matrix(1,0,0,-1,227.5,266.125)" />
  <path
     sodipodi:type="arc"
     style="fill:#ffffff;fill-opacity:1;stroke:#000000;stroke-width:5.10831118;stroke-miterlimit:4;stroke-opacity:1;stroke-dasharray:none"
     id="path3806"
     sodipodi:cx="395.30823"
     sodipodi:cy="-28.905472"
     sodipodi:rx="48.571507"
     sodipodi:ry="45.735214"
     d="m 443.87973,-28.905472 a 48.571507,45.735214 0 1 1 -97.14301,0 48.571507,45.735214 0 1 1 97.14301,0 z"
     transform="matrix(0.0561316,0,0,0.5284739,12.910177,50.916767)" />
  <path
     transform="matrix(0.0561316,0,0,0.5284739,11.457786,139.09198)"
     d="m 443.87973,-28.905472 a 48.571507,45.735214 0 1 1 -97.14301,0 48.571507,45.735214 0 1 1 97.14301,0 z"
     sodipodi:ry="45.735214"
     sodipodi:rx="48.571507"
     sodipodi:cy="-28.905472"
     sodipodi:cx="395.30823"
     id="path3947"
     style="fill:#ffffff;fill-opacity:1;stroke:#000000;stroke-width:5.10831118;stroke-miterlimit:4;stroke-opacity:1;stroke-dasharray:none"
     sodipodi:type="arc" />
</svg>
