<?xml version="1.0" encoding="UTF-8" standalone="no"?>
<!-- Created with Inkscape (http://www.inkscape.org/) -->

<svg
   xmlns:dc="http://purl.org/dc/elements/1.1/"
   xmlns:cc="http://creativecommons.org/ns#"
   xmlns:rdf="http://www.w3.org/1999/02/22-rdf-syntax-ns#"
   xmlns:svg="http://www.w3.org/2000/svg"
   xmlns="http://www.w3.org/2000/svg"
   xmlns:xlink="http://www.w3.org/1999/xlink"
   xmlns:sodipodi="http://sodipodi.sourceforge.net/DTD/sodipodi-0.dtd"
   xmlns:inkscape="http://www.inkscape.org/namespaces/inkscape"
   id="svg2"
   version="1.1"
   inkscape:version="0.92.3 (2405546, 2018-03-11)"
   width="723.20074"
   height="338.54959"
   xml:space="preserve"
   sodipodi:docname="figure5.svg"
   viewBox="0 0 678.00067 317.39023"><metadata
     id="metadata8"><rdf:RDF><cc:Work
         rdf:about=""><dc:format>image/svg+xml</dc:format><dc:type
           rdf:resource="http://purl.org/dc/dcmitype/StillImage" /><dc:title /></cc:Work></rdf:RDF></metadata><defs
     id="defs6"><marker
       inkscape:isstock="true"
       style="overflow:visible;"
       id="marker1185"
       refX="0.0"
       refY="0.0"
       orient="auto"
       inkscape:stockid="Arrow2Lend"><path
         transform="scale(1.1) rotate(180) translate(1,0)"
         d="M 8.7185878,4.0337352 L -2.2072895,0.016013256 L 8.7185884,-4.0017078 C 6.9730900,-1.6296469 6.9831476,1.6157441 8.7185878,4.0337352 z "
         style="fill-rule:evenodd;stroke-width:0.625;stroke-linejoin:round;stroke:#ffffff;stroke-opacity:1;fill:#ffffff;fill-opacity:1"
         id="path1183" /></marker><marker
       inkscape:isstock="true"
       style="overflow:visible"
       id="marker1157"
       refX="0.0"
       refY="0.0"
       orient="auto"
       inkscape:stockid="Arrow2Lstart"><path
         transform="scale(1.1) translate(1,0)"
         d="M 8.7185878,4.0337352 L -2.2072895,0.016013256 L 8.7185884,-4.0017078 C 6.9730900,-1.6296469 6.9831476,1.6157441 8.7185878,4.0337352 z "
         style="fill-rule:evenodd;stroke-width:0.625;stroke-linejoin:round;stroke:#ffffff;stroke-opacity:1;fill:#ffffff;fill-opacity:1"
         id="path1155" /></marker><marker
       inkscape:stockid="Arrow2Lend"
       orient="auto"
       refY="0.0"
       refX="0.0"
       id="Arrow2Lend"
       style="overflow:visible;"
       inkscape:isstock="true"
       inkscape:collect="always"><path
         id="path860"
         style="fill-rule:evenodd;stroke-width:0.625;stroke-linejoin:round;stroke:#ffffff;stroke-opacity:1;fill:#ffffff;fill-opacity:1"
         d="M 8.7185878,4.0337352 L -2.2072895,0.016013256 L 8.7185884,-4.0017078 C 6.9730900,-1.6296469 6.9831476,1.6157441 8.7185878,4.0337352 z "
         transform="scale(1.1) rotate(180) translate(1,0)" /></marker><marker
       inkscape:stockid="Arrow2Lstart"
       orient="auto"
       refY="0.0"
       refX="0.0"
       id="Arrow2Lstart"
       style="overflow:visible"
       inkscape:isstock="true"
       inkscape:collect="always"><path
         id="path857"
         style="fill-rule:evenodd;stroke-width:0.625;stroke-linejoin:round;stroke:#ffffff;stroke-opacity:1;fill:#ffffff;fill-opacity:1"
         d="M 8.7185878,4.0337352 L -2.2072895,0.016013256 L 8.7185884,-4.0017078 C 6.9730900,-1.6296469 6.9831476,1.6157441 8.7185878,4.0337352 z "
         transform="scale(1.1) translate(1,0)" /></marker><clipPath
       clipPathUnits="userSpaceOnUse"
       id="clipPath18"><path
         d="M 0,2692.45 H 3370 V 2.44922 H 0 Z"
         id="path20"
         inkscape:connector-curvature="0" /></clipPath><radialGradient
       inkscape:collect="always"
       xlink:href="#linearGradient3817"
       id="radialGradient3823"
       cx="372.8945"
       cy="77.319901"
       fx="372.8945"
       fy="77.319901"
       r="71.7295"
       gradientTransform="matrix(1,0,0,0.94802139,0,4.0189812)"
       gradientUnits="userSpaceOnUse" /><linearGradient
       id="linearGradient3817"><stop
         style="stop-color:#ffffff;stop-opacity:1;"
         offset="0"
         id="stop3819" /><stop
         style="stop-color:#838383;stop-opacity:1;"
         offset="1"
         id="stop3821" /></linearGradient><radialGradient
       r="71.7295"
       fy="77.319901"
       fx="372.8945"
       cy="77.319901"
       cx="372.8945"
       gradientTransform="matrix(0.51004108,0,0,0.48352984,110.26454,12.397984)"
       gradientUnits="userSpaceOnUse"
       id="radialGradient3851"
       xlink:href="#linearGradient3817"
       inkscape:collect="always" /><radialGradient
       inkscape:collect="always"
       xlink:href="#linearGradient3817"
       id="radialGradient4005"
       gradientUnits="userSpaceOnUse"
       gradientTransform="matrix(0.51004108,0,0,0.48352984,110.26454,12.397984)"
       cx="372.8945"
       cy="77.319901"
       fx="372.8945"
       fy="77.319901"
       r="71.7295" /><radialGradient
       inkscape:collect="always"
       xlink:href="#linearGradient3817"
       id="radialGradient4048"
       gradientUnits="userSpaceOnUse"
       gradientTransform="matrix(0.89375058,0,0,0.84736594,22.22912,-15.685712)"
       cx="372.8945"
       cy="77.319901"
       fx="372.8945"
       fy="77.319901"
       r="71.7295" /></defs><sodipodi:namedview
     pagecolor="#ffffff"
     bordercolor="#666666"
     borderopacity="1"
     objecttolerance="10"
     gridtolerance="10"
     guidetolerance="10"
     inkscape:pageopacity="0"
     inkscape:pageshadow="2"
     inkscape:window-width="1920"
     inkscape:window-height="1017"
     id="namedview4"
     showgrid="false"
     inkscape:zoom="1"
     inkscape:cx="467.07225"
     inkscape:cy="154.9679"
     inkscape:window-x="-8"
     inkscape:window-y="-8"
     inkscape:window-maximized="1"
     inkscape:current-layer="g10"
     fit-margin-top="0"
     fit-margin-left="0"
     fit-margin-right="0"
     fit-margin-bottom="0" /><g
     id="g10"
     inkscape:groupmode="layer"
     inkscape:label="ink_ext_XXXXXX"
     transform="matrix(1.25,0,0,-1.25,126.71555,223.47485)"><g
       id="g22" /><g
       id="g34" /><g
       id="g38" /><g
       id="g58" /><rect
       style="fill:#003d5d;fill-opacity:1;stroke:none"
       id="rect3803"
       width="542.40051"
       height="253.91219"
       x="-101.37244"
       y="-178.77988"
       transform="scale(1,-1)" /><path
       inkscape:connector-curvature="0"
       id="path44"
       style="fill:none;stroke:none"
       d="m -45.882314,139.77289 -1.495772,-3.06301 c -0.136722,-0.28465 -0.48027,-0.40275 -0.763557,-0.268 -0.284498,0.13779 -0.396238,0.47846 -0.260272,0.76462 l 1.495772,3.06301 c 0.136571,0.27859 0.48027,0.40123 0.763557,0.26648 0.284498,-0.14838 0.396238,-0.47845 0.260272,-0.7631 z m -3.49604,-7.14501 -1.489867,-3.06301 c -0.148532,-0.27253 -0.472548,-0.39669 -0.757046,-0.26042 -0.283287,0.14838 -0.396844,0.47391 -0.260879,0.75705 l 1.49759,3.06906 c 0.134905,0.28314 0.478453,0.3967 0.751141,0.25891 0.283287,-0.13475 0.395027,-0.47845 0.259061,-0.76159 z m -3.488318,-7.14349 -1.496378,-3.06452 c -0.136117,-0.27254 -0.479664,-0.39669 -0.762951,-0.24831 -0.284498,0.13627 -0.396844,0.47391 -0.260273,0.75099 l 1.501678,3.06452 c 0.136571,0.28314 0.472548,0.39518 0.757046,0.25891 0.283287,-0.13475 0.402749,-0.47845 0.260878,-0.76159 z m -3.49604,-7.13894 -1.483962,-3.05847 c -0.136571,-0.28313 -0.48027,-0.39593 -0.763557,-0.26042 -0.284498,0.13626 -0.396238,0.47996 -0.260273,0.76159 l 1.495772,3.05241 c 0.136723,0.28465 0.480271,0.3982 0.751142,0.26193 0.284498,-0.13626 0.408653,-0.47542 0.260878,-0.75704 z m 2.466306,-2.28325 h 1.756044 c 0.307513,0 0.567785,-0.26043 0.567785,-0.56779 v -1.66323 c 0,-0.31342 -0.260272,-0.56778 -0.567785,-0.56778 -0.313568,0 -0.567784,0.25436 -0.567784,0.56778 v 1.66323 l 0.567784,-0.56854 h -1.756044 c -0.307513,0 -0.567785,0.24907 -0.567785,0.56854 0,0.30736 0.260272,0.56779 0.567785,0.56779 z m 2.323829,-6.7733 v -3.40671 c 0,-0.31341 -0.260272,-0.56778 -0.567785,-0.56778 -0.313568,0 -0.567784,0.25437 -0.567784,0.56778 v 3.40671 c 0,0.31993 0.254216,0.56779 0.567784,0.56779 0.307513,0 0.567785,-0.24786 0.567785,-0.56779 z m 0,-7.94898 v -3.406713 c 0,-0.313417 -0.260272,-0.567785 -0.567785,-0.567785 -0.313568,0 -0.567784,0.254368 -0.567784,0.567785 v 3.406713 c 0,0.31992 0.254216,0.56778 0.567784,0.56778 0.307513,0 0.567785,-0.24786 0.567785,-0.56778 z m 0,-7.948991 V 89.98422 c 0,-0.319473 -0.260272,-0.567784 -0.567785,-0.567784 -0.313568,0 -0.567784,0.248311 -0.567784,0.567784 v 3.406709 c 0,0.319928 0.254216,0.567785 0.567784,0.567785 0.307513,0 0.567785,-0.247857 0.567785,-0.567785 z m 0,-7.948987 v -3.406708 c 0,-0.319474 -0.260272,-0.567785 -0.567785,-0.567785 -0.313568,0 -0.567784,0.248311 -0.567784,0.567785 v 3.406708 c 0,0.319928 0.254216,0.567785 0.567784,0.567785 0.307513,0 0.567785,-0.247857 0.567785,-0.567785 z m 0,-7.948986 v -3.406709 c 0,-0.319473 -0.260272,-0.567785 -0.567785,-0.567785 -0.313568,0 -0.567784,0.248312 -0.567784,0.567785 v 3.406709 c 0,0.319927 0.254216,0.567784 0.567784,0.567784 0.307513,0 0.567785,-0.247857 0.567785,-0.567784 z m 0,-7.948987 V 66.13726 c 0,-0.319473 -0.260272,-0.567784 -0.567785,-0.567784 -0.313568,0 -0.567784,0.248311 -0.567784,0.567784 v 3.406709 c 0,0.319928 0.254216,0.567785 0.567784,0.567785 0.307513,0 0.567785,-0.247857 0.567785,-0.567785 z m 0,-7.948987 v -3.406708 c 0,-0.319474 -0.260272,-0.567785 -0.567785,-0.567785 -0.313568,0 -0.567784,0.248311 -0.567784,0.567785 v 3.406708 c 0,0.319928 0.254216,0.567785 0.567784,0.567785 0.307513,0 0.567785,-0.247857 0.567785,-0.567785 z m 0,-7.948986 v -3.406709 c 0,-0.319473 -0.260272,-0.567785 -0.567785,-0.567785 -0.313568,0 -0.567784,0.248312 -0.567784,0.567785 v 3.406709 c 0,0.319927 0.254216,0.567784 0.567784,0.567784 0.307513,0 0.567785,-0.247857 0.567785,-0.567784 z m 0,-7.948987 V 42.2903 c 0,-0.319473 -0.260272,-0.567784 -0.567785,-0.567784 -0.313568,0 -0.567784,0.248311 -0.567784,0.567784 v 3.406709 c 0,0.319928 0.254216,0.567785 0.567784,0.567785 0.307513,0 0.567785,-0.247857 0.567785,-0.567785 z m 0.515094,-6.292418 h 3.406709 c 0.313417,0 0.567785,-0.260121 0.567785,-0.567785 0,-0.319322 -0.254368,-0.567784 -0.567785,-0.567784 h -3.406709 c -0.307512,0 -0.567784,0.248462 -0.567784,0.567784 0,0.307664 0.260272,0.567785 0.567784,0.567785 z m 7.948987,0 h 3.406709 c 0.313417,0 0.567784,-0.260121 0.567784,-0.567785 0,-0.319322 -0.254367,-0.567784 -0.567784,-0.567784 h -3.406709 c -0.307512,0 -0.567785,0.248462 -0.567785,0.567784 0,0.307664 0.260273,0.567785 0.567785,0.567785 z m 2.891614,3.915444 v 3.412613 c 0,0.313418 0.254216,0.567785 0.567785,0.567785 0.307512,0 0.567785,-0.254367 0.567785,-0.567785 v -3.412613 c 0,-0.313569 -0.260273,-0.567785 -0.567785,-0.567785 -0.313569,0 -0.567785,0.254216 -0.567785,0.567785 z m 0,7.954891 v 3.406709 c 0,0.313417 0.254216,0.567785 0.567785,0.567785 0.307512,0 0.567785,-0.254368 0.567785,-0.567785 v -3.406709 c 0,-0.319473 -0.260273,-0.567784 -0.567785,-0.567784 -0.313569,0 -0.567785,0.248311 -0.567785,0.567784 z m 0,7.948987 v 3.406709 c 0,0.313417 0.254216,0.567784 0.567785,0.567784 0.307512,0 0.567785,-0.254367 0.567785,-0.567784 v -3.406709 c 0,-0.319473 -0.260273,-0.567785 -0.567785,-0.567785 -0.313569,0 -0.567785,0.248312 -0.567785,0.567785 z m 0,7.948987 v 3.406708 c 0,0.313418 0.254216,0.567785 0.567785,0.567785 0.307512,0 0.567785,-0.254367 0.567785,-0.567785 V 67.1729 c 0,-0.319474 -0.260273,-0.567785 -0.567785,-0.567785 -0.313569,0 -0.567785,0.248311 -0.567785,0.567785 z m 0,7.948986 v 3.406709 c 0,0.319928 0.254216,0.567785 0.567785,0.567785 0.307512,0 0.567785,-0.247857 0.567785,-0.567785 v -3.406709 c 0,-0.319473 -0.260273,-0.567784 -0.567785,-0.567784 -0.313569,0 -0.567785,0.248311 -0.567785,0.567784 z m 0,7.948987 v 3.406709 c 0,0.319928 0.254216,0.567785 0.567785,0.567785 0.307512,0 0.567785,-0.247857 0.567785,-0.567785 v -3.406709 c 0,-0.319473 -0.260273,-0.567785 -0.567785,-0.567785 -0.313569,0 -0.567785,0.248312 -0.567785,0.567785 z m 0,7.948987 v 3.406708 c 0,0.319928 0.254216,0.567785 0.567785,0.567785 0.307512,0 0.567785,-0.247857 0.567785,-0.567785 V 91.01986 c 0,-0.319474 -0.260273,-0.567785 -0.567785,-0.567785 -0.313569,0 -0.567785,0.248311 -0.567785,0.567785 z m 0,7.948987 v 3.406703 c 0,0.31993 0.254216,0.56779 0.567785,0.56779 0.307512,0 0.567785,-0.24786 0.567785,-0.56779 v -3.406703 c 0,-0.319474 -0.260273,-0.567785 -0.567785,-0.567785 -0.313569,0 -0.567785,0.248311 -0.567785,0.567785 z m 0,7.948983 v 3.40671 c 0,0.31993 0.254216,0.56779 0.567785,0.56779 0.307512,0 0.567785,-0.24786 0.567785,-0.56779 v -3.40671 c 0,-0.31947 -0.260273,-0.56778 -0.567785,-0.56778 -0.313569,0 -0.567785,0.24831 -0.567785,0.56778 z m 0,7.94899 v 0.62759 c 0,0.30736 0.254216,0.56779 0.567785,0.56779 h 2.786233 c 0.313418,0 0.567785,-0.26043 0.567785,-0.56779 0,-0.31947 -0.254367,-0.56854 -0.567785,-0.56854 h -2.786233 l 0.567785,0.56854 v -0.62759 c 0,-0.31947 -0.260273,-0.56778 -0.567785,-0.56778 -0.313569,0 -0.567785,0.24831 -0.567785,0.56778 z m 5.826229,1.34376 -1.495772,3.06301 c -0.135966,0.28465 -0.02423,0.62683 0.260272,0.7631 0.283287,0.13627 0.626986,0.0242 0.76174,-0.26042 l 1.49759,-3.06907 c 0.135965,-0.28465 0.02241,-0.61018 -0.260879,-0.75705 -0.284498,-0.13778 -0.62638,-0.0121 -0.762951,0.26043 z m -3.49604,7.13743 -1.489867,3.07058 c -0.135966,0.28162 -0.01832,0.62532 0.266783,0.7631 0.270871,0.13627 0.608665,0.006 0.757046,-0.26648 l 1.489867,-3.06452 c 0.135966,-0.28314 0.02423,-0.62684 -0.260878,-0.76159 -0.276776,-0.13627 -0.614419,-0.0242 -0.762951,0.25891 z m -3.488318,7.145 -1.497438,3.07058 c -0.134906,0.27103 -0.02256,0.60715 0.260121,0.75705 0.285104,0.13475 0.626986,0.0106 0.763557,-0.26042 l 1.495772,-3.06453 c 0.136117,-0.28313 0.02423,-0.62683 -0.259061,-0.7631 -0.284498,-0.13627 -0.628046,-0.0227 -0.762951,0.26042 z m -3.48423,7.14501 -1.495621,3.05241 c -0.136117,0.28313 -0.02438,0.62683 0.25891,0.76159 0.284498,0.14838 0.622292,0.0242 0.757046,-0.25891 l 1.491079,-3.05847 c 0.147321,-0.28314 0.02301,-0.62078 -0.260273,-0.75705 -0.272537,-0.13627 -0.614419,-0.0242 -0.751141,0.26043 z" /><path
       inkscape:connector-curvature="0"
       id="path50"
       style="fill:#ffffff;fill-opacity:1;fill-rule:nonzero;stroke:#ffffff;stroke-width:1.49999988;stroke-miterlimit:4;stroke-dasharray:none;stroke-opacity:1"
       d="M 109.16575,102.44396 V -2.7795825 H 107.6456 V 102.44396 Z m -6.70743,-8.700132 5.95039,10.214222 5.94887,-10.214222 c 0.21348,-0.361869 0.0893,-0.828058 -0.27103,-1.029735 -0.35581,-0.219392 -0.81609,-0.09403 -1.03564,0.272688 l -5.29326,9.084559 h 1.30666 l -5.29933,-9.084559 c -0.21803,-0.366713 -0.67377,-0.49208 -1.03412,-0.272688 -0.36793,0.201677 -0.49208,0.667866 -0.27254,1.029735 z M 114.35758,5.9140347 108.40871,-4.2936754 102.45832,5.9140347 c -0.21954,0.366714 -0.0954,0.834568 0.27254,1.034428 0.36035,0.219393 0.81609,0.08933 1.03412,-0.270871 l 5.29933,-9.0845563 h -1.30666 l 5.29326,9.0845563 c 0.21955,0.360203 0.67983,0.490264 1.03564,0.270871 0.36036,-0.19986 0.48451,-0.667714 0.27103,-1.034428" /><path
       inkscape:connector-curvature="0"
       id="path22"
       style="fill:url(#radialGradient4048);fill-opacity:1;stroke:#ffffff;stroke-width:1.23559904;stroke-linecap:butt;stroke-linejoin:miter;stroke-miterlimit:4;stroke-dasharray:none;stroke-opacity:1"
       d="m 358.83797,109.89861 c -24.37887,0 -45.35786,-14.524652 -54.76996,-35.396397 -7.27958,-5.761767 -11.95748,-14.661593 -11.95748,-24.668236 0,-10.009779 4.6779,-18.909693 11.95748,-24.67139 9.4121,-20.8714475 30.39109,-35.39612 54.76996,-35.39612 33.16973,0 60.05913,26.895032 60.05913,60.06751 0,33.173005 -26.8894,60.064633 -60.05913,60.064633 z" /><path
       style="fill:none;stroke:#ffffff;stroke-width:2.25;stroke-linecap:butt;stroke-linejoin:miter;stroke-miterlimit:4;stroke-dasharray:8.99999965, 8.99999965;stroke-dashoffset:0;stroke-opacity:1"
       d="M -33.314828,146.56009 V -46.895009"
       id="path833"
       inkscape:connector-curvature="0" /><path
       style="fill:none;stroke:#ffffff;stroke-width:0.74999994;stroke-linecap:butt;stroke-linejoin:miter;stroke-miterlimit:4;stroke-dasharray:none;stroke-opacity:1;marker-start:url(#Arrow2Lstart);marker-end:url(#Arrow2Lend)"
       d="M 104.94395,-19.617822 H -31.707168"
       id="path837"
       inkscape:connector-curvature="0"
       sodipodi:nodetypes="cc" /><path
       inkscape:connector-curvature="0"
       id="path1153"
       d="M 289.28898,-20.689595 H 114.58991"
       style="fill:none;stroke:#ffffff;stroke-width:0.74999994;stroke-linecap:butt;stroke-linejoin:miter;stroke-miterlimit:4;stroke-dasharray:none;stroke-opacity:1;marker-start:url(#marker1157);marker-end:url(#marker1185)"
       sodipodi:nodetypes="cc" /><text
       xml:space="preserve"
       style="font-style:italic;font-variant:normal;font-weight:normal;font-stretch:normal;font-size:23.99999809px;line-height:1.25;font-family:'Times New Roman';-inkscape-font-specification:'Times New Roman, Italic';letter-spacing:0px;word-spacing:0px;fill:#ffffff;fill-opacity:1;stroke:none;stroke-width:0.74999994"
       x="14.877556"
       y="51.132301"
       id="text1675"
       transform="scale(1,-1)"><tspan
         sodipodi:role="line"
         id="tspan1673"
         x="14.877556"
         y="51.132301"
         style="fill:#ffffff;stroke-width:0.74999994">1/F</tspan></text>
<text
       xml:space="preserve"
       style="font-style:italic;font-variant:normal;font-weight:normal;font-stretch:normal;font-size:23.99999809px;line-height:1.25;font-family:'Times New Roman';-inkscape-font-specification:'Times New Roman, Italic';letter-spacing:0px;word-spacing:0px;fill:#ffffff;fill-opacity:1;stroke:none;stroke-width:0.74999994"
       x="103.37755"
       y="-125.86769"
       id="text1679"
       transform="scale(1,-1)"><tspan
         sodipodi:role="line"
         id="tspan1677"
         x="103.37755"
         y="-125.86769"
         style="fill:#ffffff;stroke-width:0.74999994">F</tspan></text>
<text
       xml:space="preserve"
       style="font-style:italic;font-variant:normal;font-weight:normal;font-stretch:normal;font-size:23.99999809px;line-height:1.25;font-family:'Times New Roman';-inkscape-font-specification:'Times New Roman, Italic';letter-spacing:0px;word-spacing:0px;fill:#ffffff;fill-opacity:1;stroke:none;stroke-width:0.74999994"
       x="198.62755"
       y="53.382305"
       id="text1683"
       transform="scale(1,-1)"><tspan
         sodipodi:role="line"
         id="tspan1681"
         x="198.62755"
         y="53.382305"
         style="fill:#ffffff;stroke-width:0.74999994">d</tspan></text>
<path
       style="fill:none;stroke:#ffffff;stroke-width:0.74999994;stroke-linecap:butt;stroke-linejoin:miter;stroke-miterlimit:4;stroke-dasharray:0.74999993, 2.24999978;stroke-dashoffset:0;stroke-opacity:1"
       d="M -83.372441,49.83254 H 433.37754"
       id="path1691"
       inkscape:connector-curvature="0" /></g></svg>