<?xml version="1.0" encoding="UTF-8" standalone="no"?>
<!-- Created with Inkscape (http://www.inkscape.org/) -->

<svg
   xmlns:dc="http://purl.org/dc/elements/1.1/"
   xmlns:cc="http://creativecommons.org/ns#"
   xmlns:rdf="http://www.w3.org/1999/02/22-rdf-syntax-ns#"
   xmlns:svg="http://www.w3.org/2000/svg"
   xmlns="http://www.w3.org/2000/svg"
   xmlns:sodipodi="http://sodipodi.sourceforge.net/DTD/sodipodi-0.dtd"
   xmlns:inkscape="http://www.inkscape.org/namespaces/inkscape"
   id="svg2"
   version="1.1"
   inkscape:version="0.92.3 (2405546, 2018-03-11)"
   width="497.33334"
   height="398.66666"
   xml:space="preserve"
   sodipodi:docname="image7x.svg"
   viewBox="0 0 466.25 373.75"><metadata
     id="metadata8"><rdf:RDF><cc:Work
         rdf:about=""><dc:format>image/svg+xml</dc:format><dc:type
           rdf:resource="http://purl.org/dc/dcmitype/StillImage" /><dc:title /></cc:Work></rdf:RDF></metadata><defs
     id="defs6"><clipPath
       clipPathUnits="userSpaceOnUse"
       id="clipPath18"><path
         d="M 0,2982.5 H 3730 V 2.5 H 0 Z"
         id="path20"
         inkscape:connector-curvature="0" /></clipPath></defs><sodipodi:namedview
     pagecolor="#ffffff"
     bordercolor="#666666"
     borderopacity="1"
     objecttolerance="10"
     gridtolerance="10"
     guidetolerance="10"
     inkscape:pageopacity="0"
     inkscape:pageshadow="2"
     inkscape:window-width="1920"
     inkscape:window-height="1017"
     id="namedview4"
     showgrid="false"
     inkscape:zoom="1.66"
     inkscape:cx="370.27171"
     inkscape:cy="192.63462"
     inkscape:window-x="-8"
     inkscape:window-y="-8"
     inkscape:window-maximized="1"
     inkscape:current-layer="g10" /><g
     id="g10"
     inkscape:groupmode="layer"
     inkscape:label="ink_ext_XXXXXX"
     transform="matrix(1.25,0,0,-1.25,0,373.75)"><g
       transform="scale(0.0764354,-0.123565)"
       id="g22"
       style="fill:#48a7d8;fill-opacity:1"><path
         inkscape:connector-curvature="0"
         id="path24"
         style="fill:#48a7d8;stroke:#000000;stroke-width:16.46360016;stroke-linecap:butt;stroke-linejoin:miter;stroke-miterlimit:4;stroke-dasharray:none;stroke-opacity:1;fill-opacity:1"
         d="m 2253.79,-990.657 c 78.14,134.326 124.9,303.453 124.9,487.188 0,183.766 -46.76,352.899 -124.9,487.2167 H 2561.8 C 2483.66,-150.57 2437.06,-319.703 2437.06,-503.469 c 0,-183.735 46.6,-352.862 124.74,-487.188 z" /></g><g
       transform="scale(0.0764354,-0.123565)"
       id="g26"
       style="fill:#48a7d8;fill-opacity:1;stroke:#000000;stroke-opacity:1"><path
         inkscape:connector-curvature="0"
         id="path28"
         style="fill:#48a7d8;stroke:#000000;stroke-width:16.46360016;stroke-linecap:butt;stroke-linejoin:miter;stroke-miterlimit:4;stroke-dasharray:none;stroke-opacity:1;fill-opacity:1"
         d="m 2415.69,-2400.54 c -113.81,137.08 -182.29,313.13 -182.29,505.22 0,183.03 62.2,351.49 166.5,485.57 113.81,-137.08 182.3,-313.13 182.3,-505.21 0,-183.04 -62.15,-351.51 -166.51,-485.58 z" /></g><path
       inkscape:connector-curvature="0"
       id="path30"
       style="fill:#48a7d8;stroke:#000000;stroke-width:1.16215003;stroke-linecap:butt;stroke-linejoin:miter;stroke-miterlimit:4;stroke-dasharray:none;stroke-opacity:1;fill-opacity:1"
       d="M 347.504,122.633 C 338.57,104.82 333.527,84.6949 333.527,63.4102 c 0,-22.2582 5.512,-43.2192 15.227,-61.62504 h 21.051 C 351.977,15.7191 340.527,37.4301 340.527,61.809 c 0,24.8672 11.914,46.929 30.352,60.824 z" /><path
       inkscape:connector-curvature="0"
       id="path32"
       style="fill:#48a7d8;stroke:#000000;stroke-width:1.30119002;stroke-linecap:butt;stroke-linejoin:miter;stroke-miterlimit:4;stroke-dasharray:none;stroke-opacity:1;fill-opacity:1"
       d="m 363.824,295.758 c -18.367,-13.903 -30.226,-35.942 -30.226,-60.75 0,-24.344 11.422,-46.012 29.199,-59.949 h 2.976 c -9.691,18.386 -15.175,39.343 -15.175,61.574 0,21.258 5.011,41.328 13.925,59.125 z" /><path
       inkscape:connector-curvature="0"
       id="path34"
       style="fill:#48a7d8;stroke:#000000;stroke-width:1.20296001;stroke-linecap:butt;stroke-linejoin:miter;stroke-miterlimit:4;stroke-dasharray:none;stroke-opacity:1;fill-opacity:1"
       d="M 4.48008,122.609 C 16.6211,106.316 23.8051,86.1172 23.8051,64.234 23.8051,40.5 15.3441,18.7461 1.28086,1.80898 H 30.4801 V 122.609 Z" /><path
       style="fill:#48a7d8;fill-opacity:1;fill-rule:evenodd;stroke:#000000;stroke-width:2.00000001;stroke-opacity:1;stroke-miterlimit:4;stroke-dasharray:none"
       d="M 37.636719 3.6367188 C 28.312719 14.860719 20.895257 27.531167 15.775391 41.3125 C 10.660844 55.0525 7.8847656 69.863599 7.8847656 85.322266 C 7.8847656 100.5156 10.583669 115.09817 15.541016 128.6875 C 20.499816 142.23417 27.677017 154.83403 36.71875 165.94336 C 36.802617 166.05803 36.880267 166.09321 37 166.17188 C 37.119733 166.24521 37.276033 166.28711 37.4375 166.28711 z "
       transform="matrix(0.75,0,0,-0.75,0,299)"
       id="path38"><title
         id="title4696">extend this path please</title></path></g></svg>