<?xml version="1.0" encoding="UTF-8" standalone="no"?>
<!-- Created with Inkscape (http://www.inkscape.org/) -->

<svg
   xmlns:dc="http://purl.org/dc/elements/1.1/"
   xmlns:cc="http://creativecommons.org/ns#"
   xmlns:rdf="http://www.w3.org/1999/02/22-rdf-syntax-ns#"
   xmlns:svg="http://www.w3.org/2000/svg"
   xmlns="http://www.w3.org/2000/svg"
   xmlns:sodipodi="http://sodipodi.sourceforge.net/DTD/sodipodi-0.dtd"
   xmlns:inkscape="http://www.inkscape.org/namespaces/inkscape"
   width="410"
   height="200"
   id="svg2"
   version="1.1"
   inkscape:version="0.48.4 r9939"
   sodipodi:docname="New document 1">
  <defs
     id="defs4">
    <marker
       inkscape:stockid="Arrow2Mend"
       orient="auto"
       refY="0"
       refX="0"
       id="Arrow2Mend"
       style="overflow:visible">
      <path
         id="path3902"
         style="fill-rule:evenodd;stroke-width:0.625;stroke-linejoin:round"
         d="M 8.7185878,4.0337352 -2.2072895,0.01601326 8.7185884,-4.0017078 c -1.7454984,2.3720609 -1.7354408,5.6174519 -6e-7,8.035443 z"
         transform="scale(-0.6,-0.6)"
         inkscape:connector-curvature="0" />
    </marker>
    <clipPath
       id="clipEmfPath1"
       clipPathUnits="userSpaceOnUse">
      <rect
         id="rect2990"
         height="222.48425"
         width="489.25986"
         y="0"
         x="0" />
    </clipPath>
    <clipPath
       id="clipEmfPath2"
       clipPathUnits="userSpaceOnUse">
      <rect
         id="rect2993"
         height="36.755657"
         width="106.79124"
         y="50.707806"
         x="355.92081" />
    </clipPath>
    <clipPath
       id="clipEmfPath3"
       clipPathUnits="userSpaceOnUse">
      <rect
         id="rect2996"
         height="54.75843"
         width="84.293083"
         y="117.16804"
         x="47.546101" />
    </clipPath>
  </defs>
  <sodipodi:namedview
     id="base"
     pagecolor="#ffffff"
     bordercolor="#666666"
     borderopacity="1.0"
     inkscape:pageopacity="0.0"
     inkscape:pageshadow="2"
     inkscape:zoom="1"
     inkscape:cx="551.72557"
     inkscape:cy="207.51596"
     inkscape:document-units="px"
     inkscape:current-layer="layer1"
     showgrid="false"
     inkscape:window-width="1366"
     inkscape:window-height="706"
     inkscape:window-x="-8"
     inkscape:window-y="-8"
     inkscape:window-maximized="1" />
  <metadata
     id="metadata7">
    <rdf:RDF>
      <cc:Work
         rdf:about="">
        <dc:format>image/svg+xml</dc:format>
        <dc:type
           rdf:resource="http://purl.org/dc/dcmitype/StillImage" />
        <dc:title></dc:title>
      </cc:Work>
    </rdf:RDF>
  </metadata>
  <g
     inkscape:label="Layer 1"
     inkscape:groupmode="layer"
     id="layer1"
     transform="translate(0,-852.36218)">
    <text
       xml:space="preserve"
       x="553.72632"
       y="651.66406"
       style="font-size:13.79886818px;font-style:normal;font-weight:normal;text-align:start;text-anchor:start;fill:#000000;font-family:Cambria"
       id="text3000"> </text>
    <path
       inkscape:connector-curvature="0"
       style="fill:#ffffff;fill-opacity:1;fill-rule:evenodd;stroke:none"
       d="m 201.66541,866.55903 c -47.88357,0 -86.71163,38.83723 -86.71163,86.7321 0,47.91367 38.82806,86.73207 86.71163,86.73207 47.90232,0 86.71164,-38.8184 86.71164,-86.73207 0,-47.89487 -38.80932,-86.7321 -86.71164,-86.7321"
       id="path3004" />
    <path
       inkscape:connector-curvature="0"
       style="fill:none;stroke:#000000;stroke-width:0.93742311px;stroke-linecap:round;stroke-linejoin:round;stroke-opacity:1;stroke-dasharray:none"
       d="m 201.66541,866.55903 c -47.88357,0 -86.71163,38.83723 -86.71163,86.7321 0,47.91367 38.82806,86.73207 86.71163,86.73207 47.90232,0 86.71164,-38.8184 86.71164,-86.73207 0,-47.89487 -38.80932,-86.7321 -86.71164,-86.7321"
       id="path3006" />
    <path
       inkscape:connector-curvature="0"
       style="fill:none;stroke:#000000;stroke-width:0.93742311px;stroke-linecap:round;stroke-linejoin:round;stroke-opacity:1;stroke-dasharray:none"
       d="m 260.37622,963.32393 c 1.69674,4.44443 2.56854,9.16078 2.56854,13.93339 0,21.20014 -16.90174,38.38718 -37.75003,38.38718 -20.84829,0 -37.74065,-17.18704 -37.74065,-38.38718 0,-4.99764 0.95617,-9.93903 2.81227,-14.55224"
       id="path3008" />
    <path
       inkscape:connector-curvature="0"
       style="fill:none;stroke:#000000;stroke-width:0.93742311px;stroke-linecap:round;stroke-linejoin:round;stroke-opacity:1;stroke-dasharray:none"
       d="m 190.26635,962.70508 70.11925,0.61885"
       id="path3010" />
    <path
       inkscape:connector-curvature="0"
       style="fill:#000000;fill-opacity:1;fill-rule:nonzero;stroke:#000000;stroke-width:0.1499877px;stroke-linecap:butt;stroke-linejoin:bevel;stroke-opacity:1;stroke-dasharray:none"
       clip-path="url(#clipEmfPath2)"
       d="m 353.05228,61.678246 -85.64297,12.770716 c -0.33747,0.05626 -0.6562,-0.187529 -0.71244,-0.525081 -0.0375,-0.337552 0.18748,-0.656351 0.52495,-0.71261 l 85.66173,-12.770716 c 0.33747,-0.03751 0.65619,0.187529 0.69369,0.543834 0.0562,0.337552 -0.16874,0.656351 -0.52496,0.693857 z m -73.90643,17.252656 -13.10518,-4.913256 11.09909,-8.532564 c 0.28123,-0.206282 0.67495,-0.150023 0.88118,0.112517 0.20623,0.281293 0.16874,0.675104 -0.11249,0.881386 l -10.19917,7.838707 -0.16873,-1.068915 12.05526,4.519446 c 0.31872,0.112517 0.48746,0.487575 0.35622,0.806374 -0.11249,0.318799 -0.48746,0.487575 -0.80618,0.356305 z"
       id="path3020"
       transform="translate(63.416537,441.63173)" />
    <text
       xml:space="preserve"
       style="font-size:14px;font-style:normal;font-variant:normal;font-weight:normal;font-stretch:normal;line-height:125%;letter-spacing:0px;word-spacing:0px;fill:#000000;fill-opacity:1;stroke:none;font-family:Cambria;-inkscape-font-specification:Cambria"
       x="16.000008"
       y="894.505"
       id="text3087"
       sodipodi:linespacing="125%"><tspan
         sodipodi:role="line"
         id="tspan3089"
         x="16.000008"
         y="894.505">distance power</tspan></text>
    <text
       xml:space="preserve"
       style="font-size:14px;font-style:normal;font-variant:normal;font-weight:normal;font-stretch:normal;line-height:125%;letter-spacing:0px;word-spacing:0px;fill:#000000;fill-opacity:1;stroke:none;font-family:Cambria;-inkscape-font-specification:Cambria"
       x="302.14285"
       y="958.07648"
       id="text3091"
       sodipodi:linespacing="125%"><tspan
         sodipodi:role="line"
         id="tspan3093"
         x="302.14285"
         y="958.07648">distance power +</tspan><tspan
         sodipodi:role="line"
         x="302.14285"
         y="975.57648"
         id="tspan3095">near add</tspan></text>
    <path
       style="fill:none;stroke:#000000;stroke-width:1px;stroke-linecap:butt;stroke-linejoin:miter;stroke-opacity:1;marker-end:url(#Arrow2Mend)"
       d="m 106.71429,900.93361 c 88.57142,21.42857 88.57142,21.42857 88.57142,21.42857"
       id="path3099"
       inkscape:connector-curvature="0" />
    <path
       style="fill:none;stroke:#000000;stroke-width:1px;stroke-linecap:butt;stroke-linejoin:miter;stroke-opacity:1;marker-end:url(#Arrow2Mend)"
       d="m 301,965.93361 c -80.71429,17.85714 -80.71429,17.85714 -80.71429,17.85714"
       id="path3101"
       inkscape:connector-curvature="0" />
  </g>
</svg>
