<?xml version="1.0" encoding="UTF-8" standalone="no"?>
<!-- Created with Inkscape (http://www.inkscape.org/) -->

<svg
   xmlns:dc="http://purl.org/dc/elements/1.1/"
   xmlns:cc="http://creativecommons.org/ns#"
   xmlns:rdf="http://www.w3.org/1999/02/22-rdf-syntax-ns#"
   xmlns:svg="http://www.w3.org/2000/svg"
   xmlns="http://www.w3.org/2000/svg"
   xmlns:sodipodi="http://sodipodi.sourceforge.net/DTD/sodipodi-0.dtd"
   xmlns:inkscape="http://www.inkscape.org/namespaces/inkscape"
   version="1.1"
   width="387.2569"
   height="525.46667"
   id="SvgjsSvg1000"
   style="overflow:hidden"
   inkscape:version="0.92.2 (5c3e80d, 2017-08-06)"
   sodipodi:docname="myope_mag_2.svg"
   viewBox="0 0 363.05334 492.625">
  <sodipodi:namedview
     pagecolor="#ffffff"
     bordercolor="#666666"
     borderopacity="1"
     objecttolerance="10"
     gridtolerance="10"
     guidetolerance="10"
     inkscape:pageopacity="0"
     inkscape:pageshadow="2"
     inkscape:window-width="1097"
     inkscape:window-height="668"
     id="namedview40"
     showgrid="false"
     inkscape:zoom="1.84"
     inkscape:cx="61.46282"
     inkscape:cy="419.49284"
     inkscape:window-x="-8"
     inkscape:window-y="-8"
     inkscape:window-maximized="1"
     inkscape:current-layer="SvgjsSvg1000"
     fit-margin-top="0"
     fit-margin-left="0"
     fit-margin-right="0"
     fit-margin-bottom="0" />
  <metadata
     id="metadata8">
    <rdf:RDF>
      <cc:Work
         rdf:about="">
        <dc:format>image/svg+xml</dc:format>
        <dc:type
           rdf:resource="http://purl.org/dc/dcmitype/StillImage" />
        <dc:title></dc:title>
      </cc:Work>
    </rdf:RDF>
  </metadata>
  <defs
     id="SvgjsDefs1001">
    <marker
       refX="0"
       refY="0"
       orient="auto"
       id="Arrow2Mend"
       style="overflow:visible">
      <path
         d="M 8.7185878,4.0337352 -2.2072895,0.01601326 8.7185884,-4.0017078 c -1.7454984,2.3720609 -1.7354408,5.6174519 -6e-7,8.035443 z"
         transform="scale(-0.6)"
         id="path3787"
         style="fill-rule:evenodd;stroke-width:0.625;stroke-linejoin:round"
         inkscape:connector-curvature="0" />
    </marker>
    <marker
       refX="0"
       refY="0"
       orient="auto"
       id="Arrow2Mstart"
       style="overflow:visible">
      <path
         d="M 8.7185878,4.0337352 -2.2072895,0.01601326 8.7185884,-4.0017078 c -1.7454984,2.3720609 -1.7354408,5.6174519 -6e-7,8.035443 z"
         transform="scale(0.6)"
         id="path3784"
         style="fill-rule:evenodd;stroke-width:0.625;stroke-linejoin:round"
         inkscape:connector-curvature="0" />
    </marker>
    <marker
       refX="0"
       refY="0"
       orient="auto"
       id="Arrow2Mstart-1"
       style="overflow:visible">
      <path
         d="M 8.7185878,4.0337352 -2.2072895,0.01601326 8.7185884,-4.0017078 c -1.7454984,2.3720609 -1.7354408,5.6174519 -6e-7,8.035443 z"
         transform="scale(0.6)"
         id="path3784-7"
         style="fill-rule:evenodd;stroke-width:0.625;stroke-linejoin:round"
         inkscape:connector-curvature="0" />
    </marker>
    <marker
       refX="0"
       refY="0"
       orient="auto"
       id="Arrow2Mend-4"
       style="overflow:visible">
      <path
         d="M 8.7185878,4.0337352 -2.2072895,0.01601326 8.7185884,-4.0017078 c -1.7454984,2.3720609 -1.7354408,5.6174519 -6e-7,8.035443 z"
         transform="scale(-0.6)"
         id="path3787-0"
         style="fill-rule:evenodd;stroke-width:0.625;stroke-linejoin:round"
         inkscape:connector-curvature="0" />
    </marker>
    <marker
       refX="0"
       refY="0"
       orient="auto"
       id="Arrow2Mstart-1-7"
       style="overflow:visible">
      <path
         d="M 8.7185878,4.0337352 -2.2072895,0.01601326 8.7185884,-4.0017078 c -1.7454984,2.3720609 -1.7354408,5.6174519 -6e-7,8.035443 z"
         transform="scale(0.6)"
         id="path3784-7-4"
         style="fill-rule:evenodd;stroke-width:0.625;stroke-linejoin:round"
         inkscape:connector-curvature="0" />
    </marker>
    <marker
       refX="0"
       refY="0"
       orient="auto"
       id="Arrow2Mend-4-0"
       style="overflow:visible">
      <path
         d="M 8.7185878,4.0337352 -2.2072895,0.01601326 8.7185884,-4.0017078 c -1.7454984,2.3720609 -1.7354408,5.6174519 -6e-7,8.035443 z"
         transform="scale(-0.6)"
         id="path3787-0-9"
         style="fill-rule:evenodd;stroke-width:0.625;stroke-linejoin:round"
         inkscape:connector-curvature="0" />
    </marker>
    <marker
       refX="0"
       refY="0"
       orient="auto"
       id="marker4666"
       style="overflow:visible">
      <path
         d="M 8.7185878,4.0337352 -2.2072895,0.01601326 8.7185884,-4.0017078 c -1.7454984,2.3720609 -1.7354408,5.6174519 -6e-7,8.035443 z"
         transform="scale(-0.6)"
         id="path4668"
         style="fill-rule:evenodd;stroke-width:0.625;stroke-linejoin:round"
         inkscape:connector-curvature="0" />
    </marker>
    <marker
       refX="0"
       refY="0"
       orient="auto"
       id="marker4670"
       style="overflow:visible">
      <path
         d="M 8.7185878,4.0337352 -2.2072895,0.01601326 8.7185884,-4.0017078 c -1.7454984,2.3720609 -1.7354408,5.6174519 -6e-7,8.035443 z"
         transform="scale(0.6)"
         id="path4672"
         style="fill-rule:evenodd;stroke-width:0.625;stroke-linejoin:round"
         inkscape:connector-curvature="0" />
    </marker>
    <marker
       refX="0"
       refY="0"
       orient="auto"
       id="Arrow2Mend-4-1"
       style="overflow:visible">
      <path
         d="M 8.7185878,4.0337352 -2.2072895,0.01601326 8.7185884,-4.0017078 c -1.7454984,2.3720609 -1.7354408,5.6174519 -6e-7,8.035443 z"
         transform="scale(-0.6)"
         id="path3787-0-7"
         style="fill-rule:evenodd;stroke-width:0.625;stroke-linejoin:round"
         inkscape:connector-curvature="0" />
    </marker>
    <marker
       refX="0"
       refY="0"
       orient="auto"
       id="marker4775"
       style="overflow:visible">
      <path
         d="M 8.7185878,4.0337352 -2.2072895,0.01601326 8.7185884,-4.0017078 c -1.7454984,2.3720609 -1.7354408,5.6174519 -6e-7,8.035443 z"
         transform="scale(-0.6)"
         id="path4777"
         style="fill-rule:evenodd;stroke-width:0.625;stroke-linejoin:round"
         inkscape:connector-curvature="0" />
    </marker>
    <marker
       refX="0"
       refY="0"
       orient="auto"
       id="Arrow2Mend-1"
       style="overflow:visible">
      <path
         inkscape:connector-curvature="0"
         d="M 8.7185878,4.0337352 -2.2072895,0.01601326 8.7185884,-4.0017078 c -1.7454984,2.3720609 -1.7354408,5.6174519 -6e-7,8.035443 z"
         transform="scale(-0.6)"
         id="path3787-7"
         style="fill-rule:evenodd;stroke-width:0.625;stroke-linejoin:round" />
    </marker>
    <marker
       refX="0"
       refY="0"
       orient="auto"
       id="marker4300"
       style="overflow:visible">
      <path
         inkscape:connector-curvature="0"
         d="M 8.7185878,4.0337352 -2.2072895,0.01601326 8.7185884,-4.0017078 c -1.7454984,2.3720609 -1.7354408,5.6174519 -6e-7,8.035443 z"
         transform="scale(-0.6)"
         id="path4302"
         style="fill-rule:evenodd;stroke-width:0.625;stroke-linejoin:round" />
    </marker>
    <marker
       refX="0"
       refY="0"
       orient="auto"
       id="Arrow2Mstart-4"
       style="overflow:visible">
      <path
         inkscape:connector-curvature="0"
         d="M 8.7185878,4.0337352 -2.2072895,0.01601326 8.7185884,-4.0017078 c -1.7454984,2.3720609 -1.7354408,5.6174519 -6e-7,8.035443 z"
         transform="scale(0.6)"
         id="path3784-8"
         style="fill-rule:evenodd;stroke-width:0.625;stroke-linejoin:round" />
    </marker>
    <marker
       refX="0"
       refY="0"
       orient="auto"
       id="Arrow2Mstart-2"
       style="overflow:visible">
      <path
         d="M 8.7185878,4.0337352 -2.2072895,0.01601326 8.7185884,-4.0017078 c -1.7454984,2.3720609 -1.7354408,5.6174519 -6e-7,8.035443 z"
         transform="scale(0.6)"
         id="path3784-4"
         style="fill-rule:evenodd;stroke-width:0.625;stroke-linejoin:round"
         inkscape:connector-curvature="0" />
    </marker>
    <marker
       refX="0"
       refY="0"
       orient="auto"
       id="Arrow2Mend-5"
       style="overflow:visible">
      <path
         d="M 8.7185878,4.0337352 -2.2072895,0.01601326 8.7185884,-4.0017078 c -1.7454984,2.3720609 -1.7354408,5.6174519 -6e-7,8.035443 z"
         transform="scale(-0.6)"
         id="path3787-5"
         style="fill-rule:evenodd;stroke-width:0.625;stroke-linejoin:round"
         inkscape:connector-curvature="0" />
    </marker>
    <marker
       refX="0"
       refY="0"
       orient="auto"
       id="marker4789"
       style="overflow:visible">
      <path
         d="M 8.7185878,4.0337352 -2.2072895,0.01601326 8.7185884,-4.0017078 c -1.7454984,2.3720609 -1.7354408,5.6174519 -6e-7,8.035443 z"
         transform="scale(-0.6)"
         id="path4791"
         style="fill-rule:evenodd;stroke-width:0.625;stroke-linejoin:round"
         inkscape:connector-curvature="0" />
    </marker>
    <marker
       refX="0"
       refY="0"
       orient="auto"
       id="marker4793"
       style="overflow:visible">
      <path
         d="M 8.7185878,4.0337352 -2.2072895,0.01601326 8.7185884,-4.0017078 c -1.7454984,2.3720609 -1.7354408,5.6174519 -6e-7,8.035443 z"
         transform="scale(-0.6)"
         id="path4795"
         style="fill-rule:evenodd;stroke-width:0.625;stroke-linejoin:round"
         inkscape:connector-curvature="0" />
    </marker>
    <marker
       refX="0"
       refY="0"
       orient="auto"
       id="marker4797"
       style="overflow:visible">
      <path
         d="M 8.7185878,4.0337352 -2.2072895,0.01601326 8.7185884,-4.0017078 c -1.7454984,2.3720609 -1.7354408,5.6174519 -6e-7,8.035443 z"
         transform="scale(-0.6)"
         id="path4799"
         style="fill-rule:evenodd;stroke-width:0.625;stroke-linejoin:round"
         inkscape:connector-curvature="0" />
    </marker>
    <marker
       refX="0"
       refY="0"
       orient="auto"
       id="marker4801"
       style="overflow:visible">
      <path
         d="M 8.7185878,4.0337352 -2.2072895,0.01601326 8.7185884,-4.0017078 c -1.7454984,2.3720609 -1.7354408,5.6174519 -6e-7,8.035443 z"
         transform="scale(0.6)"
         id="path4803"
         style="fill-rule:evenodd;stroke-width:0.625;stroke-linejoin:round"
         inkscape:connector-curvature="0" />
    </marker>
  </defs>
  <g
     id="g3119"
     transform="translate(-78.875,39.445831)">
    <path
       inkscape:connector-curvature="0"
       style="overflow:hidden;fill:none;stroke:#000000;stroke-width:1;stroke-opacity:1"
       id="path3073-4"
       d="m 296.88833,45.05 c -9.16522,7.25295 -15.0525,18.45454 -15.0525,31.05 0,12.59547 5.88728,23.79705 15.0525,31.05" />
    <path
       inkscape:connector-curvature="0"
       style="overflow:hidden;fill:none;stroke:#000000;stroke-width:1;stroke-miterlimit:4;stroke-dasharray:none;stroke-dashoffset:0;stroke-opacity:1"
       id="SvgjsEllipse1002-8"
       d="m 296.88833,107.15 c 11.84679,26.26828 38.25278,44.55 68.94,44.55 41.75273,0 75.6,-33.84727 75.6,-75.6 0,-41.75273 -33.84727,-75.6 -75.6,-75.6 -30.68722,0 -57.09321,18.28172 -68.94,44.55" />
  </g>
  <g
     transform="matrix(1,0,0,1.3809524,-153.29566,-298.73989)"
     style="overflow:hidden;stroke:#000000;stroke-width:3.14856291;stroke-miterlimit:4;stroke-dasharray:none"
     id="SvgjsG2312"
     optics_type="thinlens">
    <polyline
       style="fill:none;stroke-width:3.14856291;stroke-miterlimit:4;stroke-dasharray:none"
       id="SvgjsPolyline2313"
       points="230,336 230,264" />
    <polyline
       style="fill:none;stroke:#000000;stroke-width:3.14856291;stroke-miterlimit:4;stroke-dasharray:none"
       id="SvgjsPolyline2314"
       points="233.53553390593274,339.5355339059327 230,336 226.46446609406726,339.53553390593277" />
    <polyline
       style="fill:none;stroke:#000000;stroke-width:3.14856291;stroke-miterlimit:4;stroke-dasharray:none"
       id="SvgjsPolyline2315"
       points="226.46446609406726,260.4644660940673 230,264 233.53553390593274,260.4644660940673" />
    <polyline
       style="visibility:hidden;opacity:0;fill:none;stroke:#000000;stroke-width:3.14856291;stroke-miterlimit:4;stroke-dasharray:none"
       id="SvgjsPolyline2316"
       points="230,336 230,264"
       visibility="hidden"
       pointer-events="all" />
  </g>
  <g
     style="font-style:normal;font-variant:normal;font-weight:normal;font-stretch:normal;font-size:14px;line-height:125%;font-family:Cambria;-inkscape-font-specification:Cambria;letter-spacing:0px;word-spacing:0px;fill:#000000;fill-opacity:1;stroke:none"
     id="text3242"
     transform="translate(-48.215038,-21.032086)">
    <path
       d="m 302.27353,43.899895 0.0957,0.02734 c 0.27344,-0.273431 0.49788,-0.479649 0.67334,-0.618652 0.17545,-0.138991 0.34521,-0.250645 0.50928,-0.334961 0.16406,-0.0843 0.31787,-0.144687 0.46143,-0.181152 0.14355,-0.03645 0.29052,-0.05468 0.44091,-0.05469 0.45573,7e-6 0.82715,0.104825 1.11426,0.314453 0.2871,0.209642 0.48535,0.530931 0.59473,0.963868 0.34179,-0.346349 0.61864,-0.601557 0.83056,-0.765625 0.21191,-0.164057 0.42838,-0.290521 0.64942,-0.379395 0.22102,-0.08886 0.45914,-0.133294 0.71435,-0.133301 0.30533,7e-6 0.56852,0.04444 0.78955,0.133301 0.22102,0.08887 0.40787,0.225592 0.56055,0.410156 0.15266,0.184577 0.26431,0.415859 0.33496,0.693848 0.0706,0.278 0.10595,0.651697 0.10596,1.121094 v 2.577148 c -10e-6,0.346356 0.0114,0.585613 0.0342,0.717774 0.0228,0.132162 0.0558,0.234701 0.0991,0.307617 0.0433,0.07292 0.10822,0.13558 0.19482,0.187988 0.0866,0.05241 0.23241,0.105958 0.4375,0.160645 v 0.334961 h -2.68652 v -0.334961 c 0.17773,-0.05469 0.30533,-0.102539 0.38281,-0.143555 0.0775,-0.04102 0.14241,-0.09798 0.19483,-0.170898 0.0524,-0.07292 0.0934,-0.185709 0.12304,-0.338379 0.0296,-0.152669 0.0444,-0.383951 0.0444,-0.693848 v -1.791016 c -1e-5,-0.387366 -0.0103,-0.707515 -0.0308,-0.960449 -0.0205,-0.252925 -0.0524,-0.454585 -0.0957,-0.60498 -0.0433,-0.150386 -0.0957,-0.268875 -0.15722,-0.355469 -0.0615,-0.08658 -0.13103,-0.161778 -0.2085,-0.225586 -0.0775,-0.0638 -0.16863,-0.113927 -0.27344,-0.150391 -0.10482,-0.03645 -0.24382,-0.05468 -0.41699,-0.05469 -0.1823,6e-6 -0.35206,0.03646 -0.50928,0.109375 -0.15723,0.07292 -0.32813,0.195969 -0.51269,0.36914 -0.18458,0.173183 -0.31788,0.347499 -0.3999,0.52295 -0.082,0.17546 -0.12306,0.381677 -0.12305,0.618652 v 2.495117 c -10e-6,0.346356 0.0114,0.585613 0.0342,0.717774 0.0228,0.132162 0.0558,0.234701 0.0991,0.307617 0.0433,0.07292 0.10823,0.13558 0.19482,0.187988 0.0866,0.05241 0.23242,0.105958 0.4375,0.160645 v 0.334961 h -2.68652 v -0.334961 c 0.17773,-0.05469 0.30533,-0.102539 0.38281,-0.143555 0.0775,-0.04102 0.14241,-0.09798 0.19483,-0.170898 0.0524,-0.07292 0.0934,-0.185709 0.12304,-0.338379 0.0296,-0.152669 0.0444,-0.383951 0.0444,-0.693848 v -1.791016 c -1e-5,-0.405595 -0.0114,-0.735998 -0.0342,-0.991211 -0.0228,-0.255203 -0.0581,-0.460281 -0.10596,-0.615234 -0.0479,-0.154943 -0.10938,-0.280268 -0.18457,-0.375977 -0.0752,-0.0957 -0.15153,-0.168614 -0.229,-0.21875 -0.0775,-0.05012 -0.16863,-0.08772 -0.27344,-0.112793 -0.10482,-0.02506 -0.22331,-0.03759 -0.35547,-0.0376 -0.18685,6e-6 -0.36231,0.04216 -0.52637,0.126465 -0.16406,0.08432 -0.33154,0.206223 -0.50244,0.365722 -0.1709,0.159511 -0.29964,0.325852 -0.38623,0.499024 -0.0866,0.173182 -0.12988,0.36003 -0.12988,0.560547 v 2.563476 c 0,0.259767 0.007,0.458009 0.0205,0.594727 0.0137,0.13672 0.0353,0.243816 0.0649,0.321289 0.0296,0.07747 0.0672,0.140137 0.11279,0.187988 0.0456,0.04785 0.11051,0.09343 0.19482,0.136719 0.0843,0.0433 0.21078,0.08773 0.3794,0.133301 v 0.334961 h -2.67969 v -0.334961 c 0.17318,-0.05469 0.29736,-0.102539 0.37256,-0.143555 0.0752,-0.04102 0.14014,-0.09798 0.19482,-0.170898 0.0547,-0.07292 0.0957,-0.18457 0.12305,-0.334961 0.0273,-0.15039 0.041,-0.38509 0.041,-0.704102 V 44.71336 c 0,-0.291661 -0.005,-0.526362 -0.0137,-0.704101 -0.009,-0.177729 -0.041,-0.320144 -0.0957,-0.427246 -0.0547,-0.107091 -0.13786,-0.186843 -0.24951,-0.239258 -0.11165,-0.0524 -0.27002,-0.09684 -0.4751,-0.133301 v -0.362305 l 1.59961,-0.06152 h 0.41699 z"
       id="path3276"
       inkscape:connector-curvature="0" />
    <path
       d="m 314.96786,49.942863 c -0.25065,0.565104 -0.49446,1.023111 -0.73144,1.374024 -0.23698,0.350909 -0.49789,0.615232 -0.78272,0.792969 -0.28483,0.177731 -0.62321,0.266598 -1.01513,0.266601 -0.25065,-3e-6 -0.53321,-0.02963 -0.84766,-0.08887 v -1.353516 h 0.6084 c 0.0547,0.186848 0.12305,0.31673 0.20508,0.389649 0.082,0.07291 0.20052,0.109373 0.35547,0.109375 0.13671,-2e-6 0.25862,-0.02621 0.36572,-0.07861 0.10709,-0.05241 0.21875,-0.142418 0.33496,-0.27002 0.11621,-0.127606 0.25293,-0.323569 0.41016,-0.587891 0.15722,-0.264323 0.33382,-0.599284 0.52978,-1.004882 l -1.91406,-5.147461 c -0.12305,-0.332677 -0.22217,-0.565099 -0.29736,-0.697266 -0.0752,-0.132156 -0.15609,-0.232416 -0.24268,-0.300781 -0.0866,-0.06835 -0.21875,-0.123041 -0.39648,-0.164063 V 42.84716 h 2.78222 v 0.334961 c -0.21419,0.05014 -0.36458,0.09913 -0.45117,0.146973 -0.0866,0.04786 -0.15039,0.109381 -0.19141,0.18457 -0.041,0.0752 -0.0615,0.172044 -0.0615,0.290528 0,0.123052 0.0148,0.250656 0.0444,0.382812 0.0296,0.132167 0.0763,0.287114 0.14014,0.464844 l 1.2168,3.424805 1.36719,-3.28125 c 0.0775,-0.182287 0.13785,-0.349768 0.18115,-0.502442 0.0433,-0.152664 0.0649,-0.295079 0.0649,-0.427246 -1e-5,-0.195958 -0.0536,-0.34407 -0.16064,-0.444336 -0.10711,-0.100254 -0.29282,-0.180007 -0.55713,-0.239258 V 42.84716 h 2.55664 v 0.334961 c -0.17774,0.03646 -0.31446,0.09229 -0.41016,0.167481 -0.0957,0.0752 -0.19141,0.19369 -0.28711,0.355468 -0.0957,0.16179 -0.20964,0.388515 -0.3418,0.680176 z"
       id="path3278"
       inkscape:connector-curvature="0" />
    <path
       d="m 322.10458,49.491692 c -0.94792,-10e-7 -1.67138,-0.279134 -2.17041,-0.837403 -0.49902,-0.558267 -0.74853,-1.384275 -0.74853,-2.478027 0,-0.751949 0.13102,-1.387691 0.39306,-1.907227 0.26205,-0.519525 0.62093,-0.905755 1.07666,-1.158691 0.45573,-0.252923 0.97526,-0.379388 1.5586,-0.379395 0.97525,7e-6 1.71353,0.283698 2.21484,0.851075 0.5013,0.567388 0.75195,1.382003 0.75196,2.443847 -1e-5,0.756513 -0.12534,1.394533 -0.37598,1.914063 -0.25066,0.519532 -0.60613,0.908041 -1.06641,1.165527 -0.46029,0.257487 -1.00488,0.38623 -1.63379,0.386231 z m -1.62695,-3.458985 c 0,0.938805 0.14925,1.659995 0.44775,2.163574 0.2985,0.503582 0.72575,0.755372 1.28174,0.755372 0.30534,0 0.5651,-0.07406 0.7793,-0.222168 0.21419,-0.148112 0.3885,-0.347493 0.52295,-0.598145 0.13443,-0.25065 0.23128,-0.541177 0.29053,-0.871582 0.0592,-0.330401 0.0889,-0.675616 0.0889,-1.035645 0,-0.669918 -0.0741,-1.225907 -0.22216,-1.667968 -0.14812,-0.442052 -0.34978,-0.766759 -0.60499,-0.974121 -0.25521,-0.207351 -0.54687,-0.311029 -0.875,-0.311036 -0.55143,7e-6 -0.97412,0.239264 -1.26806,0.717774 -0.29395,0.47852 -0.44092,1.159835 -0.44092,2.043945 z"
       id="path3280"
       inkscape:connector-curvature="0" />
    <path
       d="m 328.42099,49.177238 v 1.442383 c 0,0.296223 0.0102,0.517251 0.0308,0.663086 0.0205,0.145832 0.057,0.260903 0.10938,0.345215 0.0524,0.08431 0.1276,0.153806 0.22558,0.208496 0.098,0.05468 0.25635,0.104815 0.4751,0.150391 v 0.334961 h -2.78906 v -0.334961 c 0.16406,-0.04558 0.29736,-0.09229 0.3999,-0.140137 0.10254,-0.04785 0.18115,-0.118492 0.23584,-0.211914 0.0547,-0.09343 0.0911,-0.219891 0.10937,-0.379395 0.0182,-0.159506 0.0274,-0.37142 0.0274,-0.635742 v -5.865234 c 0,-0.32812 -0.005,-0.561681 -0.0137,-0.700684 -0.009,-0.138992 -0.0274,-0.254063 -0.0547,-0.345215 -0.0274,-0.09114 -0.0672,-0.166335 -0.11963,-0.225585 -0.0524,-0.05924 -0.12305,-0.109369 -0.21191,-0.150391 -0.0889,-0.04101 -0.23584,-0.08203 -0.44092,-0.123047 V 42.84716 l 1.60644,-0.06152 h 0.417 l -0.0889,1.114258 0.10254,0.02734 c 0.28255,-0.287103 0.50585,-0.495599 0.66992,-0.625488 0.16406,-0.129876 0.33382,-0.238112 0.50928,-0.324707 0.17545,-0.08658 0.34407,-0.148105 0.50586,-0.18457 0.16178,-0.03645 0.33381,-0.05468 0.51611,-0.05469 0.75195,7e-6 1.32958,0.281419 1.73291,0.844239 0.40331,0.56283 0.60497,1.38656 0.60498,2.471191 -10e-6,0.751956 -0.11394,1.384279 -0.3418,1.896973 -0.22787,0.512696 -0.55941,0.897787 -0.99463,1.155273 -0.43522,0.257487 -0.95361,0.38623 -1.55517,0.386231 -0.33724,-10e-7 -0.64258,-0.02848 -0.91602,-0.08545 -0.27344,-0.05697 -0.52409,-0.1333 -0.75195,-0.229004 z m 0,-2.255859 c 0,0.437502 0.0273,0.774741 0.082,1.011719 0.0547,0.23698 0.15153,0.429526 0.29053,0.577637 0.13899,0.148112 0.30306,0.258626 0.49219,0.331543 0.18912,0.07292 0.43863,0.109375 0.74853,0.109375 0.55143,0 0.96614,-0.229004 1.24414,-0.687012 0.27799,-0.458006 0.41699,-1.133624 0.41699,-2.026856 0,-1.786453 -0.52181,-2.679681 -1.56543,-2.679687 -0.25521,6e-6 -0.4751,0.03988 -0.65966,0.119629 -0.18458,0.07976 -0.36801,0.208501 -0.5503,0.38623 -0.18229,0.17774 -0.31103,0.349777 -0.38623,0.516113 -0.0752,0.166346 -0.11279,0.34522 -0.11279,0.536622 z"
       id="path3282"
       inkscape:connector-curvature="0" />
    <path
       d="m 336.3165,40.167473 v 1.326172 h -1.25781 v -1.326172 z m -1.95508,8.879883 c 0.17773,-0.05469 0.3042,-0.102539 0.37939,-0.143555 0.0752,-0.04102 0.139,-0.09798 0.19141,-0.170898 0.0524,-0.07292 0.0934,-0.18457 0.12305,-0.334961 0.0296,-0.15039 0.0444,-0.38509 0.0444,-0.704102 v -2.980469 c 0,-0.291661 -0.005,-0.526362 -0.0137,-0.704101 -0.009,-0.177729 -0.041,-0.320144 -0.0957,-0.427246 -0.0547,-0.107091 -0.13786,-0.186843 -0.24952,-0.239258 -0.11165,-0.0524 -0.27002,-0.09684 -0.47509,-0.133301 V 42.84716 l 1.59277,-0.06152 h 0.41699 v 4.887695 c 0,0.391929 0.0182,0.664227 0.0547,0.816895 0.0365,0.15267 0.10595,0.268881 0.2085,0.348633 0.10253,0.07975 0.27001,0.149251 0.50244,0.208496 v 0.334961 h -2.67969 z"
       id="path3284"
       inkscape:connector-curvature="0" />
    <path
       d="m 343.33701,43.004387 v 1.428711 h -0.86817 c -0.0775,-0.296219 -0.17318,-0.52978 -0.28711,-0.700684 -0.11393,-0.170892 -0.2461,-0.290521 -0.39648,-0.358886 -0.1504,-0.06835 -0.33725,-0.102533 -0.56055,-0.10254 -0.31901,7e-6 -0.60156,0.102546 -0.84766,0.307618 -0.24609,0.205083 -0.44092,0.517258 -0.58447,0.936523 -0.14355,0.419275 -0.21533,0.93197 -0.21533,1.538086 0,0.387373 0.0273,0.741702 0.082,1.062988 0.0547,0.321291 0.14811,0.595868 0.28027,0.823731 0.13216,0.227866 0.30762,0.4056 0.52637,0.533203 0.21875,0.127605 0.48991,0.191407 0.81348,0.191406 0.31445,10e-7 0.60725,-0.06152 0.87842,-0.18457 0.27115,-0.123046 0.55256,-0.339517 0.84423,-0.649414 l 0.38965,0.451172 c -0.23242,0.255209 -0.4375,0.452311 -0.61523,0.591308 -0.17774,0.138998 -0.36801,0.255209 -0.5708,0.348633 -0.20281,0.09343 -0.40333,0.161784 -0.60156,0.205078 -0.19825,0.04329 -0.41358,0.06494 -0.646,0.06494 -0.86133,-10e-7 -1.51986,-0.28597 -1.97559,-0.857911 -0.45573,-0.571938 -0.68359,-1.397947 -0.68359,-2.478027 0,-0.674475 0.1276,-1.272619 0.38281,-1.794434 0.25521,-0.521804 0.61296,-0.923984 1.07324,-1.206542 0.46029,-0.282546 0.99121,-0.423822 1.59278,-0.423829 0.37369,7e-6 0.71891,0.02165 1.03564,0.06494 0.31673,0.0433 0.6346,0.112799 0.95362,0.208496 z"
       id="path3286"
       inkscape:connector-curvature="0" />
    <path
       d="m 352.97568,48.220207 c -0.29168,0.30534 -0.55942,0.544597 -0.80323,0.717774 -0.24382,0.173177 -0.51156,0.308756 -0.80322,0.406738 -0.29167,0.09798 -0.61296,0.146972 -0.96387,0.146973 -0.9388,-10e-7 -1.64746,-0.281413 -2.12597,-0.844239 -0.47852,-0.562824 -0.71778,-1.393389 -0.71778,-2.491699 0,-0.679032 0.12191,-1.278316 0.36573,-1.797851 0.24381,-0.519526 0.5913,-0.920567 1.04248,-1.203125 0.45117,-0.282546 0.9707,-0.423822 1.55859,-0.423829 0.46028,7e-6 0.85221,0.07292 1.17578,0.21875 0.32357,0.14584 0.58219,0.345221 0.77588,0.598145 0.19368,0.252935 0.34407,0.571945 0.45117,0.957031 0.10709,0.385096 0.16748,0.887537 0.18116,1.507324 h -4.30664 v 0.123047 c -1e-5,0.537763 0.0604,0.990074 0.18115,1.356934 0.12076,0.366863 0.31901,0.653972 0.59472,0.861328 0.27572,0.207358 0.6346,0.311036 1.07666,0.311035 0.3737,10e-7 0.7098,-0.0695 1.00831,-0.208496 0.29849,-0.138996 0.59586,-0.365721 0.89209,-0.680176 z m -1.14844,-2.77539 c -0.0274,-0.492183 -0.0889,-0.894364 -0.18457,-1.206543 -0.0957,-0.312169 -0.23926,-0.551427 -0.43066,-0.717774 -0.19141,-0.166335 -0.44207,-0.249505 -0.75196,-0.249512 -0.4694,7e-6 -0.84424,0.187995 -1.12451,0.563965 -0.28027,0.375982 -0.44548,0.912603 -0.4956,1.609864 z"
       id="path3288"
       inkscape:connector-curvature="0" />
    <path
       d="m 357.2413,49.942863 c -0.25065,0.565104 -0.49447,1.023111 -0.73144,1.374024 -0.23698,0.350909 -0.49789,0.615232 -0.78272,0.792969 -0.28483,0.177731 -0.62321,0.266598 -1.01513,0.266601 -0.25066,-3e-6 -0.53321,-0.02963 -0.84766,-0.08887 v -1.353516 h 0.6084 c 0.0547,0.186848 0.12304,0.31673 0.20508,0.389649 0.082,0.07291 0.20052,0.109373 0.35546,0.109375 0.13672,-2e-6 0.25863,-0.02621 0.36573,-0.07861 0.10709,-0.05241 0.21875,-0.142418 0.33496,-0.27002 0.11621,-0.127606 0.25293,-0.323569 0.41015,-0.587891 0.15723,-0.264323 0.33382,-0.599284 0.52979,-1.004882 l -1.91406,-5.147461 c -0.12305,-0.332677 -0.22217,-0.565099 -0.29737,-0.697266 -0.0752,-0.132156 -0.15608,-0.232416 -0.24267,-0.300781 -0.0866,-0.06835 -0.21875,-0.123041 -0.39649,-0.164063 V 42.84716 h 2.78223 v 0.334961 c -0.2142,0.05014 -0.36459,0.09913 -0.45117,0.146973 -0.0866,0.04786 -0.15039,0.109381 -0.19141,0.18457 -0.041,0.0752 -0.0615,0.172044 -0.0615,0.290528 0,0.123052 0.0148,0.250656 0.0444,0.382812 0.0296,0.132167 0.0763,0.287114 0.14014,0.464844 l 1.2168,3.424805 1.36718,-3.28125 c 0.0775,-0.182287 0.13786,-0.349768 0.18116,-0.502442 0.0433,-0.152664 0.0649,-0.295079 0.0649,-0.427246 -1e-5,-0.195958 -0.0536,-0.34407 -0.16065,-0.444336 -0.1071,-0.100254 -0.29281,-0.180007 -0.55713,-0.239258 V 42.84716 h 2.55664 v 0.334961 c -0.17774,0.03646 -0.31446,0.09229 -0.41015,0.167481 -0.0957,0.0752 -0.19141,0.19369 -0.28711,0.355468 -0.0957,0.16179 -0.20964,0.388515 -0.3418,0.680176 z"
       id="path3290"
       inkscape:connector-curvature="0" />
    <path
       d="m 366.8663,48.220207 c -0.29167,0.30534 -0.55941,0.544597 -0.80322,0.717774 -0.24382,0.173177 -0.51156,0.308756 -0.80322,0.406738 -0.29167,0.09798 -0.61296,0.146972 -0.96387,0.146973 -0.9388,-10e-7 -1.64746,-0.281413 -2.12598,-0.844239 -0.47851,-0.562824 -0.71777,-1.393389 -0.71777,-2.491699 0,-0.679032 0.12191,-1.278316 0.36572,-1.797851 0.24382,-0.519526 0.59131,-0.920567 1.04248,-1.203125 0.45117,-0.282546 0.9707,-0.423822 1.5586,-0.423829 0.46028,7e-6 0.85221,0.07292 1.17578,0.21875 0.32356,0.14584 0.58219,0.345221 0.77588,0.598145 0.19368,0.252935 0.34407,0.571945 0.45117,0.957031 0.10709,0.385096 0.16747,0.887537 0.18115,1.507324 h -4.30664 v 0.123047 c 0,0.537763 0.0604,0.990074 0.18115,1.356934 0.12077,0.366863 0.31901,0.653972 0.59473,0.861328 0.27571,0.207358 0.6346,0.311036 1.07666,0.311035 0.37369,10e-7 0.70979,-0.0695 1.0083,-0.208496 0.2985,-0.138996 0.59586,-0.365721 0.89209,-0.680176 z m -1.14844,-2.77539 c -0.0273,-0.492183 -0.0889,-0.894364 -0.18457,-1.206543 -0.0957,-0.312169 -0.23926,-0.551427 -0.43066,-0.717774 -0.19141,-0.166335 -0.44206,-0.249505 -0.75195,-0.249512 -0.46941,7e-6 -0.84424,0.187995 -1.12451,0.563965 -0.28028,0.375982 -0.44548,0.912603 -0.49561,1.609864 z"
       id="path3292"
       inkscape:connector-curvature="0" />
  </g>
  <path
     style="fill:none;stroke:#000000;stroke-width:1px;stroke-linecap:butt;stroke-linejoin:miter;stroke-opacity:1;marker-mid:url(#Arrow2Mstart-1-7)"
     d="M 202.375,115.5 133.64797,91.683701 76.125,71.75"
     id="path4227"
     inkscape:connector-curvature="0"
     sodipodi:nodetypes="ccc" />
  <path
     style="fill:none;stroke:#000000;stroke-width:1px;stroke-linecap:butt;stroke-linejoin:miter;stroke-opacity:1;marker-mid:url(#Arrow2Mend-4-0)"
     d="M 0.5,0.5 37.80713,35.666561 76.75,72.375"
     id="path4229"
     inkscape:connector-curvature="0"
     sodipodi:nodetypes="ccc" />
  <path
     sodipodi:nodetypes="ccc"
     inkscape:connector-curvature="0"
     id="path4676"
     d="M 203,115.125 134.27297,138.9413 76.75,158.875"
     style="fill:none;stroke:#000000;stroke-width:1px;stroke-linecap:butt;stroke-linejoin:miter;stroke-opacity:1;marker-mid:url(#Arrow2Mstart-1-7)" />
  <path
     sodipodi:nodetypes="ccc"
     inkscape:connector-curvature="0"
     id="path4678"
     d="M 1.125,230.125 38.43213,194.95844 77.375,158.25"
     style="fill:none;stroke:#000000;stroke-width:1px;stroke-linecap:butt;stroke-linejoin:miter;stroke-opacity:1;marker-mid:url(#Arrow2Mend-4-0)" />
  <path
     sodipodi:type="arc"
     style="fill:none;stroke:#000000;stroke-width:1;stroke-linejoin:bevel;stroke-miterlimit:4;stroke-dasharray:none;stroke-dashoffset:0;stroke-opacity:1"
     id="path4682"
     sodipodi:cx="280.625"
     sodipodi:cy="128.05417"
     sodipodi:rx="52.5"
     sodipodi:ry="52.5"
     d="m 230.95139,145.04777 a 52.5,52.5 0 0 1 0.48215,-35.33618"
     sodipodi:start="2.8119682"
     sodipodi:end="3.4985046"
     sodipodi:open="true"
     transform="translate(-78.875,-12.554169)" />
  <text
     id="text4706"
     y="117.375"
     x="158"
     style="font-style:normal;font-variant:normal;font-weight:normal;font-stretch:normal;line-height:0%;font-family:'Times New Roman';-inkscape-font-specification:'Times New Roman';letter-spacing:0px;word-spacing:0px;fill:#000000;fill-opacity:1;stroke:none"
     xml:space="preserve"><tspan
       y="117.375"
       x="158"
       id="tspan4708"
       sodipodi:role="line"
       style="font-size:12px;line-height:1.25">α</tspan></text>
  <text
     xml:space="preserve"
     style="font-style:normal;font-variant:normal;font-weight:normal;font-stretch:normal;line-height:0%;font-family:'Times New Roman';-inkscape-font-specification:'Times New Roman';letter-spacing:0px;word-spacing:0px;fill:#000000;fill-opacity:1;stroke:none"
     x="136.125"
     y="50.625"
     id="text4710"><tspan
       sodipodi:role="line"
       id="tspan4712"
       x="136.125"
       y="50.625"
       style="font-style:italic;font-size:14px;line-height:1.25;-inkscape-font-specification:'Times New Roman, Italic'">d</tspan></text>
  <text
     xml:space="preserve"
     style="font-style:italic;font-variant:normal;font-weight:normal;font-stretch:normal;line-height:0%;font-family:'Times New Roman';-inkscape-font-specification:'Times New Roman, Italic';text-align:start;letter-spacing:0px;word-spacing:0px;writing-mode:lr-tb;text-anchor:start;fill:#000000;fill-opacity:1;stroke:none"
     x="52.375"
     y="122.375"
     id="text4718"><tspan
       sodipodi:role="line"
       id="tspan4720"
       x="52.375"
       y="122.375"
       style="font-size:14px;line-height:1.25">h</tspan></text>
  <text
     xml:space="preserve"
     style="font-style:normal;font-variant:normal;font-weight:normal;font-stretch:normal;line-height:0%;font-family:'Times New Roman';-inkscape-font-specification:'Times New Roman';text-align:start;letter-spacing:0px;word-spacing:0px;writing-mode:lr-tb;text-anchor:start;fill:#000000;fill-opacity:1;stroke:none"
     x="74.25"
     y="50.5"
     id="text4722"><tspan
       sodipodi:role="line"
       id="tspan4724"
       x="74.25"
       y="50.5"
       style="font-style:italic;font-size:14px;line-height:1.25;-inkscape-font-specification:'Times New Roman, Italic'">F</tspan></text>
  <path
     style="fill:none;stroke:#000000;stroke-width:1px;stroke-linecap:butt;stroke-linejoin:miter;stroke-opacity:1;marker-start:url(#Arrow2Mstart-1)"
     d="M 201.75,58.125001 H 78"
     id="path5166"
     inkscape:connector-curvature="0" />
  <path
     style="fill:none;stroke:#000000;stroke-width:1px;stroke-linecap:butt;stroke-linejoin:miter;stroke-opacity:1;marker-start:url(#Arrow2Mstart-1);marker-end:url(#Arrow2Mend-4)"
     d="M 68.125,72.375 V 158"
     id="path5386"
     inkscape:connector-curvature="0" />
  <g
     transform="translate(-159.5,301.44583)"
     id="g5871">
    <path
       d="m 296.88833,45.05 c -9.16522,7.25295 -15.0525,18.45454 -15.0525,31.05 0,12.59547 5.88728,23.79705 15.0525,31.05"
       id="path5873"
       style="overflow:hidden;fill:none;stroke:#000000;stroke-width:1;stroke-opacity:1"
       inkscape:connector-curvature="0" />
    <path
       d="m 296.88833,107.15 c 11.84679,26.26828 38.25278,44.55 68.94,44.55 41.75273,0 75.6,-33.84727 75.6,-75.6 0,-41.75273 -33.84727,-75.6 -75.6,-75.6 -30.68722,0 -57.09321,18.28172 -68.94,44.55"
       id="path5875"
       style="overflow:hidden;fill:none;stroke:#000000;stroke-width:1;stroke-miterlimit:4;stroke-dasharray:none;stroke-dashoffset:0;stroke-opacity:1"
       inkscape:connector-curvature="0" />
  </g>
  <g
     optics_type="thinlens"
     id="g5877"
     style="overflow:hidden;stroke:#000000;stroke-width:3.14856288;stroke-miterlimit:4;stroke-dasharray:3.14856288,3.14856288;stroke-dashoffset:0"
     transform="matrix(1,0,0,1.3809524,-153.29566,-36.739889)">
    <polyline
       points="230,336 230,264"
       id="polyline5879"
       style="fill:none;stroke-width:3.14856288;stroke-miterlimit:4;stroke-dasharray:3.14856288,3.14856288;stroke-dashoffset:0" />
    <polyline
       points="233.53553390593274,339.5355339059327 230,336 226.46446609406726,339.53553390593277"
       id="polyline5881"
       style="fill:none;stroke:#000000;stroke-width:3.14856288;stroke-miterlimit:4;stroke-dasharray:3.14856288,3.14856288;stroke-dashoffset:0" />
    <polyline
       points="226.46446609406726,260.4644660940673 230,264 233.53553390593274,260.4644660940673"
       id="polyline5883"
       style="fill:none;stroke:#000000;stroke-width:3.14856288;stroke-miterlimit:4;stroke-dasharray:3.14856288,3.14856288;stroke-dashoffset:0" />
    <polyline
       pointer-events="all"
       visibility="hidden"
       points="230,336 230,264"
       id="polyline5885"
       style="visibility:hidden;opacity:0;fill:none;stroke:#000000;stroke-width:3.14856288;stroke-miterlimit:4;stroke-dasharray:3.14856288,3.14856288;stroke-dashoffset:0" />
  </g>
  <path
     sodipodi:nodetypes="ccc"
     inkscape:connector-curvature="0"
     id="path5911"
     d="M 0.5,262.5 37.80713,297.66656 76.75,334.375"
     style="fill:none;stroke:#000000;stroke-width:1px;stroke-linecap:butt;stroke-linejoin:miter;stroke-opacity:1;marker-mid:url(#Arrow2Mend-4-0)" />
  <path
     inkscape:connector-curvature="0"
     id="path5913"
     d="m 76.22316,334.375 45.52684,42.5"
     style="fill:none;stroke:#000000;stroke-width:1.00031241;stroke-linecap:butt;stroke-linejoin:miter;stroke-miterlimit:4;stroke-dasharray:none;stroke-dashoffset:0;stroke-opacity:1" />
  <path
     style="fill:none;stroke:#000000;stroke-width:1px;stroke-linecap:butt;stroke-linejoin:miter;stroke-opacity:1;marker-mid:url(#Arrow2Mend-4-0)"
     d="M 1.125,492.125 38.43213,456.95844 77.375,420.25"
     id="path5919"
     inkscape:connector-curvature="0"
     sodipodi:nodetypes="ccc" />
  <path
     style="fill:none;stroke:#000000;stroke-width:0.99999993;stroke-linecap:butt;stroke-linejoin:miter;stroke-miterlimit:4;stroke-dasharray:none;stroke-dashoffset:0;stroke-opacity:1"
     d="M 76.84816,420.25 122.375,377.75"
     id="path5921"
     inkscape:connector-curvature="0" />
  <path
     sodipodi:open="true"
     sodipodi:end="3.8757575"
     sodipodi:start="2.419548"
     d="m 171.23176,154.49099 a 40,40 0 0 1 0.32262,-53.23552"
     sodipodi:ry="40"
     sodipodi:rx="40"
     sodipodi:cy="128.05417"
     sodipodi:cx="201.25"
     id="path5925"
     style="fill:none;stroke:#000000;stroke-width:1;stroke-linejoin:bevel;stroke-miterlimit:4;stroke-dasharray:3, 1;stroke-dashoffset:0;stroke-opacity:1"
     sodipodi:type="arc"
     transform="translate(-78.875,249.44583)" />
  <text
     id="text5927"
     y="381.875"
     x="86.125"
     style="font-style:normal;font-variant:normal;font-weight:normal;font-stretch:normal;line-height:0%;font-family:'Times New Roman';-inkscape-font-specification:'Times New Roman';letter-spacing:0px;word-spacing:0px;fill:#000000;fill-opacity:1;stroke:none"
     xml:space="preserve"><tspan
       y="381.875"
       x="86.125"
       id="tspan5929"
       sodipodi:role="line"
       style="font-size:12px;line-height:1.25">β</tspan></text>
  <text
     id="text5939"
     y="448.125"
     x="93.625"
     style="font-style:normal;font-variant:normal;font-weight:normal;font-stretch:normal;line-height:0%;font-family:'Times New Roman';-inkscape-font-specification:'Times New Roman';text-align:start;letter-spacing:0px;word-spacing:0px;writing-mode:lr-tb;text-anchor:start;fill:#000000;fill-opacity:1;stroke:none"
     xml:space="preserve"><tspan
       style="font-style:italic;font-size:14px;line-height:1.25;-inkscape-font-specification:'Times New Roman, Italic'"
       y="448.125"
       x="93.625"
       id="tspan5941"
       sodipodi:role="line">e</tspan></text>
  <text
     id="text5943"
     y="384.375"
     x="52.375"
     style="font-style:italic;font-variant:normal;font-weight:normal;font-stretch:normal;line-height:0%;font-family:'Times New Roman';-inkscape-font-specification:'Times New Roman, Italic';text-align:start;letter-spacing:0px;word-spacing:0px;writing-mode:lr-tb;text-anchor:start;fill:#000000;fill-opacity:1;stroke:none"
     xml:space="preserve"><tspan
       y="384.375"
       x="52.375"
       id="tspan5945"
       sodipodi:role="line"
       style="font-size:14px;line-height:1.25">h</tspan></text>
  <path
     inkscape:connector-curvature="0"
     id="path5951"
     d="M 121.125,436.125 H 78"
     style="fill:none;stroke:#000000;stroke-width:1;stroke-linecap:butt;stroke-linejoin:miter;stroke-miterlimit:4;stroke-dasharray:none;stroke-opacity:1;marker-start:url(#Arrow2Mstart)" />
  <path
     inkscape:connector-curvature="0"
     id="path5955"
     d="M 68.125,334.375 V 420"
     style="fill:none;stroke:#000000;stroke-width:1px;stroke-linecap:butt;stroke-linejoin:miter;stroke-opacity:1;marker-start:url(#Arrow2Mstart-1);marker-end:url(#Arrow2Mend-4)" />
  <path
     style="fill:none;stroke:#000000;stroke-width:0.99999994;stroke-linecap:butt;stroke-linejoin:miter;stroke-miterlimit:4;stroke-dasharray:2.99999982, 2.99999982;stroke-dashoffset:0;stroke-opacity:1"
     d="M 76.22316,73.75 121.75,116.25"
     id="path123"
     inkscape:connector-curvature="0" />
  <path
     inkscape:connector-curvature="0"
     id="path128"
     d="m 76.84816,159.625 45.52684,-42.5"
     style="fill:none;stroke:#000000;stroke-width:0.99999994;stroke-linecap:butt;stroke-linejoin:miter;stroke-miterlimit:4;stroke-dasharray:2.99999982, 2.99999982;stroke-dashoffset:0;stroke-opacity:1" />
</svg>
