<?xml version="1.0" encoding="UTF-8" standalone="no"?>
<!-- Created with Inkscape (http://www.inkscape.org/) -->

<svg
   xmlns:dc="http://purl.org/dc/elements/1.1/"
   xmlns:cc="http://creativecommons.org/ns#"
   xmlns:rdf="http://www.w3.org/1999/02/22-rdf-syntax-ns#"
   xmlns:svg="http://www.w3.org/2000/svg"
   xmlns="http://www.w3.org/2000/svg"
   xmlns:xlink="http://www.w3.org/1999/xlink"
   xmlns:sodipodi="http://sodipodi.sourceforge.net/DTD/sodipodi-0.dtd"
   xmlns:inkscape="http://www.inkscape.org/namespaces/inkscape"
   id="svg2"
   version="1.1"
   inkscape:version="0.48.5 r10040"
   width="678.00067"
   height="317.39023"
   xml:space="preserve"
   sodipodi:docname="figure2_master.svg"><metadata
     id="metadata8"><rdf:RDF><cc:Work
         rdf:about=""><dc:format>image/svg+xml</dc:format><dc:type
           rdf:resource="http://purl.org/dc/dcmitype/StillImage" /><dc:title></dc:title></cc:Work></rdf:RDF></metadata><defs
     id="defs6"><clipPath
       clipPathUnits="userSpaceOnUse"
       id="clipPath18"><path
         d="m 0,2692.45 3370,0 0,-2690.00078 -3370,0 L 0,2692.45 z"
         id="path20"
         inkscape:connector-curvature="0" /></clipPath><radialGradient
       inkscape:collect="always"
       xlink:href="#linearGradient3817"
       id="radialGradient3823"
       cx="372.8945"
       cy="77.319901"
       fx="372.8945"
       fy="77.319901"
       r="71.7295"
       gradientTransform="matrix(1,0,0,0.94802139,0,4.0189812)"
       gradientUnits="userSpaceOnUse" /><linearGradient
       id="linearGradient3817"><stop
         style="stop-color:#ffffff;stop-opacity:1;"
         offset="0"
         id="stop3819" /><stop
         style="stop-color:#838383;stop-opacity:1;"
         offset="1"
         id="stop3821" /></linearGradient><radialGradient
       r="71.7295"
       fy="77.319901"
       fx="372.8945"
       cy="77.319901"
       cx="372.8945"
       gradientTransform="matrix(0.51004108,0,0,0.48352984,110.26454,12.397984)"
       gradientUnits="userSpaceOnUse"
       id="radialGradient3851"
       xlink:href="#linearGradient3817"
       inkscape:collect="always" /><radialGradient
       inkscape:collect="always"
       xlink:href="#linearGradient3817"
       id="radialGradient4005"
       gradientUnits="userSpaceOnUse"
       gradientTransform="matrix(0.51004108,0,0,0.48352984,110.26454,12.397984)"
       cx="372.8945"
       cy="77.319901"
       fx="372.8945"
       fy="77.319901"
       r="71.7295" /></defs><sodipodi:namedview
     pagecolor="#ffffff"
     bordercolor="#666666"
     borderopacity="1"
     objecttolerance="10"
     gridtolerance="10"
     guidetolerance="10"
     inkscape:pageopacity="0"
     inkscape:pageshadow="2"
     inkscape:window-width="1920"
     inkscape:window-height="1018"
     id="namedview4"
     showgrid="false"
     inkscape:zoom="1.61"
     inkscape:cx="326.69958"
     inkscape:cy="154.9679"
     inkscape:window-x="-8"
     inkscape:window-y="-8"
     inkscape:window-maximized="1"
     inkscape:current-layer="g10"
     fit-margin-top="0"
     fit-margin-left="0"
     fit-margin-right="0"
     fit-margin-bottom="0" /><g
     id="g10"
     inkscape:groupmode="layer"
     inkscape:label="ink_ext_XXXXXX"
     transform="matrix(1.25,0,0,-1.25,126.71555,223.47485)"><g
       id="g22" /><g
       id="g34" /><g
       id="g38" /><g
       id="g58" /><g
       id="g3994"
       transform="matrix(1.5140927,0,0,1.5140927,-90.796511,-46.975073)"><rect
         transform="scale(1,-1)"
         y="-149.10246"
         x="-6.9849935"
         height="167.69923"
         width="358.23468"
         id="rect3803"
         style="fill:#003d5d;fill-opacity:1;stroke:none" /><path
         d="m 21.4059,100.37 4.125,0 0,-50.629 8.25,0 0,50.629 4.125,0 -8.25,16.875"
         style="fill:#ffffff;fill-opacity:1;fill-rule:evenodd;stroke:none"
         id="path40"
         inkscape:connector-curvature="0" /><path
         d="m 29.6641,116.405 -0.9879,-2.023 c -0.0903,-0.188 -0.3172,-0.266 -0.5043,-0.177 -0.1879,0.091 -0.2617,0.316 -0.1719,0.505 l 0.9879,2.023 c 0.0902,0.184 0.3172,0.265 0.5043,0.176 0.1879,-0.098 0.2617,-0.316 0.1719,-0.504 z m -2.309,-4.719 -0.984,-2.023 c -0.0981,-0.18 -0.3121,-0.262 -0.5,-0.172 -0.1871,0.098 -0.2621,0.313 -0.1723,0.5 l 0.9891,2.027 c 0.0891,0.187 0.316,0.262 0.4961,0.171 0.1871,-0.089 0.2609,-0.316 0.1711,-0.503 z m -2.3039,-4.718 -0.9883,-2.024 c -0.0899,-0.18 -0.3168,-0.262 -0.5039,-0.164 -0.1879,0.09 -0.2621,0.313 -0.1719,0.496 l 0.9918,2.024 c 0.0902,0.187 0.3121,0.261 0.5,0.171 0.1871,-0.089 0.266,-0.316 0.1723,-0.503 z m -2.309,-4.715 -0.9801,-2.02 c -0.0902,-0.187 -0.3172,-0.2615 -0.5043,-0.172 -0.1879,0.09 -0.2617,0.317 -0.1719,0.503 l 0.9879,2.016 c 0.0903,0.188 0.3172,0.263 0.4961,0.173 0.1879,-0.09 0.2699,-0.314 0.1723,-0.5 z m 1.6289,-1.508 1.1598,0 c 0.2031,0 0.375,-0.172 0.375,-0.375 l 0,-1.0985 c 0,-0.207 -0.1719,-0.375 -0.375,-0.375 -0.2071,0 -0.375,0.168 -0.375,0.375 l 0,1.0985 0.375,-0.3755 -1.1598,0 c -0.2031,0 -0.375,0.1645 -0.375,0.3755 0,0.203 0.1719,0.375 0.375,0.375 z m 1.5348,-4.4735 0,-2.25 c 0,-0.207 -0.1719,-0.375 -0.375,-0.375 -0.2071,0 -0.375,0.168 -0.375,0.375 l 0,2.25 c 0,0.2113 0.1679,0.375 0.375,0.375 0.2031,0 0.375,-0.1637 0.375,-0.375 z m 0,-5.25 0,-2.25 c 0,-0.207 -0.1719,-0.375 -0.375,-0.375 -0.2071,0 -0.375,0.168 -0.375,0.375 l 0,2.25 c 0,0.2113 0.1679,0.375 0.375,0.375 0.2031,0 0.375,-0.1637 0.375,-0.375 z m 0,-5.25 0,-2.25 c 0,-0.211 -0.1719,-0.375 -0.375,-0.375 -0.2071,0 -0.375,0.164 -0.375,0.375 l 0,2.25 c 0,0.2113 0.1679,0.375 0.375,0.375 0.2031,0 0.375,-0.1637 0.375,-0.375 z m 0,-5.25 0,-2.25 c 0,-0.211 -0.1719,-0.375 -0.375,-0.375 -0.2071,0 -0.375,0.164 -0.375,0.375 l 0,2.25 c 0,0.2113 0.1679,0.375 0.375,0.375 0.2031,0 0.375,-0.1637 0.375,-0.375 z m 0,-5.25 0,-2.25 c 0,-0.211 -0.1719,-0.375 -0.375,-0.375 -0.2071,0 -0.375,0.164 -0.375,0.375 l 0,2.25 c 0,0.2113 0.1679,0.375 0.375,0.375 0.2031,0 0.375,-0.1637 0.375,-0.375 z m 0,-5.25 0,-2.25 c 0,-0.211 -0.1719,-0.375 -0.375,-0.375 -0.2071,0 -0.375,0.164 -0.375,0.375 l 0,2.25 c 0,0.2113 0.1679,0.375 0.375,0.375 0.2031,0 0.375,-0.1637 0.375,-0.375 z m 0,-5.25 0,-2.25 c 0,-0.211 -0.1719,-0.375 -0.375,-0.375 -0.2071,0 -0.375,0.164 -0.375,0.375 l 0,2.25 c 0,0.2113 0.1679,0.375 0.375,0.375 0.2031,0 0.375,-0.1637 0.375,-0.375 z m 0,-5.25 0,-2.25 c 0,-0.211 -0.1719,-0.375 -0.375,-0.375 -0.2071,0 -0.375,0.164 -0.375,0.375 l 0,2.25 c 0,0.2113 0.1679,0.375 0.375,0.375 0.2031,0 0.375,-0.1637 0.375,-0.375 z m 0,-5.25 0,-2.25 c 0,-0.211 -0.1719,-0.375 -0.375,-0.375 -0.2071,0 -0.375,0.164 -0.375,0.375 l 0,2.25 c 0,0.2113 0.1679,0.375 0.375,0.375 0.2031,0 0.375,-0.1637 0.375,-0.375 z m 0.3402,-4.1559 2.25,0 c 0.207,0 0.375,-0.1718 0.375,-0.375 0,-0.2109 -0.168,-0.375 -0.375,-0.375 l -2.25,0 c -0.2031,0 -0.375,0.1641 -0.375,0.375 0,0.2032 0.1719,0.375 0.375,0.375 z m 5.25,0 2.25,0 c 0.207,0 0.375,-0.1718 0.375,-0.375 0,-0.2109 -0.168,-0.375 -0.375,-0.375 l -2.25,0 c -0.2031,0 -0.375,0.1641 -0.375,0.375 0,0.2032 0.1719,0.375 0.375,0.375 z m 1.9098,2.586 0,2.2539 c 0,0.207 0.1679,0.375 0.375,0.375 0.2031,0 0.375,-0.168 0.375,-0.375 l 0,-2.2539 c 0,-0.2071 -0.1719,-0.375 -0.375,-0.375 -0.2071,0 -0.375,0.1679 -0.375,0.375 z m 0,5.2539 0,2.25 c 0,0.207 0.1679,0.375 0.375,0.375 0.2031,0 0.375,-0.168 0.375,-0.375 l 0,-2.25 c 0,-0.211 -0.1719,-0.375 -0.375,-0.375 -0.2071,0 -0.375,0.164 -0.375,0.375 z m 0,5.25 0,2.25 c 0,0.207 0.1679,0.375 0.375,0.375 0.2031,0 0.375,-0.168 0.375,-0.375 l 0,-2.25 c 0,-0.211 -0.1719,-0.375 -0.375,-0.375 -0.2071,0 -0.375,0.164 -0.375,0.375 z m 0,5.25 0,2.25 c 0,0.207 0.1679,0.375 0.375,0.375 0.2031,0 0.375,-0.168 0.375,-0.375 l 0,-2.25 c 0,-0.211 -0.1719,-0.375 -0.375,-0.375 -0.2071,0 -0.375,0.164 -0.375,0.375 z m 0,5.25 0,2.25 c 0,0.2113 0.1679,0.375 0.375,0.375 0.2031,0 0.375,-0.1637 0.375,-0.375 l 0,-2.25 c 0,-0.211 -0.1719,-0.375 -0.375,-0.375 -0.2071,0 -0.375,0.164 -0.375,0.375 z m 0,5.25 0,2.25 c 0,0.2113 0.1679,0.375 0.375,0.375 0.2031,0 0.375,-0.1637 0.375,-0.375 l 0,-2.25 c 0,-0.211 -0.1719,-0.375 -0.375,-0.375 -0.2071,0 -0.375,0.164 -0.375,0.375 z m 0,5.25 0,2.25 c 0,0.2113 0.1679,0.375 0.375,0.375 0.2031,0 0.375,-0.1637 0.375,-0.375 l 0,-2.25 c 0,-0.211 -0.1719,-0.375 -0.375,-0.375 -0.2071,0 -0.375,0.164 -0.375,0.375 z m 0,5.25 0,2.25 c 0,0.2113 0.1679,0.375 0.375,0.375 0.2031,0 0.375,-0.1637 0.375,-0.375 l 0,-2.25 c 0,-0.211 -0.1719,-0.375 -0.375,-0.375 -0.2071,0 -0.375,0.164 -0.375,0.375 z m 0,5.25 0,2.25 c 0,0.2113 0.1679,0.375 0.375,0.375 0.2031,0 0.375,-0.1637 0.375,-0.375 l 0,-2.25 c 0,-0.211 -0.1719,-0.375 -0.375,-0.375 -0.2071,0 -0.375,0.164 -0.375,0.375 z m 0,5.25 0,0.4145 c 0,0.203 0.1679,0.375 0.375,0.375 l 1.8402,0 c 0.207,0 0.375,-0.172 0.375,-0.375 0,-0.211 -0.168,-0.3755 -0.375,-0.3755 l -1.8402,0 0.375,0.3755 0,-0.4145 c 0,-0.211 -0.1719,-0.375 -0.375,-0.375 -0.2071,0 -0.375,0.164 -0.375,0.375 z m 3.848,0.8875 -0.9879,2.023 c -0.0898,0.188 -0.016,0.414 0.1719,0.504 0.1871,0.09 0.4141,0.016 0.5031,-0.172 l 0.9891,-2.027 c 0.0898,-0.188 0.0148,-0.403 -0.1723,-0.5 -0.1879,-0.091 -0.4137,-0.008 -0.5039,0.172 z m -2.309,4.714 -0.984,2.028 c -0.0898,0.186 -0.0121,0.413 0.1762,0.504 0.1789,0.09 0.402,0.004 0.5,-0.176 l 0.984,-2.024 c 0.0898,-0.187 0.016,-0.414 -0.1723,-0.503 -0.1828,-0.09 -0.4058,-0.016 -0.5039,0.171 z m -2.3039,4.719 -0.989,2.028 c -0.0891,0.179 -0.0149,0.401 0.1718,0.5 0.1883,0.089 0.4141,0.007 0.5043,-0.172 l 0.9879,-2.024 c 0.0899,-0.187 0.016,-0.414 -0.1711,-0.504 -0.1879,-0.09 -0.4148,-0.015 -0.5039,0.172 z m -2.3012,4.719 -0.9878,2.016 c -0.0899,0.187 -0.0161,0.414 0.171,0.503 0.1879,0.098 0.411,0.016 0.5,-0.171 l 0.9848,-2.02 c 0.0973,-0.187 0.0152,-0.41 -0.1719,-0.5 -0.18,-0.09 -0.4058,-0.016 -0.4961,0.172 z"
         style="fill:none;stroke:none"
         id="path44"
         inkscape:connector-curvature="0" /><path
         d="m 117.406,68.866 1.559,0 0,-19.125 3.129,0 0,19.125 1.558,0 -3.129,6.375"
         style="fill:#ffffff;fill-opacity:1;fill-rule:evenodd;stroke:none"
         id="path46"
         inkscape:connector-curvature="0" /><path
         d="m 181.602,86.2371 0,-69.4961 -1.004,0 0,69.4961 1.004,0 z m -4.43,-5.7461 3.93,6.7461 3.929,-6.7461 c 0.141,-0.239 0.059,-0.5469 -0.179,-0.6801 -0.235,-0.1449 -0.539,-0.0621 -0.684,0.1801 l -3.496,6 0.863,0 -3.5,-6 c -0.144,-0.2422 -0.445,-0.325 -0.683,-0.1801 -0.243,0.1332 -0.325,0.4411 -0.18,0.6801 z m 7.859,-58.0082 -3.929,-6.7418 -3.93,6.7418 c -0.145,0.2422 -0.063,0.5512 0.18,0.6832 0.238,0.1449 0.539,0.059 0.683,-0.1789 l 3.5,-6 -0.863,0 3.496,6 c 0.145,0.2379 0.449,0.3238 0.684,0.1789 0.238,-0.132 0.32,-0.441 0.179,-0.6832"
         style="fill:#000000;fill-opacity:1;fill-rule:nonzero;stroke:none"
         id="path50"
         inkscape:connector-curvature="0" /><path
         d="m 181.602,86.2367 0,-69.4961 -1.004,0 0,69.4961 1.004,0 z m -4.43,-5.7461 3.93,6.7461 3.929,-6.7461 c 0.141,-0.2379 0.059,-0.5468 -0.179,-0.6801 -0.235,-0.1437 -0.539,-0.0621 -0.684,0.1801 l -3.496,6 0.863,0 -3.5,-6 c -0.144,-0.2422 -0.445,-0.3238 -0.683,-0.1801 -0.243,0.1333 -0.325,0.4422 -0.18,0.6801 z m 7.859,-58.0078 -3.929,-6.7422 -3.93,6.7422 c -0.145,0.2418 -0.063,0.5508 0.18,0.684 0.238,0.1437 0.539,0.0578 0.683,-0.1801 l 3.5,-6 -0.863,0 3.496,6 c 0.145,0.2379 0.449,0.3238 0.684,0.1801 0.238,-0.1332 0.32,-0.4422 0.179,-0.684 z"
         style="fill:none;stroke:#c8eced;stroke-width:1.60000002;stroke-linecap:square;stroke-linejoin:bevel;stroke-miterlimit:4;stroke-opacity:1;stroke-dasharray:none"
         id="path52"
         inkscape:connector-curvature="0" /><path
         d="M 29.4102,49.7406 262.883,49.6816"
         style="fill:none;stroke:#ffffff;stroke-width:0.80000001;stroke-linecap:round;stroke-linejoin:round;stroke-miterlimit:4;stroke-opacity:1;stroke-dasharray:none"
         id="path54"
         inkscape:connector-curvature="0" /><path
         d="M 263.395,49.7406 28.8629,117.245"
         style="fill:none;stroke:#fefefe;stroke-width:0.80000001;stroke-linecap:round;stroke-linejoin:round;stroke-miterlimit:4;stroke-opacity:1;stroke-dasharray:none"
         id="path56"
         inkscape:connector-curvature="0" /><path
         d="m 302.35878,84.059784 c -13.91241,0 -25.88459,-8.28816 -31.25584,-20.19814 -4.15428,-3.28782 -6.82384,-8.3663 -6.82384,-14.07636 0,-5.71185 2.66956,-10.79038 6.82384,-14.07816 5.37125,-11.90981 17.34343,-20.19798 31.25584,-20.19798 18.92914,0 34.27424,15.34703 34.27424,34.27614 0,18.92941 -15.3451,34.2745 -34.27424,34.2745 z"
         style="fill:url(#radialGradient4005);fill-opacity:1;stroke:#ffffff;stroke-width:0.81606567;stroke-linecap:butt;stroke-linejoin:miter;stroke-miterlimit:4;stroke-opacity:1;stroke-dasharray:none"
         id="path22"
         inkscape:connector-curvature="0" /></g></g></svg>