<?xml version="1.0" encoding="UTF-8" standalone="no"?>
<!-- Created with Inkscape (http://www.inkscape.org/) -->

<svg
   xmlns:dc="http://purl.org/dc/elements/1.1/"
   xmlns:cc="http://creativecommons.org/ns#"
   xmlns:rdf="http://www.w3.org/1999/02/22-rdf-syntax-ns#"
   xmlns:svg="http://www.w3.org/2000/svg"
   xmlns="http://www.w3.org/2000/svg"
   xmlns:xlink="http://www.w3.org/1999/xlink"
   xmlns:sodipodi="http://sodipodi.sourceforge.net/DTD/sodipodi-0.dtd"
   xmlns:inkscape="http://www.inkscape.org/namespaces/inkscape"
   id="svg2"
   version="1.1"
   inkscape:version="0.92.3 (2405546, 2018-03-11)"
   width="723.20074"
   height="338.54959"
   xml:space="preserve"
   sodipodi:docname="figure3b.svg"
   viewBox="0 0 678.00067 317.39023"><sodipodi:namedview
     pagecolor="#ffffff"
     bordercolor="#666666"
     borderopacity="1"
     objecttolerance="10"
     gridtolerance="10"
     guidetolerance="10"
     inkscape:pageopacity="0"
     inkscape:pageshadow="2"
     inkscape:window-width="1920"
     inkscape:window-height="1017"
     id="namedview4"
     showgrid="false"
     inkscape:zoom="1.61"
     inkscape:cx="229.80517"
     inkscape:cy="154.9679"
     inkscape:window-x="-8"
     inkscape:window-y="-8"
     inkscape:window-maximized="1"
     inkscape:current-layer="g10"
     fit-margin-top="0"
     fit-margin-left="0"
     fit-margin-right="0"
     fit-margin-bottom="0" /><metadata
     id="metadata8"><rdf:RDF><cc:Work
         rdf:about=""><dc:format>image/svg+xml</dc:format><dc:type
           rdf:resource="http://purl.org/dc/dcmitype/StillImage" /><dc:title /></cc:Work></rdf:RDF></metadata><defs
     id="defs6"><marker
       style="overflow:visible"
       id="Arrow2Lend"
       refX="0"
       refY="0"
       orient="auto"
       inkscape:stockid="Arrow2Lend"><path
         transform="matrix(-1.1,0,0,-1.1,-1.1,0)"
         d="M 8.7185878,4.0337352 -2.2072895,0.01601326 8.7185884,-4.0017078 c -1.7454984,2.3720609 -1.7354408,5.6174519 -6e-7,8.035443 z"
         style="fill-rule:evenodd;stroke-width:0.625;stroke-linejoin:round"
         id="path3870"
         inkscape:connector-curvature="0" /></marker><marker
       style="overflow:visible"
       id="Arrow2Mend"
       refX="0"
       refY="0"
       orient="auto"
       inkscape:stockid="Arrow2Mend"><path
         transform="scale(-0.6)"
         d="M 8.7185878,4.0337352 -2.2072895,0.01601326 8.7185884,-4.0017078 c -1.7454984,2.3720609 -1.7354408,5.6174519 -6e-7,8.035443 z"
         style="fill-rule:evenodd;stroke-width:0.625;stroke-linejoin:round"
         id="path3876"
         inkscape:connector-curvature="0" /></marker><clipPath
       id="clipPath18"
       clipPathUnits="userSpaceOnUse"><path
         inkscape:connector-curvature="0"
         id="path20"
         d="M 0,2692.45 H 3370 V 2.44922 H 0 Z" /></clipPath><radialGradient
       gradientUnits="userSpaceOnUse"
       gradientTransform="matrix(1,0,0,0.94802139,0,4.0189812)"
       r="71.7295"
       fy="77.319901"
       fx="372.8945"
       cy="77.319901"
       cx="372.8945"
       id="radialGradient3823"
       xlink:href="#linearGradient3817"
       inkscape:collect="always" /><linearGradient
       id="linearGradient3817"><stop
         id="stop3819"
         offset="0"
         style="stop-color:#ffffff;stop-opacity:1;" /><stop
         id="stop3821"
         offset="1"
         style="stop-color:#838383;stop-opacity:1;" /></linearGradient><radialGradient
       inkscape:collect="always"
       xlink:href="#linearGradient3817"
       id="radialGradient3851"
       gradientUnits="userSpaceOnUse"
       gradientTransform="matrix(0.51004108,0,0,0.48352984,110.26454,12.397984)"
       cx="372.8945"
       cy="77.319901"
       fx="372.8945"
       fy="77.319901"
       r="71.7295" /><radialGradient
       r="71.7295"
       fy="77.319901"
       fx="372.8945"
       cy="77.319901"
       cx="372.8945"
       gradientTransform="matrix(0.77224948,0,0,0.732109,76.154224,-28.203376)"
       gradientUnits="userSpaceOnUse"
       id="radialGradient3005"
       xlink:href="#linearGradient3817"
       inkscape:collect="always" /><marker
       style="overflow:visible"
       id="Arrow2Lendw"
       refX="0"
       refY="0"
       orient="auto"
       inkscape:stockid="Arrow2Lendw"><path
         transform="matrix(-1.1,0,0,-1.1,-1.1,0)"
         d="M 8.7185878,4.0337352 -2.2072895,0.01601326 8.7185884,-4.0017078 c -1.7454984,2.3720609 -1.7354408,5.6174519 -6e-7,8.035443 z"
         style="fill:#ffffff;fill-rule:evenodd;stroke:#ffffff;stroke-width:0.625;stroke-linejoin:round"
         id="path4857"
         inkscape:connector-curvature="0" /></marker><marker
       style="overflow:visible"
       id="Arrow2MendT"
       refX="0"
       refY="0"
       orient="auto"
       inkscape:stockid="Arrow2MendT"><path
         transform="scale(-0.6)"
         d="M 8.7185878,4.0337352 -2.2072895,0.01601326 8.7185884,-4.0017078 c -1.7454984,2.3720609 -1.7354408,5.6174519 -6e-7,8.035443 z"
         style="fill:#ffffff;fill-rule:evenodd;stroke:#ffffff;stroke-width:0.625;stroke-linejoin:round"
         id="path5151"
         inkscape:connector-curvature="0" /></marker><marker
       style="overflow:visible"
       id="Arrow2MendE"
       refX="0"
       refY="0"
       orient="auto"
       inkscape:stockid="Arrow2MendE"><path
         transform="scale(-0.6)"
         d="M 8.7185878,4.0337352 -2.2072895,0.01601326 8.7185884,-4.0017078 c -1.7454984,2.3720609 -1.7354408,5.6174519 -6e-7,8.035443 z"
         style="fill:#ffffff;fill-rule:evenodd;stroke:#ffffff;stroke-width:0.625;stroke-linejoin:round"
         id="path5452"
         inkscape:connector-curvature="0" /></marker></defs><g
     transform="matrix(1.25,0,0,-1.25,126.71555,223.47485)"
     inkscape:label="ink_ext_XXXXXX"
     inkscape:groupmode="layer"
     id="g10"><g
   id="g22" /><g
   id="g34" /><g
   id="g38" /><g
   id="g58" /><rect
   transform="scale(1,-1)"
   y="-178.77988"
   x="-101.37244"
   height="253.91219"
   width="542.40051"
   id="rect3803"
   style="fill:#003d5d;fill-opacity:1;stroke:none" /><path
   style="fill:#6acd5d;fill-opacity:1;stroke:none"
   d="m 309.8009,27.972449 -353.788834,0.4969 -0.496889,101.863351 z"
   id="path3154"
   inkscape:connector-curvature="0"
   sodipodi:nodetypes="cccc" /><path
   d="m -45.882314,129.27289 -1.495772,-3.06301 c -0.136722,-0.28465 -0.48027,-0.40275 -0.763557,-0.268 -0.284498,0.13779 -0.396238,0.47846 -0.260272,0.76462 l 1.495772,3.06301 c 0.136571,0.27859 0.48027,0.40123 0.763557,0.26648 0.284498,-0.14838 0.396238,-0.47845 0.260272,-0.7631 z m -3.49604,-7.14501 -1.489867,-3.06301 c -0.148532,-0.27253 -0.472548,-0.39669 -0.757046,-0.26042 -0.283287,0.14838 -0.396844,0.47391 -0.260879,0.75705 l 1.49759,3.06906 c 0.134905,0.28314 0.478453,0.3967 0.751141,0.25891 0.283287,-0.13475 0.395027,-0.47845 0.259061,-0.76159 z m -3.488318,-7.14349 -1.496378,-3.06452 c -0.136117,-0.27254 -0.479664,-0.39669 -0.762951,-0.24831 -0.284498,0.13627 -0.396844,0.47391 -0.260273,0.75099 l 1.501678,3.06452 c 0.136571,0.28314 0.472548,0.39518 0.757046,0.25891 0.283287,-0.13475 0.402749,-0.47845 0.260878,-0.76159 z m -3.49604,-7.13894 -1.483962,-3.05847 c -0.136571,-0.28313 -0.48027,-0.39593 -0.763557,-0.26042 -0.284498,0.13626 -0.396238,0.47996 -0.260273,0.76159 l 1.495772,3.05241 c 0.136723,0.28465 0.480271,0.3982 0.751142,0.26193 0.284498,-0.13626 0.408653,-0.47542 0.260878,-0.75704 z m 2.466306,-2.28325 h 1.756044 c 0.307513,0 0.567785,-0.26043 0.567785,-0.56779 v -1.66323 c 0,-0.31342 -0.260272,-0.56778 -0.567785,-0.56778 -0.313568,0 -0.567784,0.25436 -0.567784,0.56778 v 1.66323 l 0.567784,-0.56854 h -1.756044 c -0.307513,0 -0.567785,0.24907 -0.567785,0.56854 0,0.30736 0.260272,0.56779 0.567785,0.56779 z m 2.323829,-6.773298 v -3.406708 c 0,-0.313417 -0.260272,-0.567785 -0.567785,-0.567785 -0.313568,0 -0.567784,0.254368 -0.567784,0.567785 v 3.406708 c 0,0.319928 0.254216,0.567785 0.567784,0.567785 0.307513,0 0.567785,-0.247857 0.567785,-0.567785 z m 0,-7.948986 v -3.406709 c 0,-0.313417 -0.260272,-0.567785 -0.567785,-0.567785 -0.313568,0 -0.567784,0.254368 -0.567784,0.567785 v 3.406709 c 0,0.319927 0.254216,0.567784 0.567784,0.567784 0.307513,0 0.567785,-0.247857 0.567785,-0.567784 z m 0,-7.948987 V 79.48422 c 0,-0.319473 -0.260272,-0.567784 -0.567785,-0.567784 -0.313568,0 -0.567784,0.248311 -0.567784,0.567784 v 3.406709 c 0,0.319928 0.254216,0.567785 0.567784,0.567785 0.307513,0 0.567785,-0.247857 0.567785,-0.567785 z m 0,-7.948987 v -3.406708 c 0,-0.319474 -0.260272,-0.567785 -0.567785,-0.567785 -0.313568,0 -0.567784,0.248311 -0.567784,0.567785 v 3.406708 c 0,0.319928 0.254216,0.567785 0.567784,0.567785 0.307513,0 0.567785,-0.247857 0.567785,-0.567785 z m 0,-7.948986 v -3.406709 c 0,-0.319473 -0.260272,-0.567785 -0.567785,-0.567785 -0.313568,0 -0.567784,0.248312 -0.567784,0.567785 v 3.406709 c 0,0.319927 0.254216,0.567784 0.567784,0.567784 0.307513,0 0.567785,-0.247857 0.567785,-0.567784 z m 0,-7.948987 V 55.63726 c 0,-0.319473 -0.260272,-0.567784 -0.567785,-0.567784 -0.313568,0 -0.567784,0.248311 -0.567784,0.567784 v 3.406709 c 0,0.319928 0.254216,0.567785 0.567784,0.567785 0.307513,0 0.567785,-0.247857 0.567785,-0.567785 z m 0,-7.948987 v -3.406708 c 0,-0.319474 -0.260272,-0.567785 -0.567785,-0.567785 -0.313568,0 -0.567784,0.248311 -0.567784,0.567785 v 3.406708 c 0,0.319928 0.254216,0.567785 0.567784,0.567785 0.307513,0 0.567785,-0.247857 0.567785,-0.567785 z m 0,-7.948986 v -3.406709 c 0,-0.319473 -0.260272,-0.567785 -0.567785,-0.567785 -0.313568,0 -0.567784,0.248312 -0.567784,0.567785 v 3.406709 c 0,0.319927 0.254216,0.567784 0.567784,0.567784 0.307513,0 0.567785,-0.247857 0.567785,-0.567784 z m 0,-7.948987 V 31.7903 c 0,-0.319473 -0.260272,-0.567784 -0.567785,-0.567784 -0.313568,0 -0.567784,0.248311 -0.567784,0.567784 v 3.406709 c 0,0.319928 0.254216,0.567785 0.567784,0.567785 0.307513,0 0.567785,-0.247857 0.567785,-0.567785 z m 0.515094,-6.292418 h 3.406709 c 0.313417,0 0.567785,-0.260121 0.567785,-0.567785 0,-0.319322 -0.254368,-0.567784 -0.567785,-0.567784 h -3.406709 c -0.307512,0 -0.567784,0.248462 -0.567784,0.567784 0,0.307664 0.260272,0.567785 0.567784,0.567785 z m 7.948987,0 h 3.406709 c 0.313417,0 0.567784,-0.260121 0.567784,-0.567785 0,-0.319322 -0.254367,-0.567784 -0.567784,-0.567784 h -3.406709 c -0.307512,0 -0.567785,0.248462 -0.567785,0.567784 0,0.307664 0.260273,0.567785 0.567785,0.567785 z m 2.891614,3.915444 v 3.412613 c 0,0.313418 0.254216,0.567785 0.567785,0.567785 0.307512,0 0.567785,-0.254367 0.567785,-0.567785 v -3.412613 c 0,-0.313569 -0.260273,-0.567785 -0.567785,-0.567785 -0.313569,0 -0.567785,0.254216 -0.567785,0.567785 z m 0,7.954891 v 3.406709 c 0,0.313417 0.254216,0.567785 0.567785,0.567785 0.307512,0 0.567785,-0.254368 0.567785,-0.567785 v -3.406709 c 0,-0.319473 -0.260273,-0.567784 -0.567785,-0.567784 -0.313569,0 -0.567785,0.248311 -0.567785,0.567784 z m 0,7.948987 v 3.406709 c 0,0.313417 0.254216,0.567784 0.567785,0.567784 0.307512,0 0.567785,-0.254367 0.567785,-0.567784 v -3.406709 c 0,-0.319473 -0.260273,-0.567785 -0.567785,-0.567785 -0.313569,0 -0.567785,0.248312 -0.567785,0.567785 z m 0,7.948987 v 3.406708 c 0,0.313418 0.254216,0.567785 0.567785,0.567785 0.307512,0 0.567785,-0.254367 0.567785,-0.567785 V 56.6729 c 0,-0.319474 -0.260273,-0.567785 -0.567785,-0.567785 -0.313569,0 -0.567785,0.248311 -0.567785,0.567785 z m 0,7.948986 v 3.406709 c 0,0.319928 0.254216,0.567785 0.567785,0.567785 0.307512,0 0.567785,-0.247857 0.567785,-0.567785 v -3.406709 c 0,-0.319473 -0.260273,-0.567784 -0.567785,-0.567784 -0.313569,0 -0.567785,0.248311 -0.567785,0.567784 z m 0,7.948987 v 3.406709 c 0,0.319928 0.254216,0.567785 0.567785,0.567785 0.307512,0 0.567785,-0.247857 0.567785,-0.567785 v -3.406709 c 0,-0.319473 -0.260273,-0.567785 -0.567785,-0.567785 -0.313569,0 -0.567785,0.248312 -0.567785,0.567785 z m 0,7.948987 v 3.406708 c 0,0.319928 0.254216,0.567785 0.567785,0.567785 0.307512,0 0.567785,-0.247857 0.567785,-0.567785 V 80.51986 c 0,-0.319474 -0.260273,-0.567785 -0.567785,-0.567785 -0.313569,0 -0.567785,0.248311 -0.567785,0.567785 z m 0,7.948987 v 3.406708 c 0,0.319928 0.254216,0.567785 0.567785,0.567785 0.307512,0 0.567785,-0.247857 0.567785,-0.567785 v -3.406708 c 0,-0.319474 -0.260273,-0.567785 -0.567785,-0.567785 -0.313569,0 -0.567785,0.248311 -0.567785,0.567785 z m 0,7.948986 v 3.406709 c 0,0.319928 0.254216,0.567788 0.567785,0.567788 0.307512,0 0.567785,-0.24786 0.567785,-0.567788 v -3.406709 c 0,-0.319473 -0.260273,-0.567785 -0.567785,-0.567785 -0.313569,0 -0.567785,0.248312 -0.567785,0.567785 z m 0,7.948987 v 0.62759 c 0,0.30736 0.254216,0.56779 0.567785,0.56779 h 2.786233 c 0.313418,0 0.567785,-0.26043 0.567785,-0.56779 0,-0.31947 -0.254367,-0.56854 -0.567785,-0.56854 h -2.786233 l 0.567785,0.56854 v -0.62759 c 0,-0.31947 -0.260273,-0.56778 -0.567785,-0.56778 -0.313569,0 -0.567785,0.24831 -0.567785,0.56778 z m 5.826229,1.34376 -1.495772,3.06301 c -0.135966,0.28465 -0.02423,0.62683 0.260272,0.7631 0.283287,0.13627 0.626986,0.0242 0.76174,-0.26042 l 1.49759,-3.06907 c 0.135965,-0.28465 0.02241,-0.61018 -0.260879,-0.75705 -0.284498,-0.13778 -0.62638,-0.0121 -0.762951,0.26043 z m -3.49604,7.13743 -1.489867,3.07058 c -0.135966,0.28162 -0.01832,0.62532 0.266783,0.7631 0.270871,0.13627 0.608665,0.006 0.757046,-0.26648 l 1.489867,-3.06452 c 0.135966,-0.28314 0.02423,-0.62684 -0.260878,-0.76159 -0.276776,-0.13627 -0.614419,-0.0242 -0.762951,0.25891 z m -3.488318,7.145 -1.497438,3.07058 c -0.134906,0.27103 -0.02256,0.60715 0.260121,0.75705 0.285104,0.13475 0.626986,0.0106 0.763557,-0.26042 l 1.495772,-3.06453 c 0.136117,-0.28313 0.02423,-0.62683 -0.259061,-0.7631 -0.284498,-0.13627 -0.628046,-0.0227 -0.762951,0.26042 z m -3.48423,7.14501 -1.495621,3.05241 c -0.136117,0.28313 -0.02438,0.62683 0.25891,0.76159 0.284498,0.14838 0.622292,0.0242 0.757046,-0.25891 l 1.491079,-3.05847 c 0.147321,-0.28314 0.02301,-0.62078 -0.260273,-0.75705 -0.272537,-0.13627 -0.614419,-0.0242 -0.751141,0.26043 z"
   style="fill:none;stroke:none"
   id="path44"
   inkscape:connector-curvature="0" /><path
   d="M 184.16575,83.595891 V -21.627647 H 182.6456 V 83.595891 Z m -6.70743,-8.700128 5.95039,10.21422 5.94887,-10.21422 c 0.21348,-0.361869 0.0893,-0.828058 -0.27103,-1.029735 -0.35581,-0.219392 -0.81609,-0.09403 -1.03564,0.272688 l -5.29326,9.084556 h 1.30666 l -5.29933,-9.084556 c -0.21803,-0.366713 -0.67377,-0.49208 -1.03412,-0.272688 -0.36793,0.201677 -0.49208,0.667866 -0.27254,1.029735 z m 11.89926,-87.829793 -5.94887,-10.20771 -5.95039,10.20771 c -0.21954,0.366714 -0.0954,0.834568 0.27254,1.034428 0.36035,0.219393 0.81609,0.08933 1.03412,-0.270871 l 5.29933,-9.084556 h -1.30666 l 5.29326,9.084556 c 0.21955,0.360203 0.67983,0.490264 1.03564,0.270871 0.36036,-0.19986 0.48451,-0.667714 0.27103,-1.034428"
   style="fill:#000000;fill-opacity:1;fill-rule:nonzero;stroke:none"
   id="path50"
   inkscape:connector-curvature="0" /><path
   d="M -46.266742,28.336806 307.23272,28.247475"
   style="fill:none;stroke:#ffffff;stroke-width:1.21127415;stroke-linecap:round;stroke-linejoin:round;stroke-miterlimit:4;stroke-dasharray:none;stroke-opacity:1"
   id="path54"
   inkscape:connector-curvature="0" /><path
   d="m 367.00271,80.299232 c -21.06468,0 -39.19167,-12.549042 -47.32424,-30.581856 -6.28996,-4.978064 -10.33192,-12.667354 -10.33192,-21.312914 0,-8.64827 4.04196,-16.337636 10.33192,-21.3156392 8.13257,-18.0325568 26.25956,-30.5816138 47.32424,-30.5816138 28.66047,0 51.89438,23.2368258 51.89438,51.897253 0,28.660882 -23.23391,51.89477 -51.89438,51.89477 z"
   style="fill:url(#radialGradient3005);fill-opacity:1;stroke:#ffffff;stroke-width:1.23559904;stroke-linecap:butt;stroke-linejoin:miter;stroke-miterlimit:4;stroke-dasharray:none;stroke-opacity:1"
   id="path22"
   inkscape:connector-curvature="0" /><text
   transform="matrix(0.8,0,0,-0.8,-101.37244,178.77988)"
   id="text3015"
   y="42.234947"
   x="105.59006"
   style="font-style:normal;font-weight:normal;line-height:0%;font-family:'Times New Roman';-inkscape-font-specification:'Times New Roman';letter-spacing:0px;word-spacing:0px;fill:#000000;fill-opacity:1;stroke:none"
   xml:space="preserve"><tspan
     y="42.234947"
     x="105.59006"
     id="tspan3017"
     sodipodi:role="line"
     style="font-size:20px;line-height:1.25"> </tspan></text>







<text
   transform="matrix(0.8,0,0,-0.8,-101.37244,178.77988)"
   id="text3019"
   y="69.56414"
   x="137.8882"
   style="font-style:normal;font-weight:normal;line-height:0%;font-family:'Times New Roman';-inkscape-font-specification:'Times New Roman';letter-spacing:0px;word-spacing:0px;fill:#000000;fill-opacity:1;stroke:none"
   xml:space="preserve"><tspan
     y="69.56414"
     x="137.8882"
     id="tspan3021"
     sodipodi:role="line"
     style="font-size:12px;line-height:1.25"> </tspan></text>







<text
   transform="matrix(0.8,0,0,-0.8,-101.37244,178.77988)"
   id="text3029"
   y="76.396439"
   x="148.4472"
   style="font-style:normal;font-weight:normal;line-height:0%;font-family:'Times New Roman';-inkscape-font-specification:'Times New Roman';letter-spacing:0px;word-spacing:0px;fill:#000000;fill-opacity:1;stroke:none"
   xml:space="preserve"><tspan
     y="76.396439"
     x="148.4472"
     id="tspan3031"
     sodipodi:role="line"
     style="font-size:24px;line-height:1.25"> </tspan></text>







<text
   transform="scale(1,-1)"
   id="text3033"
   y="-143.00435"
   x="-61.123985"
   style="font-style:normal;font-weight:normal;line-height:0%;font-family:'Times New Roman';-inkscape-font-specification:'Times New Roman';letter-spacing:0px;word-spacing:0px;fill:#000000;fill-opacity:1;stroke:none"
   xml:space="preserve"><tspan
     style="font-style:italic;font-size:22.39999962px;line-height:1.25;-inkscape-font-specification:'Times New Roman, Italic';fill:#ffffff"
     y="-143.00435"
     x="-61.123985"
     id="tspan3035"
     sodipodi:role="line">h<tspan
   id="tspan3037"
   style="font-style:italic;font-size:14.56020546px;-inkscape-font-specification:'Times New Roman, Italic';baseline-shift:sub;fill:#ffffff">img</tspan></tspan></text>












<text
   xml:space="preserve"
   style="font-style:normal;font-weight:normal;line-height:0%;font-family:'Times New Roman';-inkscape-font-specification:'Times New Roman';letter-spacing:0px;word-spacing:0px;fill:#000000;fill-opacity:1;stroke:none"
   x="9.8524284"
   y="2.0093317"
   id="text3059"
   transform="scale(1,-1)"><tspan
     sodipodi:role="line"
     id="tspan3061"
     x="9.8524284"
     y="2.0093317"
     style="font-style:italic;font-size:22.39999962px;line-height:1.25;-inkscape-font-specification:'Times New Roman, Italic';fill:#ffffff">d<tspan
   style="font-style:italic;font-size:14.56020546px;-inkscape-font-specification:'Times New Roman, Italic';baseline-shift:sub;fill:#ffffff"
   id="tspan3063">img</tspan></tspan></text>










<text
   transform="scale(1,-1)"
   id="text3071"
   y="-0.11738513"
   x="248.44122"
   style="font-style:normal;font-weight:normal;line-height:0%;font-family:'Times New Roman';-inkscape-font-specification:'Times New Roman';letter-spacing:0px;word-spacing:0px;fill:#000000;fill-opacity:1;stroke:none"
   xml:space="preserve"><tspan
     style="font-style:italic;font-size:22.39999962px;line-height:1.25;-inkscape-font-specification:'Times New Roman, Italic';fill:#ffffff"
     y="-0.11738513"
     x="248.44122"
     id="tspan3073"
     sodipodi:role="line">d</tspan></text>







<path
   sodipodi:nodetypes="cc"
   style="fill:#ffffff;stroke:#ffffff;stroke-width:1.60000002;stroke-linecap:butt;stroke-linejoin:miter;stroke-miterlimit:4;stroke-dasharray:none;stroke-opacity:1;marker-end:url(#Arrow2MendT)"
   d="M 178.37911,19.496272 H -45.223375"
   id="path5239"
   inkscape:connector-curvature="0" /><path
   inkscape:connector-curvature="0"
   id="path5241"
   d="M 189.80768,19.496272 H 307.57166"
   style="fill:none;stroke:#ffffff;stroke-width:1.60000002;stroke-linecap:butt;stroke-linejoin:miter;stroke-miterlimit:4;stroke-dasharray:none;stroke-opacity:1;marker-end:url(#Arrow2MendE)"
   sodipodi:nodetypes="cc" /><path
   d="M 184.16575,83.595285 V -21.628253 H 182.6456 V 83.595285 Z m -6.70743,-8.700128 5.95039,10.214221 5.94887,-10.214221 c 0.21348,-0.360203 0.0893,-0.827906 -0.27103,-1.029735 -0.35581,-0.217575 -0.81609,-0.09403 -1.03564,0.272689 l -5.29326,9.084556 h 1.30666 l -5.29933,-9.084556 c -0.21803,-0.366714 -0.67377,-0.490264 -1.03412,-0.272689 -0.36793,0.201829 -0.49208,0.669532 -0.27254,1.029735 z m 11.89926,-87.829187 -5.94887,-10.208315 -5.95039,10.208315 c -0.21954,0.366108 -0.0954,0.833963 0.27254,1.03564 0.36035,0.217575 0.81609,0.08751 1.03412,-0.272688 l 5.29933,-9.084557 h -1.30666 l 5.29326,9.084557 c 0.21955,0.360202 0.67983,0.490263 1.03564,0.272688 0.36036,-0.201677 0.48451,-0.669532 0.27103,-1.03564 z"
   style="fill:none;stroke:#c8eced;stroke-width:2.42254829;stroke-linecap:square;stroke-linejoin:bevel;stroke-miterlimit:4;stroke-dasharray:none;stroke-opacity:1"
   id="path52"
   inkscape:connector-curvature="0" /><path
   d="m -58.385994,104.99441 h 6.245632 V 28.337412 h 12.491265 v 76.656998 h 6.245632 l -12.491264,25.55032"
   style="fill:#deaa87;fill-opacity:1;fill-rule:evenodd;stroke:none"
   id="path40"
   inkscape:connector-curvature="0" /></g></svg>