<?xml version="1.0" encoding="UTF-8" standalone="no"?>
<!-- Created with Inkscape (http://www.inkscape.org/) -->

<svg
   xmlns:dc="http://purl.org/dc/elements/1.1/"
   xmlns:cc="http://creativecommons.org/ns#"
   xmlns:rdf="http://www.w3.org/1999/02/22-rdf-syntax-ns#"
   xmlns:svg="http://www.w3.org/2000/svg"
   xmlns="http://www.w3.org/2000/svg"
   xmlns:sodipodi="http://sodipodi.sourceforge.net/DTD/sodipodi-0.dtd"
   xmlns:inkscape="http://www.inkscape.org/namespaces/inkscape"
   width="510.20203"
   height="267.85715"
   id="svg2"
   version="1.1"
   inkscape:version="0.48.5 r10040"
   sodipodi:docname="reflection.svg"
   viewBox="0 0 478.31441 251.11609">
  <defs
     id="defs4">
    <clipPath
       id="clipEmfPath1"
       clipPathUnits="userSpaceOnUse">
      <rect
         id="rect2990"
         height="25.500656"
         width="38.418091"
         y="118.95306"
         x="160.1254" />
    </clipPath>
    <clipPath
       id="clipEmfPath2"
       clipPathUnits="userSpaceOnUse">
      <rect
         id="rect2993"
         height="25.65066"
         width="38.418091"
         y="86.102219"
         x="158.32455" />
    </clipPath>
    <clipPath
       id="clipEmfPath3"
       clipPathUnits="userSpaceOnUse">
      <rect
         id="rect2996"
         height="27.600712"
         width="121.85738"
         y="4.5001159"
         x="7.3534627" />
    </clipPath>
    <clipPath
       id="clipEmfPath4"
       clipPathUnits="userSpaceOnUse">
      <rect
         id="rect2999"
         height="27.450706"
         width="121.85738"
         y="196.80507"
         x="-0.15007067" />
    </clipPath>
    <clipPath
       id="clipEmfPath5"
       clipPathUnits="userSpaceOnUse">
      <rect
         id="rect3002"
         height="27.450706"
         width="121.85738"
         y="91.802361"
         x="6.4530387" />
    </clipPath>
    <clipPath
       id="clipEmfPath6"
       clipPathUnits="userSpaceOnUse">
      <rect
         id="rect3005"
         height="25.500656"
         width="38.418091"
         y="40.201035"
         x="199.59399" />
    </clipPath>
    <clipPath
       id="clipEmfPath7"
       clipPathUnits="userSpaceOnUse">
      <rect
         id="rect3008"
         height="25.500656"
         width="38.418091"
         y="156.45403"
         x="199.59399" />
    </clipPath>
  </defs>
  <sodipodi:namedview
     id="base"
     pagecolor="#ffffff"
     bordercolor="#666666"
     borderopacity="1.0"
     inkscape:pageopacity="0.0"
     inkscape:pageshadow="2"
     inkscape:zoom="1.98"
     inkscape:cx="313.4358"
     inkscape:cy="157.52232"
     inkscape:document-units="px"
     inkscape:current-layer="layer1"
     showgrid="false"
     inkscape:window-width="1920"
     inkscape:window-height="1018"
     inkscape:window-x="-8"
     inkscape:window-y="-8"
     inkscape:window-maximized="1"
     fit-margin-top="0"
     fit-margin-left="0"
     fit-margin-right="0"
     fit-margin-bottom="0" />
  <metadata
     id="metadata7">
    <rdf:RDF>
      <cc:Work
         rdf:about="">
        <dc:format>image/svg+xml</dc:format>
        <dc:type
           rdf:resource="http://purl.org/dc/dcmitype/StillImage" />
        <dc:title />
      </cc:Work>
    </rdf:RDF>
  </metadata>
  <g
     inkscape:label="Layer 1"
     inkscape:groupmode="layer"
     id="layer1"
     transform="translate(8.8000486,-796.90354)">
    <g
       id="g8"
       transform="matrix(0.7971907,0,0,1.2555804,-8.8000526,796.90354)">
      <rect
         style="fill:#003d5c;fill-opacity:1;stroke:none"
         id="rect10"
         height="200"
         width="600"
         y="0"
         x="0" />
    </g>
    <path
       sodipodi:type="arc"
       style="fill:#75d058;fill-opacity:1;stroke:none"
       id="path3833"
       sodipodi:cx="386.36365"
       sodipodi:cy="137.04907"
       sodipodi:rx="64.646461"
       sodipodi:ry="64.646461"
       d="m 329.87737,168.48894 a 64.646461,64.646461 0 0 1 -0.90784,-61.19016 l 57.39412,29.75029 z"
       transform="matrix(0.93750005,0,0,0.93750005,-8.8000558,797.37702)"
       sodipodi:start="2.6337018"
       sodipodi:end="3.6198129" />
    <path
       sodipodi:type="arc"
       style="fill:#d0ac58;fill-opacity:1;stroke:none"
       id="path3829"
       sodipodi:cx="377.14285"
       sodipodi:cy="130.95238"
       sodipodi:rx="51.42857"
       sodipodi:ry="51.42857"
       d="m 331.69205,106.88742 c 8.83813,-16.692319 26.11501,-27.196829 45.00201,-27.361654 l 0.44879,51.426614 z"
       transform="matrix(0.93750004,0,0,0.93750004,-4.1226708e-6,802.83566)"
       sodipodi:start="3.6285395"
       sodipodi:end="4.7036623" />
    <text
       xml:space="preserve"
       x="106.18669"
       y="827.61414"
       style="font-size:13.80650139px;font-style:normal;font-weight:normal;text-align:start;text-anchor:start;fill:#000000;font-family:Calibri"
       id="text3012" />
    <text
       xml:space="preserve"
       x="291.07373"
       y="946.5672"
       style="font-size:13.80650139px;font-style:normal;font-weight:normal;text-align:start;text-anchor:start;fill:#000000;font-family:Calibri"
       id="text3018" />
    <text
       xml:space="preserve"
       x="287.77219"
       y="913.71637"
       style="font-size:13.80650139px;font-style:normal;font-weight:normal;text-align:start;text-anchor:start;fill:#000000;font-family:Calibri"
       id="text3022" />
    <path
       inkscape:connector-curvature="0"
       style="fill:none;stroke:none"
       clip-path="url(#clipEmfPath2)"
       d="M 247.35398,5.5501429 V 217.4306 h 15.94501 V 5.5501429 z"
       id="path3024"
       transform="translate(106.18669,814.56382)" />
    <path
       sodipodi:end="4.7036623"
       sodipodi:start="3.6285395"
       transform="matrix(0.93750004,0,0,-0.93750004,-4.1226708e-6,1049.8748)"
       d="m 331.69205,106.88742 c 8.83813,-16.692319 26.11501,-27.196829 45.00201,-27.361654 l 0.44879,51.426614 z"
       sodipodi:ry="51.42857"
       sodipodi:rx="51.42857"
       sodipodi:cy="130.95238"
       sodipodi:cx="377.14285"
       id="path3831"
       style="fill:#d0ac58;fill-opacity:1;stroke:none"
       sodipodi:type="arc" />
    <path
       inkscape:connector-curvature="0"
       style="fill:#ffffff;stroke:#fefefe;stroke-width:1.90406811;stroke-linecap:round;stroke-linejoin:round;stroke-miterlimit:4;stroke-opacity:1;stroke-dasharray:none"
       d="m 353.54067,818.23891 0.0657,219.46779"
       id="path3026" />
    <path
       inkscape:connector-curvature="0"
       style="fill:#fefefe;fill-opacity:1;fill-rule:nonzero;stroke:#ffffff;stroke-width:0.15007067px;stroke-linecap:butt;stroke-linejoin:bevel;stroke-opacity:1;stroke-dasharray:none"
       d="m 353.54067,926.04947 h -2.81383 c -0.25324,0 -0.46897,-0.20625 -0.46897,-0.46876 0,-0.25313 0.21573,-0.46876 0.46897,-0.46876 h 2.81383 c 0.26262,0 0.46897,0.21563 0.46897,0.46876 0,0.26251 -0.20635,0.46876 -0.46897,0.46876 z m -6.56559,0 h -2.81383 c -0.25324,0 -0.46897,-0.20625 -0.46897,-0.46876 0,-0.25313 0.21573,-0.46876 0.46897,-0.46876 h 2.81383 c 0.26262,0 0.46897,0.21563 0.46897,0.46876 0,0.26251 -0.20635,0.46876 -0.46897,0.46876 z m -6.56559,0 h -2.81383 c -0.25324,0 -0.46897,-0.20625 -0.46897,-0.46876 0,-0.25313 0.21573,-0.46876 0.46897,-0.46876 h 2.81383 c 0.26262,0 0.46897,0.21563 0.46897,0.46876 0,0.26251 -0.20635,0.46876 -0.46897,0.46876 z m -6.5656,0 h -2.81382 c -0.25324,0 -0.46897,-0.20625 -0.46897,-0.46876 0,-0.25313 0.21573,-0.46876 0.46897,-0.46876 h 2.81382 c 0.26263,0 0.46898,0.21563 0.46898,0.46876 0,0.26251 -0.20635,0.46876 -0.46898,0.46876 z m -6.56559,0 h -2.81382 c -0.25325,0 -0.46897,-0.20625 -0.46897,-0.46876 0,-0.25313 0.21572,-0.46876 0.46897,-0.46876 h 2.81382 c 0.26263,0 0.46897,0.21563 0.46897,0.46876 0,0.26251 -0.20634,0.46876 -0.46897,0.46876 z m -6.56559,0 h -2.81382 c -0.25325,0 -0.46898,-0.20625 -0.46898,-0.46876 0,-0.25313 0.21573,-0.46876 0.46898,-0.46876 h 2.81382 c 0.26262,0 0.46897,0.21563 0.46897,0.46876 0,0.26251 -0.20635,0.46876 -0.46897,0.46876 z m -6.56559,0 h -2.81383 c -0.25324,0 -0.46897,-0.20625 -0.46897,-0.46876 0,-0.25313 0.21573,-0.46876 0.46897,-0.46876 h 2.81383 c 0.26262,0 0.46897,0.21563 0.46897,0.46876 0,0.26251 -0.20635,0.46876 -0.46897,0.46876 z m -6.56559,0 h -2.81383 c -0.25324,0 -0.46897,-0.20625 -0.46897,-0.46876 0,-0.25313 0.21573,-0.46876 0.46897,-0.46876 h 2.81383 c 0.26262,0 0.46897,0.21563 0.46897,0.46876 0,0.26251 -0.20635,0.46876 -0.46897,0.46876 z m -6.56559,0 h -2.81383 c -0.25324,0 -0.46897,-0.20625 -0.46897,-0.46876 0,-0.25313 0.21573,-0.46876 0.46897,-0.46876 h 2.81383 c 0.26262,0 0.46897,0.21563 0.46897,0.46876 0,0.26251 -0.20635,0.46876 -0.46897,0.46876 z m -6.5656,0 h -2.81382 c -0.25325,0 -0.46897,-0.20625 -0.46897,-0.46876 0,-0.25313 0.21572,-0.46876 0.46897,-0.46876 h 2.81382 c 0.26263,0 0.46897,0.21563 0.46897,0.46876 0,0.26251 -0.20634,0.46876 -0.46897,0.46876 z m -6.56559,0 h -2.81382 c -0.25325,0 -0.46897,-0.20625 -0.46897,-0.46876 0,-0.25313 0.21572,-0.46876 0.46897,-0.46876 h 2.81382 c 0.26263,0 0.46897,0.21563 0.46897,0.46876 0,0.26251 -0.20634,0.46876 -0.46897,0.46876 z m -6.56559,0 h -2.81382 c -0.25325,0 -0.46898,-0.20625 -0.46898,-0.46876 0,-0.25313 0.21573,-0.46876 0.46898,-0.46876 h 2.81382 c 0.26262,0 0.46897,0.21563 0.46897,0.46876 0,0.26251 -0.20635,0.46876 -0.46897,0.46876 z m -6.56559,0 h -2.81383 c -0.25324,0 -0.46897,-0.20625 -0.46897,-0.46876 0,-0.25313 0.21573,-0.46876 0.46897,-0.46876 h 2.81383 c 0.26262,0 0.46897,0.21563 0.46897,0.46876 0,0.26251 -0.20635,0.46876 -0.46897,0.46876 z m -6.56559,0 h -2.81383 c -0.25324,0 -0.46897,-0.20625 -0.46897,-0.46876 0,-0.25313 0.21573,-0.46876 0.46897,-0.46876 h 2.81383 c 0.26262,0 0.46897,0.21563 0.46897,0.46876 0,0.26251 -0.20635,0.46876 -0.46897,0.46876 z m -6.56559,0 h -2.81383 c -0.25324,0 -0.46897,-0.20625 -0.46897,-0.46876 0,-0.25313 0.21573,-0.46876 0.46897,-0.46876 h 2.81383 c 0.26262,0 0.46897,0.21563 0.46897,0.46876 0,0.26251 -0.20635,0.46876 -0.46897,0.46876 z m -6.5656,0 h -2.81382 c -0.25325,0 -0.46897,-0.20625 -0.46897,-0.46876 0,-0.25313 0.21572,-0.46876 0.46897,-0.46876 h 2.81382 c 0.26263,0 0.46897,0.21563 0.46897,0.46876 0,0.26251 -0.20634,0.46876 -0.46897,0.46876 z m -6.56559,0 h -2.81382 c -0.25325,0 -0.46897,-0.20625 -0.46897,-0.46876 0,-0.25313 0.21572,-0.46876 0.46897,-0.46876 h 2.81382 c 0.26263,0 0.46897,0.21563 0.46897,0.46876 0,0.26251 -0.20634,0.46876 -0.46897,0.46876 z m -6.56559,0 h -2.81383 c -0.25324,0 -0.46897,-0.20625 -0.46897,-0.46876 0,-0.25313 0.21573,-0.46876 0.46897,-0.46876 h 2.81383 c 0.26262,0 0.46897,0.21563 0.46897,0.46876 0,0.26251 -0.20635,0.46876 -0.46897,0.46876 z m -6.56559,0 h -2.81383 c -0.25324,0 -0.46897,-0.20625 -0.46897,-0.46876 0,-0.25313 0.21573,-0.46876 0.46897,-0.46876 h 2.81383 c 0.26262,0 0.46897,0.21563 0.46897,0.46876 0,0.26251 -0.20635,0.46876 -0.46897,0.46876 z m -6.56559,0 h -2.81383 c -0.25324,0 -0.46897,-0.20625 -0.46897,-0.46876 0,-0.25313 0.21573,-0.46876 0.46897,-0.46876 h 2.81383 c 0.26262,0 0.46897,0.21563 0.46897,0.46876 0,0.26251 -0.20635,0.46876 -0.46897,0.46876 z m -6.5656,0 h -2.81382 c -0.25324,0 -0.46897,-0.20625 -0.46897,-0.46876 0,-0.25313 0.21573,-0.46876 0.46897,-0.46876 h 2.81382 c 0.26263,0 0.46898,0.21563 0.46898,0.46876 0,0.26251 -0.20635,0.46876 -0.46898,0.46876 z m -6.56559,0 h -2.81382 c -0.25325,0 -0.46897,-0.20625 -0.46897,-0.46876 0,-0.25313 0.21572,-0.46876 0.46897,-0.46876 h 2.81382 c 0.26263,0 0.46897,0.21563 0.46897,0.46876 0,0.26251 -0.20634,0.46876 -0.46897,0.46876 z m -6.56559,0 h -2.81382 c -0.25325,0 -0.46897,-0.20625 -0.46897,-0.46876 0,-0.25313 0.21572,-0.46876 0.46897,-0.46876 h 2.81382 c 0.26262,0 0.46897,0.21563 0.46897,0.46876 0,0.26251 -0.20635,0.46876 -0.46897,0.46876 z m -6.56559,0 h -2.81383 c -0.25324,0 -0.46897,-0.20625 -0.46897,-0.46876 0,-0.25313 0.21573,-0.46876 0.46897,-0.46876 h 2.81383 c 0.26262,0 0.46897,0.21563 0.46897,0.46876 0,0.26251 -0.20635,0.46876 -0.46897,0.46876 z m -6.56559,0 h -2.81383 c -0.25324,0 -0.46897,-0.20625 -0.46897,-0.46876 0,-0.25313 0.21573,-0.46876 0.46897,-0.46876 h 2.81383 c 0.26262,0 0.46897,0.21563 0.46897,0.46876 0,0.26251 -0.20635,0.46876 -0.46897,0.46876 z m -6.56559,0 h -2.81383 c -0.25324,0 -0.46897,-0.20625 -0.46897,-0.46876 0,-0.25313 0.21573,-0.46876 0.46897,-0.46876 h 2.81383 c 0.26262,0 0.46897,0.21563 0.46897,0.46876 0,0.26251 -0.20635,0.46876 -0.46897,0.46876 z"
       id="path3028" />
    <path
       inkscape:connector-curvature="0"
       style="fill:#ffffff;fill-opacity:1;fill-rule:nonzero;stroke:none;stroke-width:0.15007066999999999px;stroke-linecap:butt;stroke-linejoin:bevel;stroke-opacity:1;stroke-dasharray:none"
       d="m 201.95991,843.07393 146.38456,79.45517 c 0.30952,0.15938 0.42208,0.54376 0.25325,0.84377 -0.15945,0.30938 -0.54401,0.41251 -0.84415,0.25313 L 201.35963,844.17083 c -0.30014,-0.16875 -0.41269,-0.54376 -0.24386,-0.85315 0.15945,-0.3 0.544,-0.41251 0.84415,-0.24375 z m 146.7785,76.10821 4.80226,6.87205 -8.37582,-0.28126 z"
       id="path3030" />
    <path
       inkscape:connector-curvature="0"
       style="fill:#ffffff;fill-opacity:1;fill-rule:nonzero;stroke:none;stroke-width:0.15007066999999999px;stroke-linecap:butt;stroke-linejoin:bevel;stroke-opacity:1;stroke-dasharray:none"
       d="m 352.90287,927.61048 -146.32828,79.45512 c -0.30014,0.1594 -0.67532,0.047 -0.84415,-0.2531 -0.16883,-0.3 -0.0563,-0.6844 0.25324,-0.8438 l 146.32829,-79.45512 c 0.30014,-0.16876 0.67531,-0.0562 0.84414,0.24375 0.16883,0.30939 0.0563,0.6844 -0.25324,0.85315 z m -143.73018,81.60212 -8.3852,0.2812 4.80226,-6.872 z"
       id="path3032" />
    <text
       xml:space="preserve"
       x="194.57831"
       y="832.11426"
       style="font-size:13.80650139px;font-style:normal;font-weight:normal;text-align:start;text-anchor:start;fill:#000000;font-family:Calibri"
       id="text3040" />
    <text
       xml:space="preserve"
       x="186.17435"
       y="1024.4192"
       style="font-size:13.80650139px;font-style:normal;font-weight:normal;text-align:start;text-anchor:start;fill:#000000;font-family:Calibri"
       id="text3044" />
    <text
       xml:space="preserve"
       x="205.68355"
       y="919.4165"
       style="font-size:13.80650139px;font-style:normal;font-weight:normal;text-align:start;text-anchor:start;fill:#000000;font-family:Calibri"
       id="text3048" />
    <path
       inkscape:connector-curvature="0"
       style="fill:none;stroke:#000000;stroke-width:0.93794167px;stroke-linecap:round;stroke-linejoin:round;stroke-opacity:1;stroke-dasharray:none"
       clip-path="url(#clipEmfPath5)"
       d="m 203.21444,88.183521 c 8.42272,-16.172292 25.16498,-26.316303 43.4267,-26.316303 0.44084,0 0.89105,0.0094 1.34126,0.01875"
       id="path3050"
       transform="translate(106.18669,814.56382)" />
    <text
       xml:space="preserve"
       x="329.34177"
       y="867.81519"
       style="font-size:13.80650139px;font-style:normal;font-weight:normal;text-align:start;text-anchor:start;fill:#000000;font-family:Calibri"
       id="text3056" />
    <text
       xml:space="preserve"
       x="330.99255"
       y="984.06818"
       style="font-size:13.80650139px;font-style:normal;font-weight:normal;text-align:start;text-anchor:start;fill:#000000;font-family:Calibri"
       id="text3062" />
    <text
       xml:space="preserve"
       style="font-style:normal;font-variant:normal;font-weight:normal;font-stretch:normal;line-height:0%;letter-spacing:0px;word-spacing:0px;fill:#ffffff;fill-opacity:1;stroke:none;font-family:Cambria;-inkscape-font-specification:Cambria"
       x="62.321426"
       y="833.255"
       id="text3135"
       sodipodi:linespacing="0%"><tspan
         sodipodi:role="line"
         id="tspan3137"
         x="62.321426"
         y="833.255"
         style="font-size:14px;line-height:1.25;fill:#ffffff">incoming (incident) ray</tspan></text>
    <text
       xml:space="preserve"
       style="font-style:normal;font-variant:normal;font-weight:normal;font-stretch:normal;line-height:0%;letter-spacing:0px;word-spacing:0px;fill:#ffffff;fill-opacity:1;stroke:none;font-family:Cambria;-inkscape-font-specification:Cambria"
       x="109.59821"
       y="1016.7372"
       id="text3139"
       sodipodi:linespacing="0%"><tspan
         sodipodi:role="line"
         id="tspan3141"
         x="109.59821"
         y="1016.7372"
         style="font-size:14px;line-height:1.25;fill:#ffffff">reflected ray</tspan></text>
    <text
       xml:space="preserve"
       style="font-style:normal;font-variant:normal;font-weight:normal;font-stretch:normal;line-height:0%;letter-spacing:0px;word-spacing:0px;fill:#ffffff;fill-opacity:1;stroke:none;font-family:Cambria;-inkscape-font-specification:Cambria"
       x="78.749992"
       y="928.92468"
       id="text3143"
       sodipodi:linespacing="0%"><tspan
         sodipodi:role="line"
         id="tspan3145"
         x="78.749992"
         y="928.92468"
         style="font-size:14px;line-height:1.25;fill:#ffffff">surface normal</tspan></text>
    <path
       style="fill:#ffffff;stroke:#fefefe;stroke-width:1px;stroke-linecap:butt;stroke-linejoin:miter;stroke-opacity:1"
       d="M 369.28571,17.857143 353.92857,33.214285"
       id="path5391"
       inkscape:connector-curvature="0"
       transform="translate(0,802.36218)" />
    <path
       inkscape:connector-curvature="0"
       id="path5393"
       d="m 369.28571,830.21932 -15.35714,15.35715"
       style="fill:#ffffff;stroke:#fefefe;stroke-width:1px;stroke-linecap:butt;stroke-linejoin:miter;stroke-opacity:1" />
    <path
       style="fill:#ffffff;stroke:#fefefe;stroke-width:1px;stroke-linecap:butt;stroke-linejoin:miter;stroke-opacity:1"
       d="m 369.28571,840.21932 -15.35714,15.35715"
       id="path5395"
       inkscape:connector-curvature="0" />
    <path
       inkscape:connector-curvature="0"
       id="path5397"
       d="m 369.28571,850.21932 -15.35714,15.35715"
       style="fill:#ffffff;stroke:#fefefe;stroke-width:1px;stroke-linecap:butt;stroke-linejoin:miter;stroke-opacity:1" />
    <path
       style="fill:#ffffff;stroke:#fefefe;stroke-width:1px;stroke-linecap:butt;stroke-linejoin:miter;stroke-opacity:1"
       d="m 369.28571,860.21932 -15.35714,15.35715"
       id="path5399"
       inkscape:connector-curvature="0" />
    <path
       inkscape:connector-curvature="0"
       id="path5401"
       d="m 369.28571,870.21932 -15.35714,15.35715"
       style="fill:#ffffff;stroke:#fefefe;stroke-width:1px;stroke-linecap:butt;stroke-linejoin:miter;stroke-opacity:1" />
    <path
       style="fill:#ffffff;stroke:#fefefe;stroke-width:1px;stroke-linecap:butt;stroke-linejoin:miter;stroke-opacity:1"
       d="m 369.28571,880.21932 -15.35714,15.35715"
       id="path5403"
       inkscape:connector-curvature="0" />
    <path
       inkscape:connector-curvature="0"
       id="path5405"
       d="m 369.28571,890.21932 -15.35714,15.35715"
       style="fill:#ffffff;stroke:#fefefe;stroke-width:1px;stroke-linecap:butt;stroke-linejoin:miter;stroke-opacity:1" />
    <path
       style="fill:#ffffff;stroke:#fefefe;stroke-width:1px;stroke-linecap:butt;stroke-linejoin:miter;stroke-opacity:1"
       d="m 369.28571,900.21932 -15.35714,15.35715"
       id="path5407"
       inkscape:connector-curvature="0" />
    <path
       inkscape:connector-curvature="0"
       id="path5409"
       d="m 369.28571,910.21932 -15.35714,15.35715"
       style="fill:#ffffff;stroke:#fefefe;stroke-width:1px;stroke-linecap:butt;stroke-linejoin:miter;stroke-opacity:1" />
    <path
       style="fill:#ffffff;stroke:#fefefe;stroke-width:1px;stroke-linecap:butt;stroke-linejoin:miter;stroke-opacity:1"
       d="m 369.28571,920.21932 -15.35714,15.35715"
       id="path5411"
       inkscape:connector-curvature="0" />
    <path
       inkscape:connector-curvature="0"
       id="path5413"
       d="m 369.28571,930.21932 -15.35714,15.35715"
       style="fill:#ffffff;stroke:#fefefe;stroke-width:1px;stroke-linecap:butt;stroke-linejoin:miter;stroke-opacity:1" />
    <path
       style="fill:#ffffff;stroke:#fefefe;stroke-width:1px;stroke-linecap:butt;stroke-linejoin:miter;stroke-opacity:1"
       d="m 369.28571,940.21932 -15.35714,15.35715"
       id="path5415"
       inkscape:connector-curvature="0" />
    <path
       inkscape:connector-curvature="0"
       id="path5417"
       d="m 369.28571,950.21932 -15.35714,15.35715"
       style="fill:#ffffff;stroke:#fefefe;stroke-width:1px;stroke-linecap:butt;stroke-linejoin:miter;stroke-opacity:1" />
    <path
       style="fill:#ffffff;stroke:#fefefe;stroke-width:1px;stroke-linecap:butt;stroke-linejoin:miter;stroke-opacity:1"
       d="m 369.28571,960.21932 -15.35714,15.35715"
       id="path5419"
       inkscape:connector-curvature="0" />
    <path
       inkscape:connector-curvature="0"
       id="path5421"
       d="m 369.28571,970.21932 -15.35714,15.35715"
       style="fill:#ffffff;stroke:#fefefe;stroke-width:1px;stroke-linecap:butt;stroke-linejoin:miter;stroke-opacity:1" />
    <path
       style="fill:#ffffff;stroke:#fefefe;stroke-width:1px;stroke-linecap:butt;stroke-linejoin:miter;stroke-opacity:1"
       d="m 369.28571,980.21932 -15.35714,15.35715"
       id="path5423"
       inkscape:connector-curvature="0" />
    <path
       inkscape:connector-curvature="0"
       id="path5425"
       d="m 369.28571,990.21932 -15.35714,15.35718"
       style="fill:#ffffff;stroke:#fefefe;stroke-width:1px;stroke-linecap:butt;stroke-linejoin:miter;stroke-opacity:1" />
    <path
       style="fill:#ffffff;stroke:#fefefe;stroke-width:1px;stroke-linecap:butt;stroke-linejoin:miter;stroke-opacity:1"
       d="m 369.28571,1000.2193 -15.35714,15.3572"
       id="path5427"
       inkscape:connector-curvature="0" />
    <path
       inkscape:connector-curvature="0"
       id="path5429"
       d="m 369.28571,1010.2193 -15.35714,15.3572"
       style="fill:#ffffff;stroke:#fefefe;stroke-width:1px;stroke-linecap:butt;stroke-linejoin:miter;stroke-opacity:1" />
    <path
       style="fill:#ffffff;stroke:#fefefe;stroke-width:1px;stroke-linecap:butt;stroke-linejoin:miter;stroke-opacity:1"
       d="m 369.28571,1020.2193 -15.35714,15.3572"
       id="path5431"
       inkscape:connector-curvature="0" />
    <path
       inkscape:connector-curvature="0"
       id="path5433"
       d="m 369.28571,810.21932 -15.35714,15.35715"
       style="fill:#ffffff;stroke:#fefefe;stroke-width:1px;stroke-linecap:butt;stroke-linejoin:miter;stroke-opacity:1" />
    <text
       xml:space="preserve"
       style="font-style:normal;font-variant:normal;font-weight:normal;font-stretch:normal;line-height:0%;letter-spacing:0px;word-spacing:0px;fill:#ffffff;fill-opacity:1;stroke:none;font-family:Cambria;-inkscape-font-specification:Cambria"
       x="275"
       y="913.79077"
       id="text5435"
       sodipodi:linespacing="0%"><tspan
         sodipodi:role="line"
         id="tspan5437"
         x="275"
         y="913.79077"
         style="font-size:14px;font-style:italic;line-height:1.25;fill:#ffffff;-inkscape-font-specification:Cambria Italic">θ</tspan></text>
    <text
       xml:space="preserve"
       style="font-style:normal;font-variant:normal;font-weight:normal;font-stretch:normal;line-height:0%;letter-spacing:0px;word-spacing:0px;fill:#ffffff;fill-opacity:1;stroke:none;font-family:Cambria;-inkscape-font-specification:Cambria"
       x="273.57144"
       y="947.36218"
       id="text5439"
       sodipodi:linespacing="0%"><tspan
         sodipodi:role="line"
         id="tspan5441"
         x="273.57144"
         y="947.36218"
         style="font-size:14px;font-style:italic;line-height:1.25;fill:#ffffff;-inkscape-font-specification:Cambria Italic">θ'</tspan></text>
    <text
       xml:space="preserve"
       style="font-style:normal;font-variant:normal;font-weight:normal;font-stretch:normal;line-height:0%;letter-spacing:0px;word-spacing:0px;fill:#ffffff;fill-opacity:1;stroke:none;font-family:Cambria;-inkscape-font-specification:Cambria"
       x="324.28571"
       y="872.36218"
       id="text5443"
       sodipodi:linespacing="0%"><tspan
         sodipodi:role="line"
         id="tspan5445"
         x="324.28571"
         y="872.36218"
         style="font-size:14px;font-style:italic;line-height:1.25;fill:#ffffff;-inkscape-font-specification:Cambria Italic">α</tspan></text>
    <text
       xml:space="preserve"
       style="font-style:normal;font-variant:normal;font-weight:normal;font-stretch:normal;line-height:0%;letter-spacing:0px;word-spacing:0px;fill:#ffffff;fill-opacity:1;stroke:none;font-family:Cambria;-inkscape-font-specification:Cambria"
       x="322.14285"
       y="985.2193"
       id="text5447"
       sodipodi:linespacing="0%"><tspan
         sodipodi:role="line"
         id="tspan5449"
         x="322.14285"
         y="985.2193"
         style="font-size:14px;font-style:italic;line-height:1.25;fill:#ffffff;-inkscape-font-specification:Cambria Italic">α'</tspan></text>
  </g>
</svg>
