<?xml version="1.0" encoding="UTF-8" standalone="no"?>
<!-- Created with Inkscape (http://www.inkscape.org/) -->

<svg
   xmlns:dc="http://purl.org/dc/elements/1.1/"
   xmlns:cc="http://creativecommons.org/ns#"
   xmlns:rdf="http://www.w3.org/1999/02/22-rdf-syntax-ns#"
   xmlns:svg="http://www.w3.org/2000/svg"
   xmlns="http://www.w3.org/2000/svg"
   xmlns:sodipodi="http://sodipodi.sourceforge.net/DTD/sodipodi-0.dtd"
   xmlns:inkscape="http://www.inkscape.org/namespaces/inkscape"
   width="490.66666"
   height="266.66666"
   id="svg2"
   version="1.1"
   inkscape:version="0.92.2 (5c3e80d, 2017-08-06)"
   sodipodi:docname="virtimage.svg"
   viewBox="0 0 460 250">
  <defs
     id="defs4">
    <clipPath
       id="clipEmfPath1"
       clipPathUnits="userSpaceOnUse">
      <rect
         id="rect2990"
         height="23.697182"
         width="30.90143"
         y="139.48341"
         x="41.251911" />
    </clipPath>
    <clipPath
       id="clipEmfPath2"
       clipPathUnits="userSpaceOnUse">
      <rect
         id="rect2993"
         height="23.697182"
         width="30.90143"
         y="4.499465"
         x="79.653687" />
    </clipPath>
    <clipPath
       id="clipEmfPath3"
       clipPathUnits="userSpaceOnUse">
      <rect
         id="rect2996"
         height="23.697182"
         width="30.90143"
         y="107.53721"
         x="180.00835" />
    </clipPath>
    <clipPath
       id="clipEmfPath4"
       clipPathUnits="userSpaceOnUse">
      <rect
         id="rect2999"
         height="23.697182"
         width="30.90143"
         y="190.0274"
         x="0" />
    </clipPath>
    <clipPath
       id="clipEmfPath5"
       clipPathUnits="userSpaceOnUse">
      <rect
         id="rect3002"
         height="23.697182"
         width="30.90143"
         y="186.27785"
         x="224.11038" />
    </clipPath>
  </defs>
  <sodipodi:namedview
     id="base"
     pagecolor="#ffffff"
     bordercolor="#666666"
     borderopacity="1.0"
     inkscape:pageopacity="0.0"
     inkscape:pageshadow="2"
     inkscape:zoom="1.4"
     inkscape:cx="375"
     inkscape:cy="155.20483"
     inkscape:document-units="px"
     inkscape:current-layer="layer1"
     showgrid="false"
     inkscape:window-width="1097"
     inkscape:window-height="668"
     inkscape:window-x="-8"
     inkscape:window-y="-8"
     inkscape:window-maximized="1" />
  <metadata
     id="metadata7">
    <rdf:RDF>
      <cc:Work
         rdf:about="">
        <dc:format>image/svg+xml</dc:format>
        <dc:type
           rdf:resource="http://purl.org/dc/dcmitype/StillImage" />
        <dc:title></dc:title>
      </cc:Work>
    </rdf:RDF>
  </metadata>
  <g
     inkscape:label="Layer 1"
     inkscape:groupmode="layer"
     id="layer1"
     transform="translate(0,-802.36218)">
    <text
       xml:space="preserve"
       x="115.94077"
       y="833.91809"
       style="font-style:normal;font-weight:normal;font-size:13.80063915px;font-family:Calibri;text-align:start;text-anchor:start;fill:#000000"
       id="text3006" />
    <path
       inkscape:connector-curvature="0"
       style="fill:#ffffff;fill-opacity:1;fill-rule:evenodd;stroke:none"
       d="m 157.11768,955.72237 v 32.8086 h 30.93893 v -32.8086 z"
       id="path3008" />
    <text
       xml:space="preserve"
       x="196.1931"
       y="1008.4016"
       style="font-style:normal;font-weight:normal;font-size:13.80063915px;line-height:0%;font-family:Calibri;text-align:start;text-anchor:start;fill:#000000"
       id="text3010">I</text>
    <text
       xml:space="preserve"
       x="169.64326"
       y="973.40155"
       style="font-style:normal;font-weight:normal;font-size:13.80063915px;font-family:Calibri;text-align:start;text-anchor:start;fill:#000000"
       id="text3012" />
    <path
       inkscape:connector-curvature="0"
       style="fill:none;stroke:#000000;stroke-width:0.93754339px;stroke-linecap:round;stroke-linejoin:round;stroke-dasharray:none;stroke-opacity:1"
       clip-path="url(#clipEmfPath1)"
       d="m 129.37162,52.362521 0.0656,157.481269"
       id="path3014"
       transform="translate(125.94077,820.86966)" />
    <path
       inkscape:connector-curvature="0"
       style="fill:#000000;fill-opacity:1;fill-rule:nonzero;stroke:#000000;stroke-width:0.15000695px;stroke-linecap:butt;stroke-linejoin:bevel;stroke-dasharray:none;stroke-opacity:1"
       d="m 151.71743,1019.3804 94.85126,-61.87699 c 0.29064,-0.18748 0.67504,-0.11249 0.86254,0.1781 0.18751,0.29059 0.10313,0.67492 -0.17813,0.8624 l -94.85127,61.87699 c -0.29064,0.1875 -0.67503,0.1125 -0.86254,-0.1781 -0.18751,-0.2906 -0.1125,-0.6749 0.17814,-0.8624 z m 83.24448,-59.48665 13.38812,-2.81217 -7.96912,11.11743 c -0.19689,0.28122 -0.59065,0.34683 -0.87192,0.14061 -0.28126,-0.19685 -0.33751,-0.59056 -0.14063,-0.87177 l 7.03158,-9.80509 0.63753,0.97489 -11.81305,2.48408 c -0.33752,0.0656 -0.67503,-0.14999 -0.74066,-0.48745 -0.075,-0.33746 0.14063,-0.66554 0.47815,-0.74053 z"
       id="path3016" />
    <path
       inkscape:connector-curvature="0"
       style="fill:#000000;fill-opacity:1;fill-rule:nonzero;stroke:#000000;stroke-width:0.15000695px;stroke-linecap:butt;stroke-linejoin:bevel;stroke-dasharray:none;stroke-opacity:1"
       d="m 151.64242,1019.4367 94.01686,-83.52135 c 0.25313,-0.22497 0.6469,-0.20623 0.88129,0.0562 0.22501,0.2531 0.20626,0.6468 -0.0562,0.88115 l -94.00748,83.5119 c -0.26251,0.2344 -0.65628,0.2063 -0.88129,-0.047 -0.23439,-0.2624 -0.20626,-0.6561 0.0469,-0.8811 z m 82.89759,-79.43434 12.81622,-4.76193 -6.23466,12.1673 c -0.15938,0.30934 -0.5344,0.4312 -0.84379,0.27185 -0.30002,-0.15936 -0.4219,-0.53432 -0.27189,-0.84365 l 5.50338,-10.7331 0.77816,0.86239 -11.31615,4.20888 c -0.32814,0.11249 -0.6844,-0.0469 -0.80628,-0.37496 -0.12189,-0.31871 0.0469,-0.68429 0.37501,-0.79678 z"
       id="path3018" />
    <path
       inkscape:connector-curvature="0"
       style="fill:#000000;fill-opacity:1;fill-rule:nonzero;stroke:#000000;stroke-width:0.15000695px;stroke-linecap:butt;stroke-linejoin:bevel;stroke-dasharray:none;stroke-opacity:1"
       d="m 151.03917,1020.0177 95.03592,-105.98355 c 0.23363,-0.25998 0.64247,-0.28886 0.91504,-0.0577 0.26282,0.24071 0.29202,0.64512 0.0487,0.91472 l -95.03595,105.98333 c -0.23363,0.26 -0.64247,0.289 -0.91503,0.048 -0.26283,-0.231 -0.29203,-0.6354 -0.0487,-0.905 z m 84.07512,-100.46629 12.63511,-6.41274 -4.93529,13.17212 c -0.12655,0.32737 -0.49645,0.50069 -0.83715,0.37552 -0.33097,-0.12518 -0.50619,-0.49107 -0.37964,-0.81845 l 4.35123,-11.6315 0.90529,0.79918 -11.14576,5.66169 c -0.32124,0.15407 -0.71061,0.0385 -0.87609,-0.27923 -0.16548,-0.31775 -0.0389,-0.70289 0.2823,-0.86659 z"
       id="path3020" />
    <path
       inkscape:connector-curvature="0"
       style="fill:#000000;fill-opacity:1;fill-rule:nonzero;stroke:#000000;stroke-width:0.15000695px;stroke-linecap:butt;stroke-linejoin:bevel;stroke-dasharray:none;stroke-opacity:1"
       d="M 245.90304,958.17833 167.2994,906.12514 c -0.29064,-0.18747 -0.36564,-0.5718 -0.17814,-0.86239 0.19689,-0.29059 0.58128,-0.36559 0.87192,-0.17811 l 78.60364,52.05319 c 0.29064,0.18747 0.36564,0.58118 0.17813,0.86239 -0.19688,0.29059 -0.58127,0.36558 -0.87191,0.17811 z m -71.80645,-42.35122 -7.89412,-11.17367 13.36937,2.90591 c 0.33752,0.075 0.55315,0.40307 0.47815,0.74053 -0.075,0.33746 -0.40314,0.55306 -0.74066,0.47807 l -11.7943,-2.55907 0.63753,-0.97488 6.96595,9.86132 c 0.19689,0.28122 0.13126,0.67492 -0.15001,0.87178 -0.28126,0.19685 -0.67503,0.13123 -0.87191,-0.14999 z"
       id="path3022" />
    <path
       inkscape:connector-curvature="0"
       style="fill:#000000;fill-opacity:1;fill-rule:nonzero;stroke:#000000;stroke-width:0.15000695px;stroke-linecap:butt;stroke-linejoin:bevel;stroke-dasharray:none;stroke-opacity:1"
       d="m 246.77495,937.49954 -77.8911,-69.57298 c -0.26252,-0.23435 -0.28127,-0.62805 -0.0469,-0.88114 0.22501,-0.26247 0.61877,-0.28122 0.88129,-0.0562 l 77.89111,69.58234 c 0.25313,0.22497 0.27189,0.61868 0.0469,0.88115 -0.23439,0.25309 -0.62816,0.28121 -0.8813,0.0469 z m -72.55648,-58.99924 -6.20654,-12.18605 12.80685,4.79006 c 0.32813,0.12186 0.48752,0.48744 0.37501,0.80615 -0.12188,0.31872 -0.48752,0.48744 -0.80629,0.36558 l -11.30677,-4.22762 0.77816,-0.87177 5.47526,10.75185 c 0.15,0.30934 0.0281,0.68429 -0.27189,0.84365 -0.30939,0.15935 -0.68441,0.0375 -0.84379,-0.27185 z"
       id="path3024" />
    <path
       inkscape:connector-curvature="0"
       style="fill:#000000;fill-opacity:1;fill-rule:nonzero;stroke:#000000;stroke-width:0.15000695px;stroke-linecap:butt;stroke-linejoin:bevel;stroke-dasharray:none;stroke-opacity:1"
       d="M 244.84361,914.01795 174.2466,834.33056 c -0.22501,-0.2531 -0.19689,-0.6468 0.0562,-0.88115 0.26252,-0.22497 0.65628,-0.20622 0.8813,0.0562 l 70.59702,79.67803 c 0.22501,0.26246 0.20626,0.65617 -0.0563,0.88114 -0.25314,0.23435 -0.64691,0.20623 -0.8813,-0.0469 z m -66.52808,-68.56059 -4.74397,-12.83285 12.16932,6.26176 c 0.30939,0.14998 0.42189,0.53431 0.27188,0.83427 -0.15938,0.30934 -0.5344,0.4312 -0.84378,0.27184 l -10.73488,-5.52121 0.87192,-0.76866 4.18144,11.32365 c 0.12188,0.31871 -0.0469,0.68429 -0.36564,0.79678 -0.32814,0.12186 -0.68441,-0.0469 -0.80629,-0.36558 z"
       id="path3026" />
    <path
       inkscape:connector-curvature="0"
       style="fill:#000000;fill-opacity:1;fill-rule:nonzero;stroke:#000000;stroke-width:0.15000695px;stroke-linecap:butt;stroke-linejoin:bevel;stroke-dasharray:none;stroke-opacity:1"
       d="m 334.43526,1014.6091 -2.35323,-1.5373 c -0.21563,-0.1406 -0.28126,-0.4312 -0.14063,-0.6468 0.14063,-0.2156 0.43127,-0.2812 0.6469,-0.1406 l 2.36261,1.5373 c 0.21564,0.1406 0.27189,0.4312 0.13126,0.6468 -0.14063,0.2156 -0.43127,0.2812 -0.64691,0.1406 z m -5.494,-3.5808 -2.36261,-1.5373 c -0.21563,-0.1406 -0.27189,-0.4312 -0.13126,-0.6468 0.14064,-0.2156 0.43127,-0.2812 0.64691,-0.1406 l 2.35323,1.5373 c 0.21564,0.1406 0.28127,0.4312 0.14063,0.6468 -0.14063,0.2156 -0.43127,0.2812 -0.6469,0.1406 z m -5.50338,-3.5808 -2.35323,-1.5374 c -0.21564,-0.1406 -0.28127,-0.4312 -0.14064,-0.6468 0.14064,-0.2249 0.43127,-0.2812 0.64691,-0.1406 l 2.36261,1.5374 c 0.21563,0.1406 0.27189,0.4312 0.13125,0.6468 -0.14063,0.2156 -0.43127,0.2812 -0.6469,0.1406 z m -5.494,-3.5902 -2.36261,-1.528 c -0.21564,-0.1406 -0.27189,-0.4312 -0.13126,-0.6468 0.14063,-0.225 0.43127,-0.2812 0.6469,-0.1406 l 2.35324,1.5373 c 0.21563,0.1406 0.28126,0.4312 0.14063,0.6468 -0.14063,0.2156 -0.43127,0.2812 -0.6469,0.1313 z m -5.50338,-3.5809 -2.35324,-1.5279 c -0.21563,-0.14061 -0.28126,-0.4312 -0.14063,-0.65617 0.14063,-0.2156 0.43127,-0.27184 0.6469,-0.13124 l 2.36261,1.53732 c 0.21564,0.14061 0.27189,0.4312 0.13126,0.64679 -0.14063,0.2156 -0.43127,0.2719 -0.6469,0.1312 z m -5.49401,-3.58078 -2.36261,-1.52794 c -0.21563,-0.14999 -0.28126,-0.44058 -0.13125,-0.65618 0.14063,-0.21559 0.43127,-0.27184 0.6469,-0.13123 l 2.35323,1.52794 c 0.21564,0.14999 0.28127,0.44058 0.14064,0.65618 -0.14064,0.21559 -0.43127,0.27184 -0.64691,0.13123 z m -5.50338,-3.58082 -2.35323,-1.53732 c -0.21564,-0.14061 -0.28127,-0.4312 -0.14063,-0.6468 0.14063,-0.2156 0.43127,-0.27184 0.6469,-0.13123 l 2.36261,1.52794 c 0.21563,0.14061 0.27189,0.4312 0.13126,0.65617 -0.14064,0.2156 -0.43127,0.27184 -0.64691,0.13124 z m -5.50338,-3.58083 -2.35323,-1.53732 c -0.21564,-0.1406 -0.28127,-0.43119 -0.13126,-0.64679 0.14063,-0.2156 0.43127,-0.28122 0.64691,-0.13124 l 2.35323,1.52795 c 0.21564,0.1406 0.28126,0.43119 0.14063,0.64679 -0.14063,0.22498 -0.43127,0.28122 -0.65628,0.14061 z m -5.494,-3.58082 -2.35324,-1.53732 c -0.22501,-0.14061 -0.28126,-0.4312 -0.14063,-0.6468 0.14063,-0.2156 0.43127,-0.28121 0.64691,-0.14061 l 2.36261,1.53732 c 0.21563,0.14061 0.27188,0.4312 0.13125,0.6468 -0.14063,0.22497 -0.43127,0.28122 -0.6469,0.14061 z m -5.50338,-3.58083 -2.35324,-1.53731 c -0.21563,-0.14061 -0.28126,-0.4312 -0.14063,-0.6468 0.15001,-0.2156 0.44065,-0.28122 0.65628,-0.14061 l 2.35324,1.53732 c 0.21563,0.14061 0.28126,0.4312 0.14063,0.6468 -0.14063,0.21559 -0.43127,0.28121 -0.65628,0.1406 z m -5.49401,-3.58082 -2.35323,-1.53732 c -0.22501,-0.14061 -0.28126,-0.4312 -0.14063,-0.6468 0.14063,-0.2156 0.43127,-0.28121 0.6469,-0.1406 l 2.35324,1.53731 c 0.22501,0.14061 0.28126,0.4312 0.14063,0.6468 -0.14063,0.2156 -0.43127,0.28122 -0.64691,0.14061 z m -5.50338,-3.58082 -2.35323,-1.53732 c -0.21564,-0.14061 -0.28126,-0.4312 -0.14063,-0.6468 0.14063,-0.2156 0.43127,-0.28122 0.65628,-0.14061 l 2.35323,1.53732 c 0.21564,0.14061 0.28126,0.4312 0.14063,0.6468 -0.15,0.2156 -0.43127,0.28121 -0.65628,0.14061 z m -5.494,-3.58083 -2.36261,-1.53732 c -0.21564,-0.1406 -0.27189,-0.43119 -0.13126,-0.64679 0.14063,-0.2156 0.43127,-0.28122 0.64691,-0.14061 l 2.35323,1.53732 c 0.22501,0.1406 0.28126,0.43119 0.14063,0.64679 -0.14063,0.2156 -0.43127,0.28122 -0.6469,0.14061 z m -5.50338,-3.58082 -2.35324,-1.53732 c -0.21563,-0.14061 -0.28126,-0.4312 -0.14063,-0.6468 0.14063,-0.2156 0.43127,-0.28121 0.65628,-0.14061 l 2.35324,1.53732 c 0.21563,0.14061 0.28126,0.4312 0.14063,0.6468 -0.15001,0.2156 -0.44065,0.28122 -0.65628,0.14061 z m -5.49401,-3.58083 -2.36261,-1.53731 c -0.21563,-0.14061 -0.27188,-0.4312 -0.13125,-0.6468 0.14063,-0.22498 0.43127,-0.28122 0.6469,-0.14061 l 2.35324,1.53732 c 0.22501,0.14061 0.28126,0.4312 0.14063,0.6468 -0.14063,0.21559 -0.43127,0.28121 -0.64691,0.1406 z m -5.50338,-3.59019 -2.35323,-1.52795 c -0.21563,-0.14061 -0.28126,-0.4312 -0.14063,-0.65617 0.14063,-0.2156 0.43127,-0.27184 0.65628,-0.13123 l 2.35323,1.53731 c 0.21564,0.14061 0.28127,0.4312 0.13126,0.6468 -0.14063,0.2156 -0.43127,0.28122 -0.64691,0.13124 z m -5.494,-3.58083 -2.36261,-1.52794 c -0.21563,-0.14061 -0.27189,-0.4312 -0.13126,-0.65617 0.14064,-0.2156 0.43127,-0.27185 0.64691,-0.13124 l 2.35323,1.53732 c 0.21564,0.14061 0.28127,0.4312 0.14063,0.6468 -0.14063,0.2156 -0.43127,0.27184 -0.6469,0.13123 z m -5.50338,-3.58082 -2.26886,-1.48108 c -0.21563,-0.1406 -0.28126,-0.4312 -0.14063,-0.64679 0.14063,-0.2156 0.43127,-0.27185 0.64691,-0.13124 l 2.27823,1.4717 c 0.21563,0.14998 0.28126,0.44057 0.13125,0.65617 -0.14063,0.2156 -0.43127,0.27185 -0.6469,0.13124 z"
       id="path3028" />
    <path
       inkscape:connector-curvature="0"
       style="fill:#000000;fill-opacity:1;fill-rule:nonzero;stroke:#000000;stroke-width:0.15000695px;stroke-linecap:butt;stroke-linejoin:bevel;stroke-dasharray:none;stroke-opacity:1"
       d="m 334.37901,1014.5622 -2.1001,-1.8654 c -0.19688,-0.1687 -0.21563,-0.4687 -0.0375,-0.6655 0.16876,-0.1875 0.46877,-0.2062 0.65628,-0.038 l 2.10948,1.8654 c 0.1875,0.1781 0.20626,0.4687 0.0375,0.6655 -0.16876,0.1969 -0.46877,0.2156 -0.66566,0.037 z m -4.90335,-4.3588 -2.10947,-1.8654 c -0.18751,-0.1688 -0.20626,-0.4687 -0.0375,-0.6562 0.17814,-0.1968 0.46878,-0.2156 0.66566,-0.037 l 2.1001,1.8654 c 0.19688,0.1687 0.21563,0.4687 0.0375,0.6562 -0.16876,0.1968 -0.46877,0.2156 -0.65628,0.038 z m -4.91273,-4.3495 -2.1001,-1.8654 c -0.19688,-0.1781 -0.21563,-0.4687 -0.0375,-0.6655 0.16876,-0.1969 0.46877,-0.2156 0.65628,-0.038 l 2.10948,1.8654 c 0.1875,0.1687 0.20626,0.4687 0.0375,0.6655 -0.16876,0.1875 -0.46877,0.2062 -0.66566,0.037 z m -4.90335,-4.3589 -2.1001,-1.86535 c -0.19688,-0.17811 -0.21563,-0.4687 -0.0469,-0.66555 0.17813,-0.18748 0.46877,-0.20623 0.66565,-0.0375 l 2.1001,1.8654 c 0.19688,0.1781 0.21563,0.4687 0.0375,0.6655 -0.16876,0.1875 -0.4594,0.2063 -0.65628,0.038 z m -4.91273,-4.35881 -2.1001,-1.8654 c -0.19688,-0.16873 -0.20625,-0.4687 -0.0375,-0.66555 0.16876,-0.18747 0.46877,-0.20622 0.65628,-0.0375 l 2.10948,1.8654 c 0.18751,0.1781 0.20626,0.4687 0.0375,0.66555 -0.16876,0.19685 -0.46877,0.2156 -0.66566,0.0375 z m -4.90335,-4.34948 -2.1001,-1.87478 c -0.19688,-0.16873 -0.21563,-0.46869 -0.0469,-0.65617 0.17813,-0.19685 0.46877,-0.2156 0.66565,-0.0375 l 2.1001,1.8654 c 0.19688,0.16873 0.21563,0.46869 0.0375,0.65617 -0.16876,0.19685 -0.4594,0.2156 -0.65628,0.0469 z m -4.91273,-4.35886 -2.10009,-1.8654 c -0.19689,-0.1781 -0.20626,-0.46869 -0.0375,-0.66555 0.16876,-0.19685 0.46878,-0.20622 0.65628,-0.0375 l 2.10948,1.8654 c 0.18751,0.16873 0.20626,0.4687 0.0375,0.66555 -0.16876,0.18748 -0.46877,0.20622 -0.66566,0.0375 z m -4.90335,-4.35885 -2.1001,-1.86541 c -0.19688,-0.16873 -0.21563,-0.46869 -0.0469,-0.66554 0.17813,-0.18748 0.46877,-0.20623 0.66565,-0.0375 l 2.1001,1.86541 c 0.19688,0.1781 0.21563,0.46869 0.0469,0.66554 -0.17814,0.19685 -0.46878,0.20623 -0.66566,0.0375 z m -4.91273,-4.35886 -2.10009,-1.8654 c -0.19689,-0.16873 -0.20626,-0.4687 -0.0375,-0.65617 0.16876,-0.19686 0.46878,-0.2156 0.66566,-0.0469 l 2.1001,1.87477 c 0.19688,0.16873 0.20626,0.45932 0.0375,0.65617 -0.16876,0.19686 -0.46877,0.2156 -0.66566,0.0375 z m -4.90335,-4.34948 -2.1001,-1.87478 c -0.19688,-0.16873 -0.21563,-0.46869 -0.0469,-0.65617 0.17813,-0.19685 0.46877,-0.2156 0.66565,-0.0375 l 2.1001,1.86541 c 0.19688,0.16873 0.21563,0.46869 0.0469,0.65617 -0.17814,0.19685 -0.46877,0.2156 -0.66566,0.0469 z m -4.90335,-4.35886 -2.10947,-1.8654 c -0.18751,-0.17811 -0.20626,-0.4687 -0.0375,-0.66555 0.16876,-0.19685 0.46878,-0.20622 0.66566,-0.0375 l 2.1001,1.8654 c 0.19688,0.16873 0.20626,0.46869 0.0375,0.66555 -0.16876,0.18747 -0.46877,0.20622 -0.65628,0.0375 z m -4.91273,-4.35886 -2.1001,-1.8654 c -0.19688,-0.16873 -0.21563,-0.46869 -0.0375,-0.66554 0.16876,-0.18748 0.4594,-0.20623 0.65628,-0.0375 l 2.1001,1.8654 c 0.19688,0.17811 0.21563,0.4687 0.0469,0.66555 -0.17814,0.19685 -0.46877,0.20622 -0.66566,0.0375 z m -4.90335,-4.35885 -2.10947,-1.8654 c -0.18751,-0.16873 -0.20626,-0.4687 -0.0375,-0.65618 0.16876,-0.19685 0.46878,-0.2156 0.66566,-0.0469 l 2.1001,1.87478 c 0.19688,0.16873 0.21563,0.46869 0.0375,0.65617 -0.16876,0.19685 -0.46877,0.2156 -0.65628,0.0375 z m -4.91273,-4.34948 -2.1001,-1.87478 c -0.19688,-0.16873 -0.21563,-0.45932 -0.0375,-0.65617 0.16876,-0.19686 0.46877,-0.2156 0.65628,-0.0375 l 2.10948,1.8654 c 0.1875,0.16873 0.20626,0.4687 0.0375,0.65618 -0.17814,0.19685 -0.46877,0.2156 -0.66566,0.0469 z m -4.90335,-4.35886 -2.10947,-1.8654 c -0.18751,-0.17811 -0.20626,-0.4687 -0.0375,-0.66555 0.16875,-0.18748 0.46877,-0.20623 0.66565,-0.0375 l 2.1001,1.86541 c 0.19688,0.16873 0.21563,0.46869 0.0375,0.66554 -0.16876,0.18748 -0.46877,0.20623 -0.65628,0.0375 z m -4.91273,-4.35886 -2.1001,-1.8654 c -0.19688,-0.16873 -0.21563,-0.46869 -0.0375,-0.66555 0.16876,-0.18747 0.46877,-0.20622 0.65628,-0.0375 l 2.10948,1.8654 c 0.1875,0.1781 0.20626,0.4687 0.0375,0.66555 -0.17814,0.19685 -0.46877,0.2156 -0.66566,0.0375 z m -4.90335,-4.35885 -2.10947,-1.86541 c -0.18751,-0.16873 -0.20626,-0.46869 -0.0375,-0.65617 0.17813,-0.19685 0.46877,-0.2156 0.66565,-0.0375 l 2.1001,1.8654 c 0.19688,0.16873 0.21563,0.46869 0.0375,0.65617 -0.16876,0.19685 -0.46877,0.2156 -0.65628,0.0375 z m -4.91273,-4.34949 -2.10009,-1.8654 c -0.19689,-0.1781 -0.21564,-0.46869 -0.0375,-0.66555 0.16876,-0.19685 0.46878,-0.21559 0.65628,-0.0375 l 2.10948,1.8654 c 0.18751,0.16873 0.20626,0.4687 0.0375,0.66555 -0.17813,0.18748 -0.46877,0.20622 -0.66566,0.0375 z m -4.90335,-4.35885 -2.10947,-1.86541 c -0.18751,-0.1781 -0.20626,-0.46869 -0.0375,-0.66554 0.17813,-0.18748 0.46877,-0.20623 0.66565,-0.0375 l 2.1001,1.86541 c 0.19688,0.1781 0.21563,0.46869 0.0375,0.66554 -0.16876,0.18748 -0.46877,0.20623 -0.65628,0.0375 z m -4.91273,-4.35886 -1.44381,-1.27485 c -0.18751,-0.1781 -0.20626,-0.46869 -0.0375,-0.66554 0.16876,-0.19686 0.46878,-0.2156 0.66566,-0.0375 l 1.44382,1.27485 c 0.18751,0.1781 0.20626,0.46869 0.0375,0.66554 -0.16876,0.19686 -0.46877,0.2156 -0.66566,0.0375 z"
       id="path3030" />
    <path
       inkscape:connector-curvature="0"
       style="fill:#000000;fill-opacity:1;fill-rule:nonzero;stroke:#000000;stroke-width:0.15000695px;stroke-linecap:butt;stroke-linejoin:bevel;stroke-dasharray:none;stroke-opacity:1"
       d="m 334.90404,1015.0872 -1.86572,-2.0998 c -0.16875,-0.1968 -0.15938,-0.4968 0.0375,-0.6655 0.19688,-0.1687 0.48752,-0.15 0.66565,0.038 l 1.86571,2.1091 c 0.16876,0.1875 0.15001,0.4875 -0.0375,0.6562 -0.19688,0.1781 -0.4969,0.1593 -0.66565,-0.037 z m -4.35958,-4.9026 -1.86571,-2.1091 c -0.16876,-0.1875 -0.15001,-0.4874 0.0375,-0.6562 0.19688,-0.1781 0.4969,-0.1593 0.66566,0.038 l 1.86571,2.0998 c 0.16875,0.1968 0.15938,0.4874 -0.0375,0.6655 -0.19688,0.1688 -0.48752,0.15 -0.66565,-0.037 z m -4.3502,-4.9119 -1.87509,-2.0997 c -0.16876,-0.1969 -0.15001,-0.4875 0.0469,-0.6656 0.18751,-0.1687 0.48752,-0.15 0.65628,0.038 l 1.86571,2.1092 c 0.17813,0.1874 0.15938,0.4874 -0.0375,0.6561 -0.19689,0.1781 -0.48752,0.1594 -0.65628,-0.038 z m -4.35958,-4.9025 -1.86571,-2.10914 c -0.17813,-0.18748 -0.15938,-0.48744 0.0375,-0.65617 0.18751,-0.17811 0.48752,-0.15936 0.65628,0.0375 l 1.87509,2.09975 c 0.16876,0.19685 0.15001,0.49686 -0.0469,0.66556 -0.18751,0.1687 -0.48752,0.15 -0.65628,-0.038 z m -4.35958,-4.91193 -1.86571,-2.09975 c -0.16876,-0.19685 -0.15938,-0.48745 0.0375,-0.66555 0.19689,-0.16873 0.48753,-0.14998 0.66566,0.0375 l 1.86571,2.10912 c 0.16876,0.18748 0.15001,0.48744 -0.0375,0.65617 -0.19688,0.17811 -0.4969,0.15936 -0.66566,-0.0375 z m -4.35957,-4.90254 -1.86571,-2.10913 c -0.16876,-0.18748 -0.15001,-0.48744 0.0375,-0.65617 0.19688,-0.1781 0.4969,-0.15936 0.66565,0.0375 l 1.86571,2.09975 c 0.16876,0.19686 0.15939,0.49682 -0.0375,0.66555 -0.19688,0.16873 -0.48752,0.14998 -0.66565,-0.0375 z m -4.3502,-4.91192 -1.87509,-2.09975 c -0.16876,-0.19685 -0.15001,-0.48744 0.0469,-0.66555 0.1875,-0.16873 0.48752,-0.14998 0.65628,0.0469 l 1.86571,2.09975 c 0.17813,0.19685 0.15938,0.48744 -0.0375,0.65617 -0.19689,0.17811 -0.48753,0.15936 -0.65628,-0.0375 z m -4.35958,-4.90254 -1.86571,-2.09975 c -0.17814,-0.19685 -0.15939,-0.49682 0.0375,-0.66555 0.18751,-0.16873 0.48752,-0.15935 0.65628,0.0375 l 1.87509,2.09975 c 0.16875,0.19685 0.15,0.49681 -0.0469,0.66554 -0.18751,0.16873 -0.48752,0.15936 -0.65628,-0.0375 z m -4.35958,-4.91192 -1.86571,-2.09975 c -0.17813,-0.19685 -0.15938,-0.48744 0.0375,-0.66554 0.19689,-0.16873 0.48752,-0.14999 0.66566,0.0469 l 1.86571,2.09975 c 0.16876,0.19685 0.15001,0.48744 -0.0375,0.66554 -0.19689,0.16873 -0.4969,0.14998 -0.66566,-0.0469 z m -4.35958,-4.90254 -1.86571,-2.09975 c -0.16875,-0.19685 -0.15,-0.49682 0.0375,-0.66555 0.19689,-0.16873 0.48753,-0.14998 0.66566,0.0375 l 1.86571,2.10912 c 0.16876,0.18748 0.15001,0.48745 -0.0375,0.65618 -0.19688,0.16873 -0.48752,0.15935 -0.66566,-0.0375 z m -4.35957,-4.90254 -1.86571,-2.10913 c -0.16876,-0.18747 -0.15001,-0.48744 0.0375,-0.65617 0.19688,-0.1781 0.4969,-0.15935 0.66565,0.0375 l 1.86572,2.09975 c 0.17813,0.19685 0.15938,0.48744 -0.0375,0.66554 -0.19688,0.16873 -0.48752,0.14999 -0.66565,-0.0375 z m -4.3502,-4.91192 -1.86572,-2.09975 c -0.17813,-0.19685 -0.15938,-0.49681 0.0375,-0.66554 0.18751,-0.16873 0.48752,-0.14999 0.65628,0.0375 l 1.86571,2.10913 c 0.17813,0.18747 0.15938,0.48744 -0.0375,0.65617 -0.18751,0.1781 -0.48753,0.15935 -0.65628,-0.0375 z m -4.35958,-4.90254 -1.86571,-2.10912 c -0.17814,-0.18748 -0.15938,-0.48745 0.0375,-0.65618 0.19688,-0.1781 0.48752,-0.15935 0.66566,0.0375 l 1.86571,2.09975 c 0.16875,0.19685 0.15,0.48744 -0.0375,0.66555 -0.19689,0.16873 -0.4969,0.14998 -0.66566,-0.0375 z m -4.35958,-4.91192 -1.86571,-2.09975 c -0.16876,-0.19685 -0.15001,-0.48744 0.0375,-0.66554 0.19689,-0.16873 0.48753,-0.14998 0.66566,0.0375 l 1.86571,2.10913 c 0.16876,0.18748 0.15001,0.48744 -0.0375,0.65617 -0.19689,0.1781 -0.48752,0.15936 -0.66566,-0.0375 z m -4.35957,-4.90254 -1.86572,-2.10912 c -0.16875,-0.18748 -0.15,-0.48744 0.0375,-0.65617 0.19688,-0.17811 0.49689,-0.15936 0.66565,0.0375 l 1.86571,2.09975 c 0.17814,0.19685 0.15939,0.49682 -0.0375,0.66555 -0.19688,0.16873 -0.48752,0.14998 -0.66565,-0.0375 z m -4.35021,-4.91191 -1.87508,-2.09975 c -0.16876,-0.19685 -0.15001,-0.48744 0.0469,-0.66555 0.18751,-0.16873 0.48753,-0.14998 0.65628,0.0469 l 1.86572,2.09975 c 0.17813,0.19685 0.15938,0.48744 -0.0375,0.65617 -0.1875,0.17811 -0.48752,0.15936 -0.65628,-0.0375 z m -4.35957,-4.90254 -1.86571,-2.10913 c -0.17814,-0.18748 -0.15939,-0.48744 0.0375,-0.65617 0.19688,-0.16873 0.48752,-0.15936 0.65628,0.0375 l 1.87508,2.09975 c 0.16876,0.19685 0.15001,0.49681 -0.0469,0.66554 -0.18751,0.16873 -0.48753,0.14998 -0.65628,-0.0375 z m -4.35958,-4.91192 -1.86571,-2.09975 c -0.16876,-0.19685 -0.15938,-0.48744 0.0375,-0.66555 0.19688,-0.16873 0.48752,-0.14998 0.66566,0.0469 l 1.86571,2.09975 c 0.16876,0.19686 0.15,0.48745 -0.0375,0.66555 -0.19689,0.16873 -0.4969,0.14998 -0.66566,-0.0469 z m -4.35958,-4.90254 -1.86571,-2.09975 c -0.16876,-0.19685 -0.15001,-0.49682 0.0375,-0.66555 0.19689,-0.16873 0.4969,-0.14998 0.66566,0.0375 l 1.86571,2.10912 c 0.16876,0.18748 0.15938,0.48744 -0.0375,0.65617 -0.19689,0.16873 -0.48752,0.15936 -0.66566,-0.0375 z m -4.3502,-4.91192 -1.87509,-2.09975 c -0.16875,-0.18748 -0.15,-0.48744 0.0469,-0.65617 0.18751,-0.1781 0.48752,-0.15936 0.65628,0.0375 l 1.86571,2.09975 c 0.17814,0.19685 0.15939,0.48744 -0.0375,0.66554 -0.18751,0.16873 -0.48752,0.14998 -0.65628,-0.0469 z m -4.35958,-4.90254 -1.86571,-2.09975 c -0.17813,-0.19685 -0.15938,-0.49682 0.0375,-0.66555 0.19688,-0.16872 0.48752,-0.14998 0.65628,0.0375 l 1.87508,2.10912 c 0.16876,0.18748 0.15001,0.48744 -0.0469,0.65617 -0.18751,0.1781 -0.48753,0.15936 -0.65629,-0.0375 z m -4.35957,-4.90254 -0.56253,-0.63743 c -0.16876,-0.19685 -0.15001,-0.48744 0.0375,-0.66554 0.19689,-0.16873 0.4969,-0.14998 0.66566,0.0469 l 0.56253,0.62805 c 0.16875,0.19685 0.15,0.48744 -0.0375,0.66555 -0.19688,0.16873 -0.49689,0.14998 -0.66565,-0.0375 z"
       id="path3032" />
    <path
       inkscape:connector-curvature="0"
       style="fill:#ffffff;fill-opacity:1;fill-rule:evenodd;stroke:none"
       d="m 195.55696,820.73843 v 32.80859 h 30.93893 v -32.80859 z"
       id="path3034" />
    <text
       xml:space="preserve"
       x="147.45203"
       y="861.98901"
       style="font-style:normal;font-weight:normal;font-size:13.80063915px;line-height:0%;font-family:Calibri;text-align:start;text-anchor:start;fill:#000000"
       id="text3036">R</text>
    <text
       xml:space="preserve"
       x="212.09521"
       y="838.4176"
       style="font-style:normal;font-weight:normal;font-size:13.80063915px;font-family:Calibri;text-align:start;text-anchor:start;fill:#000000"
       id="text3038" />
    <path
       inkscape:connector-curvature="0"
       style="fill:#ffffff;fill-opacity:1;fill-rule:evenodd;stroke:none"
       clip-path="url(#clipEmfPath2)"
       d="m 179.93333,102.9815 v 32.8086 h 30.93894 v -32.8086 z"
       id="path3040"
       transform="translate(125.94077,820.86966)" />
    <text
       xml:space="preserve"
       x="312.74988"
       y="941.45532"
       style="font-style:normal;font-weight:normal;font-size:13.80063915px;font-family:Calibri;text-align:start;text-anchor:start;fill:#000000"
       id="text3044" />
    <path
       inkscape:connector-curvature="0"
       style="fill:#ffffff;fill-opacity:1;fill-rule:evenodd;stroke:none"
       clip-path="url(#clipEmfPath3)"
       d="m -0.07500347,185.47169 v 32.80859 H 30.863929 v -32.80859 z"
       id="path3046"
       transform="translate(125.94077,820.86966)" />
    <text
       xml:space="preserve"
       x="135.29167"
       y="1023.9455"
       style="font-style:normal;font-weight:normal;font-size:13.80063915px;font-family:Calibri;text-align:start;text-anchor:start;fill:#000000"
       id="text3050" />
    <path
       inkscape:connector-curvature="0"
       style="fill:#ffffff;fill-opacity:1;fill-rule:evenodd;stroke:none"
       clip-path="url(#clipEmfPath4)"
       d="m 223.99787,181.72213 v 32.8086 h 30.93894 v -32.8086 z"
       id="path3052"
       transform="translate(125.94077,820.86966)" />
    <text
       xml:space="preserve"
       x="361.20212"
       y="1020.196"
       style="font-style:normal;font-weight:normal;font-size:13.80063915px;font-family:Calibri;text-align:start;text-anchor:start;fill:#000000"
       id="text3058" />
    <path
       style="fill:none;stroke:#000000;stroke-width:1px;stroke-linecap:butt;stroke-linejoin:miter;stroke-opacity:1"
       d="M 246.42857,820.21932 V 1031.6479"
       id="path3102"
       inkscape:connector-curvature="0" />
    <text
       xml:space="preserve"
       style="font-style:normal;font-variant:normal;font-weight:normal;font-stretch:normal;line-height:0%;font-family:Cambria;-inkscape-font-specification:Cambria;letter-spacing:0px;word-spacing:0px;fill:#000000;fill-opacity:1;stroke:none"
       x="130"
       y="231.42857"
       id="text3018"
       transform="translate(0,802.36218)"><tspan
         sodipodi:role="line"
         id="tspan3020"
         x="130"
         y="231.42857"
         style="font-size:14px;line-height:1.25">p</tspan></text>
    <text
       xml:space="preserve"
       style="font-style:normal;font-variant:normal;font-weight:normal;font-stretch:normal;line-height:0%;font-family:Cambria;-inkscape-font-specification:Cambria;letter-spacing:0px;word-spacing:0px;fill:#000000;fill-opacity:1;stroke:none"
       x="347.85715"
       y="231.42857"
       id="text3022"
       transform="translate(0,802.36218)"><tspan
         sodipodi:role="line"
         id="tspan3024"
         x="347.85715"
         y="231.42857"
         style="font-size:14px;line-height:1.25">p'</tspan></text>
  </g>
</svg>
