<svg version="1.1" xmlns="http://www.w3.org/2000/svg" xmlns:xlink="http://www.w3.org/1999/xlink" width="520" height="260" viewBox="0 0 520 260"><defs></defs><g transform="scale(1,1) scale(1,1) scale(1,1)"><g transform="scale(1,1)"><rect fill="rgb(100,100,100)" stroke="none" x="0" y="0" width="520" height="260" fill-opacity="1"></rect></g><g transform="scale(1,1) matrix(1,0,0,-1,250,130)"><g><path fill="rgb(76,84,116)" stroke="none" paint-order="stroke fill markers" d=" M 148.2362 193.18516 C 41.54298 164.5968 -21.77351999999999 54.92941999999999 6.814840000000004 -51.7638 C 25.30825999999999 -120.78222000000001 79.21777999999999 -174.69174 148.2362 -193.18516 L 200 0 Z" fill-opacity="1"></path><path fill="none" stroke="rgb(190,190,190)" paint-order="fill stroke markers" d=" M 148.2362 193.18516 C 41.54298 164.5968 -21.77351999999999 54.92941999999999 6.814840000000004 -51.7638 C 25.30825999999999 -120.78222000000001 79.21777999999999 -174.69174 148.2362 -193.18516" stroke-opacity="1" stroke-linecap="round" stroke-miterlimit="10" stroke-width="3" stroke-dasharray="null"></path></g><g><path fill="rgb(76,84,116)" stroke="none" paint-order="stroke fill markers" d=" M 60 -129 L 460 -129 L 460 271 L 60 271 L 60 -129 Z" fill-opacity="1"></path></g><g><path fill="none" stroke="rgb(255,255,255)" paint-order="fill stroke markers" d=" M -250 0 L 375 0" stroke-opacity="1" stroke-linecap="round" stroke-miterlimit="10" stroke-width="2" stroke-dasharray="3,8"></path><path fill="none" stroke="rgb(255,255,255)" paint-order="fill stroke markers" d=" M 369 3 L 375 0" stroke-opacity="1" stroke-linecap="round" stroke-miterlimit="10" stroke-width="2" stroke-dasharray="3,8"></path><path fill="none" stroke="rgb(255,255,255)" paint-order="fill stroke markers" d=" M 375 0 L 369 -3" stroke-opacity="1" stroke-linecap="round" stroke-miterlimit="10" stroke-width="2" stroke-dasharray="3,8"></path><g transform="translate(62.5,-10) scale(1,-1)"><g><text fill="rgb(255,255,255)" stroke="none" font-family="sans-serif" font-size="12px" font-style="normal" font-weight="normal" text-decoration="normal" x="0" y="0" text-anchor="middle" dominant-baseline="text-before-edge" fill-opacity="1"> </text></g></g></g><g><path fill="none" stroke="rgb(0,255,0)" paint-order="fill stroke markers" d=" M -250 -7.5 L 0.14067447326859828 -7.5 L 269 -4.137418954637106" stroke-opacity="1" stroke-linecap="round" stroke-miterlimit="10" stroke-width="2" stroke-dasharray="null"></path><path fill="none" stroke="rgb(0,255,0)" paint-order="fill stroke markers" d=" M -132 -4 L -125 -7.5" stroke-opacity="1" stroke-miterlimit="10" stroke-width="2" stroke-dasharray="null"></path><path fill="none" stroke="rgb(0,255,0)" paint-order="fill stroke markers" d=" M -125 -7.5 L -132 -11" stroke-opacity="1" stroke-miterlimit="10" stroke-width="2" stroke-dasharray="null"></path></g><g><path fill="none" stroke="rgb(0,255,0)" paint-order="fill stroke markers" d=" M -250 17.5 L 0 -6.938893903907228e-15 L 269 -12.53628165780255" stroke-opacity="1" stroke-linecap="round" stroke-miterlimit="10" stroke-width="2" stroke-dasharray="null"></path><path fill="none" stroke="rgb(0,255,0)" paint-order="fill stroke markers" d=" M -131.7385108230417 12.73026027889509 L -125 8.749999999999998" stroke-opacity="1" stroke-miterlimit="10" stroke-width="2" stroke-dasharray="null"></path><path fill="none" stroke="rgb(0,255,0)" paint-order="fill stroke markers" d=" M -125 8.749999999999998 L -132.2273147169411 5.747347508903703" stroke-opacity="1" stroke-miterlimit="10" stroke-width="2" stroke-dasharray="null"></path></g><g><path fill="none" stroke="rgb(255,0,0)" paint-order="fill stroke markers" d=" M -250 -125 L 5.551115123125783e-14 5.551115123125783e-14 L 269 84.02148389607008" stroke-opacity="1" stroke-linecap="round" stroke-miterlimit="10" stroke-width="2" stroke-dasharray="null"></path><path fill="none" stroke="rgb(255,0,0)" paint-order="fill stroke markers" d=" M -132.82623792124926 -62.499999999999986 L -125 -62.499999999999986" stroke-opacity="1" stroke-miterlimit="10" stroke-width="2" stroke-dasharray="null"></path><path fill="none" stroke="rgb(255,0,0)" paint-order="fill stroke markers" d=" M -125 -62.499999999999986 L -129.69574275274957 -68.7609903369994" stroke-opacity="1" stroke-miterlimit="10" stroke-width="2" stroke-dasharray="null"></path></g><g><path fill="none" stroke="rgb(255,0,0)" paint-order="fill stroke markers" d=" M -250 75 L 14.595037822608404 75 L 269 41.29552235281293" stroke-opacity="1" stroke-linecap="round" stroke-miterlimit="10" stroke-width="2" stroke-dasharray="null"></path><path fill="none" stroke="rgb(255,0,0)" paint-order="fill stroke markers" d=" M -132 78.5 L -125 75" stroke-opacity="1" stroke-miterlimit="10" stroke-width="2" stroke-dasharray="null"></path><path fill="none" stroke="rgb(255,0,0)" paint-order="fill stroke markers" d=" M -125 75 L -132 71.5" stroke-opacity="1" stroke-miterlimit="10" stroke-width="2" stroke-dasharray="null"></path></g><g></g><g></g><g></g><g></g><g></g></g></g></svg>