<?xml version="1.0" encoding="UTF-8" standalone="no"?>
<!-- Created with Inkscape (http://www.inkscape.org/) -->

<svg
   xmlns:dc="http://purl.org/dc/elements/1.1/"
   xmlns:cc="http://creativecommons.org/ns#"
   xmlns:rdf="http://www.w3.org/1999/02/22-rdf-syntax-ns#"
   xmlns:svg="http://www.w3.org/2000/svg"
   xmlns="http://www.w3.org/2000/svg"
   xmlns:sodipodi="http://sodipodi.sourceforge.net/DTD/sodipodi-0.dtd"
   xmlns:inkscape="http://www.inkscape.org/namespaces/inkscape"
   id="svg2"
   version="1.1"
   inkscape:version="0.48.5 r10040"
   width="480"
   height="193.75"
   xml:space="preserve"
   sodipodi:docname="image2.eps"><metadata
     id="metadata8"><rdf:RDF><cc:Work
         rdf:about=""><dc:format>image/svg+xml</dc:format><dc:type
           rdf:resource="http://purl.org/dc/dcmitype/StillImage" /><dc:title></dc:title></cc:Work></rdf:RDF></metadata><defs
     id="defs6"><clipPath
       clipPathUnits="userSpaceOnUse"
       id="clipPath18"><path
         d="m 0,1543.18 3840,0 0,-1540.00031 -3840,0 L 0,1543.18 z"
         id="path20" /></clipPath></defs><sodipodi:namedview
     pagecolor="#ffffff"
     bordercolor="#666666"
     borderopacity="1"
     objecttolerance="10"
     gridtolerance="10"
     guidetolerance="10"
     inkscape:pageopacity="0"
     inkscape:pageshadow="2"
     inkscape:window-width="640"
     inkscape:window-height="480"
     id="namedview4"
     showgrid="false"
     inkscape:zoom="0.7875"
     inkscape:cx="240"
     inkscape:cy="96.875"
     inkscape:window-x="0"
     inkscape:window-y="0"
     inkscape:window-maximized="0"
     inkscape:current-layer="g10" /><g
     id="g10"
     inkscape:groupmode="layer"
     inkscape:label="ink_ext_XXXXXX"
     transform="matrix(1.25,0,0,-1.25,0,193.75)"><g
       id="g12"
       transform="scale(0.1,0.1)"><g
         id="g14"><g
           id="g16"
           clip-path="url(#clipPath18)"><path
             d="m 812.77,1515.99 c 0,0 413.99,6.02 606.02,-101.99 191.99,-108.01 215.98,-281.99 215.98,-378.01 0,-96.01 -72,-360.002 -60,-456.01 11.99,-95.98 114.02,-132 71.99,-252 -41.99,-120 -173.99,-233.98 -341.99,-269.9995 -168.01,-36.0117 -492,-47.961 -492,-47.961 l 0,1505.9705"
             style="fill:#d0d0d0;fill-opacity:1;fill-rule:nonzero;stroke:none"
             id="path22" /><path
             d="m 812.77,1515.99 0,-1500.0017"
             style="fill:none;stroke:#231f20;stroke-opacity:1;stroke-width:10;stroke-linecap:butt;stroke-linejoin:miter;stroke-miterlimit:4;stroke-dasharray:none"
             id="path24" /><path
             d="m 95.1211,775.988 1561.3289,0"
             style="fill:none;stroke:#231f20;stroke-opacity:1;stroke-width:10;stroke-linecap:butt;stroke-linejoin:miter;stroke-miterlimit:4;stroke-dasharray:120,120;stroke-dashoffset:0"
             id="path26" /><path
             d="M 2.76953,237.98 807.969,768.609"
             style="fill:none;stroke:#231f20;stroke-opacity:1;stroke-width:10;stroke-linecap:butt;stroke-linejoin:miter;stroke-miterlimit:4;stroke-dasharray:none"
             id="path28" /><path
             d="m 808.789,772.012 751.991,220"
             style="fill:none;stroke:#231f20;stroke-opacity:1;stroke-width:10;stroke-linecap:butt;stroke-linejoin:miter;stroke-miterlimit:4;stroke-dasharray:none"
             id="path30" /><path
             d="m 1618.67,1008.92 c -24.29,-18.08 -53.04,-45.229 -68.63,-69.611 l 3.12,50.472 -29.84,40.779 c 26.29,-12.11 65.16,-19.49 95.35,-21.64"
             style="fill:#231f20;fill-opacity:1;fill-rule:nonzero;stroke:none"
             id="path32" /><path
             d="m 1200.94,892.051 c 11.6,-37.973 17.85,-78.281 17.85,-120.039 M 463.949,550.09 c -41.25,63.988 -65.16,140.121 -65.16,221.922"
             style="fill:none;stroke:#231f20;stroke-opacity:1;stroke-width:10;stroke-linecap:butt;stroke-linejoin:miter;stroke-miterlimit:4;stroke-dasharray:none"
             id="path34" /><g
             id="g36"
             transform="scale(10,10)"><text
               transform="matrix(1,0,0,-1,7.19648,61.5992)"
               id="text38"><tspan
                 style="fill:#231f20;fill-opacity:1;fill-rule:nonzero;stroke:none;font-family:f-0;font-variant:normal;font-size:10.8;writing-mode:lr;-inkscape-font-specification:f-0-1"
                 x="0"
                 y="0"
                 id="tspan40">θ</tspan></text>
<text
               transform="matrix(1,0,0,-1,13.05468,58.00311)"
               id="text42"><tspan
                 style="fill:#231f20;fill-opacity:1;fill-rule:nonzero;stroke:none;font-family:f-0;font-variant:normal;font-size:6.2964;writing-mode:lr;-inkscape-font-specification:f-0-0"
                 x="0 1.3978008 4.8985992 8.04859974 9.44640054 12.94719894 16.44799734 19.9530743"
                 y="0"
                 sodipodi:role="line"
                 id="tspan44">incident</tspan></text>
<text
               transform="matrix(1,0,0,-1,136.32368,84.19881)"
               id="text46"><tspan
                 style="fill:#231f20;fill-opacity:1;fill-rule:nonzero;stroke:none;font-family:f-0;font-variant:normal;font-size:10.8;writing-mode:lr;-inkscape-font-specification:f-0-1"
                 x="0"
                 y="0"
                 id="tspan48">θ</tspan></text>
<text
               transform="matrix(1,0,0,-1,142.18266,80.60272)"
               id="text50"><tspan
                 style="fill:#231f20;fill-opacity:1;fill-rule:nonzero;stroke:none;font-family:f-0;font-variant:normal;font-size:6.2964;writing-mode:lr;-inkscape-font-specification:f-0-0"
                 x="0 2.0967012 5.5974996 7.34788902 9.44459022 12.94538862 16.09358862 17.84358741 21.34438581"
                 y="0"
                 sodipodi:role="line"
                 id="tspan52">refracted</tspan></text>
</g><path
             d="m 3083.52,1515.99 c 0,0 -414.03,6.02 -606.02,-101.99 -191.99,-108.01 -215.98,-281.99 -215.98,-378.01 0,-95.97 72,-360.002 60,-455.97 C 2309.49,484 2207.5,447.98 2249.49,327.98 2291.52,207.98 2423.52,94 2591.52,57.9805 c 167.97,-35.9688 492,-47.961 492,-47.961 l 0,1505.9705"
             style="fill:#d0d0d0;fill-opacity:1;fill-rule:nonzero;stroke:none"
             id="path54" /><path
             d="m 3079.41,1522.67 0,-1499.9981"
             style="fill:none;stroke:#231f20;stroke-opacity:1;stroke-width:10;stroke-linecap:butt;stroke-linejoin:miter;stroke-miterlimit:4;stroke-dasharray:none"
             id="path56" /><path
             d="m 2238.91,782.672 1500.5,0"
             style="fill:none;stroke:#231f20;stroke-opacity:1;stroke-width:10;stroke-linecap:butt;stroke-linejoin:miter;stroke-miterlimit:4;stroke-dasharray:120,120;stroke-dashoffset:0"
             id="path58" /><path
             d="m 2269.41,244.66 802.31,536.449"
             style="fill:none;stroke:#231f20;stroke-opacity:1;stroke-width:10;stroke-linecap:butt;stroke-linejoin:miter;stroke-miterlimit:4;stroke-dasharray:none"
             id="path60" /><path
             d="m 3075.43,778.648 369.96,710.982"
             style="fill:none;stroke:#231f20;stroke-opacity:1;stroke-width:10;stroke-linecap:butt;stroke-linejoin:miter;stroke-miterlimit:4;stroke-dasharray:none"
             id="path62" /><path
             d="m 3473.28,1543.18 c -3.79,-30.04 -4.1,-69.61 2.74,-97.77 l -34.26,37.22 -50.12,6.68 c 26.95,10.59 59.18,33.56 81.64,53.87"
             style="fill:#231f20;fill-opacity:1;fill-rule:nonzero;stroke:none"
             id="path64" /><path
             d="m 3268.05,1146.66 c 129.33,-68.95 217.34,-205.199 217.34,-362"
             style="fill:none;stroke:#231f20;stroke-opacity:1;stroke-width:10;stroke-linecap:butt;stroke-linejoin:miter;stroke-miterlimit:4;stroke-dasharray:none"
             id="path66" /><path
             d="m 2735.78,554.898 c -44.41,65.551 -70.39,144.614 -70.39,229.762"
             style="fill:none;stroke:#231f20;stroke-opacity:1;stroke-width:10;stroke-linecap:butt;stroke-linejoin:miter;stroke-miterlimit:4;stroke-dasharray:none"
             id="path68" /><g
             id="g70"
             transform="scale(10,10)"><text
               transform="matrix(1,0,0,-1,245.344,20.666)"
               id="text72"><tspan
                 style="fill:#231f20;fill-opacity:1;fill-rule:nonzero;stroke:none;font-family:MyriadWebPro;font-variant:normal;font-weight:normal;font-size:7.2;writing-mode:lr;-inkscape-font-specification:MyriadWebPro"
                 x="0 2.31093936 5.91836904 8.0207208 10.33205112 13.80236544 17.12072678 19.50392678 21.18868517 24.57306029 28.18009973 29.70665777 31.39141615 35.38752199 39.44805703 43.03400263 46.36758607 47.89375344 52.18495344"
                 y="0"
                 sodipodi:role="line"
                 id="tspan74">refractive index = </tspan></text>
<text
               transform="matrix(1,0,0,-1,299.0549,20.666)"
               id="text76"><tspan
                 style="fill:#231f20;fill-opacity:1;fill-rule:nonzero;stroke:none;font-family:f-2;font-variant:normal;font-size:7.2;writing-mode:lr;-inkscape-font-specification:f-2-0"
                 x="0"
                 y="0"
                 id="tspan78">n</tspan></text>
<text
               transform="matrix(1,0,0,-1,302.89982,18.26912)"
               id="text80"><tspan
                 style="fill:#231f20;fill-opacity:1;fill-rule:nonzero;stroke:none;font-family:f-2;font-variant:normal;font-size:4.1976;writing-mode:lr;-inkscape-font-specification:f-2-0"
                 x="0 0.96133511"
                 y="0"
                 sodipodi:role="line"
                 id="tspan82">in</tspan></text>
<text
               transform="matrix(1,0,0,-1,320.14352,20.166)"
               id="text84"><tspan
                 style="fill:#231f20;fill-opacity:1;fill-rule:nonzero;stroke:none;font-family:MyriadWebPro;font-variant:normal;font-weight:normal;font-size:7.2;writing-mode:lr;-inkscape-font-specification:MyriadWebPro"
                 x="0 2.31133032 5.91876 8.02072152 10.33244208 13.8027564 17.12072707 19.50392707 21.18907613 24.57345125 28.18049069 29.70704873 31.39180711 35.38752199 39.44844799 43.03439359 46.36758679 47.89375416 52.18593072"
                 y="0"
                 sodipodi:role="line"
                 id="tspan86">refractive index = </tspan></text>
<text
               transform="matrix(1,0,0,-1,373.85442,20.166)"
               id="text88"><tspan
                 style="fill:#231f20;fill-opacity:1;fill-rule:nonzero;stroke:none;font-family:f-2;font-variant:normal;font-size:7.2;writing-mode:lr;-inkscape-font-specification:f-2-0"
                 x="0"
                 y="0"
                 id="tspan90">n</tspan></text>
<text
               transform="matrix(1,0,0,-1,377.69934,17.76912)"
               id="text92"><tspan
                 style="fill:#231f20;fill-opacity:1;fill-rule:nonzero;stroke:none;font-family:f-2;font-variant:normal;font-size:4.1976;writing-mode:lr;-inkscape-font-specification:f-2-0"
                 x="0 2.19062502 4.39882665"
                 y="0"
                 sodipodi:role="line"
                 id="tspan94">out</tspan></text>
<text
               transform="matrix(1,0,0,-1,14.67734,127.33312)"
               id="text96"><tspan
                 style="fill:#231f20;fill-opacity:1;fill-rule:nonzero;stroke:none;font-family:MyriadWebPro;font-variant:normal;font-weight:normal;font-size:7.2;writing-mode:lr;-inkscape-font-specification:MyriadWebPro"
                 x="0 2.31093792 5.91875064 8.020314 10.33203312 13.80195432 17.12109384 19.50429384 21.18905834 24.57343346 28.18046354 29.70702461 31.39100784 35.38710144 39.44764872 43.0331976 46.3667976 47.89336169 52.18456169"
                 y="0"
                 sodipodi:role="line"
                 id="tspan98">refractive index = </tspan></text>
<text
               transform="matrix(1,0,0,-1,68.38824,127.33312)"
               id="text100"><tspan
                 style="fill:#231f20;fill-opacity:1;fill-rule:nonzero;stroke:none;font-family:f-2;font-variant:normal;font-size:7.2;writing-mode:lr;-inkscape-font-specification:f-2-0"
                 x="0"
                 y="0"
                 id="tspan102">n</tspan></text>
<text
               transform="matrix(1,0,0,-1,72.23316,124.93546)"
               id="text104"><tspan
                 style="fill:#231f20;fill-opacity:1;fill-rule:nonzero;stroke:none;font-family:f-2;font-variant:normal;font-size:4.1976;writing-mode:lr;-inkscape-font-specification:f-2-0"
                 x="0 0.96132902"
                 y="0"
                 sodipodi:role="line"
                 id="tspan106">in</tspan></text>
<text
               transform="matrix(1,0,0,-1,87.47696,128.33312)"
               id="text108"><tspan
                 style="fill:#231f20;fill-opacity:1;fill-rule:nonzero;stroke:none;font-family:MyriadWebPro;font-variant:normal;font-weight:normal;font-size:7.2;writing-mode:lr;-inkscape-font-specification:MyriadWebPro"
                 x="0 2.31093936 5.91875352 8.02070856 10.33242912 13.8023532 17.12149574 19.50469574 21.18946637 24.57384149 28.18086869 29.70742673 31.39219735 35.38829095 39.44922919 43.03516255 46.36719583 47.89375387 52.18594264"
                 y="0"
                 sodipodi:role="line"
                 id="tspan110">refractive index = </tspan></text>
<text
               transform="matrix(1,0,0,-1,141.18866,128.33312)"
               id="text112"><tspan
                 style="fill:#231f20;fill-opacity:1;fill-rule:nonzero;stroke:none;font-family:f-2;font-variant:normal;font-size:7.2;writing-mode:lr;-inkscape-font-specification:f-2-0"
                 x="0"
                 y="0"
                 id="tspan114">n</tspan></text>
<text
               transform="matrix(1,0,0,-1,145.03358,125.93546)"
               id="text116"><tspan
                 style="fill:#231f20;fill-opacity:1;fill-rule:nonzero;stroke:none;font-family:f-2;font-variant:normal;font-size:4.1976;writing-mode:lr;-inkscape-font-specification:f-2-0"
                 x="0 2.19062502 4.39843585"
                 y="0"
                 sodipodi:role="line"
                 id="tspan118">out</tspan></text>
<text
               transform="matrix(1,0,0,-1,234.69568,61.09916)"
               id="text120"><tspan
                 style="fill:#231f20;fill-opacity:1;fill-rule:nonzero;stroke:none;font-family:f-0;font-variant:normal;font-size:10.8;writing-mode:lr;-inkscape-font-specification:f-0-1"
                 x="0"
                 y="0"
                 id="tspan122">θ</tspan></text>
<text
               transform="matrix(1,0,0,-1,240.55466,57.50307)"
               id="text124"><tspan
                 style="fill:#231f20;fill-opacity:1;fill-rule:nonzero;stroke:none;font-family:f-0;font-variant:normal;font-size:6.2964;writing-mode:lr;-inkscape-font-specification:f-0-0"
                 x="0 1.3978008 4.8985992 8.04860584 9.44640664 12.94720504 16.4507134 19.9515118"
                 y="0"
                 sodipodi:role="line"
                 id="tspan126">incident</tspan></text>
<text
               transform="matrix(1,0,0,-1,341.32366,103.19877)"
               id="text128"><tspan
                 style="fill:#231f20;fill-opacity:1;fill-rule:nonzero;stroke:none;font-family:f-0;font-variant:normal;font-size:10.8;writing-mode:lr;-inkscape-font-specification:f-0-1"
                 x="0"
                 y="0"
                 id="tspan130">θ</tspan></text>
<text
               transform="matrix(1,0,0,-1,347.18304,99.60268)"
               id="text132"><tspan
                 style="fill:#231f20;fill-opacity:1;fill-rule:nonzero;stroke:none;font-family:f-0;font-variant:normal;font-size:6.2964;writing-mode:lr;-inkscape-font-specification:f-0-0"
                 x="0 2.0967012 5.5974996 7.3478988 9.44359902 12.94439742 16.09259742 17.84299662 21.34379502"
                 y="0"
                 sodipodi:role="line"
                 id="tspan134">refracted</tspan></text>
</g></g></g></g></g></svg>