<?xml version="1.0" encoding="UTF-8" standalone="no"?>
<!-- Created with Inkscape (http://www.inkscape.org/) -->

<svg
   xmlns:dc="http://purl.org/dc/elements/1.1/"
   xmlns:cc="http://creativecommons.org/ns#"
   xmlns:rdf="http://www.w3.org/1999/02/22-rdf-syntax-ns#"
   xmlns:svg="http://www.w3.org/2000/svg"
   xmlns="http://www.w3.org/2000/svg"
   xmlns:xlink="http://www.w3.org/1999/xlink"
   xmlns:sodipodi="http://sodipodi.sourceforge.net/DTD/sodipodi-0.dtd"
   xmlns:inkscape="http://www.inkscape.org/namespaces/inkscape"
   id="svg2"
   version="1.1"
   inkscape:version="0.48.5 r10040"
   width="328.75"
   height="343.75"
   xml:space="preserve"
   sodipodi:docname="image6.eps"><metadata
     id="metadata8"><rdf:RDF><cc:Work
         rdf:about=""><dc:format>image/svg+xml</dc:format><dc:type
           rdf:resource="http://purl.org/dc/dcmitype/StillImage" /><dc:title></dc:title></cc:Work></rdf:RDF></metadata><defs
     id="defs6"><linearGradient
       inkscape:collect="always"
       id="linearGradient4025"><stop
         style="stop-color:#000000;stop-opacity:1;"
         offset="0"
         id="stop4027" /><stop
         style="stop-color:#000000;stop-opacity:0;"
         offset="1"
         id="stop4029" /></linearGradient><linearGradient
       inkscape:collect="always"
       id="linearGradient4005"><stop
         style="stop-color:#ffffff;stop-opacity:1;"
         offset="0"
         id="stop4007" /><stop
         style="stop-color:#ffffff;stop-opacity:0;"
         offset="1"
         id="stop4009" /></linearGradient><linearGradient
       inkscape:collect="always"
       id="linearGradient3997"><stop
         style="stop-color:#000000;stop-opacity:1;"
         offset="0"
         id="stop3999" /><stop
         style="stop-color:#000000;stop-opacity:0;"
         offset="1"
         id="stop4001" /></linearGradient><linearGradient
       id="linearGradient3981"><stop
         style="stop-color:#000000;stop-opacity:0;"
         offset="0"
         id="stop3983" /><stop
         style="stop-color:#000000;stop-opacity:1;"
         offset="1"
         id="stop3985" /></linearGradient><linearGradient
       id="linearGradient3969"><stop
         style="stop-color:#000000;stop-opacity:1;"
         offset="0"
         id="stop3971" /><stop
         style="stop-color:#000000;stop-opacity:0;"
         offset="1"
         id="stop3973" /></linearGradient><clipPath
       clipPathUnits="userSpaceOnUse"
       id="clipPath18"><path
         d="m 487.27,1489.37 c -128.95,149.69 -206.918,344.61 -206.918,557.7 0,211.91 77.07,405.82 204.769,555.2"
         id="path20" /></clipPath><clipPath
       clipPathUnits="userSpaceOnUse"
       id="clipPath24"><path
         d="m 280,2610 210,0 0,-1130 -210,0 0,1130 z"
         id="path26" /></clipPath><clipPath
       clipPathUnits="userSpaceOnUse"
       id="clipPath30"><path
         d="m 487.27,1489.37 c -128.95,149.69 -206.918,344.61 -206.918,557.7 0,211.91 77.07,405.82 204.769,555.2"
         id="path32" /></clipPath><linearGradient
       x1="0"
       y1="0"
       x2="1"
       y2="0"
       gradientUnits="userSpaceOnUse"
       gradientTransform="matrix(-20.6924,-1.81e-6,-1.81e-6,20.6924,48.7275,204.581)"
       spreadMethod="pad"
       id="linearGradient34"><stop
         style="stop-opacity:1;stop-color:#ffffff"
         offset="0"
         id="stop36" /><stop
         style="stop-opacity:1;stop-color:#231f20"
         offset="1"
         id="stop38" /></linearGradient><clipPath
       clipPathUnits="userSpaceOnUse"
       id="clipPath48"><path
         d="m 2007.54,2607.27 314.73,0 0,-1110.2 -314.73,0 0,1110.2 z"
         id="path50" /></clipPath><linearGradient
       x1="0"
       y1="0"
       x2="1"
       y2="0"
       gradientUnits="userSpaceOnUse"
       gradientTransform="matrix(-31.4756,0,0,-31.4756,232.228,205.216)"
       spreadMethod="pad"
       id="linearGradient52"><stop
         style="stop-opacity:1;stop-color:#ffffff"
         offset="0"
         id="stop54" /><stop
         style="stop-opacity:1;stop-color:#231f20"
         offset="1"
         id="stop56" /></linearGradient><clipPath
       clipPathUnits="userSpaceOnUse"
       id="clipPath68"><path
         d="M 480.352,9.37109 C 609.301,159.059 687.27,353.98 687.27,567.07 c 0,211.91 -77.071,405.821 -204.731,555.2"
         id="path70" /></clipPath><clipPath
       clipPathUnits="userSpaceOnUse"
       id="clipPath74"><path
         d="m 480,1130 210,0 0,-1130 -210,0 0,1130 z"
         id="path76" /></clipPath><clipPath
       clipPathUnits="userSpaceOnUse"
       id="clipPath80"><path
         d="M 480.352,9.37109 C 609.301,159.059 687.27,353.98 687.27,567.07 c 0,211.91 -77.071,405.821 -204.731,555.2"
         id="path82" /></clipPath><linearGradient
       x1="0"
       y1="0"
       x2="1"
       y2="0"
       gradientUnits="userSpaceOnUse"
       gradientTransform="matrix(20.6924,-1.81e-6,1.81e-6,20.6924,48.0347,56.582)"
       spreadMethod="pad"
       id="linearGradient84"><stop
         style="stop-opacity:1;stop-color:#ffffff"
         offset="0"
         id="stop86" /><stop
         style="stop-opacity:1;stop-color:#231f20"
         offset="1"
         id="stop88" /></linearGradient><clipPath
       clipPathUnits="userSpaceOnUse"
       id="clipPath98"><path
         d="m 1815.35,1127.27 314.77,0 0,-1110.1997 -314.77,0 0,1110.1997 z"
         id="path100" /></clipPath><linearGradient
       x1="0"
       y1="0"
       x2="1"
       y2="0"
       gradientUnits="userSpaceOnUse"
       gradientTransform="matrix(31.4756,0,0,-31.4756,181.535,57.216)"
       spreadMethod="pad"
       id="linearGradient102"><stop
         style="stop-opacity:1;stop-color:#ffffff"
         offset="0"
         id="stop104" /><stop
         style="stop-opacity:1;stop-color:#231f20"
         offset="1"
         id="stop106" /></linearGradient><linearGradient
       inkscape:collect="always"
       xlink:href="#linearGradient3969"
       id="linearGradient3975"
       x1="1815.35"
       y1="572.17015"
       x2="2130.12"
       y2="572.17015"
       gradientUnits="userSpaceOnUse" /><linearGradient
       inkscape:collect="always"
       xlink:href="#linearGradient3969"
       id="linearGradient3977"
       gradientUnits="userSpaceOnUse"
       x1="1815.35"
       y1="572.17015"
       x2="2130.12"
       y2="572.17015" /><linearGradient
       inkscape:collect="always"
       xlink:href="#linearGradient3969"
       id="linearGradient3979"
       gradientUnits="userSpaceOnUse"
       x1="1815.35"
       y1="572.17015"
       x2="2130.12"
       y2="572.17015" /><linearGradient
       inkscape:collect="always"
       xlink:href="#linearGradient3981"
       id="linearGradient3987"
       x1="480.352"
       y1="565.82055"
       x2="687.27"
       y2="565.82055"
       gradientUnits="userSpaceOnUse" /><linearGradient
       inkscape:collect="always"
       xlink:href="#linearGradient3981"
       id="linearGradient3989"
       gradientUnits="userSpaceOnUse"
       x1="480.352"
       y1="565.82055"
       x2="687.27"
       y2="565.82055" /><linearGradient
       inkscape:collect="always"
       xlink:href="#linearGradient3981"
       id="linearGradient3991"
       gradientUnits="userSpaceOnUse"
       x1="480.352"
       y1="565.82055"
       x2="687.27"
       y2="565.82055" /><linearGradient
       inkscape:collect="always"
       xlink:href="#linearGradient3981"
       id="linearGradient3993"
       gradientUnits="userSpaceOnUse"
       x1="480.352"
       y1="565.82055"
       x2="687.27"
       y2="565.82055" /><linearGradient
       inkscape:collect="always"
       xlink:href="#linearGradient3981"
       id="linearGradient3995"
       gradientUnits="userSpaceOnUse"
       x1="480.352"
       y1="565.82055"
       x2="687.27"
       y2="565.82055" /><linearGradient
       inkscape:collect="always"
       xlink:href="#linearGradient3997"
       id="linearGradient4003"
       x1="280.352"
       y1="2045.82"
       x2="487.27"
       y2="2045.82"
       gradientUnits="userSpaceOnUse" /><linearGradient
       inkscape:collect="always"
       xlink:href="#linearGradient4005"
       id="linearGradient4011"
       x1="199.535"
       y1="205.082"
       x2="220.227"
       y2="205.082"
       gradientUnits="userSpaceOnUse" /><linearGradient
       inkscape:collect="always"
       xlink:href="#linearGradient4025"
       id="linearGradient4031"
       x1="2007.54"
       y1="2052.17"
       x2="2322.27"
       y2="2052.17"
       gradientUnits="userSpaceOnUse" /></defs><sodipodi:namedview
     pagecolor="#ffffff"
     bordercolor="#666666"
     borderopacity="1"
     objecttolerance="10"
     gridtolerance="10"
     guidetolerance="10"
     inkscape:pageopacity="0"
     inkscape:pageshadow="2"
     inkscape:window-width="1920"
     inkscape:window-height="1018"
     id="namedview4"
     showgrid="false"
     inkscape:zoom="1.6"
     inkscape:cx="66.875"
     inkscape:cy="171.875"
     inkscape:window-x="-8"
     inkscape:window-y="-8"
     inkscape:window-maximized="1"
     inkscape:current-layer="g10" /><g
     id="g10"
     inkscape:groupmode="layer"
     inkscape:label="ink_ext_XXXXXX"
     transform="matrix(1.25,0,0,-1.25,0,343.75)"><g
       id="g14"
       transform="scale(0.1,0.1)"
       style="fill-opacity:1;fill:url(#linearGradient4003)"><g
         clip-path="url(#clipPath18)"
         id="g16"
         style="fill-opacity:1;fill:url(#linearGradient4003)"><g
           clip-path="url(#clipPath24)"
           id="g22"
           style="fill-opacity:1;fill:url(#linearGradient4003)"><g
             clip-path="url(#clipPath30)"
             id="g28"
             style="fill-opacity:1;fill:url(#linearGradient4003)"><path
               inkscape:connector-curvature="0"
               id="path40"
               style="fill:url(#linearGradient4003);fill-opacity:1;fill-rule:nonzero;stroke:none"
               d="m 486,1489 0,1 -1,0 0,2 -1,0 0,1 -1,0 0,1 -1,0 0,1 -1,0 0,1 -1,0 0,2 -1,0 0,1 -1,0 0,1 -1,0 0,1 -1,0 0,2 -1,0 0,1 -1,0 0,1 -1,0 0,1 -1,0 0,1 -1,0 0,2 -1,0 0,1 -1,0 0,1 -1,0 0,1 -1,0 0,1 -1,0 0,2 -1,0 0,1 -1,0 0,1 -1,0 0,1 -1,0 0,2 -1,0 0,1 -1,0 0,1 -1,0 0,2 -1,0 0,1 -1,0 0,1 -1,0 0,2 -1,0 0,1 -1,0 0,1 -1,0 0,2 -1,0 0,1 -1,0 0,1 -1,0 0,2 -1,0 0,1 -1,0 0,1 -1,0 0,2 -1,0 0,1 -1,0 0,1 -1,0 0,2 -1,0 0,1 -1,0 0,1 -1,0 0,2 -1,0 0,1 -1,0 0,2 -1,0 0,1 -1,0 0,1 -1,0 0,2 -1,0 0,1 -1,0 0,2 -1,0 0,1 -1,0 0,2 -1,0 0,1 -1,0 0,2 -1,0 0,1 -1,0 0,1 -1,0 0,2 -1,0 0,1 -1,0 0,2 -1,0 0,1 -1,0 0,2 -1,0 0,1 -1,0 0,2 -1,0 0,1 -1,0 0,2 -1,0 0,1 -1,0 0,2 -1,0 0,2 -1,0 0,1 -1,0 0,2 -1,0 0,1 -1,0 0,2 -1,0 0,1 -1,0 0,2 -1,0 0,2 -1,0 0,1 -1,0 0,2 -1,0 0,1 -1,0 0,2 -1,0 0,2 -1,0 0,1 -1,0 0,2 -1,0 0,1 -1,0 0,2 -1,0 0,2 -1,0 0,2 -1,0 0,1 -1,0 0,2 -1,0 0,2 -1,0 0,2 -1,0 0,1 -1,0 0,2 -1,0 0,2 -1,0 0,2 -1,0 0,2 -1,0 0,1 -1,0 0,2 -1,0 0,2 -1,0 0,2 -1,0 0,1 -1,0 0,2 -1,0 0,2 -1,0 0,2 -1,0 0,2 -1,0 0,2 -1,0 0,2 -1,0 0,2 -1,0 0,2 -1,0 0,2 -1,0 0,2 -1,0 0,2 -1,0 0,1 -1,0 0,2 -1,0 0,2 -1,0 0,2 -1,0 0,2 -1,0 0,2 -1,0 0,2 -1,0 0,2 -1,0 0,2 -1,0 0,3 -1,0 0,2 -1,0 0,2 -1,0 0,2 -1,0 0,2 -1,0 0,3 -1,0 0,2 -1,0 0,2 -1,0 0,2 -1,0 0,2 -1,0 0,3 -1,0 0,2 -1,0 0,2 -1,0 0,2 -1,0 0,2 -1,0 0,3 -1,0 0,2 -1,0 0,3 -1,0 0,2 -1,0 0,3 -1,0 0,2 -1,0 0,3 -1,0 0,2 -1,0 0,3 -1,0 0,2 -1,0 0,3 -1,0 0,2 -1,0 0,3 -1,0 0,2 -1,0 0,3 -1,0 0,3 -1,0 0,3 -1,0 0,3 -1,0 0,2 -1,0 0,3 -1,0 0,3 -1,0 0,3 -1,0 0,3 -1,0 0,3 -1,0 0,2 -1,0 0,3 -1,0 0,3 -1,0 0,4 -1,0 0,3 -1,0 0,3 -1,0 0,4 -1,0 0,3 -1,0 0,3 -1,0 0,3 -1,0 0,4 -1,0 0,3 -1,0 0,3 -1,0 0,4 -1,0 0,4 -1,0 0,4 -1,0 0,4 -1,0 0,4 -1,0 0,4 -1,0 0,4 -1,0 0,4 -1,0 0,3 -1,0 0,5 -1,0 0,5 -1,0 0,4 -1,0 0,5 -1,0 0,5 -1,0 0,5 -1,0 0,5 -1,0 0,4 -1,0 0,6 -1,0 0,6 -1,0 0,6 -1,0 0,7 -1,0 0,6 -1,0 0,6 -1,0 0,7 -1,0 0,9 -1,0 0,9 -1,0 0,8 -1,0 0,9 -1,0 0,15 -1,0 0,14 -1,0 0,22 -1,0 0,58 1,0 0,22 1,0 0,15 1,0 0,14 1,0 0,9 1,0 0,8 1,0 0,9 1,0 0,9 1,0 0,7 1,0 0,6 1,0 0,7 1,0 0,6 1,0 0,6 1,0 0,6 1,0 0,6 1,0 0,5 1,0 0,4 1,0 0,5 1,0 0,5 1,0 0,5 1,0 0,5 1,0 0,5 1,0 0,4 1,0 0,4 1,0 0,3 1,0 0,4 1,0 0,4 1,0 0,4 1,0 0,4 1,0 0,4 1,0 0,4 1,0 0,4 1,0 0,3 1,0 0,3 1,0 0,4 1,0 0,3 1,0 0,3 1,0 0,4 1,0 0,3 1,0 0,3 1,0 0,4 1,0 0,3 1,0 0,3 1,0 0,3 1,0 0,3 1,0 0,2 1,0 0,3 1,0 0,3 1,0 0,3 1,0 0,3 1,0 0,3 1,0 0,2 1,0 0,3 1,0 0,3 1,0 0,3 1,0 0,2 1,0 0,3 1,0 0,2 1,0 0,3 1,0 0,2 1,0 0,3 1,0 0,2 1,0 0,3 1,0 0,2 1,0 0,3 1,0 0,2 1,0 0,3 1,0 0,2 1,0 0,3 1,0 0,2 1,0 0,2 1,0 0,2 1,0 0,3 1,0 0,2 1,0 0,2 1,0 0,2 1,0 0,2 1,0 0,3 1,0 0,2 1,0 0,2 1,0 0,2 1,0 0,2 1,0 0,3 1,0 0,2 1,0 0,2 1,0 0,2 1,0 0,2 1,0 0,2 1,0 0,2 1,0 0,2 1,0 0,2 1,0 0,2 1,0 0,2 1,0 0,2 1,0 0,2 1,0 0,2 1,0 0,2 1,0 0,1 1,0 0,2 1,0 0,2 1,0 0,2 1,0 0,2 1,0 0,2 1,0 0,2 1,0 0,2 1,0 0,1 1,0 0,2 1,0 0,2 1,0 0,2 1,0 0,1 1,0 0,2 1,0 0,2 1,0 0,2 1,0 0,1 1,0 0,2 1,0 0,2 1,0 0,2 1,0 0,2 1,0 0,1 1,0 0,2 1,0 0,2 1,0 0,1 1,0 0,2 1,0 0,1 1,0 0,2 1,0 0,2 1,0 0,1 1,0 0,2 1,0 0,1 1,0 0,2 1,0 0,2 1,0 0,1 1,0 0,2 1,0 0,1 1,0 0,2 1,0 0,2 1,0 0,1 1,0 0,2 1,0 0,2 1,0 0,1 1,0 0,1 1,0 0,2 1,0 0,1 1,0 0,2 1,0 0,1 1,0 0,2 1,0 0,1 1,0 0,2 1,0 0,1 1,0 0,2 1,0 0,1 1,0 0,2 1,0 0,1 1,0 0,1 1,0 0,2 1,0 0,1 1,0 0,2 1,0 0,1 1,0 0,2 1,0 0,1 1,0 0,2 1,0 0,1 1,0 0,1 1,0 0,2 1,0 0,1 1,0 0,1 1,0 0,2 1,0 0,1 1,0 0,1 1,0 0,2 1,0 0,1 1,0 0,1 1,0 0,2 1,0 0,1 1,0 0,1 1,0 0,2 1,0 0,1 1,0 0,1 1,0 0,2 1,0 0,1 1,0 0,1 1,0 0,2 1,0 0,1 1,0 0,1 1,0 0,1 1,0 0,1 1,0 0,2 1,0 0,1 1,0 0,1 1,0 0,1 1,0 0,2 1,0 0,1 1,0 0,1 1,0 0,1 1,0 0,1 1,0 0,2 1,0 0,1 1,0 0,1 1,0 0,1 1,0 0,2 1,0 0,1 1,0 0,1 1,0 0,1 1,0 0,1 1,0 0,2 2,0 0,-456 1,0 0,-518 1,0 0,-140" /></g></g></g></g><path
       inkscape:connector-curvature="0"
       id="path42"
       style="fill:none;stroke:#231f20;stroke-width:1;stroke-linecap:butt;stroke-linejoin:miter;stroke-miterlimit:4;stroke-opacity:1;stroke-dasharray:none"
       d="m 48.727,148.937 c -12.895,14.969 -20.6918,34.461 -20.6918,55.77 0,21.191 7.707,40.582 20.4769,55.52" /><g
       id="g44"
       transform="scale(0.1,0.1)"
       style="fill-opacity:1;fill:url(#linearGradient4031)"><g
         clip-path="url(#clipPath48)"
         id="g46"
         style="fill-opacity:1;fill:url(#linearGradient4031)"><path
           inkscape:connector-curvature="0"
           id="path58"
           style="fill:url(#linearGradient4031);fill-opacity:1;fill-rule:nonzero;stroke:none"
           d="m 2007.54,1497.07 314.73,0 0,1110.2 -314.73,0 0,-1110.2 z" /></g></g><path
       inkscape:connector-curvature="0"
       id="path60"
       style="fill:url(#linearGradient4011);fill-opacity:1;fill-rule:nonzero;stroke:none"
       d="m 199.535,149.437 c 12.895,14.969 20.692,34.461 20.692,55.77 0,21.191 -7.707,40.582 -20.473,55.52" /><path
       inkscape:connector-curvature="0"
       id="path62"
       style="fill:#ffffff;stroke:#231f20;stroke-width:1;stroke-linecap:butt;stroke-linejoin:miter;stroke-miterlimit:4;stroke-opacity:1;stroke-dasharray:none;fill-opacity:1"
       d="m 199.535,149.437 c 12.895,14.969 20.692,34.461 20.692,55.77 0,21.191 -7.707,40.582 -20.473,55.52" /><g
       id="g64"
       transform="scale(0.1,0.1)"
       style="fill:url(#linearGradient3987);fill-opacity:1"><g
         clip-path="url(#clipPath68)"
         id="g66"
         style="fill:url(#linearGradient3995);fill-opacity:1"><g
           clip-path="url(#clipPath74)"
           id="g72"
           style="fill:url(#linearGradient3993);fill-opacity:1"><g
             clip-path="url(#clipPath80)"
             id="g78"
             style="fill:url(#linearGradient3991);fill-opacity:1"><path
               inkscape:connector-curvature="0"
               id="path90"
               style="fill:url(#linearGradient3989);fill-opacity:1;fill-rule:nonzero;stroke:none"
               d="m 480,9 0,329 1,0 0,509 1,0 0,276 1,0 0,-1 1,0 0,-1 1,0 0,-1 1,0 0,-1 1,0 0,-2 1,0 0,-1 1,0 0,-1 1,0 0,-1 1,0 0,-2 1,0 0,-1 1,0 0,-1 1,0 0,-1 1,0 0,-1 1,0 0,-2 1,0 0,-1 1,0 0,-1 1,0 0,-1 1,0 0,-2 1,0 0,-1 1,0 0,-1 1,0 0,-1 1,0 0,-1 1,0 0,-2 1,0 0,-1 1,0 0,-1 1,0 0,-2 1,0 0,-1 1,0 0,-1 1,0 0,-2 1,0 0,-1 1,0 0,-1 1,0 0,-2 1,0 0,-1 1,0 0,-1 1,0 0,-2 1,0 0,-1 1,0 0,-1 1,0 0,-2 1,0 0,-1 1,0 0,-1 1,0 0,-2 1,0 0,-1 1,0 0,-1 1,0 0,-2 1,0 0,-1 1,0 0,-1 1,0 0,-2 1,0 0,-1 1,0 0,-2 1,0 0,-1 1,0 0,-2 1,0 0,-1 1,0 0,-2 1,0 0,-1 1,0 0,-1 1,0 0,-2 1,0 0,-1 1,0 0,-2 1,0 0,-1 1,0 0,-2 1,0 0,-1 1,0 0,-2 1,0 0,-1 1,0 0,-2 1,0 0,-1 1,0 0,-2 1,0 0,-1 1,0 0,-2 1,0 0,-1 1,0 0,-2 1,0 0,-1 1,0 0,-2 1,0 0,-2 1,0 0,-1 1,0 0,-2 1,0 0,-2 1,0 0,-1 1,0 0,-2 1,0 0,-1 1,0 0,-2 1,0 0,-2 1,0 0,-1 1,0 0,-2 1,0 0,-1 1,0 0,-2 1,0 0,-2 1,0 0,-1 1,0 0,-2 1,0 0,-2 1,0 0,-2 1,0 0,-1 1,0 0,-2 1,0 0,-2 1,0 0,-2 1,0 0,-1 1,0 0,-2 1,0 0,-2 1,0 0,-2 1,0 0,-2 1,0 0,-1 1,0 0,-2 1,0 0,-2 1,0 0,-2 1,0 0,-1 1,0 0,-2 1,0 0,-2 1,0 0,-2 1,0 0,-2 1,0 0,-2 1,0 0,-2 1,0 0,-2 1,0 0,-2 1,0 0,-2 1,0 0,-2 1,0 0,-2 1,0 0,-2 1,0 0,-2 1,0 0,-2 1,0 0,-2 1,0 0,-2 1,0 0,-2 1,0 0,-2 1,0 0,-2 1,0 0,-2 1,0 0,-3 1,0 0,-2 1,0 0,-2 1,0 0,-2 1,0 0,-2 1,0 0,-3 1,0 0,-2 1,0 0,-2 1,0 0,-2 1,0 0,-2 1,0 0,-3 1,0 0,-2 1,0 0,-2 1,0 0,-3 1,0 0,-2 1,0 0,-3 1,0 0,-2 1,0 0,-3 1,0 0,-2 1,0 0,-3 1,0 0,-2 1,0 0,-2 1,0 0,-3 1,0 0,-2 1,0 0,-3 1,0 0,-2 1,0 0,-3 1,0 0,-3 1,0 0,-3 1,0 0,-3 1,0 0,-2 1,0 0,-3 1,0 0,-3 1,0 0,-3 1,0 0,-3 1,0 0,-3 1,0 0,-3 1,0 0,-2 1,0 0,-3 1,0 0,-3 1,0 0,-4 1,0 0,-3 1,0 0,-3 1,0 0,-4 1,0 0,-3 1,0 0,-3 1,0 0,-4 1,0 0,-3 1,0 0,-3 1,0 0,-4 1,0 0,-3 1,0 0,-4 1,0 0,-4 1,0 0,-4 1,0 0,-4 1,0 0,-4 1,0 0,-4 1,0 0,-4 1,0 0,-4 1,0 0,-4 1,0 0,-5 1,0 0,-5 1,0 0,-5 1,0 0,-5 1,0 0,-4 1,0 0,-5 1,0 0,-5 1,0 0,-6 1,0 0,-6 1,0 0,-7 1,0 0,-6 1,0 0,-6 1,0 0,-6 1,0 0,-8 1,0 0,-9 1,0 0,-9 1,0 0,-9 1,0 0,-10 1,0 0,-15 1,0 0,-14 1,0 0,-34 1,0 0,-24 -1,0 0,-33 -1,0 0,-15 -1,0 0,-15 -1,0 0,-10 -1,0 0,-9 -1,0 0,-9 -1,0 0,-8 -1,0 0,-9 -1,0 0,-6 -1,0 0,-6 -1,0 0,-6 -1,0 0,-6 -1,0 0,-7 -1,0 0,-6 -1,0 0,-5 -1,0 0,-4 -1,0 0,-5 -1,0 0,-5 -1,0 0,-5 -1,0 0,-5 -1,0 0,-4 -1,0 0,-5 -1,0 0,-4 -1,0 0,-4 -1,0 0,-4 -1,0 0,-4 -1,0 0,-4 -1,0 0,-4 -1,0 0,-3 -1,0 0,-4 -1,0 0,-4 -1,0 0,-4 -1,0 0,-3 -1,0 0,-3 -1,0 0,-4 -1,0 0,-3 -1,0 0,-3 -1,0 0,-3 -1,0 0,-4 -1,0 0,-3 -1,0 0,-3 -1,0 0,-4 -1,0 0,-3 -1,0 0,-2 -1,0 0,-3 -1,0 0,-3 -1,0 0,-3 -1,0 0,-3 -1,0 0,-3 -1,0 0,-2 -1,0 0,-3 -1,0 0,-3 -1,0 0,-3 -1,0 0,-3 -1,0 0,-2 -1,0 0,-3 -1,0 0,-2 -1,0 0,-3 -1,0 0,-2 -1,0 0,-3 -1,0 0,-2 -1,0 0,-3 -1,0 0,-2 -1,0 0,-3 -1,0 0,-2 -1,0 0,-3 -1,0 0,-2 -1,0 0,-3 -1,0 0,-2 -1,0 0,-2 -1,0 0,-2 -1,0 0,-3 -1,0 0,-2 -1,0 0,-2 -1,0 0,-2 -1,0 0,-2 -1,0 0,-3 -1,0 0,-2 -1,0 0,-2 -1,0 0,-2 -1,0 0,-2 -1,0 0,-3 -1,0 0,-2 -1,0 0,-2 -1,0 0,-2 -1,0 0,-2 -1,0 0,-2 -1,0 0,-2 -1,0 0,-2 -1,0 0,-2 -1,0 0,-2 -1,0 0,-2 -1,0 0,-2 -1,0 0,-2 -1,0 0,-2 -1,0 0,-2 -1,0 0,-2 -1,0 0,-1 -1,0 0,-2 -1,0 0,-2 -1,0 0,-2 -1,0 0,-2 -1,0 0,-2 -1,0 0,-2 -1,0 0,-2 -1,0 0,-1 -1,0 0,-2 -1,0 0,-2 -1,0 0,-2 -1,0 0,-1 -1,0 0,-2 -1,0 0,-2 -1,0 0,-2 -1,0 0,-1 -1,0 0,-2 -1,0 0,-2 -1,0 0,-2 -1,0 0,-1 -1,0 0,-2 -1,0 0,-2 -1,0 0,-2 -1,0 0,-1 -1,0 0,-2 -1,0 0,-1 -1,0 0,-2 -1,0 0,-2 -1,0 0,-1 -1,0 0,-2 -1,0 0,-1 -1,0 0,-2 -1,0 0,-1 -1,0 0,-2 -1,0 0,-2 -1,0 0,-1 -1,0 0,-2 -1,0 0,-1 -1,0 0,-2 -1,0 0,-2 -1,0 0,-1 -1,0 0,-2 -1,0 0,-1 -1,0 0,-2 -1,0 0,-1 -1,0 0,-2 -1,0 0,-1 -1,0 0,-2 -1,0 0,-1 -1,0 0,-1 -1,0 0,-2 -1,0 0,-1 -1,0 0,-2 -1,0 0,-1 -1,0 0,-2 -1,0 0,-1 -1,0 0,-2 -1,0 0,-1 -1,0 0,-1 -1,0 0,-2 -1,0 0,-1 -1,0 0,-2 -1,0 0,-1 -1,0 0,-2 -1,0 0,-1 -1,0 0,-1 -1,0 0,-2 -1,0 0,-1 -1,0 0,-1 -1,0 0,-2 -1,0 0,-1 -1,0 0,-1 -1,0 0,-2 -1,0 0,-1 -1,0 0,-1 -1,0 0,-2 -1,0 0,-1 -1,0 0,-1 -1,0 0,-1 -1,0 0,-2 -1,0 0,-1 -1,0 0,-1 -1,0 0,-2 -1,0 0,-1 -1,0 0,-1 -1,0 0,-2 -1,0 0,-1 -1,0 0,-1 -1,0 0,-1 -1,0 0,-2 -1,0 0,-1 -1,0 0,-1 -1,0 0,-1 -1,0 0,-1 -1,0 0,-2 -1,0 0,-1 -1,0 0,-1 -1,0 0,-1 -1,0 0,-1 -1,0 0,-2 -1,0 0,-1 -1,0 0,-1 -1,0 0,-1 -1,0 0,-1 -1,0 0,-2 -1,0 0,-1 -1,0 0,-1 -1,0 0,-1 -1,0 0,-1" /></g></g></g></g><path
       inkscape:connector-curvature="0"
       id="path92"
       style="fill:none;stroke:#231f20;stroke-width:1;stroke-linecap:butt;stroke-linejoin:miter;stroke-miterlimit:4;stroke-opacity:1;stroke-dasharray:none"
       d="M 48.0352,0.937109 C 60.9301,15.9059 68.727,35.398 68.727,56.707 c 0,21.191 -7.7071,40.5821 -20.4731,55.52" /><g
       id="g94"
       transform="matrix(-0.1,0,0,0.1,394.547,0)"
       style="fill:url(#linearGradient3975);fill-opacity:1"><g
         clip-path="url(#clipPath98)"
         id="g96"
         style="fill:url(#linearGradient3979);fill-opacity:1"><path
           inkscape:connector-curvature="0"
           id="path108"
           style="fill:url(#linearGradient3977);fill-opacity:1;fill-rule:nonzero;stroke:none"
           d="m 1815.35,17.0703 314.77,0 0,1110.2 -314.77,0 0,-1110.2 z" /></g></g><path
       inkscape:connector-curvature="0"
       id="path110"
       style="fill:#ffffff;fill-opacity:1;fill-rule:nonzero;stroke:none"
       d="M 214.227,1.43711 C 201.332,16.4059 193.535,35.898 193.535,57.207 c 0,21.191 7.707,40.5821 20.477,55.52" /><path
       inkscape:connector-curvature="0"
       id="path112"
       style="fill:none;stroke:#231f20;stroke-width:1;stroke-linecap:butt;stroke-linejoin:miter;stroke-miterlimit:4;stroke-opacity:1;stroke-dasharray:none"
       d="M 214.227,1.43711 C 201.332,16.4059 193.535,35.898 193.535,57.207 c 0,21.191 7.707,40.5821 20.477,55.52" /><path
       inkscape:connector-curvature="0"
       id="path114"
       style="fill:none;stroke:#231f20;stroke-width:1;stroke-linecap:butt;stroke-linejoin:miter;stroke-miterlimit:4;stroke-opacity:1;stroke-dasharray:none"
       d="m 28.0352,206.707 62.5,0" /><path
       inkscape:connector-curvature="0"
       id="path116"
       style="fill:#231f20;fill-opacity:1;fill-rule:nonzero;stroke:none"
       d="m 96.5699,206.707 c -2.8398,-1.055 -6.3629,-2.852 -8.5469,-4.754 l 1.7192,4.754 -1.7192,4.754 c 2.184,-1.902 5.7071,-3.699 8.5469,-4.754" /><path
       inkscape:connector-curvature="0"
       id="path118"
       style="fill:none;stroke:#231f20;stroke-width:1;stroke-linecap:butt;stroke-linejoin:miter;stroke-miterlimit:4;stroke-opacity:1;stroke-dasharray:none"
       d="m 193.535,56.207 62.5,0" /><path
       inkscape:connector-curvature="0"
       id="path120"
       style="fill:#231f20;fill-opacity:1;fill-rule:nonzero;stroke:none"
       d="m 262.07,56.207 c -2.84,-1.055 -6.363,-2.8519 -8.547,-4.7539 l 1.719,4.7539 -1.719,4.7539 c 2.184,-1.9019 5.707,-3.6988 8.547,-4.7539" /><path
       inkscape:connector-curvature="0"
       id="path122"
       style="fill:none;stroke:#231f20;stroke-width:1;stroke-linecap:butt;stroke-linejoin:miter;stroke-miterlimit:4;stroke-opacity:1;stroke-dasharray:none"
       d="m 68.5352,55.707 -62.50004,0" /><path
       inkscape:connector-curvature="0"
       id="path124"
       style="fill:#231f20;fill-opacity:1;fill-rule:nonzero;stroke:none"
       d="m 0,55.707 c 2.83984,1.0551 6.36289,2.852 8.54688,4.7539 L 6.82813,55.707 8.54688,50.9531 C 6.36289,52.8551 2.83984,54.652 0,55.707" /><path
       inkscape:connector-curvature="0"
       id="path126"
       style="fill:none;stroke:#231f20;stroke-width:1;stroke-linecap:butt;stroke-linejoin:miter;stroke-miterlimit:4;stroke-opacity:1;stroke-dasharray:none"
       d="m 219.535,207.707 -62.5,0" /><path
       inkscape:connector-curvature="0"
       id="path128"
       style="fill:#231f20;fill-opacity:1;fill-rule:nonzero;stroke:none"
       d="m 151,207.707 c 2.84,1.055 6.363,2.852 8.547,4.754 l -1.719,-4.754 1.719,-4.754 c -2.184,1.902 -5.707,3.699 -8.547,4.754" /><g
       id="g130"><text
         id="text132"
         transform="matrix(1,0,0,-1,186.897,267.739)"><tspan
           id="tspan134"
           y="0"
           x="0"
           style="font-size:12px;font-style:italic;font-variant:normal;writing-mode:lr-tb;fill:#000000;fill-opacity:1;fill-rule:nonzero;stroke:none;font-family:Times New Roman;-inkscape-font-specification:TimesNewRomanPS-ItalicMT">n</tspan><tspan
           id="tspan136"
           sodipodi:role="line"
           y="2.4000001"
           x="6 12 18"
           style="font-size:12px;font-style:italic;font-variant:normal;writing-mode:lr-tb;fill:#000000;fill-opacity:1;fill-rule:nonzero;stroke:none;font-family:Times New Roman;-inkscape-font-specification:TimesNewRomanPS-ItalicMT">out</tspan><tspan
           id="tspan138"
           sodipodi:role="line"
           y="0"
           x="21.3281 24.3281 32.428101 35.428101"
           style="font-size:12px;font-style:italic;font-variant:normal;writing-mode:lr-tb;fill:#000000;fill-opacity:1;fill-rule:nonzero;stroke:none;font-family:Times New Roman;-inkscape-font-specification:TimesNewRomanPS-ItalicMT"> &gt; n</tspan><tspan
           id="tspan140"
           sodipodi:role="line"
           y="2.4000001"
           x="41.4375 44.773499"
           style="font-size:12px;font-style:italic;font-variant:normal;writing-mode:lr-tb;fill:#000000;fill-opacity:1;fill-rule:nonzero;stroke:none;font-family:Times New Roman;-inkscape-font-specification:TimesNewRomanPS-ItalicMT">in</tspan><tspan
           id="tspan142"
           y="144.66901"
           x="0"
           style="font-size:12px;font-style:italic;font-variant:normal;writing-mode:lr-tb;fill:#000000;fill-opacity:1;fill-rule:nonzero;stroke:none;font-family:Times New Roman;-inkscape-font-specification:TimesNewRomanPS-ItalicMT">n</tspan><tspan
           id="tspan144"
           sodipodi:role="line"
           y="147.069"
           x="6 12 18"
           style="font-size:12px;font-style:italic;font-variant:normal;writing-mode:lr-tb;fill:#000000;fill-opacity:1;fill-rule:nonzero;stroke:none;font-family:Times New Roman;-inkscape-font-specification:TimesNewRomanPS-ItalicMT">out</tspan><tspan
           id="tspan146"
           sodipodi:role="line"
           y="144.66901"
           x="21.3281 24.3281 32.428101 35.428101"
           style="font-size:12px;font-style:italic;font-variant:normal;writing-mode:lr-tb;fill:#000000;fill-opacity:1;fill-rule:nonzero;stroke:none;font-family:Times New Roman;-inkscape-font-specification:TimesNewRomanPS-ItalicMT"> &lt; n</tspan><tspan
           id="tspan148"
           sodipodi:role="line"
           y="147.069"
           x="41.4375 44.773499"
           style="font-size:12px;font-style:italic;font-variant:normal;writing-mode:lr-tb;fill:#000000;fill-opacity:1;fill-rule:nonzero;stroke:none;font-family:Times New Roman;-inkscape-font-specification:TimesNewRomanPS-ItalicMT">in</tspan><tspan
           id="tspan150"
           sodipodi:role="line"
           y="76.948303"
           x="-5.7870998 -1.1191 6.9808998"
           style="font-size:12px;font-style:italic;font-variant:normal;writing-mode:lr-tb;fill:#000000;fill-opacity:1;fill-rule:nonzero;stroke:none;font-family:Times New Roman;-inkscape-font-specification:TimesNewRomanPS-ItalicMT">r&lt;0</tspan><tspan
           id="tspan152"
           sodipodi:role="line"
           y="226.9343"
           x="28.308201 32.9762 41.076199"
           style="font-size:12px;font-style:italic;font-variant:normal;writing-mode:lr-tb;fill:#000000;fill-opacity:1;fill-rule:nonzero;stroke:none;font-family:Times New Roman;-inkscape-font-specification:TimesNewRomanPS-ItalicMT">r&gt;0</tspan><tspan
           id="tspan154"
           y="-0.00069999998"
           x="-165.6268"
           style="font-size:12px;font-style:italic;font-variant:normal;writing-mode:lr-tb;fill:#000000;fill-opacity:1;fill-rule:nonzero;stroke:none;font-family:Times New Roman;-inkscape-font-specification:TimesNewRomanPS-ItalicMT">n</tspan><tspan
           id="tspan156"
           sodipodi:role="line"
           y="2.3993001"
           x="-159.6268 -153.6268 -147.6268"
           style="font-size:12px;font-style:italic;font-variant:normal;writing-mode:lr-tb;fill:#000000;fill-opacity:1;fill-rule:nonzero;stroke:none;font-family:Times New Roman;-inkscape-font-specification:TimesNewRomanPS-ItalicMT">out</tspan><tspan
           id="tspan158"
           sodipodi:role="line"
           y="-0.00069999998"
           x="-144.29871 -141.29871 -133.1987 -130.1987"
           style="font-size:12px;font-style:italic;font-variant:normal;writing-mode:lr-tb;fill:#000000;fill-opacity:1;fill-rule:nonzero;stroke:none;font-family:Times New Roman;-inkscape-font-specification:TimesNewRomanPS-ItalicMT"> &gt; n</tspan><tspan
           id="tspan160"
           sodipodi:role="line"
           y="2.3993001"
           x="-124.1893 -120.8533"
           style="font-size:12px;font-style:italic;font-variant:normal;writing-mode:lr-tb;fill:#000000;fill-opacity:1;fill-rule:nonzero;stroke:none;font-family:Times New Roman;-inkscape-font-specification:TimesNewRomanPS-ItalicMT">in</tspan><tspan
           id="tspan162"
           y="144.6683"
           x="-165.6268"
           style="font-size:12px;font-style:italic;font-variant:normal;writing-mode:lr-tb;fill:#000000;fill-opacity:1;fill-rule:nonzero;stroke:none;font-family:Times New Roman;-inkscape-font-specification:TimesNewRomanPS-ItalicMT">n</tspan><tspan
           id="tspan164"
           sodipodi:role="line"
           y="147.0683"
           x="-159.6268 -153.6268 -147.6268"
           style="font-size:12px;font-style:italic;font-variant:normal;writing-mode:lr-tb;fill:#000000;fill-opacity:1;fill-rule:nonzero;stroke:none;font-family:Times New Roman;-inkscape-font-specification:TimesNewRomanPS-ItalicMT">out</tspan><tspan
           id="tspan166"
           sodipodi:role="line"
           y="144.6683"
           x="-144.29871 -141.29871 -133.1987 -130.1987"
           style="font-size:12px;font-style:italic;font-variant:normal;writing-mode:lr-tb;fill:#000000;fill-opacity:1;fill-rule:nonzero;stroke:none;font-family:Times New Roman;-inkscape-font-specification:TimesNewRomanPS-ItalicMT"> &lt; n</tspan><tspan
           id="tspan168"
           sodipodi:role="line"
           y="147.0683"
           x="-124.1893 -120.8533"
           style="font-size:12px;font-style:italic;font-variant:normal;writing-mode:lr-tb;fill:#000000;fill-opacity:1;fill-rule:nonzero;stroke:none;font-family:Times New Roman;-inkscape-font-specification:TimesNewRomanPS-ItalicMT">in</tspan><tspan
           id="tspan170"
           sodipodi:role="line"
           y="226.9339"
           x="-169.69321 -165.02521 -156.9252"
           style="font-size:12px;font-style:italic;font-variant:normal;writing-mode:lr-tb;fill:#000000;fill-opacity:1;fill-rule:nonzero;stroke:none;font-family:Times New Roman;-inkscape-font-specification:TimesNewRomanPS-ItalicMT">r&lt;0</tspan><tspan
           id="tspan172"
           sodipodi:role="line"
           y="76.947899"
           x="-129.9678 -125.2998 -117.1998"
           style="font-size:12px;font-style:italic;font-variant:normal;writing-mode:lr-tb;fill:#000000;fill-opacity:1;fill-rule:nonzero;stroke:none;font-family:Times New Roman;-inkscape-font-specification:TimesNewRomanPS-ItalicMT">r&gt;0</tspan></text>
</g></g></svg>