<?xml version="1.0" encoding="UTF-8" standalone="no"?>
<!-- Created with Inkscape (http://www.inkscape.org/) -->

<svg
   xmlns:dc="http://purl.org/dc/elements/1.1/"
   xmlns:cc="http://creativecommons.org/ns#"
   xmlns:rdf="http://www.w3.org/1999/02/22-rdf-syntax-ns#"
   xmlns:svg="http://www.w3.org/2000/svg"
   xmlns="http://www.w3.org/2000/svg"
   xmlns:sodipodi="http://sodipodi.sourceforge.net/DTD/sodipodi-0.dtd"
   xmlns:inkscape="http://www.inkscape.org/namespaces/inkscape"
   id="svg2"
   version="1.1"
   inkscape:version="0.48.5 r10040"
   width="448.75"
   height="241.25"
   xml:space="preserve"
   sodipodi:docname="image5.eps"><metadata
     id="metadata8"><rdf:RDF><cc:Work
         rdf:about=""><dc:format>image/svg+xml</dc:format><dc:type
           rdf:resource="http://purl.org/dc/dcmitype/StillImage" /><dc:title></dc:title></cc:Work></rdf:RDF></metadata><defs
     id="defs6"><clipPath
       clipPathUnits="userSpaceOnUse"
       id="clipPath18"><path
         d="m 0,1926.5 3590,0 0,-1920 -3590,0 0,1920 z"
         id="path20" /></clipPath></defs><sodipodi:namedview
     pagecolor="#ffffff"
     bordercolor="#666666"
     borderopacity="1"
     objecttolerance="10"
     gridtolerance="10"
     guidetolerance="10"
     inkscape:pageopacity="0"
     inkscape:pageshadow="2"
     inkscape:window-width="640"
     inkscape:window-height="480"
     id="namedview4"
     showgrid="false"
     inkscape:zoom="0.84233983"
     inkscape:cx="224.375"
     inkscape:cy="120.625"
     inkscape:window-x="0"
     inkscape:window-y="0"
     inkscape:window-maximized="0"
     inkscape:current-layer="g10" /><g
     id="g10"
     inkscape:groupmode="layer"
     inkscape:label="ink_ext_XXXXXX"
     transform="matrix(1.25,0,0,-1.25,0,241.25)"><g
       id="g12"
       transform="scale(0.1,0.1)"><g
         id="g14"><g
           id="g16"
           clip-path="url(#clipPath18)"><path
             d="M 1973.98,1922.52 C 1707.7,1690.6 1539.49,1349.08 1539.49,968.262 1539.49,587.398 1707.7,245.91 1973.98,14 l 1604.77,0 0,1908.52"
             style="fill:#cacaca;fill-opacity:1;fill-rule:nonzero;stroke:none"
             id="path22" /><path
             d="M 1973.98,1922.52 C 1707.7,1690.6 1539.49,1349.08 1539.49,968.262 1539.49,587.398 1707.7,245.91 1973.98,14 l 1604.77,0 0,1908.52 -1604.77,0 z"
             style="fill:none;stroke:#000000;stroke-opacity:1;stroke-width:8;stroke-linecap:butt;stroke-linejoin:miter;stroke-miterlimit:4;stroke-dasharray:none"
             id="path24" /><path
             d="m 2866.13,969.391 c 0,-10.082 -8.16,-18.282 -18.24,-18.282 -10.08,0 -18.24,8.2 -18.24,18.282 0,10.078 8.16,18.238 18.24,18.238 10.08,0 18.24,-8.16 18.24,-18.238"
             style="fill:#000000;fill-opacity:1;fill-rule:nonzero;stroke:none"
             id="path26" /><path
             d="m 3460.9,968.531 -3460.8609375,0"
             style="fill:none;stroke:#000000;stroke-opacity:1;stroke-width:8.93068;stroke-linecap:butt;stroke-linejoin:miter;stroke-miterlimit:4;stroke-dasharray:none"
             id="path28" /><path
             d="M 24.3789,1314 1590.12,1302.55 3452.97,971.148"
             style="fill:none;stroke:#000000;stroke-opacity:1;stroke-width:8;stroke-linecap:butt;stroke-linejoin:miter;stroke-miterlimit:4;stroke-dasharray:none"
             id="path30" /><path
             d="m 24.3789,1656.85 1725.7411,5.7 1725.7,-697.101"
             style="fill:none;stroke:#000000;stroke-opacity:1;stroke-width:8;stroke-linecap:butt;stroke-linejoin:miter;stroke-miterlimit:4;stroke-dasharray:none"
             id="path32" /><path
             d="M 30.1211,622.551 1595.82,634 3458.67,965.449"
             style="fill:none;stroke:#000000;stroke-opacity:1;stroke-width:8;stroke-linecap:butt;stroke-linejoin:miter;stroke-miterlimit:4;stroke-dasharray:none"
             id="path34" /><path
             d="m 1542.7,966.77 1270.62,0"
             style="fill:none;stroke:#000000;stroke-opacity:1;stroke-width:24;stroke-linecap:butt;stroke-linejoin:miter;stroke-miterlimit:4;stroke-dasharray:none"
             id="path36" /><path
             d="m 2687.77,1024.86 157.35,-57.848 -157.35,-57.852 c 25.16,34.141 25,80.86 0,115.7"
             style="fill:#000000;fill-opacity:1;fill-rule:evenodd;stroke:none"
             id="path38" /><path
             d="m 17.2305,280.68 1725.6995,-5.7 1725.7,697.141"
             style="fill:none;stroke:#000000;stroke-opacity:1;stroke-width:8;stroke-linecap:butt;stroke-linejoin:miter;stroke-miterlimit:4;stroke-dasharray:none"
             id="path40" /><path
             d="m 1592.03,1441.7 c 323.13,463.67 317.62,463.67 317.62,463.67"
             style="fill:none;stroke:#000000;stroke-opacity:1;stroke-width:8;stroke-linecap:butt;stroke-linejoin:miter;stroke-miterlimit:4;stroke-dasharray:none"
             id="path42" /><path
             d="m 1445.86,1851.15 c 585.16,-371.21 585.16,-364.92 585.16,-364.92"
             style="fill:none;stroke:#000000;stroke-opacity:1;stroke-width:8;stroke-linecap:butt;stroke-linejoin:miter;stroke-miterlimit:4;stroke-dasharray:32,32;stroke-dashoffset:0"
             id="path44" /><g
             id="g46"
             transform="scale(10,10)"><text
               transform="matrix(1,0,0,-1,170.877,175.586)"
               id="text48"><tspan
                 style="fill:#000000;fill-opacity:1;fill-rule:nonzero;stroke:none;font-family:Cambria;font-variant:normal;font-weight:normal;font-size:9.6;writing-mode:lr;-inkscape-font-specification:Cambria"
                 x="0"
                 y="0"
                 id="tspan50">a</tspan><tspan
                 style="fill:#000000;fill-opacity:1;fill-rule:nonzero;stroke:none;font-family:Cambria;font-variant:normal;font-weight:normal;font-size:9.6;writing-mode:lr;-inkscape-font-specification:Cambria"
                 x="20.7402 24.7146 29.3994 34.7274 37.3962 42.6954 48.937464"
                 y="74.2488"
                 sodipodi:role="line"
                 id="tspan52">radiusr</tspan><tspan
                 style="fill:#000000;fill-opacity:1;fill-rule:nonzero;stroke:none;font-family:Cambria;font-variant:normal;font-weight:normal;font-size:9.6;writing-mode:lr;-inkscape-font-specification:Cambria"
                 x="-136.9788 -133.0044 -128.3196 -125.4108 -121.4364 -116.7516 -112.518 -109.2732 -106.6044 -101.766 -94.967136 -92.298336 -86.941536 -81.613536 -76.928736 -70.1489664 -62.7165024"
                 y="162.7176"
                 sodipodi:role="line"
                 id="tspan54">refractiveindex=n</tspan></text>
<text
               transform="matrix(1,0,0,-1,113.5294,10.94848)"
               id="text56"><tspan
                 style="fill:#000000;fill-opacity:1;fill-rule:nonzero;stroke:none;font-family:Cambria;font-variant:normal;font-weight:normal;font-size:6.24009;writing-mode:lr;-inkscape-font-specification:Cambria"
                 x="0 1.73474502"
                 y="0"
                 sodipodi:role="line"
                 id="tspan58">in</tspan></text>
<text
               transform="matrix(1,0,0,-1,227.3904,15.45356)"
               id="text60"><tspan
                 style="fill:#000000;fill-opacity:1;fill-rule:nonzero;stroke:none;font-family:Cambria;font-variant:normal;font-weight:normal;font-size:9.6;writing-mode:lr;-inkscape-font-specification:Cambria"
                 x="0 3.9744 8.6592 11.568 15.5424 20.2272 24.4608 27.7056 30.3744 35.2128 42.011664 44.680464 50.037264 55.365264 60.050064 66.8298336 74.2622976"
                 y="0"
                 sodipodi:role="line"
                 id="tspan62">refractiveindex=n</tspan></text>
<text
               transform="matrix(1,0,0,-1,307.0216,13.53364)"
               id="text64"><tspan
                 style="fill:#000000;fill-opacity:1;fill-rule:nonzero;stroke:none;font-family:Cambria;font-variant:normal;font-weight:normal;font-size:6.24009;writing-mode:lr;-inkscape-font-specification:Cambria"
                 x="0 3.31348779 6.75801747"
                 y="0"
                 sodipodi:role="line"
                 id="tspan66">out</tspan></text>
</g></g></g></g></g></svg>