<?xml version="1.0" encoding="UTF-8" standalone="no"?>
<!-- Created with Inkscape (http://www.inkscape.org/) -->

<svg
   xmlns:dc="http://purl.org/dc/elements/1.1/"
   xmlns:cc="http://creativecommons.org/ns#"
   xmlns:rdf="http://www.w3.org/1999/02/22-rdf-syntax-ns#"
   xmlns:svg="http://www.w3.org/2000/svg"
   xmlns="http://www.w3.org/2000/svg"
   xmlns:sodipodi="http://sodipodi.sourceforge.net/DTD/sodipodi-0.dtd"
   xmlns:inkscape="http://www.inkscape.org/namespaces/inkscape"
   id="svg2"
   version="1.1"
   inkscape:version="0.48.5 r10040"
   width="630"
   height="216.25"
   xml:space="preserve"
   sodipodi:docname="image3.eps"><metadata
     id="metadata8"><rdf:RDF><cc:Work
         rdf:about=""><dc:format>image/svg+xml</dc:format><dc:type
           rdf:resource="http://purl.org/dc/dcmitype/StillImage" /><dc:title></dc:title></cc:Work></rdf:RDF></metadata><defs
     id="defs6"><clipPath
       clipPathUnits="userSpaceOnUse"
       id="clipPath18"><path
         d="m 0,1722.6 5040,0 0,-1719.99844 -5040,0 L 0,1722.6 z"
         id="path20" /></clipPath></defs><sodipodi:namedview
     pagecolor="#ffffff"
     bordercolor="#666666"
     borderopacity="1"
     objecttolerance="10"
     gridtolerance="10"
     guidetolerance="10"
     inkscape:pageopacity="0"
     inkscape:pageshadow="2"
     inkscape:window-width="640"
     inkscape:window-height="480"
     id="namedview4"
     showgrid="false"
     inkscape:zoom="0.6"
     inkscape:cx="315"
     inkscape:cy="108.125"
     inkscape:window-x="0"
     inkscape:window-y="0"
     inkscape:window-maximized="0"
     inkscape:current-layer="g10" /><g
     id="g10"
     inkscape:groupmode="layer"
     inkscape:label="ink_ext_XXXXXX"
     transform="matrix(1.25,0,0,-1.25,0,216.25)"><g
       id="g12"
       transform="scale(0.1,0.1)"><g
         id="g14"><g
           id="g16"
           clip-path="url(#clipPath18)"><path
             d="m 937.461,1533.85 c 0,0 -413.981,6.02 -605.981,-101.99 -192.031,-108.01 -216.011,-281.99 -216.011,-378.01 0,-95.979 71.992,-359.998 60,-456.022 C 163.48,501.859 61.4805,465.84 103.48,345.84 145.469,225.84 277.461,111.859 445.469,75.8398 613.48,39.8711 937.461,27.8281 937.461,27.8281 l 0,1506.0219"
             style="fill:#d0d0d0;fill-opacity:1;fill-rule:nonzero;stroke:none"
             id="path22" /><path
             d="m 933.398,1540.53 0,-1499.9987"
             style="fill:none;stroke:#231f20;stroke-opacity:1;stroke-width:10;stroke-linecap:butt;stroke-linejoin:miter;stroke-miterlimit:4;stroke-dasharray:none"
             id="path24" /><path
             d="m 176.051,800.531 1477.349,0"
             style="fill:none;stroke:#231f20;stroke-opacity:1;stroke-width:10;stroke-linecap:butt;stroke-linejoin:miter;stroke-miterlimit:4;stroke-dasharray:120,120;stroke-dashoffset:0"
             id="path26" /><path
             d="m 2622.46,1533.85 c 0,0 -413.98,6.02 -605.98,-101.99 -192.03,-108.01 -216.01,-281.99 -216.01,-378.01 0,-95.979 71.99,-359.998 60,-456.022 -11.99,-95.969 -113.99,-131.988 -71.99,-251.988 41.99,-120 173.98,-233.981 341.99,-270.0002 168.01,-35.9687 491.99,-48.0117 491.99,-48.0117 l 0,1506.0219"
             style="fill:#d0d0d0;fill-opacity:1;fill-rule:nonzero;stroke:none"
             id="path28" /><path
             d="m 2618.4,1540.53 0,-1499.9987"
             style="fill:none;stroke:#231f20;stroke-opacity:1;stroke-width:10;stroke-linecap:butt;stroke-linejoin:miter;stroke-miterlimit:4;stroke-dasharray:none"
             id="path30" /><path
             d="m 1861.05,800.531 1477.35,0"
             style="fill:none;stroke:#231f20;stroke-opacity:1;stroke-width:10;stroke-linecap:butt;stroke-linejoin:miter;stroke-miterlimit:4;stroke-dasharray:120,120;stroke-dashoffset:0"
             id="path32" /><path
             d="m 2274.73,572.762 c -44.42,65.539 -70.35,144.609 -70.35,229.718"
             style="fill:none;stroke:#231f20;stroke-opacity:1;stroke-width:10;stroke-linecap:butt;stroke-linejoin:miter;stroke-miterlimit:4;stroke-dasharray:none"
             id="path34" /><g
             id="g36"
             transform="scale(10,10)"><text
               transform="matrix(1,0,0,-1,201.642,59.4391)"
               id="text38"><tspan
                 style="fill:#231f20;fill-opacity:1;fill-rule:nonzero;stroke:none;font-family:f-0;font-variant:normal;font-size:10.8;writing-mode:lr;-inkscape-font-specification:f-0-1"
                 x="0"
                 y="0"
                 id="tspan40">θ</tspan></text>
</g><path
             d="m 4322.46,1543.85 c 0,0 -413.98,6.02 -605.98,-101.99 -192.03,-108.01 -216.01,-281.99 -216.01,-378.01 0,-95.979 71.99,-359.998 60,-456.022 -11.99,-95.969 -113.99,-131.988 -71.99,-251.988 41.99,-120 173.98,-233.981 341.99,-270.0002 168.01,-35.9687 491.99,-48.0117 491.99,-48.0117 l 0,1506.0219"
             style="fill:#d0d0d0;fill-opacity:1;fill-rule:nonzero;stroke:none"
             id="path42" /><path
             d="m 4318.4,1550.53 0,-1499.9987"
             style="fill:none;stroke:#231f20;stroke-opacity:1;stroke-width:10;stroke-linecap:butt;stroke-linejoin:miter;stroke-miterlimit:4;stroke-dasharray:none"
             id="path44" /><path
             d="m 3561.05,810.531 1477.35,0"
             style="fill:none;stroke:#231f20;stroke-opacity:1;stroke-width:10;stroke-linecap:butt;stroke-linejoin:miter;stroke-miterlimit:4;stroke-dasharray:120,120;stroke-dashoffset:0"
             id="path46" /><path
             d="m 2614.53,798.578 0,823.902"
             style="fill:none;stroke:#231f20;stroke-opacity:1;stroke-width:20;stroke-linecap:butt;stroke-linejoin:miter;stroke-miterlimit:4;stroke-dasharray:none"
             id="path48" /><path
             d="m 2614.53,1682.83 c 10.55,-28.39 28.52,-63.63 47.58,-85.46 l -47.58,17.22 -47.54,-17.22 c 19.03,21.83 37.03,57.07 47.54,85.46"
             style="fill:#231f20;fill-opacity:1;fill-rule:nonzero;stroke:none"
             id="path50" /><path
             d="m 1812.7,259.16 798.59,540.59"
             style="fill:none;stroke:#231f20;stroke-opacity:1;stroke-width:20;stroke-linecap:butt;stroke-linejoin:miter;stroke-miterlimit:4;stroke-dasharray:none"
             id="path52" /><path
             d="M 2.69922,529.16 929.449,799.359"
             style="fill:none;stroke:#231f20;stroke-opacity:1;stroke-width:20;stroke-linecap:butt;stroke-linejoin:miter;stroke-miterlimit:4;stroke-dasharray:none"
             id="path54" /><path
             d="M 939.379,805.84 1392.7,1669.16"
             style="fill:none;stroke:#231f20;stroke-opacity:1;stroke-width:20;stroke-linecap:butt;stroke-linejoin:miter;stroke-miterlimit:4;stroke-dasharray:none"
             id="path56" /><path
             d="m 1420.78,1722.6 c -3.9,-30.04 -4.33,-69.61 2.35,-97.77 l -34.11,37.34 -50.07,6.88 c 26.99,10.46 59.29,33.32 81.83,53.55"
             style="fill:#231f20;fill-opacity:1;fill-rule:nonzero;stroke:none"
             id="path58" /><path
             d="M 3732.7,15.8398 4312.77,811.969"
             style="fill:none;stroke:#231f20;stroke-opacity:1;stroke-width:20;stroke-linecap:butt;stroke-linejoin:miter;stroke-miterlimit:4;stroke-dasharray:none"
             id="path60" /><path
             d="M 4320.12,799.871 3766.05,1575.22"
             style="fill:none;stroke:#231f20;stroke-opacity:1;stroke-width:20;stroke-linecap:butt;stroke-linejoin:miter;stroke-miterlimit:4;stroke-dasharray:none"
             id="path62" /><path
             d="m 3730.82,1624.24 c 25.12,-16.91 60.27,-35.04 88.48,-41.68 l -48.64,-13.75 -28.59,-41.72 c 2.73,28.83 -3.24,67.93 -11.25,97.15"
             style="fill:#231f20;fill-opacity:1;fill-rule:nonzero;stroke:none"
             id="path64" /><path
             d="m 3059.38,809.16 c 0,241.37 -195.32,436.68 -436.65,436.68"
             style="fill:none;stroke:#231f20;stroke-opacity:1;stroke-width:10;stroke-linecap:butt;stroke-linejoin:miter;stroke-miterlimit:4;stroke-dasharray:none"
             id="path66" /><path
             d="M 535.039,682.211 C 524.84,718.34 519.379,756.43 519.379,795.84"
             style="fill:none;stroke:#231f20;stroke-opacity:1;stroke-width:10;stroke-linecap:butt;stroke-linejoin:miter;stroke-miterlimit:4;stroke-dasharray:none"
             id="path68" /><path
             d="M 1126.45,1166.55 C 1260.82,1097.4 1352.7,957.371 1352.7,795.84"
             style="fill:none;stroke:#231f20;stroke-opacity:1;stroke-width:10;stroke-linecap:butt;stroke-linejoin:miter;stroke-miterlimit:4;stroke-dasharray:none"
             id="path70" /><g
             id="g72"
             transform="scale(10,10)"><text
               transform="matrix(1,0,0,-1,205.605,55.25)"
               id="text74"><tspan
                 style="fill:#231f20;fill-opacity:1;fill-rule:nonzero;stroke:none;font-family:f-0;font-variant:normal;font-size:7;writing-mode:lr;-inkscape-font-specification:f-0-0"
                 x="0 3.5 5.831 7.385"
                 y="0"
                 sodipodi:role="line"
                 id="tspan76">crit</tspan></text>
<text
               transform="matrix(1,0,0,-1,273.0581,130.1063)"
               id="text78"><tspan
                 style="fill:#231f20;fill-opacity:1;fill-rule:nonzero;stroke:none;font-family:f-0;font-variant:normal;font-size:10.8;writing-mode:lr;-inkscape-font-specification:f-0-1"
                 x="0"
                 y="0"
                 id="tspan80">θ</tspan></text>
<text
               transform="matrix(1,0,0,-1,278.91708,126.51021)"
               id="text82"><tspan
                 style="fill:#231f20;fill-opacity:1;fill-rule:nonzero;stroke:none;font-family:f-0;font-variant:normal;font-size:6.2964;writing-mode:lr;-inkscape-font-specification:f-0-0"
                 x="0 2.0967012 5.5974996 7.3478988 9.44398965 12.94478805 16.09298805 17.84378033 21.34457873"
                 y="0"
                 sodipodi:role="line"
                 id="tspan84">refracted</tspan></text>
<text
               transform="matrix(1,0,0,-1,303.76398,130.1063)"
               id="text86"><tspan
                 style="fill:#231f20;fill-opacity:1;fill-rule:nonzero;stroke:none;font-family:f-0;font-variant:normal;font-size:10.8;writing-mode:lr;-inkscape-font-specification:f-0-0"
                 x="0 6.30702012 12.31182012"
                 y="0"
                 sodipodi:role="line"
                 id="tspan88">=90</tspan></text>
<text
               transform="matrix(1,0,0,-1,32.64198,67.4391)"
               id="text90"><tspan
                 style="fill:#231f20;fill-opacity:1;fill-rule:nonzero;stroke:none;font-family:f-0;font-variant:normal;font-size:10.8;writing-mode:lr;-inkscape-font-specification:f-0-1"
                 x="0"
                 y="0"
                 id="tspan92">θ</tspan><tspan
                 style="fill:#231f20;fill-opacity:1;fill-rule:nonzero;stroke:none;font-family:f-0;font-variant:normal;font-size:10.8;writing-mode:lr;-inkscape-font-specification:f-0-1"
                 x="93.9094"
                 y="-47"
                 id="tspan94">θ</tspan></text>
<text
               transform="matrix(1,0,0,-1,132.41036,110.84301)"
               id="text96"><tspan
                 style="fill:#231f20;fill-opacity:1;fill-rule:nonzero;stroke:none;font-family:f-0;font-variant:normal;font-size:6.2964;writing-mode:lr;-inkscape-font-specification:f-0-0"
                 x="0 2.0967012 5.5974996 7.34788902 9.44358925 12.94438765 16.09258765 17.84297707 21.34377547"
                 y="0"
                 sodipodi:role="line"
                 id="tspan98">refracted</tspan></text>
</g></g></g></g></g></svg>