<?xml version="1.0" encoding="UTF-8" standalone="no"?>
<!-- Generator: Adobe Illustrator 17.1.0, SVG Export Plug-In . SVG Version: 6.00 Build 0)  -->

<svg
   xmlns:dc="http://purl.org/dc/elements/1.1/"
   xmlns:cc="http://creativecommons.org/ns#"
   xmlns:rdf="http://www.w3.org/1999/02/22-rdf-syntax-ns#"
   xmlns:svg="http://www.w3.org/2000/svg"
   xmlns="http://www.w3.org/2000/svg"
   xmlns:sodipodi="http://sodipodi.sourceforge.net/DTD/sodipodi-0.dtd"
   xmlns:inkscape="http://www.inkscape.org/namespaces/inkscape"
   version="1.1"
   id="Capa_1"
   x="0px"
   y="0px"
   viewBox="0 0 30.000001 30.000001"
   xml:space="preserve"
   sodipodi:docname="one-finger-click.svg"
   width="30"
   height="30"
   inkscape:version="0.92.3 (2405546, 2018-03-11)"><metadata
   id="metadata51"><rdf:RDF><cc:Work
       rdf:about=""><dc:format>image/svg+xml</dc:format><dc:type
         rdf:resource="http://purl.org/dc/dcmitype/StillImage" /><dc:title></dc:title></cc:Work></rdf:RDF></metadata><defs
   id="defs49" /><sodipodi:namedview
   pagecolor="#ffffff"
   bordercolor="#666666"
   borderopacity="1"
   objecttolerance="10"
   gridtolerance="10"
   guidetolerance="10"
   inkscape:pageopacity="0"
   inkscape:pageshadow="2"
   inkscape:window-width="1920"
   inkscape:window-height="1017"
   id="namedview47"
   showgrid="false"
   fit-margin-top="0"
   fit-margin-left="0"
   fit-margin-right="0"
   fit-margin-bottom="0"
   inkscape:zoom="4.0003431"
   inkscape:cx="-33.26202"
   inkscape:cy="9.9995589"
   inkscape:window-x="-8"
   inkscape:window-y="-8"
   inkscape:window-maximized="1"
   inkscape:current-layer="g14" />
<g
   id="g14"
   transform="matrix(0.06316015,0,0,0.06316015,-2.6419891,9.999897)"
   style="stroke-width:15.83276749">
	
	
	
	
	
	<g
   id="g864"
   transform="matrix(1.5124534,0,0,1.5124534,41.889716,-158.3141)"
   style="stroke-width:10.46826839"><path
     inkscape:connector-curvature="0"
     id="path2"
     d="m 257.591,183.075 c -11.104,-12.792 -26.45,-21.154 -43.217,-23.551 l -38.492,-6.036 V 86.313 c 0,-15.952 -12.979,-28.93 -28.931,-28.93 h -0.433 c -15.952,0 -28.931,12.978 -28.931,28.93 V 194.194 L 77.794,177.14 c -7.993,-3.425 -17.104,-2.614 -24.367,2.176 -7.262,4.788 -11.597,12.841 -11.597,21.539 v 0.363 c 0,7.361 3.155,14.389 8.656,19.28 l 67.102,59.669 v 28.989 c 0,4.143 3.357,7.5 7.5,7.5 4.143,0 7.5,-3.357 7.5,-7.5 V 276.8 c 0,-2.142 -0.916,-4.182 -2.517,-5.604 L 60.453,209.29 c -2.303,-2.048 -3.623,-4.989 -3.623,-8.071 v -0.363 c 0,-3.695 1.77,-6.982 4.854,-9.017 3.087,-2.035 6.807,-2.366 10.201,-0.911 l 50.24,21.532 c 0.462,0.199 0.948,0.355 1.453,0.458 0.751,0.155 1.509,0.189 2.25,0.114 0.084,-0.008 0.166,-0.024 0.249,-0.035 0.155,-0.021 0.311,-0.041 0.464,-0.071 0.134,-0.026 0.265,-0.063 0.396,-0.096 0.1,-0.026 0.2,-0.047 0.299,-0.077 0.149,-0.044 0.294,-0.098 0.439,-0.152 0.08,-0.029 0.162,-0.056 0.241,-0.088 0.142,-0.058 0.28,-0.124 0.417,-0.19 0.081,-0.039 0.164,-0.075 0.243,-0.117 0.123,-0.065 0.241,-0.137 0.36,-0.208 0.091,-0.055 0.184,-0.107 0.273,-0.166 0.1,-0.066 0.194,-0.138 0.291,-0.208 0.102,-0.075 0.205,-0.147 0.304,-0.227 0.079,-0.064 0.153,-0.134 0.23,-0.201 0.106,-0.094 0.214,-0.187 0.315,-0.287 0.068,-0.067 0.131,-0.139 0.196,-0.208 0.1,-0.106 0.2,-0.21 0.293,-0.323 0.072,-0.086 0.136,-0.177 0.204,-0.265 0.078,-0.102 0.157,-0.201 0.23,-0.307 0.092,-0.135 0.175,-0.275 0.258,-0.416 0.04,-0.067 0.083,-0.13 0.121,-0.198 0.36,-0.652 0.628,-1.362 0.782,-2.114 0.104,-0.503 0.152,-1.01 0.152,-1.512 V 86.313 c 0,-7.681 6.249,-13.93 13.931,-13.93 h 0.433 c 7.682,0 13.931,6.249 13.931,13.93 v 72.025 c 0,0.277 0.018,0.551 0.047,0.82 -0.396,3.933 2.339,7.535 6.291,8.154 l 44.88,7.037 c 0.036,0.006 0.071,0.011 0.107,0.017 27.148,3.857 47.621,27.444 47.621,54.866 v 0.766 c 0,12.69 -3.097,25.349 -8.956,36.606 l -20.345,39.088 c -1.913,3.675 -0.484,8.203 3.189,10.115 1.106,0.576 2.29,0.85 3.457,0.85 2.707,0 5.322,-1.472 6.658,-4.039 l 20.345,-39.088 c 6.969,-13.388 10.651,-28.44 10.651,-43.532 v -0.766 c 0.003,-16.957 -6.119,-33.349 -17.234,-46.157 z"
     style="fill:#222220;stroke-width:165.74163818" /><path
     inkscape:connector-curvature="0"
     id="path4"
     d="m 146.735,37.79 c 4.143,0 7.5,-3.357 7.5,-7.5 V 7.5 c 0,-4.143 -3.357,-7.5 -7.5,-7.5 -4.143,0 -7.5,3.357 -7.5,7.5 v 22.79 c 0,4.143 3.358,7.5 7.5,7.5 z"
     style="fill:#222220;stroke-width:165.74163818" /><path
     inkscape:connector-curvature="0"
     id="path6"
     d="m 193.189,98.897 c 0,4.143 3.357,7.5 7.5,7.5 h 22.79 c 4.143,0 7.5,-3.357 7.5,-7.5 0,-4.143 -3.357,-7.5 -7.5,-7.5 h -22.79 c -4.142,0 -7.5,3.358 -7.5,7.5 z"
     style="fill:#222220;stroke-width:165.74163818" /><path
     inkscape:connector-curvature="0"
     id="path8"
     d="m 194.744,56.468 c 1.919,0 3.839,-0.732 5.304,-2.196 l 16.115,-16.115 c 2.929,-2.93 2.929,-7.678 0,-10.607 -2.93,-2.928 -7.678,-2.928 -10.607,0 L 189.44,43.664 c -2.929,2.93 -2.929,7.678 0,10.607 1.465,1.464 3.385,2.197 5.304,2.197 z"
     style="fill:#222220;stroke-width:165.74163818" /><path
     inkscape:connector-curvature="0"
     id="path10"
     d="m 87.521,54.271 c 1.465,1.464 3.385,2.196 5.304,2.196 1.919,0 3.839,-0.732 5.304,-2.196 2.929,-2.93 2.929,-7.678 0,-10.607 L 82.013,27.549 c -2.93,-2.928 -7.678,-2.928 -10.607,0 -2.929,2.93 -2.929,7.678 0,10.607 z"
     style="fill:#222220;stroke-width:165.74163818" /><path
     inkscape:connector-curvature="0"
     id="path12"
     d="m 64.419,106.397 h 22.79 c 4.143,0 7.5,-3.357 7.5,-7.5 0,-4.143 -3.357,-7.5 -7.5,-7.5 h -22.79 c -4.143,0 -7.5,3.357 -7.5,7.5 0,4.143 3.357,7.5 7.5,7.5 z"
     style="fill:#222220;stroke-width:165.74163818" /></g>
</g>
<g
   id="g16"
   transform="translate(-150.9695,-138.32855)">
</g>
<g
   id="g18"
   transform="translate(-150.9695,-138.32855)">
</g>
<g
   id="g20"
   transform="translate(-150.9695,-138.32855)">
</g>
<g
   id="g22"
   transform="translate(-150.9695,-138.32855)">
</g>
<g
   id="g24"
   transform="translate(-150.9695,-138.32855)">
</g>
<g
   id="g26"
   transform="translate(-150.9695,-138.32855)">
</g>
<g
   id="g28"
   transform="translate(-150.9695,-138.32855)">
</g>
<g
   id="g30"
   transform="translate(-150.9695,-138.32855)">
</g>
<g
   id="g32"
   transform="translate(-150.9695,-138.32855)">
</g>
<g
   id="g34"
   transform="translate(-150.9695,-138.32855)">
</g>
<g
   id="g36"
   transform="translate(-150.9695,-138.32855)">
</g>
<g
   id="g38"
   transform="translate(-150.9695,-138.32855)">
</g>
<g
   id="g40"
   transform="translate(-150.9695,-138.32855)">
</g>
<g
   id="g42"
   transform="translate(-150.9695,-138.32855)">
</g>
<g
   id="g44"
   transform="translate(-150.9695,-138.32855)">
</g>
</svg>